<?xml version="1.0" encoding="UTF-8" standalone="no"?>
<!-- Created with Inkscape (http://www.inkscape.org/) -->

<svg
   xmlns:dc="http://purl.org/dc/elements/1.1/"
   xmlns:cc="http://creativecommons.org/ns#"
   xmlns:rdf="http://www.w3.org/1999/02/22-rdf-syntax-ns#"
   xmlns:svg="http://www.w3.org/2000/svg"
   xmlns="http://www.w3.org/2000/svg"
   xmlns:xlink="http://www.w3.org/1999/xlink"
   xmlns:sodipodi="http://sodipodi.sourceforge.net/DTD/sodipodi-0.dtd"
   xmlns:inkscape="http://www.inkscape.org/namespaces/inkscape"
   width="252.6756mm"
   height="209.07722mm"
   viewBox="0 0 895.30724 740.82481"
   id="svg2"
   version="1.1"
   inkscape:version="0.91 r13725"
   sodipodi:docname="table_interpolation_step3.svg">
  <sodipodi:namedview
     id="base"
     pagecolor="#ffffff"
     bordercolor="#666666"
     borderopacity="1.0"
     inkscape:pageopacity="0.0"
     inkscape:pageshadow="2"
     inkscape:zoom="0.89934144"
     inkscape:cx="266.40083"
     inkscape:cy="292.7192"
     inkscape:document-units="px"
     inkscape:current-layer="layer2"
     showgrid="true"
     inkscape:snap-grids="false"
     inkscape:snap-to-guides="false"
     inkscape:window-width="1920"
     inkscape:window-height="994"
     inkscape:window-x="0"
     inkscape:window-y="28"
     inkscape:window-maximized="1"
     fit-margin-top="0"
     fit-margin-left="0"
     fit-margin-right="0"
     fit-margin-bottom="0">
    <inkscape:grid
       type="xygrid"
       id="grid4136"
       originx="-19.084357"
       originy="-486.16559" />
  </sodipodi:namedview>
  <defs
     id="defs4" />
  <metadata
     id="metadata7">
    <rdf:RDF>
      <cc:Work
         rdf:about="">
        <dc:format>image/svg+xml</dc:format>
        <dc:type
           rdf:resource="http://purl.org/dc/dcmitype/StillImage" />
        <dc:title></dc:title>
      </cc:Work>
    </rdf:RDF>
  </metadata>
  <g
     inkscape:label="Layer 1"
     inkscape:groupmode="layer"
     id="layer1"
     transform="translate(-19.084358,174.62822)">
    <path
       style="fill:none;fill-rule:evenodd;stroke:#b92ca7;stroke-width:4.00511503;stroke-linecap:butt;stroke-linejoin:miter;stroke-miterlimit:4;stroke-dasharray:none;stroke-opacity:1"
       d="m 914.39159,512.99265 -833.734366,0 m 0,0 0,-687.6209"
       id="path4138"
       inkscape:connector-curvature="0"
       sodipodi:nodetypes="cccc" />
    <path
       style="fill:none;fill-rule:evenodd;stroke:#3aacc5;stroke-width:4.0431819;stroke-linecap:butt;stroke-linejoin:miter;stroke-miterlimit:4;stroke-dasharray:none;stroke-opacity:1"
       d="M 63.084479,537.30247 C 485.51323,-68.112526 485.51323,-68.112526 485.51323,-68.112526"
       id="path4144"
       inkscape:connector-curvature="0" />
    <path
       style="fill:none;fill-rule:evenodd;stroke:#963fc6;stroke-width:3;stroke-linecap:butt;stroke-linejoin:miter;stroke-miterlimit:4;stroke-dasharray:none;stroke-opacity:1"
       d="m 183.32074,370.80753 c 458.28677,0 458.28677,0 458.28677,0"
       id="path4146"
       inkscape:connector-curvature="0" />
    <circle
       style="opacity:1;fill:#a1b4d3;fill-opacity:1;stroke:#963fc6;stroke-width:3;stroke-miterlimit:4;stroke-dasharray:none;stroke-dashoffset:0;stroke-opacity:1"
       id="path4219"
       cx="373.41885"
       cy="408.67166"
       r="9.1396217" />
    <path
       style="fill:none;fill-rule:evenodd;stroke:#000000;stroke-width:3;stroke-linecap:butt;stroke-linejoin:miter;stroke-miterlimit:4;stroke-dasharray:9, 9;stroke-dashoffset:0;stroke-opacity:1"
       d="m 300.40132,306.23052 98.9613,21.12657"
       id="path8475"
       inkscape:connector-curvature="0" />
  </g>
  <g
     inkscape:groupmode="layer"
     id="layer2"
     inkscape:label="Layer 2"
     transform="translate(-19.084358,174.62822)">
    <path
       style="fill:none;fill-rule:evenodd;stroke:#dd1a1a;stroke-width:10;stroke-linecap:butt;stroke-linejoin:miter;stroke-miterlimit:4;stroke-dasharray:none;stroke-opacity:1"
       d="M 280.33203,332.71376 C 287.1875,322.51845 293.75,312.3622 300,302.3622 c 6.25,-10 12.1875,-19.84375 17.79297,-29.41406"
       id="path4140"
       inkscape:connector-curvature="0"
       sodipodi:nodetypes="csc" />
    <path
       style="fill:none;fill-rule:evenodd;stroke:#ac9f46;stroke-width:10;stroke-linecap:butt;stroke-linejoin:miter;stroke-miterlimit:4;stroke-dasharray:none;stroke-opacity:1"
       d="m 363.93114,353.83044 c 8.97004,-5.99118 17.45938,-12.29189 25.49225,-18.83421 8.03287,-6.54233 15.60927,-13.32628 22.75342,-20.28396"
       id="path4148"
       inkscape:connector-curvature="0"
       sodipodi:nodetypes="csc" />
    <path
       style="fill:none;fill-rule:evenodd;stroke:#d63061;stroke-width:2;stroke-linecap:butt;stroke-linejoin:miter;stroke-miterlimit:4;stroke-dasharray:none;stroke-opacity:1"
       d="m 178.87546,361.66791 1.14726,-433.861642"
       id="path4910"
       inkscape:connector-curvature="0"
       sodipodi:nodetypes="cc" />
    <g
       transform="translate(-6,-96)"
       id="g4957">
      <text
         transform="matrix(0,-1,1,0,0,-5.1757814e-7)"
         sodipodi:linespacing="125%"
         id="text4164"
         y="67.036079"
         x="-171.54507"
         style="font-style:normal;font-variant:normal;font-weight:normal;font-stretch:normal;font-size:37.5px;line-height:125%;font-family:Arial;-inkscape-font-specification:'Arial, Normal';text-align:start;letter-spacing:0px;word-spacing:0px;writing-mode:lr-tb;text-anchor:start;fill:#d5325f;fill-opacity:1;stroke:none;stroke-width:1px;stroke-linecap:butt;stroke-linejoin:miter;stroke-opacity:1"
         xml:space="preserve"><tspan
           y="67.036079"
           x="-171.54507"
           id="tspan4166"
           sodipodi:role="line">Pressure</tspan></text>
      <g
         style="font-style:normal;font-variant:normal;font-weight:normal;font-stretch:normal;letter-spacing:normal;word-spacing:normal;text-anchor:start;fill:#d5325f;fill-opacity:1;fill-rule:evenodd;stroke:#d5325f;stroke-linecap:butt;stroke-linejoin:miter;stroke-miterlimit:10.43299961;stroke-dasharray:none;stroke-dashoffset:0;stroke-opacity:1"
         id="g4891"
         transform="matrix(0,-0.93664155,-0.93664155,0,440.35376,438.15048)"
         xml:space="preserve"
         stroke-miterlimit="10.433"
         font-style="normal"
         font-variant="normal"
         font-weight="normal"
         font-stretch="normal"
         font-size-adjust="none"
         letter-spacing="normal"
         word-spacing="normal"><path
           style="fill:#d5325f;fill-opacity:1;stroke:#d5325f;stroke-width:0;stroke-opacity:1"
           inkscape:connector-curvature="0"
           d="m 472.49,394.04 0,0.03 0,0.03 -0.01,0.01 0,0.02 0,0.01 -0.01,0.02 0,0.02 -0.01,0.01 -0.01,0.02 -0.01,0.02 -0.01,0.03 -0.01,0.02 -0.02,0.02 -0.02,0.03 -0.02,0.03 -0.02,0.03 -0.03,0.03 -0.03,0.04 -0.01,0.02 -0.02,0.02 -0.02,0.02 -0.02,0.02 -0.02,0.02 -0.02,0.03 -0.02,0.02 -0.02,0.02 -0.02,0.03 -0.03,0.02 -0.02,0.03 -0.03,0.03 -0.02,0.03 -0.03,0.03 -0.03,0.03 -0.03,0.03 -0.03,0.03 -0.03,0.03 -0.04,0.04 -0.03,0.03 -0.04,0.04 -0.03,0.03 -0.04,0.04 -0.04,0.04 c -6.23,6.28 -7.82,15.69 -7.82,23.31 0,8.67 1.89,17.34 8.02,23.57 0.65,0.59 0.65,0.69 0.65,0.84 0,0.35 -0.2,0.5 -0.5,0.5 -0.5,0 -4.98,-3.39 -7.92,-9.72 -2.54,-5.47 -3.14,-11 -3.14,-15.19 0,-3.88 0.55,-9.91 3.29,-15.54 2.99,-6.12 7.27,-9.36 7.77,-9.36 0.3,0 0.5,0.15 0.5,0.49 z"
           id="path4893" /><path
           style="fill:#d5325f;fill-opacity:1;stroke:#d5325f;stroke-width:0;stroke-opacity:1"
           inkscape:connector-curvature="0"
           d="m 477.24,399.92 -0.03,-0.15 -0.04,-0.15 -0.03,-0.14 -0.04,-0.13 -0.03,-0.13 -0.04,-0.11 -0.03,-0.12 -0.04,-0.1 -0.04,-0.1 -0.04,-0.09 -0.04,-0.09 -0.05,-0.08 -0.05,-0.07 -0.05,-0.07 -0.06,-0.07 -0.06,-0.05 -0.07,-0.06 -0.07,-0.05 -0.08,-0.04 -0.09,-0.04 -0.09,-0.04 -0.1,-0.03 -0.11,-0.03 -0.12,-0.02 -0.13,-0.02 -0.13,-0.02 -0.07,0 -0.08,-0.01 -0.07,-0.01 -0.08,0 -0.08,-0.01 -0.09,0 -0.08,0 -0.09,-0.01 -0.09,0 -0.1,0 -0.1,0 -0.1,0 c -0.6,0 -1.14,0 -1.14,-0.95 0,-0.39 0.25,-0.59 0.64,-0.59 l 9.12,0 c 0.25,0 0.9,0 0.9,0.99 0,0.55 -0.5,0.55 -1.2,0.55 -2.49,0 -2.49,0.35 -2.49,0.8 0,0.59 2.09,8.71 2.44,9.96 0.65,-1.44 2.04,-3.19 4.58,-3.19 l -0.04,1.1 c -3.29,0 -3.94,4.13 -3.94,4.43 0,0.1 0,0.2 0.15,0.8 l 2.44,9.76 c 0.35,1.35 1.69,2.74 2.59,3.49 1.74,1.54 3.19,1.89 4.03,1.89 1.99,0 3.19,-1.74 3.19,-4.68 0,-2.94 -1.64,-8.67 -2.54,-10.56 -1.69,-3.49 -4.08,-5.13 -5.92,-5.13 l 0.04,-1.1 c 5.78,0 12.01,7.28 12.01,14.6 0,4.68 -2.84,7.97 -6.62,7.97 -2.5,0 -4.89,-1.8 -6.53,-3.74 -0.5,2.69 -2.64,3.74 -4.49,3.74 -2.29,0 -3.23,-1.95 -3.68,-2.84 -0.9,-1.7 -1.55,-4.68 -1.55,-4.83 0,-0.5 0.5,-0.5 0.6,-0.5 0.5,0 0.55,0.05 0.85,1.14 0.85,3.54 1.84,5.93 3.63,5.93 0.85,0 1.55,-0.4 1.55,-2.29 0,-1.15 -0.15,-1.69 -0.35,-2.54 z"
           id="path4895" /><path
           style="fill:#d5325f;fill-opacity:1;stroke:#d5325f;stroke-width:0;stroke-opacity:1"
           inkscape:connector-curvature="0"
           d="m 514.4,418.45 -0.01,0.37 0,0.39 -0.01,0.39 -0.01,0.41 -0.04,0.84 -0.06,0.88 -0.09,0.92 -0.1,0.94 -0.14,0.98 -0.16,1 -0.2,1.02 -0.23,1.04 -0.27,1.05 -0.3,1.06 -0.35,1.06 -0.39,1.07 -0.22,0.53 -0.22,0.54 -0.24,0.53 -0.25,0.53 c -2.99,6.12 -7.27,9.36 -7.77,9.36 -0.3,0 -0.5,-0.2 -0.5,-0.5 0,-0.15 0,-0.25 0.95,-1.15 4.88,-4.92 7.72,-12.85 7.72,-23.26 0,-8.52 -1.85,-17.28 -8.02,-23.56 -0.65,-0.6 -0.65,-0.69 -0.65,-0.85 0,-0.29 0.2,-0.49 0.5,-0.49 0.5,0 4.98,3.38 7.92,9.71 2.54,5.48 3.14,11.01 3.14,15.19 z"
           id="path4897" /></g>    </g>
    <g
       transform="translate(20,-28)"
       id="g5207">
      <text
         transform="translate(236.24764,-364.54634)"
         y="-447.84149"
         x="302.91318"
         sodipodi:linespacing="125%"
         id="text4160"
         style="font-style:normal;font-variant:normal;font-weight:normal;font-stretch:normal;font-size:37.5px;line-height:125%;font-family:Arial;-inkscape-font-specification:'Arial, Normal';text-align:start;letter-spacing:0px;word-spacing:0px;writing-mode:lr-tb;text-anchor:start;fill:#4f98bc;fill-opacity:1;stroke:none;stroke-width:1px;stroke-linecap:butt;stroke-linejoin:miter;stroke-opacity:1"
         xml:space="preserve"><textPath
           id="textPath4168"
           xlink:href="#path4144"><tspan
   style="font-style:normal;font-variant:normal;font-weight:normal;font-stretch:normal;font-size:37.5px;line-height:125%;font-family:Arial;-inkscape-font-specification:'Arial, Normal';text-align:start;writing-mode:lr-tb;text-anchor:start;fill:#4f98bc;fill-opacity:1"
   id="tspan4162">Saturation</tspan></textPath></text>
      <g
         word-spacing="normal"
         letter-spacing="normal"
         font-size-adjust="none"
         font-stretch="normal"
         font-weight="normal"
         font-variant="normal"
         font-style="normal"
         stroke-miterlimit="10.433"
         xml:space="preserve"
         id="g5021"
         style="font-style:normal;font-variant:normal;font-weight:normal;font-stretch:normal;letter-spacing:normal;word-spacing:normal;text-anchor:start;fill:#3aacc5;fill-opacity:1;fill-rule:evenodd;stroke:#000000;stroke-linecap:butt;stroke-linejoin:miter;stroke-miterlimit:10.43299961;stroke-dasharray:none;stroke-dashoffset:0;stroke-opacity:1"
         transform="translate(324.98092,-519.78483)"><path
           id="path5023"
           d="m 88.034363,541.50847 c 0,0 -0.02304,-0.0161 -0.02304,-0.0161 0,0 -0.02304,-0.0161 -0.02304,-0.0161 0,0 -0.01304,0.002 -0.01304,0.002 0,0 -0.01536,-0.0107 -0.01536,-0.0107 0,0 -0.0077,-0.005 -0.0077,-0.005 0,0 -0.02072,-0.003 -0.02072,-0.003 0,0 -0.01536,-0.0107 -0.01536,-0.0107 0,0 -0.01304,0.002 -0.01304,0.002 0,0 -0.02072,-0.003 -0.02072,-0.003 0,0 -0.02072,-0.003 -0.02072,-0.003 0,0 -0.0284,-0.008 -0.0284,-0.008 0,0 -0.02072,-0.003 -0.02072,-0.003 0,0 -0.02608,0.005 -0.02608,0.005 0,0 -0.03376,-7.1e-4 -0.03376,-7.1e-4 0,0 -0.03376,-7.2e-4 -0.03376,-7.2e-4 0,0 -0.03376,-7.2e-4 -0.03376,-7.2e-4 0,0 -0.03912,0.007 -0.03912,0.007 0,0 -0.0468,0.002 -0.0468,0.002 0,0 -0.02072,-0.003 -0.02072,-0.003 0,0 -0.02608,0.005 -0.02608,0.005 0,0 -0.02608,0.005 -0.02608,0.005 0,0 -0.02608,0.005 -0.02608,0.005 0,0 -0.02608,0.005 -0.02608,0.005 0,0 -0.03376,-7.2e-4 -0.03376,-7.2e-4 0,0 -0.02608,0.005 -0.02608,0.005 0,0 -0.02608,0.005 -0.02608,0.005 0,0 -0.03376,-7.2e-4 -0.03376,-7.2e-4 0,0 -0.03144,0.0123 -0.03144,0.0123 0,0 -0.03376,-7.2e-4 -0.03376,-7.2e-4 0,0 -0.03912,0.007 -0.03912,0.007 0,0 -0.03376,-7.2e-4 -0.03376,-7.2e-4 0,0 -0.03912,0.007 -0.03912,0.007 0,0 -0.03912,0.007 -0.03912,0.007 0,0 -0.03912,0.007 -0.03912,0.007 0,0 -0.03912,0.007 -0.03912,0.007 0,0 -0.03912,0.007 -0.03912,0.007 0,0 -0.05216,0.009 -0.05216,0.009 0,0 -0.03912,0.007 -0.03912,0.007 0,0 -0.05216,0.009 -0.05216,0.009 0,0 -0.03912,0.007 -0.03912,0.007 0,0 -0.05217,0.009 -0.05217,0.009 0,0 -0.05216,0.009 -0.05216,0.009 -8.162991,1.41962 -16.243358,-2.40251 -22.096569,-6.48659 -6.659755,-4.64685 -12.306529,-10.74548 -13.806539,-18.79325 -0.104822,-0.81551 -0.181636,-0.86911 -0.296857,-0.9495 -0.268848,-0.18759 -0.491262,-0.11436 -0.652053,0.11608 -0.267984,0.38407 -0.06514,5.64226 3.221428,11.29327 2.840353,4.88282 6.766574,8.30761 9.985072,10.55332 2.980375,2.07956 7.907029,4.88897 13.700199,5.80178 6.30355,0.9834 11.086263,-0.56769 11.354247,-0.95176 0.160791,-0.23044 0.152764,-0.46447 -0.108403,-0.6467 0,0 0,0 0,0"
           style="fill:#3aacc5;fill-opacity:1;stroke-width:0"
           inkscape:connector-curvature="0" /><path
           id="path5025"
           d="m 83.894032,508.61631 c 0,0 -0.27653,-0.19295 -0.27653,-0.19295 0,0 -0.281889,-0.18526 -0.281889,-0.18526 0,0 -0.271886,-0.16687 -0.271886,-0.16687 0,0 -0.271886,-0.16687 -0.271886,-0.16687 0,0 -0.544489,-0.29997 -0.544489,-0.29997 0,0 -0.519123,-0.27085 -0.519123,-0.27085 0,0 -0.525199,-0.2294 -0.525199,-0.2294 0,0 -0.507515,-0.20564 -0.507515,-0.20564 0,0 -0.495189,-0.17421 -0.495189,-0.17421 0,0 -0.488225,-0.13508 -0.488225,-0.13508 0,0 -0.47054,-0.11131 -0.47054,-0.11131 0,0 -0.471257,-0.0776 -0.471257,-0.0776 0,0 -0.448212,-0.0615 -0.448212,-0.0615 0,0 -0.448929,-0.0277 -0.448929,-0.0277 0,0 -0.431244,-0.004 -0.431244,-0.004 0,0 -0.421241,0.0144 -0.421241,0.0144 0,0 -0.408917,0.0459 -0.408917,0.0459 0,0 -0.398913,0.0643 -0.398913,0.0643 0,0 -0.383551,0.075 -0.383551,0.075 0,0 -0.371225,0.10645 -0.371225,0.10645 0,0 -0.361223,0.12485 -0.361223,0.12485 0,0 -0.35122,0.14326 -0.35122,0.14326 0,0 -0.335857,0.15397 -0.335857,0.15397 0,0 -0.320494,0.16469 -0.320494,0.16469 0,0 -0.315851,0.19078 -0.315851,0.19078 0,0 -0.295128,0.19381 -0.295128,0.19381 0,0 -0.292807,0.20685 -0.292807,0.20685 0,0 -0.269762,0.22294 -0.269762,0.22294 0,0 -0.262082,0.22829 -0.262082,0.22829 0,0 -0.246718,0.23901 -0.246718,0.23901 0,0 -0.231356,0.24973 -0.231356,0.24973 0,0 -0.223674,0.25509 -0.223674,0.25509 0,0 -0.202952,0.25813 -0.202952,0.25813 0,0 -0.19527,0.26349 -0.19527,0.26349 0,0 0.818153,0.62797 0.818153,0.62797 2.642326,-3.78692 7.658266,-0.28704 10.638641,1.79252 1.413374,0.98618 3.633292,2.53513 4.339806,2.91389 0,0 0,0 0,0 0.594425,5.4172 -1.041219,8.66164 -2.107797,10.19023 -1.602547,2.29673 -4.121769,2.24069 -6.572128,0.53095 -1.874257,-1.30777 -5.315439,-5.18218 -6.408959,-7.77256 -1.541855,-3.74837 -0.822148,-6.31847 0.110437,-7.65503 0,0 -0.818153,-0.62797 -0.818153,-0.62797 -3.655307,5.2387 -1.705158,14.11451 3.687169,17.87701 3.556479,2.48153 8.070268,2.21612 10.792989,-1.68602 1.682942,-2.41195 2.723711,-5.78593 2.414534,-10.31884 2.376263,0.91567 4.445866,0.48668 5.651795,-1.24163 1.414958,-2.02789 0.135652,-4.67937 -0.478858,-5.10815 -0.268849,-0.18759 -0.54486,-0.0375 -0.705651,0.1929 -0.187589,0.26885 -0.152763,0.46446 0.03569,0.76727 1.397244,1.99141 0.43786,3.36638 0.378903,3.45087 -0.825392,1.18293 -3.805766,-0.89663 -4.727532,-1.53979 -0.806545,-0.56277 -0.875677,-0.611 -1.068575,-1.31665 -2.008317,-6.74638 -5.885387,-10.65083 -5.923794,-10.67763 -0.07681,-0.0536 -0.410867,-0.22957 -0.70565,0.1929 -0.267984,0.38407 -0.152764,0.46447 0.404568,1.13887 1.934941,2.36659 3.954154,5.65998 4.958312,9.03317 0,0 -2.373546,-1.65615 -2.373546,-1.65615"
           style="fill:#3aacc5;fill-opacity:1;stroke-width:0"
           inkscape:connector-curvature="0" /><path
           id="path5027"
           d="m 95.498349,490.85585 c 0,0 -0.28957,-0.19062 -0.28957,-0.19062 0,0 -0.299574,-0.20903 -0.299574,-0.20903 0,0 -0.304934,-0.20135 -0.304934,-0.20135 0,0 -0.320296,-0.21206 -0.320296,-0.21206 0,0 -0.666674,-0.41949 -0.666674,-0.41949 0,0 -0.70812,-0.42557 -0.70812,-0.42557 0,0 -0.754924,-0.42395 -0.754924,-0.42395 0,0 -0.775646,-0.427 -0.775646,-0.427 0,0 -0.827811,-0.41771 -0.827811,-0.41771 0,0 -0.853893,-0.41307 -0.853893,-0.41307 0,0 -0.890694,-0.39306 -0.890694,-0.39306 0,0 -0.922136,-0.38073 -0.922136,-0.38073 0,0 -0.951257,-0.35537 -0.951257,-0.35537 0,0 -0.975016,-0.33769 -0.975016,-0.33769 0,0 -1.001816,-0.29928 -1.001816,-0.29928 0,0 -1.030935,-0.27391 -1.030935,-0.27391 0,0 -0.525026,-0.11507 -0.525026,-0.11507 0,0 -0.532708,-0.12044 -0.532708,-0.12044 0,0 -0.535745,-0.0997 -0.535745,-0.0997 0,0 -0.541105,-0.092 -0.541105,-0.092 -6.303551,-0.98339 -11.086263,0.5677 -11.354248,0.95177 -0.16079,0.23044 -0.114357,0.49126 0.116085,0.65205 0.11522,0.0804 0.192034,0.13399 1.392529,-0.11337 6.394765,-1.11154 14.00825,0.95718 22.004565,6.53661 6.54453,4.56646 12.28188,10.6826 13.79886,18.78789 0.1125,0.82087 0.18163,0.86911 0.30454,0.95486 0.22276,0.15544 0.48358,0.109 0.64437,-0.12144 0.26798,-0.38407 0.0728,-5.6369 -3.21375,-11.28791 -2.84803,-4.88818 -6.774255,-8.31297 -9.985071,-10.55332 0,0 0,0 0,0"
           style="fill:#3aacc5;fill-opacity:1;stroke-width:0"
           inkscape:connector-curvature="0" /></g>    </g>
    <g
       id="g5353"
       transform="translate(98,0)">
      <text
         sodipodi:linespacing="125%"
         id="text4156"
         y="554.45758"
         x="628.72186"
         style="font-style:normal;font-variant:normal;font-weight:normal;font-stretch:normal;font-size:37.5px;line-height:125%;font-family:Arial;-inkscape-font-specification:'Arial, Normal';text-align:start;letter-spacing:0px;word-spacing:0px;writing-mode:lr-tb;text-anchor:start;fill:#8d35c8;fill-opacity:1;stroke:none;stroke-width:1px;stroke-linecap:butt;stroke-linejoin:miter;stroke-opacity:1"
         xml:space="preserve"><tspan
           y="554.45758"
           x="628.72186"
           id="tspan4158"
           sodipodi:role="line">Strain</tspan></text>
      <g
         word-spacing="normal"
         letter-spacing="normal"
         font-size-adjust="none"
         font-stretch="normal"
         font-weight="normal"
         font-variant="normal"
         font-style="normal"
         stroke-miterlimit="10.433"
         xml:space="preserve"
         transform="matrix(0.93664155,0,0,-0.93664155,310.07629,934.81185)"
         id="g5277"
         style="font-style:normal;font-variant:normal;font-weight:normal;font-stretch:normal;letter-spacing:normal;word-spacing:normal;text-anchor:start;fill:#8d35c8;fill-opacity:1;fill-rule:evenodd;stroke:#000000;stroke-linecap:butt;stroke-linejoin:miter;stroke-miterlimit:10.43299961;stroke-dasharray:none;stroke-dashoffset:0;stroke-opacity:1"><path
           id="path5279"
           d="m 472.49,394.04 0,0.03 0,0.03 -0.01,0.01 0,0.02 0,0.01 -0.01,0.02 0,0.02 -0.01,0.01 -0.01,0.02 -0.01,0.02 -0.01,0.03 -0.01,0.02 -0.02,0.02 -0.02,0.03 -0.02,0.03 -0.02,0.03 -0.03,0.03 -0.03,0.04 -0.01,0.02 -0.02,0.02 -0.02,0.02 -0.02,0.02 -0.02,0.02 -0.02,0.03 -0.02,0.02 -0.02,0.02 -0.02,0.03 -0.03,0.02 -0.02,0.03 -0.03,0.03 -0.02,0.03 -0.03,0.03 -0.03,0.03 -0.03,0.03 -0.03,0.03 -0.03,0.03 -0.04,0.04 -0.03,0.03 -0.04,0.04 -0.03,0.03 -0.04,0.04 -0.04,0.04 c -6.23,6.28 -7.82,15.69 -7.82,23.31 0,8.67 1.89,17.34 8.02,23.57 0.65,0.59 0.65,0.69 0.65,0.84 0,0.35 -0.2,0.5 -0.5,0.5 -0.5,0 -4.98,-3.39 -7.92,-9.72 -2.54,-5.47 -3.14,-11 -3.14,-15.19 0,-3.88 0.55,-9.91 3.29,-15.54 2.99,-6.12 7.27,-9.36 7.77,-9.36 0.3,0 0.5,0.15 0.5,0.49 z"
           inkscape:connector-curvature="0"
           style="fill:#8d35c8;fill-opacity:1;stroke-width:0" /><path
           id="path5281"
           d="m 482.02,417.31 0.16,-0.06 0.15,-0.06 0.15,-0.06 0.15,-0.05 0.15,-0.05 0.15,-0.05 0.14,-0.04 0.15,-0.04 0.14,-0.03 0.15,-0.03 0.28,-0.06 0.27,-0.05 0.27,-0.03 0.27,-0.03 0.26,-0.02 0.26,-0.02 0.25,-0.01 0.24,-0.01 0.24,0 0.23,0 0.23,0 0,1.1 c -1.1,0 -1.7,0 -2.64,0.25 l 0,0 c 1.14,0.4 2.19,0.44 3.04,0.44 1.24,0 1.44,-0.04 2.34,-0.29 -0.75,-0.35 -0.85,-0.4 -2.74,-0.4 l 0,-1.1 c 1.29,0 4.03,0 4.03,1.55 0,1.19 -1.74,1.34 -3.63,1.34 -1.05,0 -2.79,-0.1 -4.64,-0.95 -1.14,0.6 -1.99,1.55 -1.99,2.89 0,3.04 4.88,4.83 9.37,4.83 0.79,0 2.59,0 4.58,-1.39 0.55,-0.4 0.65,-0.5 0.99,-0.5 0.65,0 1.35,0.65 1.35,1.35 0,0.94 -3.04,2.84 -6.42,2.84 -5.74,0 -11.11,-3.34 -11.11,-7.13 0,-2.14 1.79,-3.39 1.99,-3.53 -2.94,-1.65 -4.53,-4.44 -4.53,-6.73 0,-3.24 2.83,-6.28 8.11,-6.28 6.58,0 9.37,4.39 9.37,5.14 0,0.29 -0.25,0.49 -0.55,0.49 -0.25,0 -0.4,-0.2 -0.5,-0.35 -0.69,-1.14 -1.89,-2.98 -7.87,-2.98 -3.04,0 -7.27,0.74 -7.27,4.28 0,1.69 1.39,4.33 4.43,5.83 z"
           inkscape:connector-curvature="0"
           style="fill:#8d35c8;fill-opacity:1;stroke-width:0" /><path
           id="path5283"
           d="m 512.4,418.45 -0.01,0.37 0,0.39 -0.01,0.39 -0.01,0.41 -0.04,0.84 -0.06,0.88 -0.09,0.92 -0.1,0.94 -0.14,0.98 -0.16,1 -0.2,1.02 -0.23,1.04 -0.27,1.05 -0.3,1.06 -0.35,1.06 -0.39,1.07 -0.22,0.53 -0.22,0.54 -0.24,0.53 -0.25,0.53 c -2.99,6.12 -7.27,9.36 -7.77,9.36 -0.3,0 -0.5,-0.2 -0.5,-0.5 0,-0.15 0,-0.25 0.95,-1.15 4.88,-4.92 7.72,-12.85 7.72,-23.26 0,-8.52 -1.85,-17.28 -8.02,-23.56 -0.65,-0.6 -0.65,-0.69 -0.65,-0.85 0,-0.29 0.2,-0.49 0.5,-0.49 0.5,0 4.98,3.38 7.92,9.71 2.54,5.48 3.14,11.01 3.14,15.19 z"
           inkscape:connector-curvature="0"
           style="fill:#8d35c8;fill-opacity:1;stroke-width:0" /></g>    </g>
    <g
       transform="translate(78.475507,-153.25805)"
       id="g6287"
       xml:space="preserve"
       stroke-miterlimit="10.433"
       font-style="normal"
       font-variant="normal"
       font-weight="normal"
       font-stretch="normal"
       font-size-adjust="none"
       letter-spacing="normal"
       word-spacing="normal"
       style="font-style:normal;font-variant:normal;font-weight:normal;font-stretch:normal;letter-spacing:normal;word-spacing:normal;text-anchor:start;fill:#3aacc5;fill-opacity:1;fill-rule:evenodd;stroke:#000000;stroke-linecap:butt;stroke-linejoin:miter;stroke-miterlimit:10.43299961;stroke-dasharray:none;stroke-dashoffset:0;stroke-opacity:1"><path
         inkscape:connector-curvature="0"
         d="m 69.366966,523.08111 c 0,0 -0.207397,-0.14471 -0.207397,-0.14471 0,0 -0.211417,-0.13895 -0.211417,-0.13895 0,0 -0.203915,-0.12515 -0.203915,-0.12515 0,0 -0.203914,-0.12515 -0.203914,-0.12515 0,0 -0.408366,-0.22497 -0.408366,-0.22497 0,0 -0.389342,-0.20314 -0.389342,-0.20314 0,0 -0.393899,-0.17205 -0.393899,-0.17205 0,0 -0.380636,-0.15424 -0.380636,-0.15424 0,0 -0.371392,-0.13065 -0.371392,-0.13065 0,0 -0.366168,-0.10131 -0.366168,-0.10131 0,0 -0.352905,-0.0835 -0.352905,-0.0835 0,0 -0.353442,-0.0582 -0.353442,-0.0582 0,0 -0.336159,-0.0461 -0.336159,-0.0461 0,0 -0.336697,-0.0208 -0.336697,-0.0208 0,0 -0.323433,-0.003 -0.323433,-0.003 0,0 -0.31593,0.0108 -0.31593,0.0108 0,0 -0.306687,0.0344 -0.306687,0.0344 0,0 -0.299185,0.0482 -0.299185,0.0482 0,0 -0.287663,0.0563 -0.287663,0.0563 0,0 -0.278419,0.0798 -0.278419,0.0798 0,0 -0.270917,0.0936 -0.270917,0.0936 0,0 -0.263415,0.10744 -0.263415,0.10744 0,0 -0.251892,0.11548 -0.251892,0.11548 0,0 -0.240371,0.12352 -0.240371,0.12352 0,0 -0.236887,0.14308 -0.236887,0.14308 0,0 -0.221347,0.14536 -0.221347,0.14536 0,0 -0.219604,0.15514 -0.219604,0.15514 0,0 -0.202322,0.1672 -0.202322,0.1672 0,0 -0.196561,0.17122 -0.196561,0.17122 0,0 -0.185039,0.17926 -0.185039,0.17926 0,0 -0.173516,0.18729 -0.173516,0.18729 0,0 -0.167756,0.19132 -0.167756,0.19132 0,0 -0.152213,0.1936 -0.152213,0.1936 0,0 -0.146453,0.19761 -0.146453,0.19761 0,0 0.613614,0.47098 0.613614,0.47098 1.981743,-2.84018 5.743696,-0.21528 7.978975,1.34439 1.06003,0.73964 2.724967,1.90135 3.254852,2.18542 0,0 0,0 0,0 0.445819,4.0629 -0.780913,6.49622 -1.580846,7.64266 -1.201909,1.72255 -3.091325,1.68052 -4.929093,0.39821 -1.405691,-0.98082 -3.986576,-3.88662 -4.806715,-5.82941 -1.156391,-2.81127 -0.616611,-4.73885 0.08283,-5.74127 0,0 -0.613614,-0.47098 -0.613614,-0.47098 -2.741478,3.92903 -1.278868,10.58588 2.765375,13.40775 2.667357,1.86115 6.052696,1.66209 8.094735,-1.26451 1.262206,-1.80897 2.042782,-4.33945 1.8109,-7.73913 1.782196,0.68676 3.334397,0.36501 4.238843,-0.93122 1.061218,-1.52091 0.101739,-3.50953 -0.359143,-3.83111 -0.201637,-0.14069 -0.408645,-0.0282 -0.529238,0.14468 -0.140691,0.20163 -0.114572,0.34834 0.02677,0.57545 1.047933,1.49355 0.328395,2.52478 0.284178,2.58815 -0.619044,0.8872 -2.854323,-0.67247 -3.545647,-1.15484 -0.604908,-0.42208 -0.656757,-0.45825 -0.801431,-0.98749 -1.506237,-5.05978 -4.414037,-7.98811 -4.442842,-8.00821 -0.05761,-0.0402 -0.30815,-0.17219 -0.529237,0.14467 -0.200988,0.28805 -0.114573,0.34835 0.303426,0.85415 1.451204,1.77494 2.965613,4.24498 3.718731,6.77487 0,0 -1.780158,-1.24211 -1.780158,-1.24211"
         id="path6289"
         style="fill:#3aacc5;fill-opacity:1;stroke-width:0" /><path
         inkscape:connector-curvature="0"
         d="m 86.505514,513.75348 c 0,0 -0.478352,0.68556 -0.478352,0.68556 0.403402,0.36714 1.449482,1.39684 1.470229,1.79678 0.0084,0.24572 -1.072888,1.79544 -1.265836,2.07197 0,0 -2.580688,3.69858 -2.580688,3.69858 -0.401102,-3.41496 -0.46951,-4.50772 -0.574189,-6.37102 -0.149673,-2.31441 -0.425293,-4.57109 -2.337955,-5.90565 -2.425393,-1.69232 -5.399051,-0.59784 -7.191865,1.97158 -1.740558,2.49453 -1.168736,5.39473 0.680554,6.68508 1.025464,0.71552 1.726366,-0.0803 1.863037,-0.27618 0.337661,-0.48392 0.403756,-1.30295 -0.322134,-1.80944 -0.357184,-0.24923 -1.162265,-0.6054 -1.889842,0.43735 -0.98884,-1.61507 -0.479755,-3.28996 0.179486,-4.23477 1.398877,-2.00483 3.697474,-1.95997 5.322084,-0.82639 1.751353,1.222 2.271493,3.43515 2.541408,4.58286 0,0 1.405054,8.17566 1.405054,8.17566 0.0379,0.32625 0.07823,0.35439 0.642809,0.74833 0,0 5.772379,-8.27284 5.772379,-8.27284 0,0 -3.236179,-3.15746 -3.236179,-3.15746"
         id="path6291"
         style="fill:#3aacc5;fill-opacity:1;stroke-width:0" /></g>    <g
       word-spacing="normal"
       letter-spacing="normal"
       font-size-adjust="none"
       font-stretch="normal"
       font-weight="normal"
       font-variant="normal"
       font-style="normal"
       stroke-miterlimit="10.433"
       xml:space="preserve"
       id="g6475"
       style="font-style:normal;font-variant:normal;font-weight:normal;font-stretch:normal;letter-spacing:normal;word-spacing:normal;text-anchor:start;fill:#3aacc5;fill-opacity:1;fill-rule:evenodd;stroke:#000000;stroke-linecap:butt;stroke-linejoin:miter;stroke-miterlimit:10.43299961;stroke-dasharray:none;stroke-dashoffset:0;stroke-opacity:1"
       transform="translate(-18.464824,-13.848618)"><path
         id="path6477"
         d="m 69.366966,523.08111 c 0,0 -0.207397,-0.14471 -0.207397,-0.14471 0,0 -0.211417,-0.13895 -0.211417,-0.13895 0,0 -0.203915,-0.12515 -0.203915,-0.12515 0,0 -0.203914,-0.12515 -0.203914,-0.12515 0,0 -0.408366,-0.22497 -0.408366,-0.22497 0,0 -0.389342,-0.20314 -0.389342,-0.20314 0,0 -0.393899,-0.17205 -0.393899,-0.17205 0,0 -0.380636,-0.15424 -0.380636,-0.15424 0,0 -0.371392,-0.13065 -0.371392,-0.13065 0,0 -0.366168,-0.10131 -0.366168,-0.10131 0,0 -0.352905,-0.0835 -0.352905,-0.0835 0,0 -0.353442,-0.0582 -0.353442,-0.0582 0,0 -0.336159,-0.0461 -0.336159,-0.0461 0,0 -0.336697,-0.0208 -0.336697,-0.0208 0,0 -0.323433,-0.003 -0.323433,-0.003 0,0 -0.31593,0.0108 -0.31593,0.0108 0,0 -0.306687,0.0344 -0.306687,0.0344 0,0 -0.299185,0.0482 -0.299185,0.0482 0,0 -0.287663,0.0563 -0.287663,0.0563 0,0 -0.278419,0.0798 -0.278419,0.0798 0,0 -0.270917,0.0936 -0.270917,0.0936 0,0 -0.263415,0.10744 -0.263415,0.10744 0,0 -0.251892,0.11548 -0.251892,0.11548 0,0 -0.240371,0.12352 -0.240371,0.12352 0,0 -0.236887,0.14308 -0.236887,0.14308 0,0 -0.221347,0.14536 -0.221347,0.14536 0,0 -0.219604,0.15514 -0.219604,0.15514 0,0 -0.202322,0.1672 -0.202322,0.1672 0,0 -0.196561,0.17122 -0.196561,0.17122 0,0 -0.185039,0.17926 -0.185039,0.17926 0,0 -0.173516,0.18729 -0.173516,0.18729 0,0 -0.167756,0.19132 -0.167756,0.19132 0,0 -0.152213,0.1936 -0.152213,0.1936 0,0 -0.146453,0.19761 -0.146453,0.19761 0,0 0.613614,0.47098 0.613614,0.47098 1.981743,-2.84018 5.743696,-0.21528 7.978975,1.34439 1.06003,0.73964 2.724967,1.90135 3.254852,2.18542 0,0 0,0 0,0 0.445819,4.0629 -0.780913,6.49622 -1.580846,7.64266 -1.201909,1.72255 -3.091325,1.68052 -4.929093,0.39821 -1.405691,-0.98082 -3.986576,-3.88662 -4.806715,-5.82941 -1.156391,-2.81127 -0.616611,-4.73885 0.08283,-5.74127 0,0 -0.613614,-0.47098 -0.613614,-0.47098 -2.741478,3.92903 -1.278868,10.58588 2.765375,13.40775 2.667357,1.86115 6.052696,1.66209 8.094735,-1.26451 1.262206,-1.80897 2.042782,-4.33945 1.8109,-7.73913 1.782196,0.68676 3.334397,0.36501 4.238843,-0.93122 1.061218,-1.52091 0.101739,-3.50953 -0.359143,-3.83111 -0.201637,-0.14069 -0.408645,-0.0282 -0.529238,0.14468 -0.140691,0.20163 -0.114572,0.34834 0.02677,0.57545 1.047933,1.49355 0.328395,2.52478 0.284178,2.58815 -0.619044,0.8872 -2.854323,-0.67247 -3.545647,-1.15484 -0.604908,-0.42208 -0.656757,-0.45825 -0.801431,-0.98749 -1.506237,-5.05978 -4.414037,-7.98811 -4.442842,-8.00821 -0.05761,-0.0402 -0.30815,-0.17219 -0.529237,0.14467 -0.200988,0.28805 -0.114573,0.34835 0.303426,0.85415 1.451204,1.77494 2.965613,4.24498 3.718731,6.77487 0,0 -1.780158,-1.24211 -1.780158,-1.24211"
         style="fill:#3aacc5;fill-opacity:1;stroke-width:0"
         inkscape:connector-curvature="0" /><path
         id="path6479"
         d="m 75.002085,510.80649 c 0,0 -0.02304,-0.0161 -0.02304,-0.0161 0,0 -0.02304,-0.0161 -0.02304,-0.0161 0,0 -0.02304,-0.0161 -0.02304,-0.0161 0,0 -0.02304,-0.0161 -0.02304,-0.0161 0,0 -0.02304,-0.0161 -0.02304,-0.0161 0,0 -0.02304,-0.0161 -0.02304,-0.0161 0,0 -0.01728,-0.0121 -0.01728,-0.0121 0,0 -0.02304,-0.0161 -0.02304,-0.0161 0,0 -0.0213,-0.006 -0.0213,-0.006 0,0 -0.01728,-0.0121 -0.01728,-0.0121 0,0 -0.02304,-0.0161 -0.02304,-0.0161 0,0 -0.01728,-0.0121 -0.01728,-0.0121 0,0 -0.01554,-0.002 -0.01554,-0.002 0,0 -0.01728,-0.0121 -0.01728,-0.0121 0,0 -0.01728,-0.0121 -0.01728,-0.0121 0,0 -0.0213,-0.006 -0.0213,-0.006 0,0 -0.01152,-0.008 -0.01152,-0.008 0,0 -0.01152,-0.008 -0.01152,-0.008 0,0 -0.03684,-0.009 -0.03684,-0.009 0,0 -0.02706,-0.0103 -0.02706,-0.0103 0,0 -0.02706,-0.0103 -0.02706,-0.0103 0,0 -0.02532,-5.4e-4 -0.02532,-5.4e-4 0,0 -0.02532,-5.3e-4 -0.02532,-5.3e-4 0,0 -0.02532,-5.4e-4 -0.02532,-5.4e-4 0,0 -0.02934,0.005 -0.02934,0.005 0,0 -0.01956,0.003 -0.01956,0.003 0,0 -0.02358,0.009 -0.02358,0.009 0,0 -0.0276,0.015 -0.0276,0.015 0,0 -0.01782,0.0133 -0.01782,0.0133 0,0 -0.02184,0.019 -0.02184,0.019 0,0 -0.03162,0.0208 -0.03162,0.0208 0,0 -0.0201,0.0288 -0.0201,0.0288 0,0 -0.0138,0.008 -0.0138,0.008 0,0 -0.01206,0.0173 -0.01206,0.0173 0,0 -0.01782,0.0133 -0.01782,0.0133 0,0 -0.008,0.0115 -0.008,0.0115 0,0 -0.01206,0.0173 -0.01206,0.0173 0,0 -0.01206,0.0173 -0.01206,0.0173 0,0 -0.01608,0.023 -0.01608,0.023 0,0 -0.01782,0.0133 -0.01782,0.0133 0,0 -0.01206,0.0173 -0.01206,0.0173 0,0 -0.01608,0.023 -0.01608,0.023 0,0 -0.01206,0.0173 -0.01206,0.0173 0,0 -0.01608,0.023 -0.01608,0.023 0,0 -0.01608,0.0231 -0.01608,0.0231 0,0 -0.01608,0.023 -0.01608,0.023 0,0 -0.01608,0.023 -0.01608,0.023 0,0 -0.01608,0.0231 -0.01608,0.0231 0,0 -0.0201,0.0288 -0.0201,0.0288 0,0 -0.01608,0.0231 -0.01608,0.0231 0.361239,2.1708 -0.889982,4.01312 -1.464808,4.83695 0,0 0.720129,0.50247 0.720129,0.50247 0.33766,-0.48393 1.262206,-1.80896 1.47518,-3.305 0,0 10.243111,7.14714 10.243111,7.14714 0.662518,0.46227 0.927526,0.64718 -0.475371,2.65778 0,0 -0.534629,0.76622 -0.534629,0.76622 0,0 0.720129,0.50247 0.720129,0.50247 0,0 5.004604,-7.17248 5.004604,-7.17248 0,0 -0.720128,-0.50247 -0.720128,-0.50247 0,0 -0.530609,0.76045 -0.530609,0.76045 -1.402897,2.0106 -1.667904,1.82569 -2.330423,1.36342 0,0 -11.130309,-7.76618 -11.130309,-7.76618"
         style="fill:#3aacc5;fill-opacity:1;stroke-width:0"
         inkscape:connector-curvature="0" /></g>    <ellipse
       style="opacity:1;fill:#0f070e;fill-opacity:1;stroke:none;stroke-width:3;stroke-miterlimit:4;stroke-dasharray:9, 9;stroke-dashoffset:0;stroke-opacity:1"
       id="path8439"
       cx="299.2894"
       cy="302.89474"
       rx="5.0036616"
       ry="5.6291189" />
    <ellipse
       style="opacity:1;fill:#0f070e;fill-opacity:1;stroke:none;stroke-width:3;stroke-miterlimit:4;stroke-dasharray:9, 9;stroke-dashoffset:0;stroke-opacity:1"
       id="path8439-3"
       cx="398.2507"
       cy="328.46896"
       rx="5.0036616"
       ry="5.6291189" />
    <path
       style="fill:none;fill-rule:evenodd;stroke:#000000;stroke-width:3;stroke-linecap:butt;stroke-linejoin:miter;stroke-miterlimit:4;stroke-dasharray:9, 9;stroke-dashoffset:0;stroke-opacity:1"
       d="m 373.78835,406.30374 -4.4477,-86.73013"
       id="path8477"
       inkscape:connector-curvature="0" />
    <ellipse
       style="opacity:1;fill:#df1764;fill-opacity:1;stroke:none;stroke-width:3;stroke-miterlimit:4;stroke-dasharray:9, 9;stroke-dashoffset:0;stroke-opacity:1"
       id="path8439-3-6"
       cx="369.34064"
       cy="321.79742"
       rx="5.0036616"
       ry="5.6291189" />
    <path
       style="font-style:normal;font-variant:normal;font-weight:normal;font-stretch:normal;letter-spacing:normal;word-spacing:normal;text-anchor:start;fill:#4994ae;fill-opacity:1;fill-rule:evenodd;stroke:#8e3abd;stroke-width:0;stroke-linecap:butt;stroke-linejoin:miter;stroke-miterlimit:10.43299961;stroke-dasharray:none;stroke-dashoffset:0;stroke-opacity:1"
       inkscape:connector-curvature="0"
       d="m 376.61138,293.26492 -0.10364,0.008 -0.10363,0.008 -0.0957,0.016 -0.10365,0.0239 -0.0957,0.0239 -0.0877,0.0239 -0.0877,0.0319 -0.0957,0.0398 -0.0797,0.0398 -0.0877,0.0399 -0.0797,0.0478 -0.0718,0.0478 -0.0797,0.0558 -0.0637,0.0558 -0.0718,0.0558 -0.0638,0.0637 -0.0637,0.0638 -0.0558,0.0637 -0.0558,0.0718 -0.0558,0.0638 -0.0479,0.0718 -0.0398,0.0797 -0.0399,0.0718 -0.0399,0.0797 -0.0319,0.0718 -0.0239,0.0797 -0.0239,0.0797 -0.0239,0.0797 -0.016,0.0877 -0.008,0.0797 -0.008,0.0797 0,0.0797 c 0,0.55807 0.35877,1.14803 1.22776,1.14803 0.87697,0 1.82569,-0.66969 1.82569,-2.21634 0,-1.79379 -1.7061,-3.42018 -4.72766,-3.42018 -5.23789,0 -6.71279,4.05 -6.71279,5.79597 0,3.10128 2.94183,3.69921 4.09784,3.93838 2.06485,0.39065 4.12971,0.82914 4.12971,3.01359 0,1.03641 -0.91683,4.36889 -5.68434,4.36889 -0.5501,0 -3.61152,0 -4.52037,-2.10472 1.50678,0.19931 2.49537,-0.98858 2.49537,-2.10473 0,-0.90885 -0.62982,-1.3872 -1.46693,-1.3872 -1.02844,0 -2.22431,0.82914 -2.22431,2.61496 0,2.26418 2.26417,3.85866 5.67637,3.85866 6.44174,0 7.98839,-4.80738 7.98839,-6.5932 0,-1.43505 -0.75738,-2.42363 -1.23573,-2.90197 -1.06831,-1.10817 -2.22431,-1.30748 -3.97028,-1.66625 -1.42706,-0.31889 -3.02155,-0.59793 -3.02155,-2.38375 0,-1.14803 0.95669,-3.57166 4.44862,-3.57166 0.99656,0 2.9817,0.27904 3.57963,1.82569 z"
       id="path4485" />
    <path
       style="fill:none;fill-rule:evenodd;stroke:#dd1a1a;stroke-width:2;stroke-linecap:butt;stroke-linejoin:miter;stroke-miterlimit:4;stroke-dasharray:none;stroke-opacity:1"
       d="m 103.62525,508.32963 c 160,-80 280,-360 280,-360"
       id="path4140-7"
       inkscape:connector-curvature="0" />
    <path
       style="fill:none;fill-rule:evenodd;stroke:#ac9f46;stroke-width:2;stroke-linecap:butt;stroke-linejoin:miter;stroke-miterlimit:4;stroke-dasharray:none;stroke-opacity:1"
       d="M 335.65714,369.78217 C 494.9477,284.91425 524.97788,103.42746 524.97788,103.42746"
       id="path4148-5"
       inkscape:connector-curvature="0" />
  </g>
</svg>
