<?xml version="1.0" encoding="UTF-8" standalone="no"?>
<!-- Created with Inkscape (http://www.inkscape.org/) -->

<svg
   xmlns:dc="http://purl.org/dc/elements/1.1/"
   xmlns:cc="http://creativecommons.org/ns#"
   xmlns:rdf="http://www.w3.org/1999/02/22-rdf-syntax-ns#"
   xmlns:svg="http://www.w3.org/2000/svg"
   xmlns="http://www.w3.org/2000/svg"
   xmlns:sodipodi="http://sodipodi.sourceforge.net/DTD/sodipodi-0.dtd"
   xmlns:inkscape="http://www.inkscape.org/namespaces/inkscape"
   width="153.43443mm"
   height="140.1243mm"
   viewBox="0 0 543.66531 496.50342"
   id="svg5221"
   version="1.1"
   inkscape:version="0.91 r13725"
   sodipodi:docname="table_yield_closest_zoom.svg">
  <sodipodi:namedview
     id="base"
     pagecolor="#ffffff"
     bordercolor="#666666"
     borderopacity="1.0"
     inkscape:pageopacity="0.0"
     inkscape:pageshadow="2"
     inkscape:zoom="0.765896"
     inkscape:cx="289.25603"
     inkscape:cy="124.02525"
     inkscape:document-units="px"
     inkscape:current-layer="layer1"
     showgrid="true"
     inkscape:window-width="1920"
     inkscape:window-height="994"
     inkscape:window-x="0"
     inkscape:window-y="28"
     inkscape:window-maximized="1"
     showguides="false"
     fit-margin-top="0"
     fit-margin-left="0"
     fit-margin-right="0"
     fit-margin-bottom="0">
    <inkscape:grid
       type="xygrid"
       id="grid5937"
       originx="-82.79121"
       originy="-402.15586" />
  </sodipodi:namedview>
  <defs
     id="defs5223" />
  <metadata
     id="metadata5226">
    <rdf:RDF>
      <cc:Work
         rdf:about="">
        <dc:format>image/svg+xml</dc:format>
        <dc:type
           rdf:resource="http://purl.org/dc/dcmitype/StillImage" />
        <dc:title></dc:title>
      </cc:Work>
    </rdf:RDF>
  </metadata>
  <g
     inkscape:label="Layer 1"
     inkscape:groupmode="layer"
     id="layer1"
     transform="translate(-82.791215,-153.70292)">
    <g
       transform="matrix(1.25,0,0,-1.25,-1.9907,880.58994)"
       inkscape:label="table_yield_closest_zoom"
       id="g5256">
      <g
         transform="scale(0.1,0.1)"
         id="g5258">
        <path
           inkscape:connector-curvature="0"
           id="path5260"
           style="fill:#ffffff;fill-opacity:1;fill-rule:nonzero;stroke:none"
           d="m 1300.76,2285.2 3720.08,0 0,3520.8" />
        <path
           inkscape:connector-curvature="0"
           id="path5262"
           style="fill:#ffffff;fill-opacity:1;fill-rule:nonzero;stroke:none"
           d="M 1300.76,2285.2 5020.84,5806 1300.76,5806" />
        <path
           inkscape:connector-curvature="0"
           id="path5264"
           style="fill:none;stroke:#000000;stroke-width:5;stroke-linecap:butt;stroke-linejoin:miter;stroke-miterlimit:10;stroke-dasharray:160, 0;stroke-dashoffset:0;stroke-opacity:1"
           d="m 1300.76,2285.2 3720.08,0" />
        <path
           inkscape:connector-curvature="0"
           id="path5266"
           style="fill:none;stroke:#000000;stroke-width:5;stroke-linecap:butt;stroke-linejoin:miter;stroke-miterlimit:10;stroke-dasharray:160, 0;stroke-dashoffset:0;stroke-opacity:1"
           d="m 1300.76,5806 3720.08,0" />
        <path
           inkscape:connector-curvature="0"
           id="path5268"
           style="fill:none;stroke:#000000;stroke-width:5;stroke-linecap:butt;stroke-linejoin:miter;stroke-miterlimit:10;stroke-dasharray:160, 0;stroke-dashoffset:0;stroke-opacity:1"
           d="m 1300.76,2285.2 0,3520.8" />
        <path
           inkscape:connector-curvature="0"
           id="path5270"
           style="fill:none;stroke:#000000;stroke-width:5;stroke-linecap:butt;stroke-linejoin:miter;stroke-miterlimit:10;stroke-dasharray:160, 0;stroke-dashoffset:0;stroke-opacity:1"
           d="m 5020.84,2285.2 0,3520.8" />
        <path
           inkscape:connector-curvature="0"
           id="path5272"
           style="fill:none;stroke:#000000;stroke-width:5;stroke-linecap:butt;stroke-linejoin:miter;stroke-miterlimit:10;stroke-dasharray:160, 0;stroke-dashoffset:0;stroke-opacity:1"
           d="m 1381.71,2285.2 0,44.65" />
        <path
           inkscape:connector-curvature="0"
           id="path5274"
           style="fill:none;stroke:#000000;stroke-width:5;stroke-linecap:butt;stroke-linejoin:miter;stroke-miterlimit:10;stroke-dasharray:160, 0;stroke-dashoffset:0;stroke-opacity:1"
           d="m 1381.71,5806 0,-44.65" />
        <path
           inkscape:connector-curvature="0"
           id="path5276"
           style="fill:none;stroke:#000000;stroke-width:5;stroke-linecap:butt;stroke-linejoin:miter;stroke-miterlimit:10;stroke-dasharray:160, 0;stroke-dashoffset:0;stroke-opacity:1"
           d="m 2225.11,2285.2 0,44.65" />
        <path
           inkscape:connector-curvature="0"
           id="path5278"
           style="fill:none;stroke:#000000;stroke-width:5;stroke-linecap:butt;stroke-linejoin:miter;stroke-miterlimit:10;stroke-dasharray:160, 0;stroke-dashoffset:0;stroke-opacity:1"
           d="m 2225.11,5806 0,-44.65" />
        <path
           inkscape:connector-curvature="0"
           id="path5280"
           style="fill:none;stroke:#000000;stroke-width:5;stroke-linecap:butt;stroke-linejoin:miter;stroke-miterlimit:10;stroke-dasharray:160, 0;stroke-dashoffset:0;stroke-opacity:1"
           d="m 3068.51,2285.2 0,44.65" />
        <path
           inkscape:connector-curvature="0"
           id="path5282"
           style="fill:none;stroke:#000000;stroke-width:5;stroke-linecap:butt;stroke-linejoin:miter;stroke-miterlimit:10;stroke-dasharray:160, 0;stroke-dashoffset:0;stroke-opacity:1"
           d="m 3068.51,5806 0,-44.65" />
        <path
           inkscape:connector-curvature="0"
           id="path5284"
           style="fill:none;stroke:#000000;stroke-width:5;stroke-linecap:butt;stroke-linejoin:miter;stroke-miterlimit:10;stroke-dasharray:160, 0;stroke-dashoffset:0;stroke-opacity:1"
           d="m 3911.9,2285.2 0,44.65" />
        <path
           inkscape:connector-curvature="0"
           id="path5286"
           style="fill:none;stroke:#000000;stroke-width:5;stroke-linecap:butt;stroke-linejoin:miter;stroke-miterlimit:10;stroke-dasharray:160, 0;stroke-dashoffset:0;stroke-opacity:1"
           d="m 3911.9,5806 0,-44.65" />
        <path
           inkscape:connector-curvature="0"
           id="path5288"
           style="fill:none;stroke:#000000;stroke-width:5;stroke-linecap:butt;stroke-linejoin:miter;stroke-miterlimit:10;stroke-dasharray:160, 0;stroke-dashoffset:0;stroke-opacity:1"
           d="m 4755.3,2285.2 0,44.65" />
        <path
           inkscape:connector-curvature="0"
           id="path5290"
           style="fill:none;stroke:#000000;stroke-width:5;stroke-linecap:butt;stroke-linejoin:miter;stroke-miterlimit:10;stroke-dasharray:160, 0;stroke-dashoffset:0;stroke-opacity:1"
           d="m 4755.3,5806 0,-44.65" />
        <g
           transform="scale(10,10)"
           id="g5292">
          <text
             id="text5294"
             style="font-variant:normal;font-weight:normal;font-size:10px;font-family:Helvetica;-inkscape-font-specification:Helvetica;writing-mode:lr-tb;fill:#000000;fill-opacity:1;fill-rule:nonzero;stroke:none"
             transform="matrix(1,0,0,-1,125.387,213.519)">
            <tspan
               id="tspan5296"
               sodipodi:role="line"
               y="0"
               x="0 3.3299999 8.8900003 14.45 20.01 84.339798 87.6698 93.229797 98.789803 104.3498 171.4597 174.7897 180.3497 185.9097 263.02341 341.8035 347.36349 352.92349">-1500-1000-5000500</tspan>
          </text>
        </g>
        <path
           inkscape:connector-curvature="0"
           id="path5298"
           style="fill:none;stroke:#000000;stroke-width:5;stroke-linecap:butt;stroke-linejoin:miter;stroke-miterlimit:10;stroke-dasharray:160, 0;stroke-dashoffset:0;stroke-opacity:1"
           d="m 1300.76,2365.34 44.64,0" />
        <path
           inkscape:connector-curvature="0"
           id="path5300"
           style="fill:none;stroke:#000000;stroke-width:5;stroke-linecap:butt;stroke-linejoin:miter;stroke-miterlimit:10;stroke-dasharray:160, 0;stroke-dashoffset:0;stroke-opacity:1"
           d="m 5020.84,2365.34 -44.63,0" />
        <path
           inkscape:connector-curvature="0"
           id="path5302"
           style="fill:none;stroke:#000000;stroke-width:5;stroke-linecap:butt;stroke-linejoin:miter;stroke-miterlimit:10;stroke-dasharray:160, 0;stroke-dashoffset:0;stroke-opacity:1"
           d="m 1300.76,3208.74 44.64,0" />
        <path
           inkscape:connector-curvature="0"
           id="path5304"
           style="fill:none;stroke:#000000;stroke-width:5;stroke-linecap:butt;stroke-linejoin:miter;stroke-miterlimit:10;stroke-dasharray:160, 0;stroke-dashoffset:0;stroke-opacity:1"
           d="m 5020.84,3208.74 -44.63,0" />
        <path
           inkscape:connector-curvature="0"
           id="path5306"
           style="fill:none;stroke:#000000;stroke-width:5;stroke-linecap:butt;stroke-linejoin:miter;stroke-miterlimit:10;stroke-dasharray:160, 0;stroke-dashoffset:0;stroke-opacity:1"
           d="m 1300.76,4052.13 44.64,0" />
        <path
           inkscape:connector-curvature="0"
           id="path5308"
           style="fill:none;stroke:#000000;stroke-width:5;stroke-linecap:butt;stroke-linejoin:miter;stroke-miterlimit:10;stroke-dasharray:160, 0;stroke-dashoffset:0;stroke-opacity:1"
           d="m 5020.84,4052.13 -44.63,0" />
        <path
           inkscape:connector-curvature="0"
           id="path5310"
           style="fill:none;stroke:#000000;stroke-width:5;stroke-linecap:butt;stroke-linejoin:miter;stroke-miterlimit:10;stroke-dasharray:160, 0;stroke-dashoffset:0;stroke-opacity:1"
           d="m 1300.76,4895.53 44.64,0" />
        <path
           inkscape:connector-curvature="0"
           id="path5312"
           style="fill:none;stroke:#000000;stroke-width:5;stroke-linecap:butt;stroke-linejoin:miter;stroke-miterlimit:10;stroke-dasharray:160, 0;stroke-dashoffset:0;stroke-opacity:1"
           d="m 5020.84,4895.53 -44.63,0" />
        <path
           inkscape:connector-curvature="0"
           id="path5314"
           style="fill:none;stroke:#000000;stroke-width:5;stroke-linecap:butt;stroke-linejoin:miter;stroke-miterlimit:10;stroke-dasharray:160, 0;stroke-dashoffset:0;stroke-opacity:1"
           d="m 1300.76,5738.92 44.64,0" />
        <path
           inkscape:connector-curvature="0"
           id="path5316"
           style="fill:none;stroke:#000000;stroke-width:5;stroke-linecap:butt;stroke-linejoin:miter;stroke-miterlimit:10;stroke-dasharray:160, 0;stroke-dashoffset:0;stroke-opacity:1"
           d="m 5020.84,5738.92 -44.63,0" />
        <g
           transform="scale(10,10)"
           id="g5318">
          <text
             id="text5320"
             style="font-variant:normal;font-weight:normal;font-size:10px;font-family:Helvetica;-inkscape-font-specification:Helvetica;writing-mode:lr-tb;fill:#000000;fill-opacity:1;fill-rule:nonzero;stroke:none"
             transform="matrix(1,0,0,-1,105.066,231.534)">
            <tspan
               id="tspan5322"
               sodipodi:role="line"
               y="0"
               x="0 3.3299999 8.8900003 14.45">-500</tspan>
            <tspan
               id="tspan5324"
               y="-84.3395"
               x="14.4492">0</tspan>
            <tspan
               id="tspan5326"
               sodipodi:role="line"
               y="-168.6786"
               x="3.3297 8.8896999 14.4497">500</tspan>
            <tspan
               id="tspan5328"
               sodipodi:role="line"
               y="-253.0188"
               x="-2.2300701 3.3299301 8.8899298 14.44993">1000</tspan>
            <tspan
               id="tspan5330"
               sodipodi:role="line"
               y="-337.35791"
               x="-2.2300701 3.3299301 8.8899298 14.44993">1500</tspan>
          </text>
        </g>
        <path
           inkscape:connector-curvature="0"
           id="path5332"
           style="fill:none;stroke:#1b9e77;stroke-width:10;stroke-linecap:butt;stroke-linejoin:miter;stroke-miterlimit:10;stroke-dasharray:none;stroke-opacity:1"
           d="m 3263.66,2281.68 619.03,634.9 58.43,292.16 -58.43,292.16 -1139.43,1168.64 -1168.65,292.16 -277.57,34.7" />
        <path
           inkscape:connector-curvature="0"
           id="path5334"
           style="fill:#1b9e77;fill-opacity:1;fill-rule:nonzero;stroke:none"
           d="m 3902.69,2916.58 -3.82,-11.76 -10,-7.27" />
        <path
           inkscape:connector-curvature="0"
           id="path5336"
           style="fill:#1b9e77;fill-opacity:1;fill-rule:nonzero;stroke:none"
           d="m 3902.69,2916.58 -13.82,-19.03 -12.37,0" />
        <path
           inkscape:connector-curvature="0"
           id="path5338"
           style="fill:#1b9e77;fill-opacity:1;fill-rule:nonzero;stroke:none"
           d="m 3902.69,2916.58 -26.19,-19.03 -10,7.27" />
        <path
           inkscape:connector-curvature="0"
           id="path5340"
           style="fill:#1b9e77;fill-opacity:1;fill-rule:nonzero;stroke:none"
           d="m 3902.69,2916.58 -36.19,-11.76 -3.81,11.76" />
        <path
           inkscape:connector-curvature="0"
           id="path5342"
           style="fill:#1b9e77;fill-opacity:1;fill-rule:nonzero;stroke:none"
           d="m 3902.69,2916.58 -40,0 3.81,11.75" />
        <path
           inkscape:connector-curvature="0"
           id="path5344"
           style="fill:#1b9e77;fill-opacity:1;fill-rule:nonzero;stroke:none"
           d="m 3902.69,2916.58 -36.19,11.75 10,7.27" />
        <path
           inkscape:connector-curvature="0"
           id="path5346"
           style="fill:#1b9e77;fill-opacity:1;fill-rule:nonzero;stroke:none"
           d="m 3902.69,2916.58 -26.19,19.02 12.37,0" />
        <path
           inkscape:connector-curvature="0"
           id="path5348"
           style="fill:#1b9e77;fill-opacity:1;fill-rule:nonzero;stroke:none"
           d="m 3902.69,2916.58 -13.82,19.02 10,-7.27" />
        <path
           inkscape:connector-curvature="0"
           id="path5350"
           style="fill:#1b9e77;fill-opacity:1;fill-rule:nonzero;stroke:none"
           d="m 3961.12,3208.74 -3.83,-11.76 -10,-7.26" />
        <path
           inkscape:connector-curvature="0"
           id="path5352"
           style="fill:#1b9e77;fill-opacity:1;fill-rule:nonzero;stroke:none"
           d="m 3961.12,3208.74 -13.83,-19.02 -12.35,0" />
        <path
           inkscape:connector-curvature="0"
           id="path5354"
           style="fill:#1b9e77;fill-opacity:1;fill-rule:nonzero;stroke:none"
           d="m 3961.12,3208.74 -26.18,-19.02 -10,7.26" />
        <path
           inkscape:connector-curvature="0"
           id="path5356"
           style="fill:#1b9e77;fill-opacity:1;fill-rule:nonzero;stroke:none"
           d="m 3961.12,3208.74 -36.18,-11.76 -3.82,11.76" />
        <path
           inkscape:connector-curvature="0"
           id="path5358"
           style="fill:#1b9e77;fill-opacity:1;fill-rule:nonzero;stroke:none"
           d="m 3961.12,3208.74 -40,0 3.82,11.75" />
        <path
           inkscape:connector-curvature="0"
           id="path5360"
           style="fill:#1b9e77;fill-opacity:1;fill-rule:nonzero;stroke:none"
           d="m 3961.12,3208.74 -36.18,11.75 10,7.27" />
        <path
           inkscape:connector-curvature="0"
           id="path5362"
           style="fill:#1b9e77;fill-opacity:1;fill-rule:nonzero;stroke:none"
           d="m 3961.12,3208.74 -26.18,19.02 12.35,0" />
        <path
           inkscape:connector-curvature="0"
           id="path5364"
           style="fill:#1b9e77;fill-opacity:1;fill-rule:nonzero;stroke:none"
           d="m 3961.12,3208.74 -13.83,19.02 10,-7.27" />
        <path
           inkscape:connector-curvature="0"
           id="path5366"
           style="fill:#1b9e77;fill-opacity:1;fill-rule:nonzero;stroke:none"
           d="m 3902.69,3500.9 -3.82,-11.76 -10,-7.26" />
        <path
           inkscape:connector-curvature="0"
           id="path5368"
           style="fill:#1b9e77;fill-opacity:1;fill-rule:nonzero;stroke:none"
           d="m 3902.69,3500.9 -13.82,-19.02 -12.37,0" />
        <path
           inkscape:connector-curvature="0"
           id="path5370"
           style="fill:#1b9e77;fill-opacity:1;fill-rule:nonzero;stroke:none"
           d="m 3902.69,3500.9 -26.19,-19.02 -10,7.26" />
        <path
           inkscape:connector-curvature="0"
           id="path5372"
           style="fill:#1b9e77;fill-opacity:1;fill-rule:nonzero;stroke:none"
           d="m 3902.69,3500.9 -36.19,-11.76 -3.81,11.76" />
        <path
           inkscape:connector-curvature="0"
           id="path5374"
           style="fill:#1b9e77;fill-opacity:1;fill-rule:nonzero;stroke:none"
           d="m 3902.69,3500.9 -40,0 3.81,11.75" />
        <path
           inkscape:connector-curvature="0"
           id="path5376"
           style="fill:#1b9e77;fill-opacity:1;fill-rule:nonzero;stroke:none"
           d="m 3902.69,3500.9 -36.19,11.75 10,7.27" />
        <path
           inkscape:connector-curvature="0"
           id="path5378"
           style="fill:#1b9e77;fill-opacity:1;fill-rule:nonzero;stroke:none"
           d="m 3902.69,3500.9 -26.19,19.02 12.37,0" />
        <path
           inkscape:connector-curvature="0"
           id="path5380"
           style="fill:#1b9e77;fill-opacity:1;fill-rule:nonzero;stroke:none"
           d="m 3902.69,3500.9 -13.82,19.02 10,-7.27" />
        <path
           inkscape:connector-curvature="0"
           id="path5382"
           style="fill:#1b9e77;fill-opacity:1;fill-rule:nonzero;stroke:none"
           d="m 2763.26,4669.54 -3.82,-11.76 -10,-7.26" />
        <path
           inkscape:connector-curvature="0"
           id="path5384"
           style="fill:#1b9e77;fill-opacity:1;fill-rule:nonzero;stroke:none"
           d="m 2763.26,4669.54 -13.82,-19.02 -12.36,0" />
        <path
           inkscape:connector-curvature="0"
           id="path5386"
           style="fill:#1b9e77;fill-opacity:1;fill-rule:nonzero;stroke:none"
           d="m 2763.26,4669.54 -26.18,-19.02 -10,7.26" />
        <path
           inkscape:connector-curvature="0"
           id="path5388"
           style="fill:#1b9e77;fill-opacity:1;fill-rule:nonzero;stroke:none"
           d="m 2763.26,4669.54 -36.18,-11.76 -3.82,11.76" />
        <path
           inkscape:connector-curvature="0"
           id="path5390"
           style="fill:#1b9e77;fill-opacity:1;fill-rule:nonzero;stroke:none"
           d="m 2763.26,4669.54 -40,0 3.82,11.75" />
        <path
           inkscape:connector-curvature="0"
           id="path5392"
           style="fill:#1b9e77;fill-opacity:1;fill-rule:nonzero;stroke:none"
           d="m 2763.26,4669.54 -36.18,11.75 10,7.27" />
        <path
           inkscape:connector-curvature="0"
           id="path5394"
           style="fill:#1b9e77;fill-opacity:1;fill-rule:nonzero;stroke:none"
           d="m 2763.26,4669.54 -26.18,19.02 12.36,0" />
        <path
           inkscape:connector-curvature="0"
           id="path5396"
           style="fill:#1b9e77;fill-opacity:1;fill-rule:nonzero;stroke:none"
           d="m 2763.26,4669.54 -13.82,19.02 10,-7.27" />
        <path
           inkscape:connector-curvature="0"
           id="path5398"
           style="fill:#1b9e77;fill-opacity:1;fill-rule:nonzero;stroke:none"
           d="m 1594.61,4961.7 -3.81,-11.76 -10,-7.26" />
        <path
           inkscape:connector-curvature="0"
           id="path5400"
           style="fill:#1b9e77;fill-opacity:1;fill-rule:nonzero;stroke:none"
           d="m 1594.61,4961.7 -13.81,-19.02 -12.36,0" />
        <path
           inkscape:connector-curvature="0"
           id="path5402"
           style="fill:#1b9e77;fill-opacity:1;fill-rule:nonzero;stroke:none"
           d="m 1594.61,4961.7 -26.17,-19.02 -10,7.26" />
        <path
           inkscape:connector-curvature="0"
           id="path5404"
           style="fill:#1b9e77;fill-opacity:1;fill-rule:nonzero;stroke:none"
           d="m 1594.61,4961.7 -36.17,-11.76 -3.83,11.76" />
        <path
           inkscape:connector-curvature="0"
           id="path5406"
           style="fill:#1b9e77;fill-opacity:1;fill-rule:nonzero;stroke:none"
           d="m 1594.61,4961.7 -40,0 3.83,11.76" />
        <path
           inkscape:connector-curvature="0"
           id="path5408"
           style="fill:#1b9e77;fill-opacity:1;fill-rule:nonzero;stroke:none"
           d="m 1594.61,4961.7 -36.17,11.76 10,7.26" />
        <path
           inkscape:connector-curvature="0"
           id="path5410"
           style="fill:#1b9e77;fill-opacity:1;fill-rule:nonzero;stroke:none"
           d="m 1594.61,4961.7 -26.17,19.02 12.36,0" />
        <path
           inkscape:connector-curvature="0"
           id="path5412"
           style="fill:#1b9e77;fill-opacity:1;fill-rule:nonzero;stroke:none"
           d="m 1594.61,4961.7 -13.81,19.02 10,-7.26" />
        <path
           inkscape:connector-curvature="0"
           id="path5414"
           style="fill:none;stroke:#d95f02;stroke-width:20;stroke-linecap:butt;stroke-linejoin:miter;stroke-miterlimit:10;stroke-dasharray:none;stroke-opacity:1"
           d="m 3312.97,4085.22 -37.99,38.47 -38.04,37.49 -38.06,36.52 -38.09,35.55 -38.13,34.57 -38.16,33.6 -38.19,32.62 -38.22,31.65 -38.26,30.68 -38.29,29.7 -38.32,28.73 -38.36,27.75 -38.38,26.79 -38.42,25.81 -38.46,24.83 -38.48,23.86 -38.52,22.88 -38.54,21.92 -38.59,20.94 -38.61,19.96 -38.65,18.99 -38.67,18.02 -38.71,17.04 -38.75,16.07 -38.77,15.09 -38.81,14.12 -38.85,13.15 -38.87,12.17 -38.91,11.21" />
        <path
           inkscape:connector-curvature="0"
           id="path5416"
           style="fill:none;stroke:#d95f02;stroke-width:20;stroke-linecap:butt;stroke-linejoin:miter;stroke-miterlimit:10;stroke-dasharray:none;stroke-opacity:1"
           d="M 3651.96,5809.52 2790.36,4526.88" />
        <path
           inkscape:connector-curvature="0"
           id="path5418"
           style="fill:none;stroke:#e7298a;stroke-width:20;stroke-linecap:butt;stroke-linejoin:miter;stroke-miterlimit:10;stroke-dasharray:none;stroke-opacity:1"
           d="m 3911.9,3062.66 1.88,9.73 1.76,9.74 1.62,9.74 1.49,9.74 1.36,9.74 1.24,9.74 1.1,9.74 0.98,9.74 0.84,9.73 0.72,9.74 0.58,9.74 0.45,9.74 0.33,9.74 0.2,9.74 0.06,9.74 -0.06,9.74 -0.2,9.73 -0.33,9.74 -0.45,9.74 -0.58,9.74 -0.72,9.74 -0.84,9.73 -0.98,9.75 -1.1,9.73 -1.24,9.74 -1.36,9.74 -1.49,9.74 -1.62,9.74 -1.76,9.74" />
        <path
           inkscape:connector-curvature="0"
           id="path5420"
           style="fill:none;stroke:#e7298a;stroke-width:20;stroke-linecap:butt;stroke-linejoin:miter;stroke-miterlimit:10;stroke-dasharray:none;stroke-opacity:1"
           d="m 5024.57,3208.74 -1098.06,0" />
        <path
           inkscape:connector-curvature="0"
           id="path5422"
           style="fill:none;stroke:#66a61e;stroke-width:20;stroke-linecap:butt;stroke-linejoin:miter;stroke-miterlimit:10;stroke-dasharray:none;stroke-opacity:1"
           d="m 3911.9,3354.81 -2.55,10.23 -3.74,11.2 -4.96,12.17 -6.15,13.15 -7.35,14.12 -8.56,15.1 -9.75,16.07 -10.95,17.04 -12.16,18.01 -13.36,19 -14.56,19.96 -15.76,20.94 -16.96,21.91 -18.17,22.89 -19.36,23.86 -20.56,24.83 -21.77,25.81 -22.97,26.78 -24.16,27.75 -25.38,28.74 -26.56,29.7 -27.78,30.67 -28.97,31.65 -30.17,32.63 -31.38,33.6 -32.57,34.57 -33.78,35.54 -34.98,36.53 -36.18,37.49" />
        <path
           inkscape:connector-curvature="0"
           id="path5424"
           style="fill:none;stroke:#66a61e;stroke-width:20;stroke-linecap:butt;stroke-linejoin:miter;stroke-miterlimit:10;stroke-dasharray:none;stroke-opacity:1"
           d="M 5024.57,3716.79 3909.35,3365.04" />
      </g>
    </g>
    <g
       id="g5601"
       transform="matrix(0.5625,0,0,0.5625,207.79923,443.22583)">
      <g
         id="content"
         transform="matrix(1.0629921,0,0,-1.0629921,-186.02362,789.27165)"
         xml:space="preserve"
         stroke-miterlimit="10.433"
         font-style="normal"
         font-variant="normal"
         font-weight="normal"
         font-stretch="normal"
         font-size-adjust="none"
         letter-spacing="normal"
         word-spacing="normal"
         style="font-style:normal;font-variant:normal;font-weight:normal;font-stretch:normal;letter-spacing:normal;word-spacing:normal;text-anchor:start;fill:none;fill-opacity:1;fill-rule:evenodd;stroke:#000000;stroke-linecap:butt;stroke-linejoin:miter;stroke-miterlimit:10.43299961;stroke-dasharray:none;stroke-dashoffset:0;stroke-opacity:1"><path
           d="m 458.24,399.92 -0.03,-0.15 -0.04,-0.15 -0.03,-0.14 -0.04,-0.13 -0.03,-0.13 -0.04,-0.11 -0.03,-0.12 -0.04,-0.1 -0.04,-0.1 -0.04,-0.09 -0.04,-0.09 -0.05,-0.08 -0.05,-0.07 -0.05,-0.07 -0.06,-0.07 -0.06,-0.05 -0.07,-0.06 -0.07,-0.05 -0.08,-0.04 -0.09,-0.04 -0.09,-0.04 -0.1,-0.03 -0.11,-0.03 -0.12,-0.02 -0.13,-0.02 -0.13,-0.02 -0.07,0 -0.08,-0.01 -0.07,-0.01 -0.08,0 -0.08,-0.01 -0.09,0 -0.08,0 -0.09,-0.01 -0.09,0 -0.1,0 -0.1,0 -0.1,0 c -0.6,0 -1.14,0 -1.14,-0.95 0,-0.39 0.25,-0.59 0.64,-0.59 l 9.12,0 c 0.25,0 0.9,0 0.9,0.99 0,0.55 -0.5,0.55 -1.2,0.55 -2.49,0 -2.49,0.35 -2.49,0.8 0,0.59 2.09,8.71 2.44,9.96 0.65,-1.44 2.04,-3.19 4.58,-3.19 l -0.04,1.1 c -3.29,0 -3.94,4.13 -3.94,4.43 0,0.1 0,0.2 0.15,0.8 l 2.44,9.76 c 0.35,1.35 1.69,2.74 2.59,3.49 1.74,1.54 3.19,1.89 4.03,1.89 1.99,0 3.19,-1.74 3.19,-4.68 0,-2.94 -1.64,-8.67 -2.54,-10.56 -1.69,-3.49 -4.08,-5.13 -5.92,-5.13 l 0.04,-1.1 c 5.78,0 12.01,7.28 12.01,14.6 0,4.68 -2.84,7.97 -6.62,7.97 -2.5,0 -4.89,-1.8 -6.53,-3.74 -0.5,2.69 -2.64,3.74 -4.49,3.74 -2.29,0 -3.23,-1.95 -3.68,-2.84 -0.9,-1.7 -1.55,-4.68 -1.55,-4.83 0,-0.5 0.5,-0.5 0.6,-0.5 0.5,0 0.55,0.05 0.85,1.14 0.85,3.54 1.84,5.93 3.63,5.93 0.85,0 1.55,-0.4 1.55,-2.29 0,-1.15 -0.15,-1.69 -0.35,-2.54 z"
           id="path5604"
           inkscape:connector-curvature="0"
           style="fill:#000000;stroke-width:0" /></g>    </g>
    <g
       id="g5790"
       transform="matrix(0,-0.5625,0.5625,0,-89.68856,553.35989)">
      <g
         word-spacing="normal"
         letter-spacing="normal"
         font-size-adjust="none"
         font-stretch="normal"
         font-weight="normal"
         font-variant="normal"
         font-style="normal"
         stroke-miterlimit="10.433"
         xml:space="preserve"
         transform="matrix(1.0629921,0,0,-1.0629921,-186.02362,789.27165)"
         id="g5792"
         style="font-style:normal;font-variant:normal;font-weight:normal;font-stretch:normal;letter-spacing:normal;word-spacing:normal;text-anchor:start;fill:none;fill-opacity:1;fill-rule:evenodd;stroke:#000000;stroke-linecap:butt;stroke-linejoin:miter;stroke-miterlimit:10.43299961;stroke-dasharray:none;stroke-dashoffset:0;stroke-opacity:1"><path
           id="path5794"
           d="m 477.12,394.22 0.07,0 0.07,0 0.07,0 0.06,0 0.07,0 0.06,0 0.06,0 0.05,0 0.06,0 0.05,0.01 0.05,0 0.05,0 0.1,0 0.09,0.01 0.08,0.01 0.08,0.01 0.07,0.01 0.07,0.01 0.06,0.02 0.06,0.02 0.06,0.02 0.05,0.02 0.05,0.03 0.04,0.03 0.05,0.03 0.04,0.03 0.04,0.04 0.04,0.04 0.04,0.05 0.03,0.05 0.04,0.05 0.04,0.06 0.04,0.06 0.03,0.07 0.04,0.07 0.05,0.08 0.04,0.08 0.04,0.08 27.25,56.89 c 0.35,0.65 0.35,0.75 0.35,0.9 0,0.54 -0.4,0.99 -1,0.99 -0.65,0 -0.85,-0.45 -1.09,-0.99 l -25.7,-53.6 -10.62,24.71 -6.92,-5.34 0.75,-0.79 3.53,2.69 z"
           inkscape:connector-curvature="0"
           style="fill:#000000;stroke-width:0" /><polyline
           id="polyline5796"
           points="505,452 555.04,452 555.04,454.04 505,454.04 "
           style="fill:#000000;fill-rule:nonzero;stroke-width:0" /><path
           id="path5798"
           d="m 531.95,436.39 0.04,0.15 0.03,0.14 0.04,0.14 0.03,0.13 0.04,0.12 0.03,0.12 0.04,0.11 0.04,0.11 0.04,0.1 0.04,0.09 0.05,0.09 0.06,0.08 0.05,0.08 0.07,0.07 0.06,0.07 0.08,0.06 0.08,0.06 0.09,0.05 0.1,0.05 0.1,0.04 0.12,0.04 0.12,0.03 0.14,0.03 0.07,0.02 0.07,0.01 0.08,0.01 0.08,0.02 0.08,0.01 0.08,0 0.09,0.01 0.09,0.01 0.1,0.01 0.1,0 0.1,0.01 0.1,0 0.11,0.01 0.11,0 0.12,0 0.12,0.01 0.12,0 0.13,0 c 0.79,0 1.34,0 1.34,0.95 0,0.44 -0.3,0.59 -0.69,0.59 l -12.86,0 c -0.45,0 -1.04,0 -1.04,-0.99 0,-0.55 0.4,-0.55 1.69,-0.55 1.15,0 1.64,0 2.89,-0.1 1.2,-0.15 1.54,-0.3 1.54,-1 0,-0.3 -0.09,-0.65 -0.2,-1.04 l -5.72,-22.87 c -1.2,-4.83 -4.59,-7.47 -7.18,-7.47 -1.29,0 -3.93,0.5 -4.73,3.09 0.15,-0.05 0.5,-0.05 0.6,-0.05 1.94,0 3.24,1.69 3.24,3.19 0,1.59 -1.35,2.09 -2.19,2.09 -0.9,0 -3.34,-0.6 -3.34,-3.99 0,-3.08 2.64,-5.43 6.57,-5.43 4.59,0 9.77,3.29 11.01,8.22 z"
           inkscape:connector-curvature="0"
           style="fill:#000000;stroke-width:0" /><path
           id="path5800"
           d="m 550.61,405.35 -1.19,0 c -0.1,-0.77 -0.45,-2.83 -0.9,-3.18 -0.28,-0.21 -2.97,-0.21 -3.45,-0.21 l -6.42,0 c 3.66,3.25 4.88,4.22 6.97,5.86 2.58,2.06 4.99,4.22 4.99,7.54 0,4.21 -3.7,6.79 -8.16,6.79 -4.33,0 -7.25,-3.03 -7.25,-6.24 0,-1.78 1.5,-1.95 1.84,-1.95 0.84,0 1.86,0.59 1.86,1.85 0,0.62 -0.25,1.85 -2.06,1.85 1.08,2.47 3.45,3.24 5.09,3.24 3.48,0 5.3,-2.72 5.3,-5.54 0,-3.04 -2.16,-5.45 -3.28,-6.7 l -8.4,-8.3 c -0.35,-0.31 -0.35,-0.38 -0.35,-1.36 l 14.36,0 z"
           inkscape:connector-curvature="0"
           style="fill:#000000;stroke-width:0" /></g>    </g>
  </g>
</svg>
