<?xml version="1.0" encoding="UTF-8" standalone="no"?>
<!-- Created with Inkscape (http://www.inkscape.org/) -->

<svg
   xmlns:dc="http://purl.org/dc/elements/1.1/"
   xmlns:cc="http://creativecommons.org/ns#"
   xmlns:rdf="http://www.w3.org/1999/02/22-rdf-syntax-ns#"
   xmlns:svg="http://www.w3.org/2000/svg"
   xmlns="http://www.w3.org/2000/svg"
   xmlns:sodipodi="http://sodipodi.sourceforge.net/DTD/sodipodi-0.dtd"
   xmlns:inkscape="http://www.inkscape.org/namespaces/inkscape"
   width="175.3251mm"
   height="135.5285mm"
   viewBox="0 0 621.23068 480.2191"
   id="svg2"
   version="1.1"
   inkscape:version="0.91 r13725"
   sodipodi:docname="table_yield_closest.svg">
  <sodipodi:namedview
     id="base"
     pagecolor="#ffffff"
     bordercolor="#666666"
     borderopacity="1.0"
     inkscape:pageopacity="0.0"
     inkscape:pageshadow="2"
     inkscape:zoom="0.765896"
     inkscape:cx="330.7579"
     inkscape:cy="216.97618"
     inkscape:document-units="px"
     inkscape:current-layer="layer1"
     showgrid="false"
     inkscape:window-width="1920"
     inkscape:window-height="994"
     inkscape:window-x="0"
     inkscape:window-y="28"
     inkscape:window-maximized="1"
     fit-margin-top="0"
     fit-margin-left="0"
     fit-margin-right="0"
     fit-margin-bottom="0" />
  <defs
     id="defs4" />
  <metadata
     id="metadata7">
    <rdf:RDF>
      <cc:Work
         rdf:about="">
        <dc:format>image/svg+xml</dc:format>
        <dc:type
           rdf:resource="http://purl.org/dc/dcmitype/StillImage" />
        <dc:title></dc:title>
      </cc:Work>
    </rdf:RDF>
  </metadata>
  <g
     inkscape:label="Layer 1"
     inkscape:groupmode="layer"
     id="layer1"
     transform="translate(-41.289335,-262.9382)">
    <g
       transform="matrix(1.25,0,0,-1.25,2.6489879,990.03195)"
       inkscape:label="table_yield_closest"
       id="g4163">
      <g
         transform="scale(0.1,0.1)"
         id="g4165">
        <path
           inkscape:connector-curvature="0"
           id="path4167"
           style="fill:#ffffff;fill-opacity:1;fill-rule:nonzero;stroke:none"
           d="m 933.531,2383.1 4288.939,0 0,3431.15" />
        <path
           inkscape:connector-curvature="0"
           id="path4169"
           style="fill:#ffffff;fill-opacity:1;fill-rule:nonzero;stroke:none"
           d="m 933.531,2383.1 4288.939,3431.15 -4288.939,0" />
        <path
           inkscape:connector-curvature="0"
           id="path4171"
           style="fill:none;stroke:#000000;stroke-width:5;stroke-linecap:butt;stroke-linejoin:miter;stroke-miterlimit:10;stroke-dasharray:160, 0;stroke-dashoffset:0;stroke-opacity:1"
           d="m 933.531,2383.1 4288.939,0" />
        <path
           inkscape:connector-curvature="0"
           id="path4173"
           style="fill:none;stroke:#000000;stroke-width:5;stroke-linecap:butt;stroke-linejoin:miter;stroke-miterlimit:10;stroke-dasharray:160, 0;stroke-dashoffset:0;stroke-opacity:1"
           d="m 933.531,5814.25 4288.939,0" />
        <path
           inkscape:connector-curvature="0"
           id="path4175"
           style="fill:none;stroke:#000000;stroke-width:5;stroke-linecap:butt;stroke-linejoin:miter;stroke-miterlimit:10;stroke-dasharray:160, 0;stroke-dashoffset:0;stroke-opacity:1"
           d="m 933.531,2383.1 0,3431.15" />
        <path
           inkscape:connector-curvature="0"
           id="path4177"
           style="fill:none;stroke:#000000;stroke-width:5;stroke-linecap:butt;stroke-linejoin:miter;stroke-miterlimit:10;stroke-dasharray:160, 0;stroke-dashoffset:0;stroke-opacity:1"
           d="m 5222.47,2383.1 0,3431.15" />
        <path
           inkscape:connector-curvature="0"
           id="path4179"
           style="fill:none;stroke:#000000;stroke-width:5;stroke-linecap:butt;stroke-linejoin:miter;stroke-miterlimit:10;stroke-dasharray:160, 0;stroke-dashoffset:0;stroke-opacity:1"
           d="m 1363.87,2383.1 0,43.42" />
        <path
           inkscape:connector-curvature="0"
           id="path4181"
           style="fill:none;stroke:#000000;stroke-width:5;stroke-linecap:butt;stroke-linejoin:miter;stroke-miterlimit:10;stroke-dasharray:160, 0;stroke-dashoffset:0;stroke-opacity:1"
           d="m 1363.87,5814.25 0,-43.42" />
        <path
           inkscape:connector-curvature="0"
           id="path4183"
           style="fill:none;stroke:#000000;stroke-width:5;stroke-linecap:butt;stroke-linejoin:miter;stroke-miterlimit:10;stroke-dasharray:160, 0;stroke-dashoffset:0;stroke-opacity:1"
           d="m 2633.47,2383.1 0,43.42" />
        <path
           inkscape:connector-curvature="0"
           id="path4185"
           style="fill:none;stroke:#000000;stroke-width:5;stroke-linecap:butt;stroke-linejoin:miter;stroke-miterlimit:10;stroke-dasharray:160, 0;stroke-dashoffset:0;stroke-opacity:1"
           d="m 2633.47,5814.25 0,-43.42" />
        <path
           inkscape:connector-curvature="0"
           id="path4187"
           style="fill:none;stroke:#000000;stroke-width:5;stroke-linecap:butt;stroke-linejoin:miter;stroke-miterlimit:10;stroke-dasharray:160, 0;stroke-dashoffset:0;stroke-opacity:1"
           d="m 3903.07,2383.1 0,43.42" />
        <path
           inkscape:connector-curvature="0"
           id="path4189"
           style="fill:none;stroke:#000000;stroke-width:5;stroke-linecap:butt;stroke-linejoin:miter;stroke-miterlimit:10;stroke-dasharray:160, 0;stroke-dashoffset:0;stroke-opacity:1"
           d="m 3903.07,5814.25 0,-43.42" />
        <path
           inkscape:connector-curvature="0"
           id="path4191"
           style="fill:none;stroke:#000000;stroke-width:5;stroke-linecap:butt;stroke-linejoin:miter;stroke-miterlimit:10;stroke-dasharray:160, 0;stroke-dashoffset:0;stroke-opacity:1"
           d="m 5172.66,2383.1 0,43.42" />
        <path
           inkscape:connector-curvature="0"
           id="path4193"
           style="fill:none;stroke:#000000;stroke-width:5;stroke-linecap:butt;stroke-linejoin:miter;stroke-miterlimit:10;stroke-dasharray:160, 0;stroke-dashoffset:0;stroke-opacity:1"
           d="m 5172.66,5814.25 0,-43.42" />
        <g
           transform="scale(10,10)"
           id="g4195">
          <text
             id="text4197"
             style="font-variant:normal;font-weight:normal;font-size:10px;font-family:Helvetica;-inkscape-font-specification:Helvetica;writing-mode:lr-tb;fill:#000000;fill-opacity:1;fill-rule:nonzero;stroke:none"
             transform="matrix(1,0,0,-1,120.823,223.308)">
            <tspan
               id="tspan4199"
               sodipodi:role="line"
               y="0"
               x="0 3.3299999 8.8900003 14.45 20.01 25.57 129.73981 133.06979 138.62981 144.1898 149.7498 266.7038 385.32379 390.88379 396.44379 402.00381">-10000-500005000</tspan>
          </text>
        </g>
        <path
           inkscape:connector-curvature="0"
           id="path4201"
           style="fill:none;stroke:#000000;stroke-width:5;stroke-linecap:butt;stroke-linejoin:miter;stroke-miterlimit:10;stroke-dasharray:160, 0;stroke-dashoffset:0;stroke-opacity:1"
           d="m 933.531,2821.19 43.387,0" />
        <path
           inkscape:connector-curvature="0"
           id="path4203"
           style="fill:none;stroke:#000000;stroke-width:5;stroke-linecap:butt;stroke-linejoin:miter;stroke-miterlimit:10;stroke-dasharray:160, 0;stroke-dashoffset:0;stroke-opacity:1"
           d="m 5222.47,2821.19 -43.39,0" />
        <path
           inkscape:connector-curvature="0"
           id="path4205"
           style="fill:none;stroke:#000000;stroke-width:5;stroke-linecap:butt;stroke-linejoin:miter;stroke-miterlimit:10;stroke-dasharray:160, 0;stroke-dashoffset:0;stroke-opacity:1"
           d="m 933.531,3329.02 43.387,0" />
        <path
           inkscape:connector-curvature="0"
           id="path4207"
           style="fill:none;stroke:#000000;stroke-width:5;stroke-linecap:butt;stroke-linejoin:miter;stroke-miterlimit:10;stroke-dasharray:160, 0;stroke-dashoffset:0;stroke-opacity:1"
           d="m 5222.47,3329.02 -43.39,0" />
        <path
           inkscape:connector-curvature="0"
           id="path4209"
           style="fill:none;stroke:#000000;stroke-width:5;stroke-linecap:butt;stroke-linejoin:miter;stroke-miterlimit:10;stroke-dasharray:160, 0;stroke-dashoffset:0;stroke-opacity:1"
           d="m 933.531,3836.86 43.387,0" />
        <path
           inkscape:connector-curvature="0"
           id="path4211"
           style="fill:none;stroke:#000000;stroke-width:5;stroke-linecap:butt;stroke-linejoin:miter;stroke-miterlimit:10;stroke-dasharray:160, 0;stroke-dashoffset:0;stroke-opacity:1"
           d="m 5222.47,3836.86 -43.39,0" />
        <path
           inkscape:connector-curvature="0"
           id="path4213"
           style="fill:none;stroke:#000000;stroke-width:5;stroke-linecap:butt;stroke-linejoin:miter;stroke-miterlimit:10;stroke-dasharray:160, 0;stroke-dashoffset:0;stroke-opacity:1"
           d="m 933.531,4344.7 43.387,0" />
        <path
           inkscape:connector-curvature="0"
           id="path4215"
           style="fill:none;stroke:#000000;stroke-width:5;stroke-linecap:butt;stroke-linejoin:miter;stroke-miterlimit:10;stroke-dasharray:160, 0;stroke-dashoffset:0;stroke-opacity:1"
           d="m 5222.47,4344.7 -43.39,0" />
        <path
           inkscape:connector-curvature="0"
           id="path4217"
           style="fill:none;stroke:#000000;stroke-width:5;stroke-linecap:butt;stroke-linejoin:miter;stroke-miterlimit:10;stroke-dasharray:160, 0;stroke-dashoffset:0;stroke-opacity:1"
           d="m 933.531,4852.54 43.387,0" />
        <path
           inkscape:connector-curvature="0"
           id="path4219"
           style="fill:none;stroke:#000000;stroke-width:5;stroke-linecap:butt;stroke-linejoin:miter;stroke-miterlimit:10;stroke-dasharray:160, 0;stroke-dashoffset:0;stroke-opacity:1"
           d="m 5222.47,4852.54 -43.39,0" />
        <path
           inkscape:connector-curvature="0"
           id="path4221"
           style="fill:none;stroke:#000000;stroke-width:5;stroke-linecap:butt;stroke-linejoin:miter;stroke-miterlimit:10;stroke-dasharray:160, 0;stroke-dashoffset:0;stroke-opacity:1"
           d="m 933.531,5360.38 43.387,0" />
        <path
           inkscape:connector-curvature="0"
           id="path4223"
           style="fill:none;stroke:#000000;stroke-width:5;stroke-linecap:butt;stroke-linejoin:miter;stroke-miterlimit:10;stroke-dasharray:160, 0;stroke-dashoffset:0;stroke-opacity:1"
           d="m 5222.47,5360.38 -43.39,0" />
        <g
           transform="scale(10,10)"
           id="g4225">
          <text
             id="text4227"
             style="font-variant:normal;font-weight:normal;font-size:10px;font-family:Helvetica;-inkscape-font-specification:Helvetica;writing-mode:lr-tb;fill:#000000;fill-opacity:1;fill-rule:nonzero;stroke:none"
             transform="matrix(1,0,0,-1,62.7859,277.119)">
            <tspan
               id="tspan4229"
               sodipodi:role="line"
               y="0"
               x="0 3.3299999 8.8900003 14.45 20.01">-2000</tspan>
            <tspan
               id="tspan4231"
               y="-50.782799"
               x="20.009001">0</tspan>
            <tspan
               id="tspan4233"
               sodipodi:role="line"
               y="-101.5668"
               x="3.3297 8.8896999 14.4497 20.009701">2000</tspan>
            <tspan
               id="tspan4235"
               sodipodi:role="line"
               y="-152.3508"
               x="3.3297 8.8896999 14.4497 20.009701">4000</tspan>
            <tspan
               id="tspan4237"
               sodipodi:role="line"
               y="-203.1348"
               x="3.3297 8.8896999 14.4497 20.009701">6000</tspan>
            <tspan
               id="tspan4239"
               sodipodi:role="line"
               y="-253.91879"
               x="3.3297 8.8896999 14.4497 20.009701">8000</tspan>
          </text>
        </g>
        <path
           inkscape:connector-curvature="0"
           id="path4241"
           style="fill:none;stroke:#1b9e77;stroke-width:10;stroke-linecap:butt;stroke-linejoin:miter;stroke-miterlimit:10;stroke-dasharray:none;stroke-opacity:1"
           d="m 3727.14,3109.12 171.53,175.92 8.8,43.98 -8.8,43.98 -171.53,175.93 -175.91,43.98 -351.85,43.97 -703.68,43.98 -1407.36,43.98 -140.742,4.4" />
        <path
           inkscape:connector-curvature="0"
           id="path4243"
           style="fill:#1b9e77;fill-opacity:1;fill-rule:nonzero;stroke:none"
           d="m 3747.15,3109.12 -3.82,-11.75 -10,-7.27" />
        <path
           inkscape:connector-curvature="0"
           id="path4245"
           style="fill:#1b9e77;fill-opacity:1;fill-rule:nonzero;stroke:none"
           d="m 3747.15,3109.12 -13.82,-19.02 -12.36,0" />
        <path
           inkscape:connector-curvature="0"
           id="path4247"
           style="fill:#1b9e77;fill-opacity:1;fill-rule:nonzero;stroke:none"
           d="m 3747.15,3109.12 -26.18,-19.02 -10,7.27" />
        <path
           inkscape:connector-curvature="0"
           id="path4249"
           style="fill:#1b9e77;fill-opacity:1;fill-rule:nonzero;stroke:none"
           d="m 3747.15,3109.12 -36.18,-11.75 -3.82,11.75" />
        <path
           inkscape:connector-curvature="0"
           id="path4251"
           style="fill:#1b9e77;fill-opacity:1;fill-rule:nonzero;stroke:none"
           d="m 3747.15,3109.12 -40,0 3.82,11.76" />
        <path
           inkscape:connector-curvature="0"
           id="path4253"
           style="fill:#1b9e77;fill-opacity:1;fill-rule:nonzero;stroke:none"
           d="m 3747.15,3109.12 -36.18,11.76 10,7.26" />
        <path
           inkscape:connector-curvature="0"
           id="path4255"
           style="fill:#1b9e77;fill-opacity:1;fill-rule:nonzero;stroke:none"
           d="m 3747.15,3109.12 -26.18,19.02 12.36,0" />
        <path
           inkscape:connector-curvature="0"
           id="path4257"
           style="fill:#1b9e77;fill-opacity:1;fill-rule:nonzero;stroke:none"
           d="m 3747.15,3109.12 -13.82,19.02 10,-7.26" />
        <path
           inkscape:connector-curvature="0"
           id="path4259"
           style="fill:#1b9e77;fill-opacity:1;fill-rule:nonzero;stroke:none"
           d="m 3918.67,3285.04 -3.82,-11.75 -10,-7.27" />
        <path
           inkscape:connector-curvature="0"
           id="path4261"
           style="fill:#1b9e77;fill-opacity:1;fill-rule:nonzero;stroke:none"
           d="m 3918.67,3285.04 -13.82,-19.02 -12.36,0" />
        <path
           inkscape:connector-curvature="0"
           id="path4263"
           style="fill:#1b9e77;fill-opacity:1;fill-rule:nonzero;stroke:none"
           d="m 3918.67,3285.04 -26.18,-19.02 -10,7.27" />
        <path
           inkscape:connector-curvature="0"
           id="path4265"
           style="fill:#1b9e77;fill-opacity:1;fill-rule:nonzero;stroke:none"
           d="m 3918.67,3285.04 -36.18,-11.75 -3.82,11.75" />
        <path
           inkscape:connector-curvature="0"
           id="path4267"
           style="fill:#1b9e77;fill-opacity:1;fill-rule:nonzero;stroke:none"
           d="m 3918.67,3285.04 -40,0 3.82,11.76" />
        <path
           inkscape:connector-curvature="0"
           id="path4269"
           style="fill:#1b9e77;fill-opacity:1;fill-rule:nonzero;stroke:none"
           d="m 3918.67,3285.04 -36.18,11.76 10,7.26" />
        <path
           inkscape:connector-curvature="0"
           id="path4271"
           style="fill:#1b9e77;fill-opacity:1;fill-rule:nonzero;stroke:none"
           d="m 3918.67,3285.04 -26.18,19.02 12.36,0" />
        <path
           inkscape:connector-curvature="0"
           id="path4273"
           style="fill:#1b9e77;fill-opacity:1;fill-rule:nonzero;stroke:none"
           d="m 3918.67,3285.04 -13.82,19.02 10,-7.26" />
        <path
           inkscape:connector-curvature="0"
           id="path4275"
           style="fill:#1b9e77;fill-opacity:1;fill-rule:nonzero;stroke:none"
           d="m 3927.47,3329.02 -3.83,-11.75 -10,-7.27" />
        <path
           inkscape:connector-curvature="0"
           id="path4277"
           style="fill:#1b9e77;fill-opacity:1;fill-rule:nonzero;stroke:none"
           d="m 3927.47,3329.02 -13.83,-19.02 -12.36,0" />
        <path
           inkscape:connector-curvature="0"
           id="path4279"
           style="fill:#1b9e77;fill-opacity:1;fill-rule:nonzero;stroke:none"
           d="m 3927.47,3329.02 -26.19,-19.02 -10,7.27" />
        <path
           inkscape:connector-curvature="0"
           id="path4281"
           style="fill:#1b9e77;fill-opacity:1;fill-rule:nonzero;stroke:none"
           d="m 3927.47,3329.02 -36.19,-11.75 -3.81,11.75" />
        <path
           inkscape:connector-curvature="0"
           id="path4283"
           style="fill:#1b9e77;fill-opacity:1;fill-rule:nonzero;stroke:none"
           d="m 3927.47,3329.02 -40,0 3.81,11.76" />
        <path
           inkscape:connector-curvature="0"
           id="path4285"
           style="fill:#1b9e77;fill-opacity:1;fill-rule:nonzero;stroke:none"
           d="m 3927.47,3329.02 -36.19,11.76 10,7.27" />
        <path
           inkscape:connector-curvature="0"
           id="path4287"
           style="fill:#1b9e77;fill-opacity:1;fill-rule:nonzero;stroke:none"
           d="m 3927.47,3329.02 -26.19,19.03 12.36,0" />
        <path
           inkscape:connector-curvature="0"
           id="path4289"
           style="fill:#1b9e77;fill-opacity:1;fill-rule:nonzero;stroke:none"
           d="m 3927.47,3329.02 -13.83,19.03 10,-7.27" />
        <path
           inkscape:connector-curvature="0"
           id="path4291"
           style="fill:#1b9e77;fill-opacity:1;fill-rule:nonzero;stroke:none"
           d="m 3918.67,3373 -3.82,-11.75 -10,-7.27" />
        <path
           inkscape:connector-curvature="0"
           id="path4293"
           style="fill:#1b9e77;fill-opacity:1;fill-rule:nonzero;stroke:none"
           d="m 3918.67,3373 -13.82,-19.02 -12.36,0" />
        <path
           inkscape:connector-curvature="0"
           id="path4295"
           style="fill:#1b9e77;fill-opacity:1;fill-rule:nonzero;stroke:none"
           d="m 3918.67,3373 -26.18,-19.02 -10,7.27" />
        <path
           inkscape:connector-curvature="0"
           id="path4297"
           style="fill:#1b9e77;fill-opacity:1;fill-rule:nonzero;stroke:none"
           d="m 3918.67,3373 -36.18,-11.75 -3.82,11.75" />
        <path
           inkscape:connector-curvature="0"
           id="path4299"
           style="fill:#1b9e77;fill-opacity:1;fill-rule:nonzero;stroke:none"
           d="m 3918.67,3373 -40,0 3.82,11.76" />
        <path
           inkscape:connector-curvature="0"
           id="path4301"
           style="fill:#1b9e77;fill-opacity:1;fill-rule:nonzero;stroke:none"
           d="m 3918.67,3373 -36.18,11.76 10,7.27" />
        <path
           inkscape:connector-curvature="0"
           id="path4303"
           style="fill:#1b9e77;fill-opacity:1;fill-rule:nonzero;stroke:none"
           d="m 3918.67,3373 -26.18,19.03 12.36,0" />
        <path
           inkscape:connector-curvature="0"
           id="path4305"
           style="fill:#1b9e77;fill-opacity:1;fill-rule:nonzero;stroke:none"
           d="m 3918.67,3373 -13.82,19.03 10,-7.27" />
        <path
           inkscape:connector-curvature="0"
           id="path4307"
           style="fill:#1b9e77;fill-opacity:1;fill-rule:nonzero;stroke:none"
           d="m 3747.15,3548.93 -3.82,-11.76 -10,-7.27" />
        <path
           inkscape:connector-curvature="0"
           id="path4309"
           style="fill:#1b9e77;fill-opacity:1;fill-rule:nonzero;stroke:none"
           d="m 3747.15,3548.93 -13.82,-19.03 -12.36,0" />
        <path
           inkscape:connector-curvature="0"
           id="path4311"
           style="fill:#1b9e77;fill-opacity:1;fill-rule:nonzero;stroke:none"
           d="m 3747.15,3548.93 -26.18,-19.03 -10,7.27" />
        <path
           inkscape:connector-curvature="0"
           id="path4313"
           style="fill:#1b9e77;fill-opacity:1;fill-rule:nonzero;stroke:none"
           d="m 3747.15,3548.93 -36.18,-11.76 -3.82,11.76" />
        <path
           inkscape:connector-curvature="0"
           id="path4315"
           style="fill:#1b9e77;fill-opacity:1;fill-rule:nonzero;stroke:none"
           d="m 3747.15,3548.93 -40,0 3.82,11.75" />
        <path
           inkscape:connector-curvature="0"
           id="path4317"
           style="fill:#1b9e77;fill-opacity:1;fill-rule:nonzero;stroke:none"
           d="m 3747.15,3548.93 -36.18,11.75 10,7.26" />
        <path
           inkscape:connector-curvature="0"
           id="path4319"
           style="fill:#1b9e77;fill-opacity:1;fill-rule:nonzero;stroke:none"
           d="m 3747.15,3548.93 -26.18,19.01 12.36,0" />
        <path
           inkscape:connector-curvature="0"
           id="path4321"
           style="fill:#1b9e77;fill-opacity:1;fill-rule:nonzero;stroke:none"
           d="m 3747.15,3548.93 -13.82,19.01 10,-7.26" />
        <path
           inkscape:connector-curvature="0"
           id="path4323"
           style="fill:#1b9e77;fill-opacity:1;fill-rule:nonzero;stroke:none"
           d="m 3571.23,3592.91 -3.82,-11.76 -10,-7.27" />
        <path
           inkscape:connector-curvature="0"
           id="path4325"
           style="fill:#1b9e77;fill-opacity:1;fill-rule:nonzero;stroke:none"
           d="m 3571.23,3592.91 -13.82,-19.03 -12.37,0" />
        <path
           inkscape:connector-curvature="0"
           id="path4327"
           style="fill:#1b9e77;fill-opacity:1;fill-rule:nonzero;stroke:none"
           d="m 3571.23,3592.91 -26.19,-19.03 -10,7.27" />
        <path
           inkscape:connector-curvature="0"
           id="path4329"
           style="fill:#1b9e77;fill-opacity:1;fill-rule:nonzero;stroke:none"
           d="m 3571.23,3592.91 -36.19,-11.76 -3.81,11.76" />
        <path
           inkscape:connector-curvature="0"
           id="path4331"
           style="fill:#1b9e77;fill-opacity:1;fill-rule:nonzero;stroke:none"
           d="m 3571.23,3592.91 -40,0 3.81,11.75" />
        <path
           inkscape:connector-curvature="0"
           id="path4333"
           style="fill:#1b9e77;fill-opacity:1;fill-rule:nonzero;stroke:none"
           d="m 3571.23,3592.91 -36.19,11.75 10,7.26" />
        <path
           inkscape:connector-curvature="0"
           id="path4335"
           style="fill:#1b9e77;fill-opacity:1;fill-rule:nonzero;stroke:none"
           d="m 3571.23,3592.91 -26.19,19.01 12.37,0" />
        <path
           inkscape:connector-curvature="0"
           id="path4337"
           style="fill:#1b9e77;fill-opacity:1;fill-rule:nonzero;stroke:none"
           d="m 3571.23,3592.91 -13.82,19.01 10,-7.26" />
        <path
           inkscape:connector-curvature="0"
           id="path4339"
           style="fill:#1b9e77;fill-opacity:1;fill-rule:nonzero;stroke:none"
           d="m 3219.38,3636.88 -3.81,-11.75 -10,-7.26" />
        <path
           inkscape:connector-curvature="0"
           id="path4341"
           style="fill:#1b9e77;fill-opacity:1;fill-rule:nonzero;stroke:none"
           d="m 3219.38,3636.88 -13.81,-19.01 -12.37,0" />
        <path
           inkscape:connector-curvature="0"
           id="path4343"
           style="fill:#1b9e77;fill-opacity:1;fill-rule:nonzero;stroke:none"
           d="m 3219.38,3636.88 -26.18,-19.01 -10,7.26" />
        <path
           inkscape:connector-curvature="0"
           id="path4345"
           style="fill:#1b9e77;fill-opacity:1;fill-rule:nonzero;stroke:none"
           d="m 3219.38,3636.88 -36.18,-11.75 -3.82,11.75" />
        <path
           inkscape:connector-curvature="0"
           id="path4347"
           style="fill:#1b9e77;fill-opacity:1;fill-rule:nonzero;stroke:none"
           d="m 3219.38,3636.88 -40,0 3.82,11.76" />
        <path
           inkscape:connector-curvature="0"
           id="path4349"
           style="fill:#1b9e77;fill-opacity:1;fill-rule:nonzero;stroke:none"
           d="m 3219.38,3636.88 -36.18,11.76 10,7.27" />
        <path
           inkscape:connector-curvature="0"
           id="path4351"
           style="fill:#1b9e77;fill-opacity:1;fill-rule:nonzero;stroke:none"
           d="m 3219.38,3636.88 -26.18,19.03 12.37,0" />
        <path
           inkscape:connector-curvature="0"
           id="path4353"
           style="fill:#1b9e77;fill-opacity:1;fill-rule:nonzero;stroke:none"
           d="m 3219.38,3636.88 -13.81,19.03 10,-7.27" />
        <path
           inkscape:connector-curvature="0"
           id="path4355"
           style="fill:#1b9e77;fill-opacity:1;fill-rule:nonzero;stroke:none"
           d="m 2515.7,3680.86 -3.82,-11.75 -10,-7.27" />
        <path
           inkscape:connector-curvature="0"
           id="path4357"
           style="fill:#1b9e77;fill-opacity:1;fill-rule:nonzero;stroke:none"
           d="m 2515.7,3680.86 -13.82,-19.02 -12.36,0" />
        <path
           inkscape:connector-curvature="0"
           id="path4359"
           style="fill:#1b9e77;fill-opacity:1;fill-rule:nonzero;stroke:none"
           d="m 2515.7,3680.86 -26.18,-19.02 -10,7.27" />
        <path
           inkscape:connector-curvature="0"
           id="path4361"
           style="fill:#1b9e77;fill-opacity:1;fill-rule:nonzero;stroke:none"
           d="m 2515.7,3680.86 -36.18,-11.75 -3.82,11.75" />
        <path
           inkscape:connector-curvature="0"
           id="path4363"
           style="fill:#1b9e77;fill-opacity:1;fill-rule:nonzero;stroke:none"
           d="m 2515.7,3680.86 -40,0 3.82,11.76" />
        <path
           inkscape:connector-curvature="0"
           id="path4365"
           style="fill:#1b9e77;fill-opacity:1;fill-rule:nonzero;stroke:none"
           d="m 2515.7,3680.86 -36.18,11.76 10,7.27" />
        <path
           inkscape:connector-curvature="0"
           id="path4367"
           style="fill:#1b9e77;fill-opacity:1;fill-rule:nonzero;stroke:none"
           d="m 2515.7,3680.86 -26.18,19.03 12.36,0" />
        <path
           inkscape:connector-curvature="0"
           id="path4369"
           style="fill:#1b9e77;fill-opacity:1;fill-rule:nonzero;stroke:none"
           d="m 2515.7,3680.86 -13.82,19.03 10,-7.27" />
        <path
           inkscape:connector-curvature="0"
           id="path4371"
           style="fill:#1b9e77;fill-opacity:1;fill-rule:nonzero;stroke:none"
           d="m 1108.34,3724.84 -3.81,-11.75 -10,-7.26" />
        <path
           inkscape:connector-curvature="0"
           id="path4373"
           style="fill:#1b9e77;fill-opacity:1;fill-rule:nonzero;stroke:none"
           d="m 1108.34,3724.84 -13.81,-19.01 -12.36,0" />
        <path
           inkscape:connector-curvature="0"
           id="path4375"
           style="fill:#1b9e77;fill-opacity:1;fill-rule:nonzero;stroke:none"
           d="m 1108.34,3724.84 -26.17,-19.01 -10,7.26" />
        <path
           inkscape:connector-curvature="0"
           id="path4377"
           style="fill:#1b9e77;fill-opacity:1;fill-rule:nonzero;stroke:none"
           d="m 1108.34,3724.84 -36.17,-11.75 -3.83,11.75" />
        <path
           inkscape:connector-curvature="0"
           id="path4379"
           style="fill:#1b9e77;fill-opacity:1;fill-rule:nonzero;stroke:none"
           d="m 1108.34,3724.84 -40,0 3.83,11.76" />
        <path
           inkscape:connector-curvature="0"
           id="path4381"
           style="fill:#1b9e77;fill-opacity:1;fill-rule:nonzero;stroke:none"
           d="m 1108.34,3724.84 -36.17,11.76 10,7.27" />
        <path
           inkscape:connector-curvature="0"
           id="path4383"
           style="fill:#1b9e77;fill-opacity:1;fill-rule:nonzero;stroke:none"
           d="m 1108.34,3724.84 -26.17,19.03 12.36,0" />
        <path
           inkscape:connector-curvature="0"
           id="path4385"
           style="fill:#1b9e77;fill-opacity:1;fill-rule:nonzero;stroke:none"
           d="m 1108.34,3724.84 -13.81,19.03 10,-7.27" />
        <path
           inkscape:connector-curvature="0"
           id="path4387"
           style="fill:#1b9e77;fill-opacity:1;fill-rule:nonzero;stroke:none"
           d="m 967.598,3729.24 -3.821,-11.75 -10,-7.27" />
        <path
           inkscape:connector-curvature="0"
           id="path4389"
           style="fill:#1b9e77;fill-opacity:1;fill-rule:nonzero;stroke:none"
           d="m 967.598,3729.24 -13.821,-19.02 -12.359,0" />
        <path
           inkscape:connector-curvature="0"
           id="path4391"
           style="fill:#1b9e77;fill-opacity:1;fill-rule:nonzero;stroke:none"
           d="m 967.598,3729.24 -26.18,-19.02 -10,7.27" />
        <path
           inkscape:connector-curvature="0"
           id="path4393"
           style="fill:#1b9e77;fill-opacity:1;fill-rule:nonzero;stroke:none"
           d="m 967.598,3729.24 -36.18,-11.75 -3.82,11.75" />
        <path
           inkscape:connector-curvature="0"
           id="path4395"
           style="fill:#1b9e77;fill-opacity:1;fill-rule:nonzero;stroke:none"
           d="m 967.598,3729.24 -40,0 3.82,11.76" />
        <path
           inkscape:connector-curvature="0"
           id="path4397"
           style="fill:#1b9e77;fill-opacity:1;fill-rule:nonzero;stroke:none"
           d="m 967.598,3729.24 -36.18,11.76 10,7.27" />
        <path
           inkscape:connector-curvature="0"
           id="path4399"
           style="fill:#1b9e77;fill-opacity:1;fill-rule:nonzero;stroke:none"
           d="m 967.598,3729.24 -26.18,19.03 12.359,0" />
        <path
           inkscape:connector-curvature="0"
           id="path4401"
           style="fill:#1b9e77;fill-opacity:1;fill-rule:nonzero;stroke:none"
           d="m 967.598,3729.24 -13.821,19.03 10,-7.27" />
        <path
           inkscape:connector-curvature="0"
           id="path4403"
           style="fill:#1b9e77;fill-opacity:1;fill-rule:nonzero;stroke:none"
           d="m 953.531,3729.68 -3.82,-11.76 -10,-7.26" />
        <path
           inkscape:connector-curvature="0"
           id="path4405"
           style="fill:#1b9e77;fill-opacity:1;fill-rule:nonzero;stroke:none"
           d="m 953.531,3729.68 -13.82,-19.02 -12.363,0" />
        <path
           inkscape:connector-curvature="0"
           id="path4407"
           style="fill:#1b9e77;fill-opacity:1;fill-rule:nonzero;stroke:none"
           d="m 953.531,3729.68 -26.183,-19.02 -9.993,7.26" />
        <path
           inkscape:connector-curvature="0"
           id="path4409"
           style="fill:#1b9e77;fill-opacity:1;fill-rule:nonzero;stroke:none"
           d="m 953.531,3729.68 -36.176,-11.76 -3.824,11.76" />
        <path
           inkscape:connector-curvature="0"
           id="path4411"
           style="fill:#1b9e77;fill-opacity:1;fill-rule:nonzero;stroke:none"
           d="m 953.531,3729.68 -40,0 3.824,11.76" />
        <path
           inkscape:connector-curvature="0"
           id="path4413"
           style="fill:#1b9e77;fill-opacity:1;fill-rule:nonzero;stroke:none"
           d="m 953.531,3729.68 -36.176,11.76 9.993,7.27" />
        <path
           inkscape:connector-curvature="0"
           id="path4415"
           style="fill:#1b9e77;fill-opacity:1;fill-rule:nonzero;stroke:none"
           d="m 953.531,3729.68 -26.183,19.03 12.363,0" />
        <path
           inkscape:connector-curvature="0"
           id="path4417"
           style="fill:#1b9e77;fill-opacity:1;fill-rule:nonzero;stroke:none"
           d="m 953.531,3729.68 -13.82,19.03 10,-7.27" />
        <path
           inkscape:connector-curvature="0"
           id="path4419"
           style="fill:none;stroke:#d95f02;stroke-width:20;stroke-linecap:butt;stroke-linejoin:miter;stroke-miterlimit:10;stroke-dasharray:none;stroke-opacity:1"
           d="m 3812.91,3460.96 -5.72,5.79 -5.73,5.65 -5.73,5.5 -5.73,5.35 -5.74,5.2 -5.74,5.06 -5.76,4.91 -5.75,4.76 -5.76,4.62 -5.76,4.48 -5.77,4.32 -5.77,4.18 -5.78,4.03 -5.79,3.88 -5.78,3.74 -5.8,3.6 -5.8,3.44 -5.8,3.3 -5.81,3.15 -5.81,3.01 -5.82,2.85 -5.82,2.72 -5.83,2.56 -5.83,2.42 -5.84,2.27 -5.84,2.13 -5.84,1.97 -5.86,1.84 -5.86,1.69" />
        <path
           inkscape:connector-curvature="0"
           id="path4421"
           style="fill:none;stroke:#d95f02;stroke-width:20;stroke-linecap:butt;stroke-linejoin:miter;stroke-miterlimit:10;stroke-dasharray:none;stroke-opacity:1"
           d="M 4782.67,5088.23 3734.24,3527.45" />
        <path
           inkscape:connector-curvature="0"
           id="path4423"
           style="fill:none;stroke:#7570b3;stroke-width:20;stroke-linecap:butt;stroke-linejoin:miter;stroke-miterlimit:10;stroke-dasharray:none;stroke-opacity:1"
           d="m 3375.31,3614.89 -11.93,1.47 -12.32,1.47 -12.7,1.46 -13.1,1.47 -13.48,1.46 -13.88,1.47 -14.27,1.47 -14.66,1.46 -15.05,1.47 -15.44,1.47 -15.84,1.46 -16.22,1.47 -16.62,1.46 -17,1.47 -17.39,1.46 -17.79,1.47 -18.18,1.46 -18.57,1.47 -18.96,1.47 -19.35,1.46 -19.74,1.47 -20.14,1.47 -20.52,1.46 -20.91,1.47 -21.31,1.46 -21.7,1.47 -22.09,1.47 -22.48,1.46 -22.87,1.47" />
        <path
           inkscape:connector-curvature="0"
           id="path4425"
           style="fill:none;stroke:#7570b3;stroke-width:20;stroke-linecap:butt;stroke-linejoin:miter;stroke-miterlimit:10;stroke-dasharray:none;stroke-opacity:1"
           d="M 3023.47,5088.23 2928.25,3653.68" />
        <path
           inkscape:connector-curvature="0"
           id="path4427"
           style="fill:none;stroke:#e7298a;stroke-width:20;stroke-linecap:butt;stroke-linejoin:miter;stroke-miterlimit:10;stroke-dasharray:none;stroke-opacity:1"
           d="m 3903.07,3307.03 0.28,1.47 0.26,1.47 0.25,1.46 0.22,1.47 0.21,1.47 0.18,1.46 0.17,1.46 0.15,1.47 0.12,1.47 0.11,1.46 0.09,1.47 0.07,1.46 0.04,1.47 0.03,1.47 0.01,1.46 -0.01,1.47 -0.03,1.46 -0.04,1.47 -0.07,1.47 -0.09,1.46 -0.11,1.47 -0.12,1.47 -0.15,1.46 -0.17,1.47 -0.18,1.46 -0.21,1.47 -0.22,1.47 -0.25,1.46 -0.26,1.47" />
        <path
           inkscape:connector-curvature="0"
           id="path4429"
           style="fill:none;stroke:#e7298a;stroke-width:20;stroke-linecap:butt;stroke-linejoin:miter;stroke-miterlimit:10;stroke-dasharray:none;stroke-opacity:1"
           d="m 5222.47,3329.02 -1317.21,0" />
        <path
           inkscape:connector-curvature="0"
           id="path4431"
           style="fill:none;stroke:#66a61e;stroke-width:20;stroke-linecap:butt;stroke-linejoin:miter;stroke-miterlimit:10;stroke-dasharray:none;stroke-opacity:1"
           d="m 3903.07,3351.02 -0.39,1.53 -0.56,1.69 -0.75,1.83 -0.92,1.98 -1.11,2.13 -1.29,2.27 -1.47,2.42 -1.64,2.56 -1.83,2.72 -2.02,2.85 -2.19,3.01 -2.37,3.15 -2.56,3.3 -2.73,3.44 -2.91,3.6 -3.1,3.73 -3.28,3.89 -3.45,4.03 -3.64,4.18 -3.82,4.32 -4,4.48 -4.18,4.62 -4.36,4.76 -4.54,4.91 -4.73,5.06 -4.9,5.2 -5.08,5.35 -5.27,5.5 -5.44,5.64" />
        <path
           inkscape:connector-curvature="0"
           id="path4433"
           style="fill:none;stroke:#66a61e;stroke-width:20;stroke-linecap:butt;stroke-linejoin:miter;stroke-miterlimit:10;stroke-dasharray:none;stroke-opacity:1"
           d="M 5222.47,3768.82 3902.68,3352.55" />
        <path
           inkscape:connector-curvature="0"
           id="path4435"
           style="fill:none;stroke:#e6ab02;stroke-width:20;stroke-linecap:butt;stroke-linejoin:miter;stroke-miterlimit:10;stroke-dasharray:none;stroke-opacity:1"
           d="m 2847.54,3658.88 -23.84,1.46 -24.63,1.47 -25.41,1.46 -26.19,1.47 -26.98,1.47 -27.76,1.46 -28.54,1.47 -29.31,1.47 -30.1,1.46 -30.89,1.47 -31.67,1.46 -32.44,1.46 -33.23,1.47 -34.02,1.47 -34.79,1.46 -35.57,1.47 -36.36,1.47 -37.14,1.46 -37.92,1.47 -38.7,1.46 -39.49,1.47 -40.26,1.47 -41.05,1.46 -41.83,1.47 -42.61,1.47 -43.4,1.46 -44.17,1.47 -44.96,1.46 -45.74,1.47" />
        <path
           inkscape:connector-curvature="0"
           id="path4437"
           style="fill:none;stroke:#e6ab02;stroke-width:20;stroke-linecap:butt;stroke-linejoin:miter;stroke-miterlimit:10;stroke-dasharray:none;stroke-opacity:1"
           d="m 2583.66,3768.82 -4.53,-95.53" />
      </g>
    </g>
    <g
       id="g4720"
       transform="matrix(0,-0.5625,0.5625,0,-131.19044,664.34106)">
      <g
         id="content"
         transform="matrix(1.0629921,0,0,-1.0629921,-186.02362,789.27165)"
         xml:space="preserve"
         stroke-miterlimit="10.433"
         font-style="normal"
         font-variant="normal"
         font-weight="normal"
         font-stretch="normal"
         font-size-adjust="none"
         letter-spacing="normal"
         word-spacing="normal"
         style="font-style:normal;font-variant:normal;font-weight:normal;font-stretch:normal;letter-spacing:normal;word-spacing:normal;text-anchor:start;fill:none;fill-opacity:1;fill-rule:evenodd;stroke:#000000;stroke-linecap:butt;stroke-linejoin:miter;stroke-miterlimit:10.43299961;stroke-dasharray:none;stroke-dashoffset:0;stroke-opacity:1"><path
           d="m 477.12,394.22 0.07,0 0.07,0 0.07,0 0.06,0 0.07,0 0.06,0 0.06,0 0.05,0 0.06,0 0.05,0.01 0.05,0 0.05,0 0.1,0 0.09,0.01 0.08,0.01 0.08,0.01 0.07,0.01 0.07,0.01 0.06,0.02 0.06,0.02 0.06,0.02 0.05,0.02 0.05,0.03 0.04,0.03 0.05,0.03 0.04,0.03 0.04,0.04 0.04,0.04 0.04,0.05 0.03,0.05 0.04,0.05 0.04,0.06 0.04,0.06 0.03,0.07 0.04,0.07 0.05,0.08 0.04,0.08 0.04,0.08 27.25,56.89 c 0.35,0.65 0.35,0.75 0.35,0.9 0,0.54 -0.4,0.99 -1,0.99 -0.65,0 -0.85,-0.45 -1.09,-0.99 l -25.7,-53.6 -10.62,24.71 -6.92,-5.34 0.75,-0.79 3.53,2.69 z"
           id="path4723"
           inkscape:connector-curvature="0"
           style="fill:#000000;stroke-width:0" /><polyline
           points="505,452 555.04,452 555.04,454.04 505,454.04 "
           id="polyline4725"
           style="fill:#000000;fill-rule:nonzero;stroke-width:0" /><path
           d="m 531.95,436.39 0.04,0.15 0.03,0.14 0.04,0.14 0.03,0.13 0.04,0.12 0.03,0.12 0.04,0.11 0.04,0.11 0.04,0.1 0.04,0.09 0.05,0.09 0.06,0.08 0.05,0.08 0.07,0.07 0.06,0.07 0.08,0.06 0.08,0.06 0.09,0.05 0.1,0.05 0.1,0.04 0.12,0.04 0.12,0.03 0.14,0.03 0.07,0.02 0.07,0.01 0.08,0.01 0.08,0.02 0.08,0.01 0.08,0 0.09,0.01 0.09,0.01 0.1,0.01 0.1,0 0.1,0.01 0.1,0 0.11,0.01 0.11,0 0.12,0 0.12,0.01 0.12,0 0.13,0 c 0.79,0 1.34,0 1.34,0.95 0,0.44 -0.3,0.59 -0.69,0.59 l -12.86,0 c -0.45,0 -1.04,0 -1.04,-0.99 0,-0.55 0.4,-0.55 1.69,-0.55 1.15,0 1.64,0 2.89,-0.1 1.2,-0.15 1.54,-0.3 1.54,-1 0,-0.3 -0.09,-0.65 -0.2,-1.04 l -5.72,-22.87 c -1.2,-4.83 -4.59,-7.47 -7.18,-7.47 -1.29,0 -3.93,0.5 -4.73,3.09 0.15,-0.05 0.5,-0.05 0.6,-0.05 1.94,0 3.24,1.69 3.24,3.19 0,1.59 -1.35,2.09 -2.19,2.09 -0.9,0 -3.34,-0.6 -3.34,-3.99 0,-3.08 2.64,-5.43 6.57,-5.43 4.59,0 9.77,3.29 11.01,8.22 z"
           id="path4727"
           inkscape:connector-curvature="0"
           style="fill:#000000;stroke-width:0" /><path
           d="m 550.61,405.35 -1.19,0 c -0.1,-0.77 -0.45,-2.83 -0.9,-3.18 -0.28,-0.21 -2.97,-0.21 -3.45,-0.21 l -6.42,0 c 3.66,3.25 4.88,4.22 6.97,5.86 2.58,2.06 4.99,4.22 4.99,7.54 0,4.21 -3.7,6.79 -8.16,6.79 -4.33,0 -7.25,-3.03 -7.25,-6.24 0,-1.78 1.5,-1.95 1.84,-1.95 0.84,0 1.86,0.59 1.86,1.85 0,0.62 -0.25,1.85 -2.06,1.85 1.08,2.47 3.45,3.24 5.09,3.24 3.48,0 5.3,-2.72 5.3,-5.54 0,-3.04 -2.16,-5.45 -3.28,-6.7 l -8.4,-8.3 c -0.35,-0.31 -0.35,-0.38 -0.35,-1.36 l 14.36,0 z"
           id="path4729"
           inkscape:connector-curvature="0"
           style="fill:#000000;stroke-width:0" /></g>    </g>
    <g
       id="g5027"
       transform="matrix(0.5625,0,0,0.5625,198.65961,536.17677)">
      <g
         word-spacing="normal"
         letter-spacing="normal"
         font-size-adjust="none"
         font-stretch="normal"
         font-weight="normal"
         font-variant="normal"
         font-style="normal"
         stroke-miterlimit="10.433"
         xml:space="preserve"
         transform="matrix(1.0629921,0,0,-1.0629921,-186.02362,789.27165)"
         id="g5029"
         style="font-style:normal;font-variant:normal;font-weight:normal;font-stretch:normal;letter-spacing:normal;word-spacing:normal;text-anchor:start;fill:none;fill-opacity:1;fill-rule:evenodd;stroke:#000000;stroke-linecap:butt;stroke-linejoin:miter;stroke-miterlimit:10.43299961;stroke-dasharray:none;stroke-dashoffset:0;stroke-opacity:1"><path
           id="path5031"
           d="m 458.24,399.92 -0.03,-0.15 -0.04,-0.15 -0.03,-0.14 -0.04,-0.13 -0.03,-0.13 -0.04,-0.11 -0.03,-0.12 -0.04,-0.1 -0.04,-0.1 -0.04,-0.09 -0.04,-0.09 -0.05,-0.08 -0.05,-0.07 -0.05,-0.07 -0.06,-0.07 -0.06,-0.05 -0.07,-0.06 -0.07,-0.05 -0.08,-0.04 -0.09,-0.04 -0.09,-0.04 -0.1,-0.03 -0.11,-0.03 -0.12,-0.02 -0.13,-0.02 -0.13,-0.02 -0.07,0 -0.08,-0.01 -0.07,-0.01 -0.08,0 -0.08,-0.01 -0.09,0 -0.08,0 -0.09,-0.01 -0.09,0 -0.1,0 -0.1,0 -0.1,0 c -0.6,0 -1.14,0 -1.14,-0.95 0,-0.39 0.25,-0.59 0.64,-0.59 l 9.12,0 c 0.25,0 0.9,0 0.9,0.99 0,0.55 -0.5,0.55 -1.2,0.55 -2.49,0 -2.49,0.35 -2.49,0.8 0,0.59 2.09,8.71 2.44,9.96 0.65,-1.44 2.04,-3.19 4.58,-3.19 l -0.04,1.1 c -3.29,0 -3.94,4.13 -3.94,4.43 0,0.1 0,0.2 0.15,0.8 l 2.44,9.76 c 0.35,1.35 1.69,2.74 2.59,3.49 1.74,1.54 3.19,1.89 4.03,1.89 1.99,0 3.19,-1.74 3.19,-4.68 0,-2.94 -1.64,-8.67 -2.54,-10.56 -1.69,-3.49 -4.08,-5.13 -5.92,-5.13 l 0.04,-1.1 c 5.78,0 12.01,7.28 12.01,14.6 0,4.68 -2.84,7.97 -6.62,7.97 -2.5,0 -4.89,-1.8 -6.53,-3.74 -0.5,2.69 -2.64,3.74 -4.49,3.74 -2.29,0 -3.23,-1.95 -3.68,-2.84 -0.9,-1.7 -1.55,-4.68 -1.55,-4.83 0,-0.5 0.5,-0.5 0.6,-0.5 0.5,0 0.55,0.05 0.85,1.14 0.85,3.54 1.84,5.93 3.63,5.93 0.85,0 1.55,-0.4 1.55,-2.29 0,-1.15 -0.15,-1.69 -0.35,-2.54 z"
           inkscape:connector-curvature="0"
           style="fill:#000000;stroke-width:0" /></g>    </g>
  </g>
</svg>
