solid 
 facet normal -1.000000e+00  0.000000e+00  0.000000e+00
   outer loop
     vertex -3.800000e+02 -1.500000e+02  2.000000e+02
     vertex -3.800000e+02  5.000000e+01  2.000000e+02
     vertex -3.800000e+02  5.000000e+01  0.000000e+00
   endloop
 endfacet
 facet normal -1.000000e+00  0.000000e+00  0.000000e+00
   outer loop
     vertex -3.800000e+02 -1.500000e+02  2.000000e+02
     vertex -3.800000e+02  5.000000e+01  0.000000e+00
     vertex -3.800000e+02 -1.500000e+02  0.000000e+00
   endloop
 endfacet
 facet normal  1.000000e+00 -0.000000e+00  0.000000e+00
   outer loop
     vertex -1.800000e+02 -1.500000e+02  2.000000e+02
     vertex -1.800000e+02  5.000000e+01  0.000000e+00
     vertex -1.800000e+02  5.000000e+01  2.000000e+02
   endloop
 endfacet
 facet normal  1.000000e+00  0.000000e+00  0.000000e+00
   outer loop
     vertex -1.800000e+02 -1.500000e+02  2.000000e+02
     vertex -1.800000e+02 -1.500000e+02  0.000000e+00
     vertex -1.800000e+02  5.000000e+01  0.000000e+00
   endloop
 endfacet
 facet normal  0.000000e+00 -1.000000e+00 -0.000000e+00
   outer loop
     vertex -1.800000e+02 -1.500000e+02  2.000000e+02
     vertex -3.800000e+02 -1.500000e+02  0.000000e+00
     vertex -1.800000e+02 -1.500000e+02  0.000000e+00
   endloop
 endfacet
 facet normal -0.000000e+00 -1.000000e+00  0.000000e+00
   outer loop
     vertex -1.800000e+02 -1.500000e+02  2.000000e+02
     vertex -3.800000e+02 -1.500000e+02  2.000000e+02
     vertex -3.800000e+02 -1.500000e+02  0.000000e+00
   endloop
 endfacet
 facet normal  0.000000e+00  1.000000e+00  0.000000e+00
   outer loop
     vertex -1.800000e+02  5.000000e+01  2.000000e+02
     vertex -1.800000e+02  5.000000e+01  0.000000e+00
     vertex -3.800000e+02  5.000000e+01  0.000000e+00
   endloop
 endfacet
 facet normal  0.000000e+00  1.000000e+00  0.000000e+00
   outer loop
     vertex -1.800000e+02  5.000000e+01  2.000000e+02
     vertex -3.800000e+02  5.000000e+01  0.000000e+00
     vertex -3.800000e+02  5.000000e+01  2.000000e+02
   endloop
 endfacet
 facet normal -0.000000e+00  0.000000e+00 -1.000000e+00
   outer loop
     vertex -1.800000e+02  5.000000e+01  0.000000e+00
     vertex -3.800000e+02 -1.500000e+02  0.000000e+00
     vertex -3.800000e+02  5.000000e+01  0.000000e+00
   endloop
 endfacet
 facet normal  0.000000e+00 -0.000000e+00 -1.000000e+00
   outer loop
     vertex -1.800000e+02  5.000000e+01  0.000000e+00
     vertex -1.800000e+02 -1.500000e+02  0.000000e+00
     vertex -3.800000e+02 -1.500000e+02  0.000000e+00
   endloop
 endfacet
 facet normal  0.000000e+00  0.000000e+00  1.000000e+00
   outer loop
     vertex -1.800000e+02  5.000000e+01  2.000000e+02
     vertex -3.800000e+02  5.000000e+01  2.000000e+02
     vertex -3.800000e+02 -1.500000e+02  2.000000e+02
   endloop
 endfacet
 facet normal  0.000000e+00  0.000000e+00  1.000000e+00
   outer loop
     vertex -1.800000e+02  5.000000e+01  2.000000e+02
     vertex -3.800000e+02 -1.500000e+02  2.000000e+02
     vertex -1.800000e+02 -1.500000e+02  2.000000e+02
   endloop
 endfacet
endsolid
