solid 
 facet normal -8.660254e-01  0.000000e+00  5.000000e-01
   outer loop
     vertex  2.679492e+01  2.000000e+02  3.000000e+02
     vertex -7.320508e+01  2.000000e+02  1.267949e+02
     vertex -7.320508e+01  0.000000e+00  1.267949e+02
   endloop
 endfacet
 facet normal -8.660254e-01  0.000000e+00  5.000000e-01
   outer loop
     vertex  2.679492e+01  0.000000e+00  3.000000e+02
     vertex  2.679492e+01  2.000000e+02  3.000000e+02
     vertex -7.320508e+01  0.000000e+00  1.267949e+02
   endloop
 endfacet
 facet normal  8.660254e-01  0.000000e+00 -5.000000e-01
   outer loop
     vertex  2.000000e+02  0.000000e+00  2.000000e+02
     vertex  1.000000e+02  2.000000e+02  2.679492e+01
     vertex  2.000000e+02  2.000000e+02  2.000000e+02
   endloop
 endfacet
 facet normal  8.660254e-01  0.000000e+00 -5.000000e-01
   outer loop
     vertex  2.000000e+02  0.000000e+00  2.000000e+02
     vertex  1.000000e+02  0.000000e+00  2.679492e+01
     vertex  1.000000e+02  2.000000e+02  2.679492e+01
   endloop
 endfacet
 facet normal  0.000000e+00 -1.000000e+00  0.000000e+00
   outer loop
     vertex  2.000000e+02  0.000000e+00  2.000000e+02
     vertex -7.320508e+01  0.000000e+00  1.267949e+02
     vertex  1.000000e+02  0.000000e+00  2.679492e+01
   endloop
 endfacet
 facet normal -0.000000e+00 -1.000000e+00  0.000000e+00
   outer loop
     vertex  2.000000e+02  0.000000e+00  2.000000e+02
     vertex  2.679492e+01  0.000000e+00  3.000000e+02
     vertex -7.320508e+01  0.000000e+00  1.267949e+02
   endloop
 endfacet
 facet normal  0.000000e+00  1.000000e+00  0.000000e+00
   outer loop
     vertex  2.000000e+02  2.000000e+02  2.000000e+02
     vertex  1.000000e+02  2.000000e+02  2.679492e+01
     vertex -7.320508e+01  2.000000e+02  1.267949e+02
   endloop
 endfacet
 facet normal  0.000000e+00  1.000000e+00  0.000000e+00
   outer loop
     vertex  2.000000e+02  2.000000e+02  2.000000e+02
     vertex -7.320508e+01  2.000000e+02  1.267949e+02
     vertex  2.679492e+01  2.000000e+02  3.000000e+02
   endloop
 endfacet
 facet normal -5.000000e-01  0.000000e+00 -8.660254e-01
   outer loop
     vertex  1.000000e+02  2.000000e+02  2.679492e+01
     vertex -7.320508e+01  0.000000e+00  1.267949e+02
     vertex -7.320508e+01  2.000000e+02  1.267949e+02
   endloop
 endfacet
 facet normal -5.000000e-01 -0.000000e+00 -8.660254e-01
   outer loop
     vertex  1.000000e+02  2.000000e+02  2.679492e+01
     vertex  1.000000e+02  0.000000e+00  2.679492e+01
     vertex -7.320508e+01  0.000000e+00  1.267949e+02
   endloop
 endfacet
 facet normal  5.000000e-01  0.000000e+00  8.660254e-01
   outer loop
     vertex  2.000000e+02  0.000000e+00  2.000000e+02
     vertex  2.679492e+01  2.000000e+02  3.000000e+02
     vertex  2.679492e+01  0.000000e+00  3.000000e+02
   endloop
 endfacet
 facet normal  5.000000e-01  0.000000e+00  8.660254e-01
   outer loop
     vertex  2.000000e+02  2.000000e+02  2.000000e+02
     vertex  2.679492e+01  2.000000e+02  3.000000e+02
     vertex  2.000000e+02  0.000000e+00  2.000000e+02
   endloop
 endfacet
endsolid
