solid 
 facet normal -8.660254e-01 -5.000000e-01  0.000000e+00
   outer loop
     vertex  2.679492e+01 -1.000000e+02  2.000000e+02
     vertex -7.320508e+01  7.320508e+01  2.000000e+02
     vertex -7.320508e+01  7.320508e+01  0.000000e+00
   endloop
 endfacet
 facet normal -8.660254e-01 -5.000000e-01 -0.000000e+00
   outer loop
     vertex  2.679492e+01 -1.000000e+02  2.000000e+02
     vertex -7.320508e+01  7.320508e+01  0.000000e+00
     vertex  2.679492e+01 -1.000000e+02  0.000000e+00
   endloop
 endfacet
 facet normal  8.660254e-01  5.000000e-01  0.000000e+00
   outer loop
     vertex  2.000000e+02  1.421085e-14  2.000000e+02
     vertex  1.000000e+02  1.732051e+02  0.000000e+00
     vertex  1.000000e+02  1.732051e+02  2.000000e+02
   endloop
 endfacet
 facet normal  8.660254e-01  5.000000e-01  0.000000e+00
   outer loop
     vertex  2.000000e+02  1.421085e-14  2.000000e+02
     vertex  2.000000e+02  1.421085e-14  0.000000e+00
     vertex  1.000000e+02  1.732051e+02  0.000000e+00
   endloop
 endfacet
 facet normal  5.000000e-01 -8.660254e-01  0.000000e+00
   outer loop
     vertex  2.000000e+02  1.421085e-14  2.000000e+02
     vertex  2.679492e+01 -1.000000e+02  0.000000e+00
     vertex  2.000000e+02  1.421085e-14  0.000000e+00
   endloop
 endfacet
 facet normal  5.000000e-01 -8.660254e-01  0.000000e+00
   outer loop
     vertex  2.000000e+02  1.421085e-14  2.000000e+02
     vertex  2.679492e+01 -1.000000e+02  2.000000e+02
     vertex  2.679492e+01 -1.000000e+02  0.000000e+00
   endloop
 endfacet
 facet normal -5.000000e-01  8.660254e-01  0.000000e+00
   outer loop
     vertex  1.000000e+02  1.732051e+02  2.000000e+02
     vertex  1.000000e+02  1.732051e+02  0.000000e+00
     vertex -7.320508e+01  7.320508e+01  0.000000e+00
   endloop
 endfacet
 facet normal -5.000000e-01  8.660254e-01  0.000000e+00
   outer loop
     vertex  1.000000e+02  1.732051e+02  2.000000e+02
     vertex -7.320508e+01  7.320508e+01  0.000000e+00
     vertex -7.320508e+01  7.320508e+01  2.000000e+02
   endloop
 endfacet
 facet normal  0.000000e+00  0.000000e+00 -1.000000e+00
   outer loop
     vertex  1.000000e+02  1.732051e+02  0.000000e+00
     vertex  2.679492e+01 -1.000000e+02  0.000000e+00
     vertex -7.320508e+01  7.320508e+01  0.000000e+00
   endloop
 endfacet
 facet normal  0.000000e+00 -0.000000e+00 -1.000000e+00
   outer loop
     vertex  1.000000e+02  1.732051e+02  0.000000e+00
     vertex  2.000000e+02  1.421085e-14  0.000000e+00
     vertex  2.679492e+01 -1.000000e+02  0.000000e+00
   endloop
 endfacet
 facet normal  0.000000e+00  0.000000e+00  1.000000e+00
   outer loop
     vertex  1.000000e+02  1.732051e+02  2.000000e+02
     vertex -7.320508e+01  7.320508e+01  2.000000e+02
     vertex  2.679492e+01 -1.000000e+02  2.000000e+02
   endloop
 endfacet
 facet normal  0.000000e+00  0.000000e+00  1.000000e+00
   outer loop
     vertex  1.000000e+02  1.732051e+02  2.000000e+02
     vertex  2.679492e+01 -1.000000e+02  2.000000e+02
     vertex  2.000000e+02  1.421085e-14  2.000000e+02
   endloop
 endfacet
endsolid
