ply
format ascii 1.0
comment Created by Blender 2.69 (sub 10) - www.blender.org, source file: 'bunny_base.blend'
element vertex 124
property float x
property float y
property float z
property float nx
property float ny
property float nz
element face 91
property list uchar uint vertex_indices
end_header
-0.304570 -0.838145 -0.675830 -0.937625 0.276665 -0.210512
-0.309781 -0.869674 -0.694230 -0.937625 0.276665 -0.210512
-0.307105 -0.838745 -0.665328 -0.937625 0.276665 -0.210512
-0.305614 -0.837512 -0.670525 -0.937625 0.276665 -0.210512
-0.309781 -0.869674 -0.694230 -0.527442 -0.720496 0.450212
-0.306683 -0.873257 -0.696705 -0.527442 -0.720496 0.450212
-0.291423 -0.857696 -0.653554 -0.527442 -0.720496 0.450212
-0.296190 -0.854281 -0.654045 -0.527442 -0.720496 0.450212
-0.296190 -0.854281 -0.654045 -0.602696 -0.655576 0.454948
-0.299987 -0.850856 -0.654139 -0.602696 -0.655576 0.454948
-0.309781 -0.869674 -0.694230 -0.602696 -0.655576 0.454948
-0.299987 -0.850856 -0.654139 -0.196054 -0.528648 -0.825890
-0.304194 -0.847698 -0.655162 -0.196054 -0.528648 -0.825890
-0.307683 -0.843980 -0.656713 -0.196054 -0.528648 -0.825890
-0.299987 -0.850856 -0.654139 -0.675320 -0.590350 0.442073
-0.307683 -0.843980 -0.656713 -0.675320 -0.590350 0.442073
-0.309781 -0.869674 -0.694230 -0.675320 -0.590350 0.442073
-0.308690 -0.840819 -0.660662 -0.979773 -0.086907 0.180256
-0.309960 -0.856076 -0.674921 -0.979773 -0.086907 0.180256
-0.307683 -0.843980 -0.656713 -0.979773 -0.086907 0.180256
-0.304570 -0.838145 -0.675830 -0.224501 0.635280 -0.738931
-0.306335 -0.867929 -0.700900 -0.224501 0.635280 -0.738931
-0.307088 -0.863235 -0.696636 -0.224501 0.635280 -0.738931
-0.291654 -0.833315 -0.681886 -0.359953 0.561838 -0.744830
-0.286515 -0.833000 -0.684133 -0.359953 0.561838 -0.744830
-0.296463 -0.834967 -0.680809 -0.359953 0.561838 -0.744830
-0.306335 -0.867929 -0.700900 -0.765562 0.440245 -0.469148
-0.304570 -0.838145 -0.675830 -0.765562 0.440245 -0.469148
-0.301125 -0.835431 -0.678906 -0.765562 0.440245 -0.469148
-0.286515 -0.833000 -0.684133 -0.359955 0.561810 -0.744851
-0.306335 -0.867929 -0.700900 -0.359955 0.561810 -0.744851
-0.296463 -0.834967 -0.680809 -0.359955 0.561810 -0.744851
-0.306335 -0.867929 -0.700900 -0.359946 0.561810 -0.744855
-0.301125 -0.835431 -0.678906 -0.359946 0.561810 -0.744855
-0.296463 -0.834967 -0.680809 -0.359946 0.561810 -0.744855
-0.307088 -0.863235 -0.696636 -0.888722 0.221824 -0.401207
-0.306335 -0.867929 -0.700900 -0.888722 0.221824 -0.401207
-0.309781 -0.869674 -0.694230 -0.888722 0.221824 -0.401207
-0.278321 -0.857451 -0.663754 0.220625 -0.939817 0.260899
-0.281746 -0.857232 -0.660067 0.220625 -0.939817 0.260899
-0.306683 -0.873257 -0.696705 0.220625 -0.939817 0.260899
-0.286377 -0.857706 -0.657860 0.220617 -0.939818 0.260903
-0.291423 -0.857696 -0.653554 0.220617 -0.939818 0.260903
-0.306683 -0.873257 -0.696705 0.220617 -0.939818 0.260903
-0.281746 -0.857232 -0.660067 0.220626 -0.939817 0.260898
-0.286377 -0.857706 -0.657860 0.220626 -0.939817 0.260898
-0.306683 -0.873257 -0.696705 0.220626 -0.939817 0.260898
-0.306335 -0.867929 -0.700900 -0.795267 -0.342208 -0.500445
-0.306683 -0.873257 -0.696705 -0.795267 -0.342208 -0.500445
-0.309781 -0.869674 -0.694230 -0.795267 -0.342208 -0.500445
-0.309781 -0.869674 -0.694230 -0.923736 0.295145 -0.244132
-0.304570 -0.838145 -0.675830 -0.923736 0.295145 -0.244132
-0.307088 -0.863235 -0.696636 -0.923736 0.295145 -0.244132
-0.280635 -0.841049 -0.679229 -0.452647 -0.742085 -0.494389
-0.279497 -0.844251 -0.675465 -0.452647 -0.742085 -0.494389
-0.280623 -0.846816 -0.670584 -0.452647 -0.742085 -0.494389
-0.280623 -0.846816 -0.670584 0.255399 -0.482671 -0.837735
-0.277652 -0.852986 -0.666123 0.255399 -0.482671 -0.837735
-0.278321 -0.857451 -0.663754 0.255399 -0.482671 -0.837735
-0.278321 -0.857451 -0.663754 0.808820 -0.192134 -0.555783
-0.306335 -0.867929 -0.700900 0.808820 -0.192134 -0.555783
-0.286515 -0.833000 -0.684133 0.808820 -0.192134 -0.555783
-0.280635 -0.841049 -0.679229 -0.374512 -0.666351 -0.644761
-0.286515 -0.833000 -0.684133 -0.374512 -0.666351 -0.644761
-0.281843 -0.834652 -0.685138 -0.374512 -0.666351 -0.644761
-0.280635 -0.841049 -0.679229 0.910986 0.343670 0.228027
-0.280623 -0.846816 -0.670584 0.910986 0.343670 0.228027
-0.278321 -0.857451 -0.663754 0.910986 0.343670 0.228027
-0.280635 -0.841049 -0.679229 -0.368469 -0.664936 -0.649685
-0.278321 -0.857451 -0.663754 -0.368469 -0.664936 -0.649685
-0.286515 -0.833000 -0.684133 -0.368469 -0.664936 -0.649685
-0.307683 -0.843980 -0.656713 -0.236252 -0.795493 0.558011
-0.309960 -0.856076 -0.674921 -0.236252 -0.795493 0.558011
-0.309781 -0.869674 -0.694230 -0.236252 -0.795493 0.558011
-0.278321 -0.857451 -0.663754 0.777695 -0.419535 -0.468167
-0.306683 -0.873257 -0.696705 0.777695 -0.419535 -0.468167
-0.306335 -0.867929 -0.700900 0.777695 -0.419535 -0.468167
-0.286972 -0.852952 -0.660218 0.509354 0.432600 0.743889
-0.293613 -0.850481 -0.657033 0.357738 0.506333 0.784600
-0.286377 -0.857706 -0.657860 0.493332 0.435377 0.753014
-0.297770 -0.847612 -0.658048 0.323099 0.525864 0.786767
-0.296190 -0.854281 -0.654045 0.291543 0.511063 0.808557
-0.288979 -0.838626 -0.672578 0.279092 0.881222 0.381481
-0.286787 -0.836131 -0.679173 0.331065 0.810907 0.482467
-0.292121 -0.836825 -0.676584 0.082705 0.932615 0.351177
-0.297821 -0.836899 -0.675337 -0.027009 0.984497 0.173132
-0.295204 -0.837106 -0.670644 0.206458 0.944762 0.254494
-0.301386 -0.838011 -0.665673 0.035524 0.920347 0.389416
-0.305614 -0.837512 -0.670525 -0.140599 0.987884 0.065401
-0.307105 -0.838745 -0.665328 -0.095462 0.942961 0.318888
-0.293518 -0.845573 -0.660279 0.330393 0.550035 0.766961
-0.297590 -0.842539 -0.661087 0.278146 0.639637 0.716544
-0.296463 -0.834967 -0.680809 -0.027619 0.906919 0.420331
-0.281746 -0.857232 -0.660067 0.502213 0.633869 0.588153
-0.300230 -0.836713 -0.670858 -0.047639 0.996124 0.073855
-0.296477 -0.839166 -0.664932 0.276711 0.801080 0.530717
-0.291654 -0.833315 -0.681886 0.051088 0.835444 0.547136
-0.292375 -0.842174 -0.664099 0.390149 0.701193 0.596698
-0.291423 -0.857696 -0.653554 0.459639 0.475234 0.750206
-0.288268 -0.847566 -0.661499 0.447127 0.446333 0.775109
-0.283776 -0.844832 -0.666995 0.629139 0.527879 0.570513
-0.288708 -0.841106 -0.667870 0.291269 0.817591 0.496628
-0.301600 -0.844173 -0.658177 0.216010 0.599994 0.770257
-0.303663 -0.840044 -0.661535 0.093753 0.816157 0.570116
-0.286515 -0.833000 -0.684133 0.300424 0.799005 0.520829
-0.307105 -0.838745 -0.665328 -0.944221 0.264280 -0.196475
-0.309781 -0.869674 -0.694230 -0.944221 0.264280 -0.196475
-0.309960 -0.856076 -0.674921 -0.944221 0.264280 -0.196475
-0.308690 -0.840819 -0.660662 -0.944221 0.264280 -0.196475
-0.283515 -0.850359 -0.664013 0.575182 0.429243 0.696310
-0.281843 -0.834652 -0.685138 0.454237 0.700736 0.550066
-0.280635 -0.841049 -0.679229 0.630634 0.678182 0.377270
-0.304194 -0.847698 -0.655162 0.208533 0.574969 0.791131
-0.307683 -0.843980 -0.656713 0.213324 0.662130 0.718345
-0.308690 -0.840819 -0.660662 -0.036866 0.843623 0.535600
-0.299987 -0.850856 -0.654139 0.406232 0.540513 0.736747
-0.278321 -0.857451 -0.663754 0.511856 0.479019 0.713095
-0.279497 -0.844251 -0.675465 0.673208 0.609210 0.419050
-0.283916 -0.839353 -0.675487 0.565569 0.751915 0.338664
-0.284511 -0.841045 -0.670794 0.525132 0.819849 0.228156
-0.280623 -0.846816 -0.670584 0.724479 0.545579 0.421216
-0.277652 -0.852986 -0.666123 0.480972 0.488418 0.728050
-0.301125 -0.835431 -0.678906 -0.081576 0.892880 0.442793
-0.304570 -0.838145 -0.675830 -0.186316 0.979583 0.075289
4 0 1 2 3
4 4 5 6 7
3 8 9 10
3 11 12 13
3 14 15 16
3 17 18 19
3 20 21 22
3 23 24 25
3 26 27 28
3 29 30 31
3 32 33 34
3 35 36 37
3 38 39 40
3 41 42 43
3 44 45 46
3 47 48 49
3 50 51 52
3 53 54 55
3 56 57 58
3 59 60 61
3 62 63 64
3 65 66 67
3 68 69 70
3 71 72 73
3 74 75 76
3 77 78 79
3 78 80 81
3 82 83 84
3 84 85 86
3 87 88 89
3 90 91 80
3 84 92 85
3 93 77 79
3 87 86 94
3 90 95 91
3 86 82 84
3 78 90 80
3 96 92 84
3 95 97 86
3 95 86 87
3 79 77 98
3 91 95 87
3 99 100 101
3 99 90 77
3 84 83 96
3 102 91 103
3 83 104 96
4 105 106 107 108
3 98 78 81
3 99 97 90
3 99 101 97
3 103 87 89
3 90 97 95
3 77 90 78
3 80 91 102
3 97 101 82
3 94 88 87
3 98 77 78
3 109 99 77
3 83 110 104
3 97 82 86
3 111 110 83
3 112 103 113
3 103 114 113
3 112 102 103
3 103 89 114
3 115 102 112
3 116 77 93
3 80 102 115
3 91 87 103
3 81 80 115
3 109 77 116
3 117 111 118
3 119 118 82
3 111 83 118
3 100 99 109
3 120 101 119
3 116 121 109
3 100 120 119
3 120 118 119
3 118 83 82
3 120 117 118
3 121 120 109
3 119 101 100
3 109 120 100
3 86 85 94
3 119 82 101
3 122 85 92
3 122 123 85
3 123 88 85
3 85 88 94
