ply
format ascii 1.0
comment Created by Blender 2.69 (sub 10) - www.blender.org, source file: 'bunny_base.blend'
element vertex 92
property float x
property float y
property float z
property float nx
property float ny
property float nz
element face 60
property list uchar uint vertex_indices
end_header
-0.374658 -0.831750 -0.707151 -0.156349 0.184771 0.970265
-0.372895 -0.826081 -0.707947 -0.156349 0.184771 0.970265
-0.379101 -0.829299 -0.708334 -0.156349 0.184771 0.970265
-0.372895 -0.826081 -0.707947 -0.107640 0.088429 0.990250
-0.380925 -0.824260 -0.708982 -0.107640 0.088429 0.990250
-0.379101 -0.829299 -0.708334 -0.107640 0.088429 0.990250
-0.372788 -0.821417 -0.716754 -0.234931 -0.878994 -0.414869
-0.370147 -0.819488 -0.722597 -0.219764 -0.874630 -0.432051
-0.367023 -0.821297 -0.718053 0.279153 -0.937773 -0.206458
-0.369768 -0.823382 -0.711738 0.388287 -0.903043 -0.183630
-0.369330 -0.811267 -0.708104 0.709983 0.636708 0.300790
-0.368404 -0.809832 -0.713328 0.671072 0.646504 0.362835
-0.375196 -0.807145 -0.709477 0.496689 0.810389 0.310678
-0.362467 -0.818138 -0.718330 0.713401 -0.693258 0.102084
-0.364477 -0.819097 -0.723528 0.194098 -0.938688 -0.284890
-0.375021 -0.815271 -0.724561 -0.659963 -0.572314 -0.486679
-0.378402 -0.814335 -0.719552 -0.835444 -0.353221 -0.421003
-0.375971 -0.810221 -0.727041 -0.800104 -0.356914 -0.482101
-0.377897 -0.806321 -0.713603 -0.526862 0.698397 0.484416
-0.381660 -0.810825 -0.711201 -0.526862 0.698397 0.484416
-0.375196 -0.807145 -0.709477 -0.526862 0.698397 0.484416
-0.381660 -0.810825 -0.711201 -0.968240 -0.027418 -0.248515
-0.380663 -0.814366 -0.714693 -0.968240 -0.027418 -0.248515
-0.381555 -0.818467 -0.710766 -0.968240 -0.027418 -0.248515
-0.381555 -0.818467 -0.710766 -0.251923 0.070910 0.965146
-0.372895 -0.826081 -0.707947 -0.251923 0.070910 0.965146
-0.369330 -0.811267 -0.708104 -0.251923 0.070910 0.965146
-0.381660 -0.810825 -0.711201 -0.244381 -0.024988 0.969357
-0.369330 -0.811267 -0.708104 -0.244381 -0.024988 0.969357
-0.375196 -0.807145 -0.709477 -0.244381 -0.024988 0.969357
-0.381660 -0.810825 -0.711201 -0.241542 0.051857 0.969004
-0.381555 -0.818467 -0.710766 -0.241542 0.051857 0.969004
-0.369330 -0.811267 -0.708104 -0.241542 0.051857 0.969004
-0.363283 -0.815185 -0.714340 0.886990 0.031953 0.460646
-0.366536 -0.816301 -0.708276 0.859249 0.268990 0.435102
-0.368359 -0.817581 -0.727418 -0.290597 -0.854396 -0.430738
-0.365704 -0.819905 -0.712023 0.783563 -0.572344 0.241676
-0.375682 -0.823601 -0.711655 -0.121281 -0.704947 -0.698782
-0.369129 -0.822470 -0.706548 0.669088 -0.741600 0.047914
-0.372895 -0.826081 -0.707947 0.553575 -0.629048 -0.545701
-0.375196 -0.807145 -0.709477 0.347649 0.936756 -0.040365
-0.368404 -0.809832 -0.713328 0.347649 0.936756 -0.040365
-0.377897 -0.806321 -0.713603 0.347649 0.936756 -0.040365
-0.368404 -0.809832 -0.713328 0.635900 0.678043 -0.368631
-0.363283 -0.815185 -0.714340 0.635900 0.678043 -0.368631
-0.377840 -0.804970 -0.720663 0.635900 0.678043 -0.368631
-0.368404 -0.809832 -0.713328 0.336682 0.924344 0.179537
-0.377840 -0.804970 -0.720663 0.336682 0.924344 0.179537
-0.377897 -0.806321 -0.713603 0.336682 0.924344 0.179537
-0.374658 -0.831750 -0.707151 0.237800 -0.446760 -0.862423
-0.379101 -0.829299 -0.708334 -0.174169 -0.415754 -0.892636
-0.374837 -0.818528 -0.720373 -0.540025 -0.700125 -0.467055
-0.366536 -0.816301 -0.708276 -0.837887 -0.474267 0.270215
-0.369330 -0.811267 -0.708104 -0.837887 -0.474267 0.270215
-0.365704 -0.819905 -0.712023 -0.837887 -0.474267 0.270215
-0.369330 -0.811267 -0.708104 -0.441328 0.115683 0.889858
-0.372895 -0.826081 -0.707947 -0.441328 0.115683 0.889858
-0.369129 -0.822470 -0.706548 -0.441328 0.115683 0.889858
-0.369330 -0.811267 -0.708104 0.824122 0.092450 0.558817
-0.369129 -0.822470 -0.706548 0.824122 0.092450 0.558817
-0.365704 -0.819905 -0.712023 0.824122 0.092450 0.558817
-0.380925 -0.824260 -0.708982 -0.057904 0.288144 0.955835
-0.372895 -0.826081 -0.707947 -0.057904 0.288144 0.955835
-0.381555 -0.818467 -0.710766 -0.057904 0.288144 0.955835
-0.377840 -0.804970 -0.720663 0.529748 0.254027 -0.809220
-0.363283 -0.815185 -0.714340 0.529748 0.254027 -0.809220
-0.378276 -0.809872 -0.722488 0.529748 0.254027 -0.809220
-0.363283 -0.815185 -0.714340 0.635970 0.676772 -0.370839
-0.362467 -0.818138 -0.718330 0.635970 0.676772 -0.370839
-0.364477 -0.819097 -0.723528 0.635970 0.676772 -0.370839
-0.364477 -0.819097 -0.723528 0.635968 0.676767 -0.370852
-0.368359 -0.817581 -0.727418 0.635968 0.676767 -0.370852
-0.372464 -0.814477 -0.728794 0.635968 0.676767 -0.370852
-0.372464 -0.814477 -0.728794 0.787272 0.500452 0.360209
-0.375971 -0.810221 -0.727041 0.787272 0.500452 0.360209
-0.378276 -0.809872 -0.722488 0.787272 0.500452 0.360209
-0.363283 -0.815185 -0.714340 0.489893 0.777326 -0.394675
-0.364477 -0.819097 -0.723528 0.489893 0.777326 -0.394675
-0.378276 -0.809872 -0.722488 0.489893 0.777326 -0.394675
-0.364477 -0.819097 -0.723528 0.547554 0.830556 -0.101788
-0.372464 -0.814477 -0.728794 0.547554 0.830556 -0.101788
-0.378276 -0.809872 -0.722488 0.547554 0.830556 -0.101788
-0.378276 -0.809872 -0.722488 -0.917264 -0.106571 -0.383709
-0.380256 -0.809860 -0.717037 -0.955809 0.195715 -0.219306
-0.377897 -0.806321 -0.713603 -0.831538 0.555406 -0.001251
-0.377840 -0.804970 -0.720663 -0.926115 0.345683 -0.150853
-0.380663 -0.814366 -0.714693 -0.885556 -0.238258 -0.398724
-0.381660 -0.810825 -0.711201 -0.937223 0.301218 -0.175634
-0.381555 -0.818467 -0.710766 -0.772179 -0.296976 -0.561693
-0.377986 -0.819162 -0.715305 -0.636891 -0.554094 -0.535997
-0.372464 -0.814477 -0.728794 -0.589496 -0.650929 -0.478286
-0.380925 -0.824260 -0.708982 -0.483840 -0.394910 -0.780938
3 0 1 2
3 3 4 5
3 6 7 8
3 9 6 8
3 10 11 12
3 13 8 14
3 15 16 17
3 18 19 20
3 21 22 23
3 24 25 26
3 27 28 29
3 30 31 32
3 33 11 34
3 7 35 14
3 33 34 36
3 37 6 9
3 11 10 34
3 9 36 38
3 39 37 9
3 40 41 42
3 43 44 45
3 46 47 48
3 49 50 37
3 36 9 13
3 33 36 13
3 8 7 14
3 6 51 7
3 52 53 54
3 55 56 57
3 58 59 60
3 13 9 8
3 51 15 7
3 37 39 49
3 61 62 63
3 64 65 66
3 67 68 69
3 70 71 72
3 73 74 75
3 76 77 78
3 79 80 81
3 51 16 15
3 82 17 16
3 83 84 85
3 86 83 16
3 83 82 16
3 83 85 82
3 83 86 87
3 88 86 89
3 86 16 89
3 83 87 84
3 6 89 51
3 90 15 17
3 15 35 7
3 50 91 37
3 15 90 35
3 51 89 16
3 37 89 6
3 91 89 37
3 91 88 89
3 38 39 9
