ply
format ascii 1.0
comment Created by Blender 2.69 (sub 10) - www.blender.org, source file: 'bunny_base.blend'
element vertex 109
property float x
property float y
property float z
property float nx
property float ny
property float nz
element face 73
property list uchar uint vertex_indices
end_header
-0.401372 -0.812610 -0.680727 -0.594287 0.802240 0.056276
-0.400757 -0.813215 -0.674406 -0.622944 0.769585 0.140110
-0.396750 -0.809586 -0.677535 -0.528489 0.847133 0.055147
-0.380113 -0.807932 -0.694259 -0.150365 0.918790 -0.364940
-0.381703 -0.805821 -0.688290 -0.174169 0.940031 -0.293252
-0.375474 -0.806718 -0.692537 -0.100772 0.933226 -0.344829
-0.385870 -0.805113 -0.674943 -0.238868 0.968200 0.074038
-0.388694 -0.805924 -0.679212 -0.299448 0.953154 -0.042329
-0.389658 -0.806928 -0.671012 -0.381817 0.893551 0.236030
-0.381975 -0.804699 -0.682794 -0.183294 0.975799 -0.119053
-0.380379 -0.804153 -0.676931 -0.103153 0.993408 0.049654
-0.394159 -0.810979 -0.667080 -0.466536 0.836055 0.288583
-0.389955 -0.809575 -0.664646 -0.401074 0.862423 0.308695
-0.392921 -0.807692 -0.681442 -0.412030 0.903684 -0.116459
-0.392410 -0.807413 -0.675451 -0.417737 0.901852 0.109928
-0.376661 -0.822851 -0.670357 0.465017 -0.719286 -0.516128
-0.389506 -0.824974 -0.679738 0.465017 -0.719286 -0.516128
-0.380113 -0.807932 -0.694259 0.465017 -0.719286 -0.516128
-0.375474 -0.806718 -0.692537 0.465017 -0.719286 -0.516128
-0.376535 -0.804938 -0.687157 0.092380 0.977386 -0.190100
-0.376805 -0.803842 -0.681657 0.165960 0.985473 -0.035920
-0.371457 -0.805643 -0.688312 0.325663 0.945433 0.005951
-0.369950 -0.807111 -0.683452 0.566210 0.807978 0.162816
-0.372030 -0.809775 -0.672061 0.785028 0.554643 0.275765
-0.375237 -0.804096 -0.676914 0.397839 0.895169 0.200812
-0.378888 -0.804730 -0.671998 0.204108 0.940519 0.271462
-0.384824 -0.808024 -0.691799 -0.241829 0.905148 -0.349559
-0.389553 -0.808408 -0.689163 -0.310800 0.907102 -0.283792
-0.387168 -0.806272 -0.685112 -0.279611 0.934782 -0.219031
-0.376535 -0.804938 -0.687157 -0.101199 0.953978 -0.282235
-0.393755 -0.809280 -0.686519 -0.398297 0.889523 -0.223701
-0.397740 -0.810720 -0.683661 -0.491195 0.863399 -0.114994
-0.371779 -0.812202 -0.666545 0.823939 0.557634 0.100742
-0.379613 -0.806127 -0.666772 0.205145 0.942778 0.262764
-0.396979 -0.810851 -0.671800 -0.500839 0.838923 0.212867
-0.396979 -0.810851 -0.671800 -0.503063 -0.818251 0.278194
-0.376661 -0.822851 -0.670357 -0.503063 -0.818251 0.278194
-0.394159 -0.810979 -0.667080 -0.503063 -0.818251 0.278194
-0.374912 -0.808046 -0.665760 0.405042 0.657216 -0.635578
-0.384362 -0.805628 -0.670059 -0.189764 0.954436 0.230171
-0.369792 -0.809697 -0.679152 0.789575 0.538255 0.294626
-0.370529 -0.814709 -0.672578 0.687993 -0.620725 -0.375986
-0.369976 -0.816904 -0.667943 0.687993 -0.620725 -0.375986
-0.376661 -0.822851 -0.670357 0.687993 -0.620725 -0.375986
-0.370529 -0.814709 -0.672578 0.953124 0.277139 0.121220
-0.369976 -0.816904 -0.667943 0.947722 0.311869 0.067324
-0.389506 -0.824974 -0.679738 -0.348049 -0.691435 0.633072
-0.376661 -0.822851 -0.670357 -0.348049 -0.691435 0.633072
-0.404044 -0.815666 -0.677564 -0.348049 -0.691435 0.633072
-0.376661 -0.822851 -0.670357 -0.314297 -0.430385 0.846159
-0.396979 -0.810851 -0.671800 -0.314297 -0.430385 0.846159
-0.400757 -0.813215 -0.674406 -0.314297 -0.430385 0.846159
-0.376661 -0.822851 -0.670357 -0.343482 -0.534398 0.772295
-0.400757 -0.813215 -0.674406 -0.343482 -0.534398 0.772295
-0.404044 -0.815666 -0.677564 -0.343482 -0.534398 0.772295
-0.384581 -0.807173 -0.664556 -0.221900 0.936308 0.272103
-0.380043 -0.807806 -0.662060 0.102878 0.933958 0.342174
-0.384581 -0.807173 -0.664556 -0.298760 0.641969 0.706129
-0.389955 -0.809575 -0.664646 -0.298760 0.641969 0.706129
-0.380043 -0.807806 -0.662060 -0.298760 0.641969 0.706129
-0.389955 -0.809575 -0.664646 -0.251756 -0.584078 0.771668
-0.394159 -0.810979 -0.667080 -0.251756 -0.584078 0.771668
-0.376661 -0.822851 -0.670357 -0.251756 -0.584078 0.771668
-0.376661 -0.822851 -0.670357 -0.068471 -0.308288 0.948826
-0.369976 -0.816904 -0.667943 -0.068471 -0.308288 0.948826
-0.371779 -0.812202 -0.666545 -0.068471 -0.308288 0.948826
-0.371779 -0.812202 -0.666545 0.569541 0.283696 0.771453
-0.374912 -0.808046 -0.665760 0.569541 0.283696 0.771453
-0.380043 -0.807806 -0.662060 0.569541 0.283696 0.771453
-0.389955 -0.809575 -0.664646 -0.133504 -0.501442 0.854829
-0.376661 -0.822851 -0.670357 -0.133504 -0.501442 0.854829
-0.380043 -0.807806 -0.662060 -0.133504 -0.501442 0.854829
-0.376661 -0.822851 -0.670357 0.246640 -0.424910 0.870988
-0.371779 -0.812202 -0.666545 0.246640 -0.424910 0.870988
-0.380043 -0.807806 -0.662060 0.246640 -0.424910 0.870988
-0.371457 -0.805643 -0.688312 -0.185104 -0.955139 -0.231184
-0.369950 -0.807111 -0.683452 -0.185104 -0.955139 -0.231184
-0.376535 -0.804938 -0.687157 -0.185104 -0.955139 -0.231184
-0.369950 -0.807111 -0.683452 0.673977 -0.621948 -0.398668
-0.369792 -0.809697 -0.679152 0.673977 -0.621948 -0.398668
-0.370529 -0.814709 -0.672578 0.673977 -0.621948 -0.398668
-0.370529 -0.814709 -0.672578 0.669776 -0.617105 -0.413016
-0.376661 -0.822851 -0.670357 0.669776 -0.617105 -0.413016
-0.375474 -0.806718 -0.692537 0.669776 -0.617105 -0.413016
-0.369950 -0.807111 -0.683452 0.050274 -0.819926 -0.570257
-0.370529 -0.814709 -0.672578 0.050274 -0.819926 -0.570257
-0.376535 -0.804938 -0.687157 0.050274 -0.819926 -0.570257
-0.370529 -0.814709 -0.672578 0.854270 0.519819 -0.003509
-0.375474 -0.806718 -0.692537 0.854270 0.519819 -0.003509
-0.376535 -0.804938 -0.687157 0.854270 0.519819 -0.003509
-0.404044 -0.815666 -0.677564 -0.672262 0.727866 0.135136
-0.401372 -0.812610 -0.680727 -0.389475 -0.475778 -0.788635
-0.397740 -0.810720 -0.683661 -0.389475 -0.475778 -0.788635
-0.404044 -0.815666 -0.677564 -0.389475 -0.475778 -0.788635
-0.397740 -0.810720 -0.683661 -0.405653 -0.452940 -0.793909
-0.393755 -0.809280 -0.686519 -0.405653 -0.452940 -0.793909
-0.389553 -0.808408 -0.689163 -0.405653 -0.452940 -0.793909
-0.389553 -0.808408 -0.689163 -0.405670 -0.452887 -0.793930
-0.384824 -0.808024 -0.691799 -0.405670 -0.452887 -0.793930
-0.380113 -0.807932 -0.694259 -0.405670 -0.452887 -0.793930
-0.380113 -0.807932 -0.694259 -0.407732 -0.451526 -0.793649
-0.389506 -0.824974 -0.679738 -0.407732 -0.451526 -0.793649
-0.404044 -0.815666 -0.677564 -0.407732 -0.451526 -0.793649
-0.397740 -0.810720 -0.683661 -0.399928 -0.464380 -0.790196
-0.389553 -0.808408 -0.689163 -0.399928 -0.464380 -0.790196
-0.404044 -0.815666 -0.677564 -0.399928 -0.464380 -0.790196
-0.389553 -0.808408 -0.689163 -0.404162 -0.458224 -0.791634
-0.380113 -0.807932 -0.694259 -0.404162 -0.458224 -0.791634
-0.404044 -0.815666 -0.677564 -0.404162 -0.458224 -0.791634
3 0 1 2
3 3 4 5
3 6 7 8
3 9 6 10
3 11 12 8
3 7 13 14
4 15 16 17 18
3 19 20 21
3 20 22 21
3 23 24 25
3 26 27 28
3 29 4 9
3 30 31 13
3 32 23 33
3 4 28 9
3 31 2 13
4 27 30 13 28
3 3 26 4
3 2 34 14
3 35 36 37
3 32 33 38
3 31 0 2
3 14 34 11
3 25 33 23
3 6 8 39
3 9 7 6
3 40 24 23
3 10 25 24
3 41 42 43
3 10 39 25
3 7 28 13
3 44 23 45
3 10 6 39
3 46 47 48
3 49 50 51
3 52 53 54
3 33 55 56
3 57 58 59
3 60 61 62
3 63 64 65
3 66 67 68
3 69 70 71
3 72 73 74
3 75 76 77
3 78 79 80
3 81 82 83
3 84 85 86
3 87 88 89
3 13 2 14
3 5 4 29
3 33 25 39
3 90 1 0
3 28 7 9
3 40 22 24
3 91 92 93
3 94 95 96
3 97 98 99
3 100 101 102
3 103 104 105
3 106 107 108
3 7 14 8
3 20 9 10
3 45 23 32
3 8 12 39
3 55 39 12
3 20 10 24
3 39 55 33
3 34 2 1
3 24 22 20
3 26 28 4
3 56 38 33
3 8 14 11
3 44 40 23
