ply
format ascii 1.0
comment Created by Blender 2.69 (sub 10) - www.blender.org, source file: 'bunny_base.blend'
element vertex 91
property float x
property float y
property float z
property float nx
property float ny
property float nz
element face 57
property list uchar uint vertex_indices
end_header
-0.244619 -0.889123 -0.707665 0.832057 -0.541673 -0.119327
-0.246408 -0.892085 -0.701544 0.815271 -0.577227 0.045747
-0.247705 -0.894259 -0.705869 0.804254 -0.592700 -0.042726
-0.257212 -0.903348 -0.701577 0.642598 -0.765709 0.026337
-0.257204 -0.903457 -0.706789 0.568163 -0.811029 -0.139195
-0.252567 -0.899282 -0.709650 0.673574 -0.719932 -0.167180
-0.258131 -0.898363 -0.718833 0.314249 -0.662008 -0.680410
-0.261226 -0.894317 -0.722080 0.206305 -0.525742 -0.825220
-0.258221 -0.890345 -0.723464 0.245369 -0.482833 -0.840602
-0.255626 -0.900327 -0.713730 0.502701 -0.777337 -0.378155
-0.252464 -0.896693 -0.715821 0.621815 -0.641957 -0.448531
-0.249147 -0.895060 -0.710865 0.761650 -0.609973 -0.218604
-0.251199 -0.898416 -0.704659 0.711051 -0.702994 0.011933
-0.259458 -0.902981 -0.711363 0.433149 -0.826167 -0.360240
-0.260729 -0.906168 -0.704393 0.560808 -0.811274 -0.165227
-0.246047 -0.889661 -0.712602 0.813929 -0.542772 -0.207007
-0.248939 -0.892199 -0.716107 0.808362 -0.127765 -0.574654
-0.251385 -0.889919 -0.720054 0.808362 -0.127765 -0.574654
-0.246047 -0.889661 -0.712602 0.808362 -0.127765 -0.574654
-0.251385 -0.889919 -0.720054 0.442219 -0.283261 -0.851002
-0.254187 -0.894251 -0.720068 0.442219 -0.283261 -0.851002
-0.258221 -0.890345 -0.723464 0.442219 -0.283261 -0.851002
-0.258221 -0.890345 -0.723464 0.167155 0.961467 -0.218266
-0.262378 -0.886034 -0.707655 0.167155 0.961467 -0.218266
-0.244619 -0.889123 -0.707665 0.167155 0.961467 -0.218266
-0.251385 -0.889919 -0.720054 0.169248 0.973323 -0.154914
-0.244619 -0.889123 -0.707665 0.169248 0.973323 -0.154914
-0.246047 -0.889661 -0.712602 0.169248 0.973323 -0.154914
-0.251385 -0.889919 -0.720054 -0.041661 0.998276 -0.041341
-0.258221 -0.890345 -0.723464 -0.041661 0.998276 -0.041341
-0.244619 -0.889123 -0.707665 -0.041661 0.998276 -0.041341
-0.264267 -0.897969 -0.720109 -0.805051 0.489899 -0.334504
-0.267364 -0.901047 -0.717162 -0.805051 0.489899 -0.334504
-0.261226 -0.894317 -0.722080 -0.805051 0.489899 -0.334504
-0.244619 -0.889123 -0.707665 0.151909 0.871611 0.466066
-0.262378 -0.886034 -0.707655 0.151909 0.871611 0.466066
-0.246408 -0.892085 -0.701544 0.151909 0.871611 0.466066
-0.257212 -0.903348 -0.701577 -0.408071 -0.337967 0.848090
-0.267548 -0.890005 -0.701233 -0.408071 -0.337967 0.848090
-0.260729 -0.906168 -0.704393 -0.408071 -0.337967 0.848090
-0.267548 -0.890005 -0.701233 -0.408074 -0.337965 0.848089
-0.273518 -0.906818 -0.710806 -0.408074 -0.337965 0.848089
-0.268906 -0.907931 -0.709030 -0.408074 -0.337965 0.848089
-0.268906 -0.907931 -0.709030 0.178326 -0.982194 0.059121
-0.263881 -0.907006 -0.708811 0.178326 -0.982194 0.059121
-0.260729 -0.906168 -0.704393 0.178326 -0.982194 0.059121
-0.267548 -0.890005 -0.701233 -0.408069 -0.337967 0.848091
-0.268906 -0.907931 -0.709030 -0.408069 -0.337967 0.848091
-0.260729 -0.906168 -0.704393 -0.408069 -0.337967 0.848091
-0.263881 -0.907006 -0.708811 0.392285 -0.826075 -0.404553
-0.254187 -0.894251 -0.720068 0.498672 -0.545244 -0.673788
-0.248939 -0.892199 -0.716107 0.704031 -0.559709 -0.437056
-0.251385 -0.889919 -0.720054 0.639821 -0.478011 -0.601764
-0.249955 -0.896321 -0.700284 0.749352 -0.654347 0.101077
-0.262110 -0.901888 -0.716580 0.199103 -0.767266 -0.609607
-0.262378 -0.886034 -0.707655 -0.802354 0.487664 -0.344112
-0.258221 -0.890345 -0.723464 -0.802354 0.487664 -0.344112
-0.261226 -0.894317 -0.722080 -0.802354 0.487664 -0.344112
-0.267548 -0.890005 -0.701233 -0.802354 0.487664 -0.344112
-0.250379 -0.894748 -0.695082 -0.339213 -0.907721 0.246937
-0.267548 -0.890005 -0.701233 -0.339213 -0.907721 0.246937
-0.249955 -0.896321 -0.700284 -0.339213 -0.907721 0.246937
-0.267548 -0.890005 -0.701233 -0.232669 -0.204735 0.950762
-0.257212 -0.903348 -0.701577 -0.232669 -0.204735 0.950762
-0.253522 -0.899863 -0.699924 -0.232669 -0.204735 0.950762
-0.267548 -0.890005 -0.701233 -0.012750 0.113841 0.993417
-0.253522 -0.899863 -0.699924 -0.012750 0.113841 0.993417
-0.249955 -0.896321 -0.700284 -0.012750 0.113841 0.993417
-0.270541 -0.904016 -0.713868 -0.806304 0.481722 -0.343245
-0.273518 -0.906818 -0.710806 -0.806304 0.481722 -0.343245
-0.267548 -0.890005 -0.701233 -0.806304 0.481722 -0.343245
-0.267364 -0.901047 -0.717162 -0.806304 0.481722 -0.343245
-0.267364 -0.901047 -0.717162 -0.805174 0.482992 -0.344112
-0.267548 -0.890005 -0.701233 -0.805174 0.482992 -0.344112
-0.261226 -0.894317 -0.722080 -0.805174 0.482992 -0.344112
-0.264267 -0.897969 -0.720109 0.129246 -0.623310 -0.771203
-0.264704 -0.904691 -0.713305 0.175329 -0.808313 -0.561998
-0.267364 -0.901047 -0.717162 -0.029328 -0.716025 -0.697439
-0.270541 -0.904016 -0.713868 -0.000671 -0.761376 -0.648274
-0.268906 -0.907931 -0.709030 0.067568 -0.807215 -0.586322
-0.249955 -0.896321 -0.700284 -0.182427 0.417558 0.890149
-0.246408 -0.892085 -0.701544 -0.182427 0.417558 0.890149
-0.262378 -0.886034 -0.707655 -0.182427 0.417558 0.890149
-0.262378 -0.886034 -0.707655 0.035537 0.836930 0.546156
-0.267548 -0.890005 -0.701233 0.035537 0.836930 0.546156
-0.250379 -0.894748 -0.695082 0.035537 0.836930 0.546156
-0.249955 -0.896321 -0.700284 0.684080 0.711752 -0.159511
-0.262378 -0.886034 -0.707655 0.684080 0.711752 -0.159511
-0.250379 -0.894748 -0.695082 0.684080 0.711752 -0.159511
-0.273518 -0.906818 -0.710806 0.061647 -0.765526 -0.640400
-0.253522 -0.899863 -0.699924 0.676717 -0.727989 0.109592
3 0 1 2
3 3 4 5
3 6 7 8
3 9 10 5
3 11 2 12
3 13 4 14
3 0 2 15
3 16 17 18
3 19 20 21
3 22 23 24
3 25 26 27
3 28 29 30
3 31 32 33
3 34 35 36
3 37 38 39
3 40 41 42
3 43 44 45
3 46 47 48
3 13 14 49
3 9 50 10
3 5 51 11
3 10 52 51
3 50 52 10
3 3 5 12
3 10 51 5
3 51 15 11
3 12 2 53
3 2 11 15
3 6 50 9
3 5 11 12
4 13 54 6 9
3 9 5 4
4 55 56 57 58
3 59 60 61
3 62 63 64
3 65 66 67
3 13 9 4
4 68 69 70 71
3 72 73 74
3 6 8 50
3 54 75 7
3 6 54 7
3 49 76 13
3 13 76 54
3 54 77 75
3 76 77 54
3 76 78 77
3 76 79 78
3 80 81 82
3 83 84 85
3 86 87 88
3 76 49 79
3 79 89 78
3 1 53 2
3 4 3 14
3 12 53 90
3 12 90 3
