ply
format ascii 1.0
comment Created by Blender 2.69 (sub 10) - www.blender.org, source file: 'bunny_base.blend'
element vertex 185
property float x
property float y
property float z
property float nx
property float ny
property float nz
element face 115
property list uchar uint vertex_indices
end_header
-0.267144 -0.897764 -0.719158 -0.137700 -0.516343 -0.845210
-0.271015 -0.892397 -0.721806 0.383343 -0.401563 -0.831721
-0.264120 -0.894237 -0.721177 0.105197 -0.247932 -0.963012
-0.276881 -0.893373 -0.726307 0.567522 -0.393353 -0.723289
-0.277357 -0.886763 -0.729638 0.465621 -0.208014 -0.860164
-0.273446 -0.888746 -0.726436 0.617847 -0.316263 -0.719871
-0.278905 -0.898462 -0.725005 0.585131 -0.440199 -0.681021
-0.273938 -0.896762 -0.721840 0.631977 -0.482253 -0.606616
-0.276967 -0.901025 -0.720892 0.683218 -0.491317 -0.540147
-0.283426 -0.910274 -0.720246 0.596362 -0.689962 -0.410199
-0.279898 -0.905879 -0.721942 0.696677 -0.483077 -0.530320
-0.279667 -0.908725 -0.716853 0.714591 -0.617237 -0.329142
-0.290775 -0.865020 -0.738925 0.176336 0.057924 -0.982604
-0.295951 -0.865940 -0.740306 0.116276 -0.024232 -0.992889
-0.298072 -0.860219 -0.740135 0.043397 0.045717 -0.997986
-0.293004 -0.860594 -0.739930 0.153783 -0.015320 -0.987976
-0.265103 -0.889064 -0.720544 0.449629 0.148900 -0.880703
-0.269739 -0.887385 -0.722627 0.581347 -0.144566 -0.800684
-0.267406 -0.882770 -0.721294 0.672506 -0.129429 -0.728660
-0.287327 -0.885659 -0.735353 0.385174 -0.249397 -0.888485
-0.289184 -0.880363 -0.736556 0.290689 -0.232032 -0.928220
-0.283835 -0.881685 -0.734651 0.440565 -0.318400 -0.839320
-0.293784 -0.870465 -0.739831 0.093539 -0.042695 -0.994690
-0.291578 -0.875123 -0.738947 0.171087 -0.203986 -0.963897
-0.296484 -0.876045 -0.739663 0.124760 -0.111179 -0.985931
-0.301015 -0.866087 -0.740552 -0.899947 -0.399969 -0.173550
-0.304633 -0.862311 -0.730491 -0.899947 -0.399969 -0.173550
-0.303375 -0.861129 -0.739738 -0.899947 -0.399969 -0.173550
-0.283521 -0.871142 -0.738178 0.262734 -0.116459 -0.957793
-0.288706 -0.870655 -0.739462 0.169042 -0.006439 -0.985565
-0.280007 -0.891136 -0.729814 0.464278 -0.293558 -0.835597
-0.284971 -0.890725 -0.731783 0.394269 -0.320505 -0.861263
-0.281882 -0.886231 -0.731813 0.469100 -0.227912 -0.853206
-0.271776 -0.898595 -0.717302 0.488418 -0.569628 -0.661000
-0.292519 -0.861998 -0.716127 0.388282 0.673393 0.629110
-0.269430 -0.888785 -0.701705 0.388282 0.673393 0.629110
-0.264655 -0.885683 -0.707973 0.388282 0.673393 0.629110
-0.281617 -0.896201 -0.728739 0.485214 -0.377239 -0.788812
-0.303375 -0.861129 -0.739738 -0.094272 0.117405 -0.988586
-0.301015 -0.866087 -0.740552 0.008301 0.007233 -0.999939
-0.305395 -0.869660 -0.702736 0.199491 0.701736 0.683937
-0.303391 -0.875675 -0.697149 0.199491 0.701736 0.683937
-0.295722 -0.879734 -0.695221 0.199491 0.701736 0.683937
-0.305214 -0.867811 -0.708333 -0.240292 0.923953 0.297609
-0.305395 -0.869660 -0.702736 -0.240292 0.923953 0.297609
-0.292519 -0.861998 -0.716127 -0.240292 0.923953 0.297609
-0.303391 -0.875675 -0.697149 -0.170191 0.141659 0.975176
-0.301336 -0.881100 -0.696002 -0.170191 0.141659 0.975176
-0.295722 -0.879734 -0.695221 -0.170191 0.141659 0.975176
-0.301336 -0.881100 -0.696002 -0.892705 -0.426069 -0.146775
-0.304633 -0.862311 -0.730491 -0.892705 -0.426069 -0.146775
-0.283426 -0.910274 -0.720246 -0.892705 -0.426069 -0.146775
-0.283297 -0.912374 -0.714933 -0.892705 -0.426069 -0.146775
-0.273809 -0.877059 -0.729036 0.700034 -0.048555 -0.712424
-0.273473 -0.883056 -0.728297 0.572558 -0.216865 -0.790613
-0.277412 -0.876662 -0.732604 0.552934 -0.358928 -0.751915
-0.292191 -0.886083 -0.736669 0.273019 -0.240486 -0.931455
-0.290249 -0.890867 -0.734638 0.398450 -0.360942 -0.843165
-0.284126 -0.907183 -0.724789 0.601306 -0.420667 -0.679281
-0.286631 -0.900238 -0.729571 0.459670 -0.355937 -0.813593
-0.282665 -0.901920 -0.725491 0.552782 -0.372600 -0.745354
-0.301336 -0.881100 -0.696002 -0.907662 -0.398887 -0.130530
-0.305395 -0.869660 -0.702736 -0.907662 -0.398887 -0.130530
-0.304633 -0.862311 -0.730491 -0.907662 -0.398887 -0.130530
-0.305395 -0.869660 -0.702736 0.246090 0.720177 0.648679
-0.295722 -0.879734 -0.695221 0.246090 0.720177 0.648679
-0.292519 -0.861998 -0.716127 0.246090 0.720177 0.648679
-0.276495 -0.904166 -0.716947 0.685476 -0.559160 -0.466292
-0.304633 -0.862311 -0.730491 -0.894553 -0.415006 -0.165965
-0.301015 -0.866087 -0.740552 -0.894553 -0.415006 -0.165965
-0.298815 -0.871104 -0.739863 -0.894553 -0.415006 -0.165965
-0.277682 -0.907624 -0.712367 0.838333 -0.526228 0.142417
-0.276495 -0.904166 -0.716947 0.838333 -0.526228 0.142417
-0.264655 -0.885683 -0.707973 0.838333 -0.526228 0.142417
-0.269430 -0.888785 -0.701705 0.838333 -0.526228 0.142417
-0.305395 -0.869660 -0.702736 -0.997210 0.074255 -0.007695
-0.305214 -0.867811 -0.708333 -0.997210 0.074255 -0.007695
-0.304633 -0.862311 -0.730491 -0.997210 0.074255 -0.007695
-0.269886 -0.880505 -0.725454 0.734062 -0.244575 -0.633473
-0.294269 -0.881118 -0.738417 0.296701 -0.184515 -0.936949
-0.286510 -0.875533 -0.738068 0.214484 -0.289895 -0.932676
-0.283297 -0.912374 -0.714933 0.587603 -0.747551 -0.309580
-0.267144 -0.897764 -0.719158 0.085712 -0.741894 -0.665017
-0.264120 -0.894237 -0.721177 0.085712 -0.741894 -0.665017
-0.272561 -0.902994 -0.714022 0.085712 -0.741894 -0.665017
-0.271776 -0.898595 -0.717302 0.085712 -0.741894 -0.665017
-0.281167 -0.876332 -0.736125 0.413617 -0.384930 -0.825037
-0.288674 -0.895310 -0.731414 0.302957 -0.317057 -0.898679
-0.303375 -0.861129 -0.739738 0.726253 0.662493 0.183466
-0.304633 -0.862311 -0.730491 0.726253 0.662493 0.183466
-0.305214 -0.867811 -0.708333 0.726253 0.662493 0.183466
-0.303391 -0.875675 -0.697149 -0.929339 -0.364481 -0.059010
-0.305395 -0.869660 -0.702736 -0.929339 -0.364481 -0.059010
-0.301336 -0.881100 -0.696002 -0.929339 -0.364481 -0.059010
-0.294269 -0.881118 -0.738417 -0.891333 -0.426779 -0.152921
-0.292191 -0.886083 -0.736669 -0.891333 -0.426779 -0.152921
-0.296484 -0.876045 -0.739663 -0.891333 -0.426779 -0.152921
-0.292191 -0.886083 -0.736669 -0.891338 -0.426774 -0.152907
-0.290249 -0.890867 -0.734638 -0.891338 -0.426774 -0.152907
-0.288674 -0.895310 -0.731414 -0.891338 -0.426774 -0.152907
-0.288674 -0.895310 -0.731414 -0.891338 -0.426773 -0.152907
-0.286631 -0.900238 -0.729571 -0.891338 -0.426773 -0.152907
-0.284126 -0.907183 -0.724789 -0.891338 -0.426773 -0.152907
-0.284126 -0.907183 -0.724789 -0.891333 -0.426779 -0.152922
-0.283426 -0.910274 -0.720246 -0.891333 -0.426779 -0.152922
-0.304633 -0.862311 -0.730491 -0.891333 -0.426779 -0.152922
-0.304633 -0.862311 -0.730491 -0.891333 -0.426780 -0.152919
-0.298815 -0.871104 -0.739863 -0.891333 -0.426780 -0.152919
-0.296484 -0.876045 -0.739663 -0.891333 -0.426780 -0.152919
-0.292191 -0.886083 -0.736669 -0.891334 -0.426779 -0.152917
-0.288674 -0.895310 -0.731414 -0.891334 -0.426779 -0.152917
-0.296484 -0.876045 -0.739663 -0.891334 -0.426779 -0.152917
-0.288674 -0.895310 -0.731414 -0.891333 -0.426779 -0.152921
-0.284126 -0.907183 -0.724789 -0.891333 -0.426779 -0.152921
-0.304633 -0.862311 -0.730491 -0.891333 -0.426779 -0.152921
-0.288674 -0.895310 -0.731414 -0.891333 -0.426780 -0.152920
-0.304633 -0.862311 -0.730491 -0.891333 -0.426780 -0.152920
-0.296484 -0.876045 -0.739663 -0.891333 -0.426780 -0.152920
-0.264120 -0.894237 -0.721177 0.608865 -0.494719 0.620109
-0.264655 -0.885683 -0.707973 0.608865 -0.494719 0.620109
-0.276495 -0.904166 -0.716947 0.608865 -0.494719 0.620109
-0.272561 -0.902994 -0.714022 0.608865 -0.494719 0.620109
-0.278857 -0.881373 -0.730735 0.455763 -0.301309 -0.837519
-0.298815 -0.871104 -0.739863 0.025208 -0.076571 -0.996734
-0.277682 -0.907624 -0.712367 0.799402 -0.560533 -0.216132
-0.295722 -0.879734 -0.695221 0.387105 0.672997 0.630258
-0.269430 -0.888785 -0.701705 0.387105 0.672997 0.630258
-0.292519 -0.861998 -0.716127 0.387105 0.672997 0.630258
-0.281167 -0.876332 -0.736125 0.684912 0.022591 -0.728276
-0.283521 -0.871142 -0.738178 0.684912 0.022591 -0.728276
-0.277412 -0.876662 -0.732604 0.684912 0.022591 -0.728276
-0.283521 -0.871142 -0.738178 0.654702 0.754504 -0.045696
-0.292519 -0.861998 -0.716127 0.654702 0.754504 -0.045696
-0.264655 -0.885683 -0.707973 0.654702 0.754504 -0.045696
-0.264655 -0.885683 -0.707973 -0.005759 0.965704 -0.259581
-0.260630 -0.889752 -0.723202 -0.005759 0.965704 -0.259581
-0.265103 -0.889064 -0.720544 -0.005759 0.965704 -0.259581
-0.269886 -0.880505 -0.725454 0.645092 -0.057743 -0.761920
-0.273473 -0.883056 -0.728297 0.645092 -0.057743 -0.761920
-0.273809 -0.877059 -0.729036 0.645092 -0.057743 -0.761920
-0.283521 -0.871142 -0.738178 0.705742 0.069050 -0.705096
-0.273809 -0.877059 -0.729036 0.705742 0.069050 -0.705096
-0.277412 -0.876662 -0.732604 0.705742 0.069050 -0.705096
-0.264655 -0.885683 -0.707973 0.936707 0.328297 -0.121659
-0.265103 -0.889064 -0.720544 0.936707 0.328297 -0.121659
-0.267406 -0.882770 -0.721294 0.936707 0.328297 -0.121659
-0.267406 -0.882770 -0.721294 0.641279 0.766503 0.035139
-0.269886 -0.880505 -0.725454 0.641279 0.766503 0.035139
-0.273809 -0.877059 -0.729036 0.641279 0.766503 0.035139
-0.283521 -0.871142 -0.738178 0.345273 0.911578 0.223184
-0.264655 -0.885683 -0.707973 0.345273 0.911578 0.223184
-0.273809 -0.877059 -0.729036 0.345273 0.911578 0.223184
-0.264655 -0.885683 -0.707973 0.641251 0.766524 0.035177
-0.267406 -0.882770 -0.721294 0.641251 0.766524 0.035177
-0.273809 -0.877059 -0.729036 0.641251 0.766524 0.035177
-0.290775 -0.865020 -0.738925 -0.024075 0.209821 0.977443
-0.293004 -0.860594 -0.739930 -0.024075 0.209821 0.977443
-0.298072 -0.860219 -0.740135 -0.024075 0.209821 0.977443
-0.290775 -0.865020 -0.738925 0.647176 0.760613 -0.051300
-0.292519 -0.861998 -0.716127 0.647176 0.760613 -0.051300
-0.283521 -0.871142 -0.738178 0.647176 0.760613 -0.051300
-0.290775 -0.865020 -0.738925 0.556205 0.828321 -0.067236
-0.298072 -0.860219 -0.740135 0.556205 0.828321 -0.067236
-0.292519 -0.861998 -0.716127 0.556205 0.828321 -0.067236
-0.303375 -0.861129 -0.739738 -0.279159 0.946274 0.163204
-0.305214 -0.867811 -0.708333 -0.279159 0.946274 0.163204
-0.292519 -0.861998 -0.716127 -0.279159 0.946274 0.163204
-0.298072 -0.860219 -0.740135 -0.279159 0.946274 0.163204
-0.295722 -0.879734 -0.695221 0.006062 -0.515271 0.857006
-0.301336 -0.881100 -0.696002 0.006062 -0.515271 0.857006
-0.283297 -0.912374 -0.714933 0.006062 -0.515271 0.857006
-0.264120 -0.894237 -0.721177 0.809571 -0.573461 0.125450
-0.265103 -0.889064 -0.720544 0.809571 -0.573461 0.125450
-0.260630 -0.889752 -0.723202 0.809571 -0.573461 0.125450
-0.264655 -0.885683 -0.707973 0.809571 -0.573461 0.125450
-0.269430 -0.888785 -0.701705 0.038827 -0.504989 0.862252
-0.295722 -0.879734 -0.695221 0.038827 -0.504989 0.862252
-0.277682 -0.907624 -0.712367 0.038827 -0.504989 0.862252
-0.295722 -0.879734 -0.695221 0.619312 -0.219517 0.753834
-0.283297 -0.912374 -0.714933 0.619312 -0.219517 0.753834
-0.279667 -0.908725 -0.716853 0.619312 -0.219517 0.753834
-0.295722 -0.879734 -0.695221 -0.611733 -0.661971 0.433102
-0.279667 -0.908725 -0.716853 -0.611733 -0.661971 0.433102
-0.277682 -0.907624 -0.712367 -0.611733 -0.661971 0.433102
-0.272561 -0.902994 -0.714022 0.618793 -0.564684 -0.546037
3 0 1 2
3 3 4 5
3 6 7 8
3 9 10 11
4 12 13 14 15
3 16 17 18
3 19 20 21
3 22 23 24
3 25 26 27
3 28 29 12
3 6 3 7
3 30 31 32
3 0 33 1
3 34 35 36
3 37 3 6
3 38 14 39
3 40 41 42
3 43 44 45
3 46 47 48
4 49 50 51 52
3 53 54 55
3 56 19 57
3 14 13 39
3 58 59 60
3 61 62 63
3 64 65 66
3 11 8 67
3 68 69 70
4 71 72 73 74
3 75 76 77
3 13 12 22
3 54 78 17
3 79 24 23
3 29 28 80
3 9 11 81
4 82 83 84 85
3 28 86 80
3 57 31 87
3 88 89 90
3 91 92 93
3 58 10 9
3 59 37 60
3 10 6 8
3 18 17 78
3 94 95 96
3 97 98 99
3 100 101 102
3 103 104 105
3 106 107 108
3 109 110 111
3 112 113 114
3 115 116 117
3 3 5 7
3 22 29 23
4 118 119 120 121
3 122 55 54
3 59 87 31
3 23 80 20
3 60 6 10
3 29 80 23
3 16 2 17
3 12 29 22
3 10 8 11
3 13 22 123
3 5 54 17
3 37 59 31
3 11 67 124
3 125 126 127
3 37 30 3
3 7 5 1
3 39 13 123
3 80 86 21
3 128 129 130
3 131 132 133
3 134 135 136
3 137 138 139
3 140 141 142
3 143 144 145
3 146 147 148
3 149 150 151
3 152 153 154
3 5 17 1
3 31 30 37
3 155 156 157
3 158 159 160
3 161 162 163
3 57 19 31
3 21 86 122
4 164 165 166 167
3 168 169 170
3 86 55 122
3 4 54 5
3 123 22 24
3 21 20 80
3 4 32 122
3 19 21 32
3 32 21 122
3 30 4 3
3 4 30 32
3 31 19 32
3 54 4 122
3 58 60 10
4 171 172 173 174
3 175 176 177
3 178 179 180
3 181 182 183
3 60 37 6
3 79 20 19
3 20 79 23
3 8 184 67
3 1 33 7
3 79 19 56
3 33 184 7
3 184 8 7
3 1 17 2
