ply
format ascii 1.0
comment Created by Blender 2.69 (sub 10) - www.blender.org, source file: 'bunny_base.blend'
element vertex 166
property float x
property float y
property float z
property float nx
property float ny
property float nz
element face 129
property list uchar uint vertex_indices
end_header
-0.286181 -0.915723 -0.695279 0.226783 -0.912503 0.340342
-0.292265 -0.915366 -0.690871 -0.178838 -0.940580 0.288583
-0.291087 -0.916944 -0.696896 -0.107303 -0.953978 0.279977
-0.259408 -0.891470 -0.682615 0.738151 -0.184393 0.648885
-0.259906 -0.896378 -0.683443 0.688253 -0.386975 0.613605
-0.254030 -0.894895 -0.688411 0.682577 -0.527543 0.505692
-0.257696 -0.898539 -0.687793 0.636311 -0.607196 0.475814
-0.255616 -0.899113 -0.692384 0.668966 -0.657216 0.347148
-0.276205 -0.905113 -0.677824 0.307688 -0.923399 0.229438
-0.273268 -0.904135 -0.682363 0.289407 -0.925077 0.245827
-0.270386 -0.902903 -0.678170 0.431196 -0.852962 0.294076
-0.296474 -0.913205 -0.693101 -0.167943 -0.942045 0.290353
-0.277273 -0.914148 -0.700036 0.370617 -0.928709 0.011109
-0.280249 -0.914151 -0.704105 0.544847 -0.807672 -0.225318
-0.275175 -0.911310 -0.704412 0.332438 -0.856655 -0.394452
-0.262370 -0.902309 -0.687076 0.573199 -0.690359 0.441328
-0.263605 -0.900042 -0.682753 0.615833 -0.603961 0.505875
-0.267305 -0.903424 -0.682642 0.410871 -0.802057 0.433363
-0.267078 -0.905641 -0.687283 0.273690 -0.860805 0.428999
-0.272094 -0.905671 -0.688230 0.327403 -0.834864 0.442427
-0.268819 -0.908314 -0.691437 0.241371 -0.873989 0.421735
-0.260976 -0.906252 -0.702460 -0.299840 0.926877 -0.225819
-0.264823 -0.908145 -0.705121 -0.299840 0.926877 -0.225819
-0.259108 -0.904457 -0.697570 -0.299840 0.926877 -0.225819
-0.264823 -0.908145 -0.705121 0.230716 -0.870894 -0.433951
-0.269603 -0.910236 -0.703465 0.230716 -0.870894 -0.433951
-0.272024 -0.908287 -0.708663 0.230716 -0.870894 -0.433951
-0.272024 -0.908287 -0.708663 0.306701 0.384870 -0.870522
-0.277043 -0.907834 -0.710231 0.306701 0.384870 -0.870522
-0.269300 -0.890062 -0.699646 0.306701 0.384870 -0.870522
-0.269300 -0.890062 -0.699646 0.141675 -0.480347 -0.865560
-0.251924 -0.895750 -0.693646 0.141675 -0.480347 -0.865560
-0.255616 -0.899113 -0.692384 0.141675 -0.480347 -0.865560
-0.255616 -0.899113 -0.692384 -0.666520 0.695685 -0.267905
-0.255427 -0.900910 -0.697520 -0.666520 0.695685 -0.267905
-0.259108 -0.904457 -0.697570 -0.666520 0.695685 -0.267905
-0.264823 -0.908145 -0.705121 0.270106 0.768620 -0.579884
-0.272024 -0.908287 -0.708663 0.270106 0.768620 -0.579884
-0.259108 -0.904457 -0.697570 0.270106 0.768620 -0.579884
-0.272024 -0.908287 -0.708663 0.589780 0.285599 -0.755376
-0.269300 -0.890062 -0.699646 0.589780 0.285599 -0.755376
-0.255616 -0.899113 -0.692384 0.589780 0.285599 -0.755376
-0.272024 -0.908287 -0.708663 0.534034 0.382681 -0.753898
-0.255616 -0.899113 -0.692384 0.534034 0.382681 -0.753898
-0.259108 -0.904457 -0.697570 0.534034 0.382681 -0.753898
-0.281256 -0.914630 -0.696597 0.394238 -0.875088 0.280618
-0.273691 -0.909868 -0.692333 0.273629 -0.865017 0.420515
-0.265804 -0.898216 -0.677722 0.712577 -0.607196 0.351451
-0.295553 -0.912589 -0.687848 -0.282510 -0.919797 0.272256
-0.300580 -0.912459 -0.688621 0.077212 -0.969573 0.232154
-0.263995 -0.906174 -0.691774 0.498123 -0.806604 0.318125
-0.284005 -0.917225 -0.701306 0.476882 -0.854335 0.206519
-0.268638 -0.909933 -0.697570 0.391003 -0.909879 0.138585
-0.263822 -0.907694 -0.698111 0.475661 -0.871578 0.118564
-0.293380 -0.881576 -0.693944 -0.008864 0.540265 -0.841448
-0.269300 -0.890062 -0.699646 -0.008864 0.540265 -0.841448
-0.301447 -0.883278 -0.694952 -0.008864 0.540265 -0.841448
-0.259311 -0.902548 -0.692180 0.625446 -0.706229 0.331675
-0.300580 -0.912459 -0.688621 -0.817498 0.026397 0.575326
-0.301447 -0.883278 -0.694952 -0.817498 0.026397 0.575326
-0.303506 -0.907695 -0.692997 -0.817498 0.026397 0.575326
-0.301377 -0.914429 -0.693422 -0.817498 0.026397 0.575326
-0.262227 -0.894079 -0.679389 0.237506 0.962825 0.128680
-0.259408 -0.891470 -0.682615 0.237506 0.962825 0.128680
-0.254030 -0.894895 -0.688411 0.237506 0.962825 0.128680
-0.293380 -0.881576 -0.693944 0.237506 0.962825 0.128680
-0.295069 -0.916443 -0.702015 -0.727174 0.006346 -0.686424
-0.303506 -0.907695 -0.692997 -0.727174 0.006346 -0.686424
-0.301447 -0.883278 -0.694952 -0.727174 0.006346 -0.686424
-0.301447 -0.883278 -0.694952 -0.727445 0.006252 -0.686138
-0.283759 -0.914263 -0.713987 -0.727445 0.006252 -0.686138
-0.285476 -0.918678 -0.712207 -0.727445 0.006252 -0.686138
-0.285476 -0.918678 -0.712207 -0.727554 0.005576 -0.686028
-0.288643 -0.921927 -0.708875 -0.727554 0.005576 -0.686028
-0.292097 -0.921431 -0.705208 -0.727554 0.005576 -0.686028
-0.295069 -0.916443 -0.702015 -0.726828 0.006490 -0.686789
-0.301447 -0.883278 -0.694952 -0.726828 0.006490 -0.686789
-0.292097 -0.921431 -0.705208 -0.726828 0.006490 -0.686789
-0.301447 -0.883278 -0.694952 -0.727646 0.006058 -0.685926
-0.285476 -0.918678 -0.712207 -0.727646 0.006058 -0.685926
-0.292097 -0.921431 -0.705208 -0.727646 0.006058 -0.685926
-0.278404 -0.903343 -0.672695 -0.240168 0.588429 0.772056
-0.273551 -0.901571 -0.672331 -0.240168 0.588429 0.772056
-0.293380 -0.881576 -0.693944 -0.240168 0.588429 0.772056
-0.301447 -0.883278 -0.694952 -0.240168 0.588429 0.772056
-0.290477 -0.913241 -0.685461 0.041169 -0.929441 0.366588
-0.290703 -0.911058 -0.680706 0.037904 -0.907498 0.418287
-0.295335 -0.910982 -0.682996 -0.239753 -0.903500 0.355205
-0.287395 -0.913761 -0.690078 0.255074 -0.903836 0.343425
-0.264823 -0.908145 -0.705121 0.421766 -0.906644 -0.008576
-0.269603 -0.910236 -0.703465 0.320231 -0.935850 -0.146916
-0.251924 -0.895750 -0.693646 0.323572 0.945626 -0.033058
-0.269300 -0.890062 -0.699646 0.323572 0.945626 -0.033058
-0.293380 -0.881576 -0.693944 0.323572 0.945626 -0.033058
-0.254030 -0.894895 -0.688411 0.323572 0.945626 -0.033058
-0.282407 -0.915218 -0.708712 0.823664 -0.529374 -0.203162
-0.292097 -0.921431 -0.705208 0.077120 -0.828303 0.554888
-0.288862 -0.918979 -0.701796 0.079165 -0.893033 0.442915
-0.295069 -0.916443 -0.702015 -0.291726 -0.910916 0.291665
-0.280966 -0.910650 -0.711858 -0.015946 0.516768 -0.855977
-0.283759 -0.914263 -0.713987 -0.015946 0.516768 -0.855977
-0.301447 -0.883278 -0.694952 -0.015946 0.516768 -0.855977
-0.301447 -0.883278 -0.694952 -0.015945 0.516768 -0.855977
-0.269300 -0.890062 -0.699646 -0.015945 0.516768 -0.855977
-0.277043 -0.907834 -0.710231 -0.015945 0.516768 -0.855977
-0.280966 -0.910650 -0.711858 -0.015945 0.516768 -0.855977
-0.268643 -0.900267 -0.674050 0.609668 -0.747551 0.263497
-0.273551 -0.901571 -0.672331 0.361492 -0.847255 0.389141
-0.281083 -0.906645 -0.678705 0.347697 -0.866512 0.358074
-0.287181 -0.907384 -0.675293 0.344188 -0.832118 0.434797
-0.285829 -0.909529 -0.679829 0.347972 -0.845820 0.404309
-0.265911 -0.896410 -0.672369 0.760796 -0.610187 0.220923
-0.262227 -0.894079 -0.679389 0.178324 0.902005 0.393177
-0.293380 -0.881576 -0.693944 0.178324 0.902005 0.393177
-0.265911 -0.896410 -0.672369 0.178324 0.902005 0.393177
-0.293380 -0.881576 -0.693944 0.033024 0.748555 0.662249
-0.273551 -0.901571 -0.672331 0.033024 0.748555 0.662249
-0.268643 -0.900267 -0.674050 0.033024 0.748555 0.662249
-0.293380 -0.881576 -0.693944 -0.592515 0.069974 0.802515
-0.268643 -0.900267 -0.674050 -0.592515 0.069974 0.802515
-0.265911 -0.896410 -0.672369 -0.592515 0.069974 0.802515
-0.285476 -0.918678 -0.712207 0.772759 -0.594897 -0.221168
-0.284785 -0.919367 -0.706715 0.653066 -0.751549 0.092837
-0.273469 -0.911974 -0.697438 0.328715 -0.924558 0.192572
-0.283268 -0.905019 -0.673268 0.291879 -0.877804 0.379772
-0.283759 -0.914263 -0.713987 0.837764 -0.457808 -0.297555
-0.280966 -0.910650 -0.711858 0.753105 -0.569140 -0.329997
-0.259108 -0.904457 -0.697570 0.600391 -0.769250 0.218513
-0.278581 -0.911179 -0.693745 0.607379 -0.495743 -0.620685
-0.298978 -0.915301 -0.697861 -0.086856 -0.946135 0.311808
-0.262227 -0.894079 -0.679389 0.768822 -0.366100 0.524247
-0.295335 -0.910982 -0.682996 -0.327560 0.651364 0.684419
-0.290703 -0.911058 -0.680706 -0.327560 0.651364 0.684419
-0.285829 -0.909529 -0.679829 -0.327560 0.651364 0.684419
-0.287181 -0.907384 -0.675293 -0.571769 0.288064 0.768179
-0.283268 -0.905019 -0.673268 -0.571769 0.288064 0.768179
-0.301447 -0.883278 -0.694952 -0.571769 0.288064 0.768179
-0.301447 -0.883278 -0.694952 -0.143498 0.205740 0.968029
-0.300580 -0.912459 -0.688621 -0.143498 0.205740 0.968029
-0.295553 -0.912589 -0.687848 -0.143498 0.205740 0.968029
-0.295335 -0.910982 -0.682996 -0.003904 -0.904459 0.426542
-0.285829 -0.909529 -0.679829 -0.003904 -0.904459 0.426542
-0.287181 -0.907384 -0.675293 -0.003904 -0.904459 0.426542
-0.295335 -0.910982 -0.682996 -0.979800 -0.172506 0.101159
-0.301447 -0.883278 -0.694952 -0.979800 -0.172506 0.101159
-0.295553 -0.912589 -0.687848 -0.979800 -0.172506 0.101159
-0.295335 -0.910982 -0.682996 -0.711864 0.139957 0.688231
-0.287181 -0.907384 -0.675293 -0.711864 0.139957 0.688231
-0.301447 -0.883278 -0.694952 -0.711864 0.139957 0.688231
-0.277043 -0.907834 -0.710231 0.394208 -0.778100 -0.488968
-0.272024 -0.908287 -0.708663 0.155217 -0.855800 -0.493454
-0.278404 -0.903343 -0.672695 0.267830 -0.877224 0.398358
-0.301447 -0.883278 -0.694952 -0.281842 0.549073 0.786819
-0.283268 -0.905019 -0.673268 -0.281842 0.549073 0.786819
-0.278404 -0.903343 -0.672695 -0.281842 0.549073 0.786819
-0.288643 -0.921927 -0.708875 0.460250 -0.864376 0.202338
-0.298978 -0.915301 -0.697861 -0.727551 0.005578 -0.686031
-0.303506 -0.907695 -0.692997 -0.727551 0.005578 -0.686031
-0.295069 -0.916443 -0.702015 -0.727551 0.005578 -0.686031
-0.255427 -0.900910 -0.697520 0.664876 -0.696432 0.269967
-0.251924 -0.895750 -0.693646 0.690695 -0.616138 0.378491
-0.260976 -0.906252 -0.702460 0.494034 -0.868709 0.035218
-0.301377 -0.914429 -0.693422 0.209754 -0.923673 0.320597
-0.301377 -0.914429 -0.693422 -0.871654 -0.248905 -0.422215
-0.303506 -0.907695 -0.692997 -0.871654 -0.248905 -0.422215
-0.298978 -0.915301 -0.697861 -0.871654 -0.248905 -0.422215
3 0 1 2
3 3 4 5
3 5 6 7
3 8 9 10
3 2 1 11
3 12 13 14
3 15 16 17
3 5 4 6
3 18 19 20
3 21 22 23
3 24 25 26
3 27 28 29
3 30 31 32
3 33 34 35
3 36 37 38
3 39 40 41
3 42 43 44
3 45 46 9
3 4 47 16
3 11 48 49
3 50 18 20
3 15 18 50
3 13 45 51
3 16 47 10
3 11 1 48
3 52 53 20
3 54 55 56
3 7 6 57
4 58 59 60 61
4 62 63 64 65
3 66 67 68
3 69 70 71
3 72 73 74
3 75 76 77
3 78 79 80
4 81 82 83 84
3 46 20 19
3 85 86 87
3 0 45 88
3 6 15 57
3 89 52 90
4 91 92 93 94
3 95 13 51
3 96 97 98
3 85 87 48
3 99 100 101
3 102 103 104
3 105 102 104
3 106 107 10
3 108 109 110
3 47 111 106
3 112 113 114
3 115 116 117
3 118 119 120
3 85 48 1
3 46 19 9
3 121 95 122
3 90 123 14
3 108 124 109
3 53 50 20
3 6 4 16
3 45 13 12
3 15 17 18
3 125 126 95
3 95 126 13
3 127 50 53
3 123 12 14
3 0 88 1
3 20 46 52
3 0 2 51
3 9 17 10
3 123 128 12
3 98 2 129
3 9 8 108
3 122 97 96
3 111 47 130
3 131 132 133
3 134 135 136
3 137 138 139
3 140 141 142
3 143 144 145
3 146 147 148
3 53 52 89
3 4 130 47
3 110 85 88
3 15 50 57
3 6 16 15
3 46 123 52
3 45 108 110
3 85 110 86
3 14 149 150
3 97 51 2
3 14 13 149
3 88 85 1
3 45 110 88
3 8 151 108
3 152 153 154
3 155 121 122
3 45 9 108
3 16 10 17
3 45 128 46
3 122 95 51
3 52 123 90
3 156 157 158
3 130 4 3
3 10 151 8
3 123 46 128
3 129 2 11
3 51 97 122
3 159 57 127
3 47 106 10
3 18 17 9
3 150 90 14
3 160 5 7
3 13 126 149
3 161 53 89
3 159 7 57
3 127 53 161
3 121 125 95
3 127 57 50
3 124 108 151
3 12 128 45
3 19 18 9
3 45 0 51
3 98 97 2
3 129 11 162
3 163 164 165
3 122 96 155
3 11 49 162
