ply
format ascii 1.0
comment Created by Blender 2.69 (sub 10) - www.blender.org, source file: 'bunny_base.blend'
element vertex 175
property float x
property float y
property float z
property float nx
property float ny
property float nz
element face 136
property list uchar uint vertex_indices
end_header
-0.330122 -0.868338 -0.731300 -0.420484 0.009552 -0.907224
-0.332854 -0.863040 -0.731318 -0.364483 -0.151708 -0.918760
-0.327950 -0.863753 -0.732941 -0.295938 -0.176183 -0.938780
-0.330782 -0.903601 -0.729096 -0.197577 -0.535569 -0.821009
-0.335512 -0.901904 -0.729195 -0.267922 -0.532395 -0.802942
-0.333853 -0.897634 -0.731587 -0.193426 -0.489364 -0.850337
-0.337599 -0.873831 -0.727556 -0.576250 0.601489 -0.553240
-0.338074 -0.878087 -0.732208 -0.542192 0.514145 -0.664541
-0.342441 -0.876911 -0.726061 -0.568865 0.632923 -0.525101
-0.328354 -0.873172 -0.734360 -0.360302 0.530442 -0.767296
-0.324735 -0.877552 -0.738885 -0.261116 0.264809 -0.928251
-0.329576 -0.878027 -0.737192 -0.358470 0.334697 -0.871456
-0.328348 -0.899321 -0.732175 -0.214026 -0.487075 -0.846706
-0.333838 -0.892605 -0.734910 -0.226569 -0.399152 -0.888424
-0.321577 -0.882797 -0.739159 -0.129856 -0.114048 -0.984924
-0.326583 -0.883477 -0.738602 -0.188269 -0.053621 -0.980621
-0.341930 -0.896177 -0.729449 -0.560045 -0.446699 -0.697684
-0.338035 -0.894546 -0.732526 -0.355815 -0.428358 -0.830561
-0.334396 -0.879938 -0.735657 -0.433363 0.301523 -0.849239
-0.338220 -0.883224 -0.734481 -0.493088 0.190985 -0.848720
-0.306933 -0.859279 -0.738175 0.989505 0.044070 -0.137611
-0.305786 -0.861333 -0.730587 0.989505 0.044070 -0.137611
-0.306938 -0.864683 -0.739948 0.989505 0.044070 -0.137611
-0.331470 -0.883856 -0.737301 -0.290139 0.010834 -0.956908
-0.324648 -0.889508 -0.738136 -0.148961 -0.258705 -0.954375
-0.345026 -0.899433 -0.718344 -0.789941 -0.596851 -0.140446
-0.341896 -0.902800 -0.721645 -0.718131 -0.658895 -0.223792
-0.340692 -0.904466 -0.716940 -0.716910 -0.694327 -0.062380
-0.336615 -0.905581 -0.725414 -0.422045 -0.650999 0.630935
-0.332134 -0.908175 -0.725094 -0.422045 -0.650999 0.630935
-0.327727 -0.900166 -0.713881 -0.422045 -0.650999 0.630935
-0.332134 -0.908175 -0.725094 -0.261422 -0.622944 -0.737266
-0.336615 -0.905581 -0.725414 -0.468795 -0.674764 -0.569994
-0.329735 -0.889057 -0.736990 -0.202216 -0.274789 -0.939970
-0.345771 -0.893517 -0.727324 -0.799646 -0.335887 -0.497696
-0.346707 -0.887841 -0.727818 -0.816157 -0.035401 -0.576708
-0.343316 -0.890927 -0.730893 -0.626881 -0.230598 -0.744163
-0.319819 -0.877292 -0.739870 -0.149663 0.228248 -0.962004
-0.314818 -0.877267 -0.740173 -0.116886 0.267617 -0.956389
-0.316561 -0.882273 -0.740137 -0.128147 -0.030702 -0.991272
-0.346988 -0.895501 -0.721842 -0.848354 -0.442854 -0.290048
-0.323141 -0.862791 -0.734277 -0.248726 -0.216681 -0.943999
-0.322525 -0.856894 -0.736010 -0.304239 -0.139164 -0.942351
-0.318135 -0.863361 -0.735603 -0.264199 -0.190741 -0.945402
-0.323726 -0.894817 -0.735270 -0.188665 -0.456465 -0.869472
-0.347851 -0.890009 -0.723287 -0.930906 -0.201544 -0.304575
-0.320385 -0.867611 -0.734020 -0.304941 0.094089 -0.947691
-0.317508 -0.857457 -0.737319 -0.207556 -0.247597 -0.946348
-0.312754 -0.862565 -0.736720 -0.325785 -0.096866 -0.940428
-0.315496 -0.868647 -0.735505 -0.311869 0.190405 -0.930845
-0.342780 -0.880312 -0.729761 -0.632527 0.424909 -0.647542
-0.340316 -0.901139 -0.727324 -0.563707 -0.571459 -0.596332
-0.343966 -0.898301 -0.724808 -0.749657 -0.532090 -0.393506
-0.333208 -0.874953 -0.733146 -0.462081 0.560900 -0.686911
-0.340692 -0.904466 -0.716940 -0.247122 0.056933 0.967310
-0.327727 -0.900166 -0.713881 -0.247122 0.056933 0.967310
-0.345026 -0.899433 -0.718344 -0.247122 0.056933 0.967310
-0.327727 -0.900166 -0.713881 -0.840322 0.131023 0.526015
-0.332412 -0.858053 -0.731854 -0.840322 0.131023 0.526015
-0.332854 -0.863040 -0.731318 -0.840322 0.131023 0.526015
-0.332854 -0.863040 -0.731318 0.562209 0.040693 0.825993
-0.336670 -0.866403 -0.728555 0.562209 0.040693 0.825993
-0.337599 -0.873831 -0.727556 0.562209 0.040693 0.825993
-0.337599 -0.873831 -0.727556 0.565811 -0.632270 0.529238
-0.342441 -0.876911 -0.726061 0.565811 -0.632270 0.529238
-0.342780 -0.880312 -0.729761 0.565811 -0.632270 0.529238
-0.342780 -0.880312 -0.729761 0.742903 -0.224783 0.630530
-0.346480 -0.883024 -0.726368 0.742903 -0.224783 0.630530
-0.346707 -0.887841 -0.727818 0.742903 -0.224783 0.630530
-0.346707 -0.887841 -0.727818 0.910581 0.233002 0.341397
-0.347851 -0.890009 -0.723287 0.910581 0.233002 0.341397
-0.346988 -0.895501 -0.721842 0.910581 0.233002 0.341397
-0.327727 -0.900166 -0.713881 -0.174956 0.604241 0.777356
-0.346988 -0.895501 -0.721842 -0.174956 0.604241 0.777356
-0.345026 -0.899433 -0.718344 -0.174956 0.604241 0.777356
-0.327727 -0.900166 -0.713881 -0.188288 0.396098 0.898696
-0.332854 -0.863040 -0.731318 -0.188288 0.396098 0.898696
-0.337599 -0.873831 -0.727556 -0.188288 0.396098 0.898696
-0.337599 -0.873831 -0.727556 -0.783955 0.502826 0.364117
-0.342780 -0.880312 -0.729761 -0.783955 0.502826 0.364117
-0.346707 -0.887841 -0.727818 -0.783955 0.502826 0.364117
-0.327727 -0.900166 -0.713881 -0.172040 0.609872 0.773601
-0.346707 -0.887841 -0.727818 -0.172040 0.609872 0.773601
-0.346988 -0.895501 -0.721842 -0.172040 0.609872 0.773601
-0.327727 -0.900166 -0.713881 -0.446870 0.274607 0.851409
-0.337599 -0.873831 -0.727556 -0.446870 0.274607 0.851409
-0.346707 -0.887841 -0.727818 -0.446870 0.274607 0.851409
-0.306938 -0.864683 -0.739948 -0.357860 0.037416 -0.933012
-0.312240 -0.857722 -0.738019 -0.219672 -0.106174 -0.969756
-0.307637 -0.864301 -0.722512 -0.256148 0.338345 0.905489
-0.329479 -0.853838 -0.731688 -0.256148 0.338345 0.905489
-0.332412 -0.858053 -0.731854 -0.256148 0.338345 0.905489
-0.327727 -0.900166 -0.713881 -0.256148 0.338345 0.905489
-0.311793 -0.873242 -0.739311 -0.269356 0.408063 -0.872280
-0.318641 -0.872333 -0.737370 -0.194098 0.502823 -0.842280
-0.323541 -0.872627 -0.736257 -0.267586 0.588488 -0.762902
-0.335297 -0.887182 -0.736079 -0.333720 -0.096164 -0.937742
-0.339420 -0.889319 -0.734017 -0.461715 -0.181616 -0.868221
-0.342913 -0.885491 -0.731920 -0.650014 0.118290 -0.750633
-0.310721 -0.867991 -0.737735 -0.422132 0.093356 -0.901669
-0.330782 -0.903601 -0.729096 0.366668 -0.671628 -0.643793
-0.328348 -0.899321 -0.732175 0.366668 -0.671628 -0.643793
-0.332134 -0.908175 -0.725094 0.366668 -0.671628 -0.643793
-0.328348 -0.899321 -0.732175 -0.149618 -0.451068 -0.879859
-0.329074 -0.894226 -0.734664 -0.149618 -0.451068 -0.879859
-0.323726 -0.894817 -0.735270 -0.149618 -0.451068 -0.879859
-0.323726 -0.894817 -0.735270 0.160650 -0.447105 -0.879937
-0.324648 -0.889508 -0.738136 0.160650 -0.447105 -0.879937
-0.319646 -0.887697 -0.738143 0.160650 -0.447105 -0.879937
-0.319646 -0.887697 -0.738143 0.860554 -0.508737 0.025182
-0.327727 -0.900166 -0.713881 0.860554 -0.508737 0.025182
-0.332134 -0.908175 -0.725094 0.860554 -0.508737 0.025182
-0.328348 -0.899321 -0.732175 0.139719 -0.654185 -0.743317
-0.323726 -0.894817 -0.735270 0.139719 -0.654185 -0.743317
-0.332134 -0.908175 -0.725094 0.139719 -0.654185 -0.743317
-0.323726 -0.894817 -0.735270 0.882384 -0.449536 0.138981
-0.319646 -0.887697 -0.738143 0.882384 -0.449536 0.138981
-0.332134 -0.908175 -0.725094 0.882384 -0.449536 0.138981
-0.327628 -0.858834 -0.734137 -0.372326 -0.004913 -0.928068
-0.346480 -0.883024 -0.726368 -0.764153 0.241340 -0.598132
-0.329074 -0.894226 -0.734664 -0.118839 -0.432173 -0.893887
-0.332412 -0.858053 -0.731854 -0.388470 0.056032 -0.919736
-0.329479 -0.853838 -0.731688 0.304341 0.936801 -0.172568
-0.305786 -0.861333 -0.730587 0.304341 0.936801 -0.172568
-0.322525 -0.856894 -0.736010 0.304341 0.936801 -0.172568
-0.305786 -0.861333 -0.730587 0.280817 0.936281 0.210997
-0.306933 -0.859279 -0.738175 0.280817 0.936281 0.210997
-0.312240 -0.857722 -0.738019 0.280817 0.936281 0.210997
-0.312240 -0.857722 -0.738019 -0.012799 0.899631 -0.436464
-0.317508 -0.857457 -0.737319 -0.012799 0.899631 -0.436464
-0.322525 -0.856894 -0.736010 -0.012799 0.899631 -0.436464
-0.305786 -0.861333 -0.730587 0.139921 0.932938 0.331736
-0.312240 -0.857722 -0.738019 0.139921 0.932938 0.331736
-0.322525 -0.856894 -0.736010 0.139921 0.932938 0.331736
-0.333833 -0.870567 -0.728769 -0.569781 0.214270 -0.793359
-0.319646 -0.887697 -0.738143 -0.018738 -0.138646 -0.990143
-0.325215 -0.869454 -0.732575 -0.273629 0.269021 -0.923429
-0.329479 -0.853838 -0.731688 -0.392285 0.283670 -0.874996
-0.337410 -0.907242 -0.720377 -0.650929 -0.723136 -0.230903
-0.314818 -0.877267 -0.740173 0.473567 -0.170992 -0.864000
-0.311793 -0.873242 -0.739311 0.473567 -0.170992 -0.864000
-0.316561 -0.882273 -0.740137 0.473567 -0.170992 -0.864000
-0.310721 -0.867991 -0.737735 0.671811 -0.739464 0.043157
-0.306938 -0.864683 -0.739948 0.671811 -0.739464 0.043157
-0.307637 -0.864301 -0.722512 0.671811 -0.739464 0.043157
-0.307637 -0.864301 -0.722512 0.876154 -0.479909 0.045193
-0.327727 -0.900166 -0.713881 0.876154 -0.479909 0.045193
-0.319646 -0.887697 -0.738143 0.876154 -0.479909 0.045193
-0.311793 -0.873242 -0.739311 0.207361 -0.197123 0.958198
-0.321577 -0.882797 -0.739159 0.207361 -0.197123 0.958198
-0.316561 -0.882273 -0.740137 0.207361 -0.197123 0.958198
-0.311793 -0.873242 -0.739311 0.975372 -0.150669 -0.161085
-0.310721 -0.867991 -0.737735 0.975372 -0.150669 -0.161085
-0.307637 -0.864301 -0.722512 0.975372 -0.150669 -0.161085
-0.307637 -0.864301 -0.722512 0.689121 0.123360 -0.714069
-0.319646 -0.887697 -0.738143 0.689121 0.123360 -0.714069
-0.321577 -0.882797 -0.739159 0.689121 0.123360 -0.714069
-0.311793 -0.873242 -0.739311 0.685829 -0.699051 0.202401
-0.307637 -0.864301 -0.722512 0.685829 -0.699051 0.202401
-0.321577 -0.882797 -0.739159 0.685829 -0.699051 0.202401
-0.336670 -0.866403 -0.728555 -0.434523 -0.238258 -0.868557
-0.336615 -0.905581 -0.725414 0.415124 -0.854550 0.312117
-0.327727 -0.900166 -0.713881 0.415124 -0.854550 0.312117
-0.340692 -0.904466 -0.716940 0.415124 -0.854550 0.312117
-0.337410 -0.907242 -0.720377 0.415124 -0.854550 0.312117
-0.306933 -0.859279 -0.738175 0.063265 0.310923 -0.948302
-0.329479 -0.853838 -0.731688 0.261986 0.884830 0.385278
-0.307637 -0.864301 -0.722512 0.261986 0.884830 0.385278
-0.305786 -0.861333 -0.730587 0.261986 0.884830 0.385278
-0.333833 -0.870567 -0.728769 -0.223415 -0.102362 -0.969334
-0.337599 -0.873831 -0.727556 -0.223415 -0.102362 -0.969334
-0.336670 -0.866403 -0.728555 -0.223415 -0.102362 -0.969334
-0.305786 -0.861333 -0.730587 0.898567 -0.436462 0.045595
-0.307637 -0.864301 -0.722512 0.898567 -0.436462 0.045595
-0.306938 -0.864683 -0.739948 0.898567 -0.436462 0.045595
3 0 1 2
3 3 4 5
3 6 7 8
3 9 10 11
3 12 5 13
3 10 14 15
3 16 17 4
3 18 19 7
3 20 21 22
3 23 15 24
3 25 26 27
3 28 29 30
3 31 32 4
3 33 23 24
3 34 35 36
3 37 38 39
3 25 40 26
3 41 42 43
3 44 33 24
3 45 35 34
3 2 41 46
3 3 5 12
3 43 47 48
3 46 43 49
3 37 39 14
3 50 7 19
3 26 51 32
3 52 16 51
3 6 53 7
3 8 7 50
3 54 55 56
3 57 58 59
3 60 61 62
3 63 64 65
3 66 67 68
3 69 70 71
3 72 73 74
3 75 76 77
3 78 79 80
3 81 82 83
3 84 85 86
3 5 4 17
3 51 4 32
3 87 48 88
4 89 90 91 92
3 49 93 94
3 31 4 3
3 5 17 13
3 51 16 4
3 95 37 10
3 13 96 33
3 19 97 98
3 43 48 99
3 100 101 102
3 103 104 105
3 106 107 108
3 109 110 111
3 112 113 114
3 115 116 117
3 43 46 41
3 118 42 41
3 119 50 98
3 12 13 120
3 118 2 121
3 122 123 124
3 125 126 127
3 128 129 130
3 131 132 133
3 53 9 11
3 49 43 99
3 134 9 53
3 24 15 135
3 94 93 38
3 136 95 9
3 37 14 10
3 15 23 11
3 26 40 52
3 42 118 137
3 94 38 37
3 26 52 51
3 26 32 138
3 139 140 141
3 142 143 144
3 145 146 147
3 148 149 150
3 151 152 153
3 154 155 156
3 157 158 159
3 49 94 46
3 23 96 19
3 44 120 33
3 0 2 136
3 43 42 47
3 0 160 1
4 161 162 163 164
3 88 165 87
3 16 52 34
3 0 134 160
3 16 36 17
3 95 94 37
3 99 93 49
3 119 98 35
3 13 33 120
3 47 88 48
3 53 6 134
3 137 118 121
3 2 46 136
3 17 36 97
3 7 53 18
3 17 97 13
3 2 1 121
3 2 118 41
3 9 134 0
3 33 96 23
3 40 45 34
3 87 99 48
3 15 14 135
3 136 9 0
3 166 167 168
3 40 34 52
3 94 95 136
3 9 95 10
3 169 170 171
3 50 19 98
3 23 19 18
3 97 36 98
3 94 136 46
3 96 97 19
3 98 36 35
3 53 11 18
3 11 23 18
3 16 34 36
3 138 27 26
3 172 173 174
3 97 96 13
3 10 15 11
