ply
format ascii 1.0
comment Created by Blender 2.69 (sub 10) - www.blender.org, source file: 'bunny_base.blend'
element vertex 84
property float x
property float y
property float z
property float nx
property float ny
property float nz
element face 71
property list uchar uint vertex_indices
end_header
-0.341678 -0.915105 -0.649643 -0.202826 0.829493 -0.520341
-0.336993 -0.911689 -0.646024 0.275704 -0.866207 0.416669
-0.336765 -0.914419 -0.650464 0.380474 -0.803247 0.458266
-0.330594 -0.905374 -0.636948 0.298654 -0.878109 0.373791
-0.336632 -0.905477 -0.632191 0.199866 -0.797662 0.568957
-0.335447 -0.907173 -0.637228 0.306192 -0.873470 0.378521
-0.329990 -0.899146 -0.629958 0.376507 -0.028962 0.925932
-0.333687 -0.894279 -0.633421 0.028840 0.732719 0.679891
-0.336395 -0.897345 -0.630002 -0.135868 0.590747 0.795282
-0.340355 -0.901512 -0.629515 -0.505692 0.005371 0.862667
-0.341575 -0.906385 -0.631354 -0.260598 -0.514573 0.816858
-0.343382 -0.898808 -0.634728 -0.768670 0.462264 0.442061
-0.346307 -0.902733 -0.637234 -0.917142 0.254830 0.306345
-0.332051 -0.910789 -0.646860 0.286752 -0.870479 0.399976
-0.328953 -0.911795 -0.651570 0.322825 -0.845088 0.426130
-0.326865 -0.902501 -0.633316 0.327830 -0.769890 0.547472
-0.331778 -0.903706 -0.631917 0.360790 -0.743645 0.562822
-0.329758 -0.906478 -0.650981 0.873315 0.159095 -0.460445
-0.325471 -0.906189 -0.643027 0.873315 0.159095 -0.460445
-0.327217 -0.908795 -0.646961 0.873315 0.159095 -0.460445
-0.328953 -0.911795 -0.651570 0.873315 0.159095 -0.460445
-0.334992 -0.901747 -0.627907 0.082919 -0.231971 0.969146
-0.344464 -0.898188 -0.639575 -0.783074 0.621876 0.001953
-0.345733 -0.901723 -0.643175 -0.884854 0.395489 -0.246101
-0.347468 -0.908898 -0.639011 -0.865474 -0.418439 0.275369
-0.346937 -0.907265 -0.644507 -0.952757 0.115574 -0.280801
-0.346974 -0.912536 -0.643324 -0.721183 -0.656209 0.221931
-0.341521 -0.899651 -0.648323 -0.753258 0.515122 -0.408918
-0.344218 -0.904372 -0.648326 -0.835231 0.297678 -0.462294
-0.333687 -0.894279 -0.633421 -0.142159 0.797721 -0.586031
-0.329758 -0.906478 -0.650981 -0.142159 0.797721 -0.586031
-0.339666 -0.895385 -0.633477 -0.142159 0.797721 -0.586031
-0.329758 -0.906478 -0.650981 0.300062 0.747620 -0.592476
-0.341521 -0.899651 -0.648323 0.300062 0.747620 -0.592476
-0.341157 -0.896504 -0.644167 0.300062 0.747620 -0.592476
-0.329758 -0.906478 -0.650981 0.823345 0.556046 0.113651
-0.339555 -0.894284 -0.639670 0.823345 0.556046 0.113651
-0.339666 -0.895385 -0.633477 0.823345 0.556046 0.113651
-0.329758 -0.906478 -0.650981 0.370145 0.773961 -0.513788
-0.341157 -0.896504 -0.644167 0.370145 0.773961 -0.513788
-0.339555 -0.894284 -0.639670 0.370145 0.773961 -0.513788
-0.332358 -0.907810 -0.641155 0.312662 -0.856685 0.410199
-0.344764 -0.910327 -0.648756 -0.911527 0.141270 -0.386151
-0.340367 -0.908321 -0.635918 0.211127 -0.885037 0.414869
-0.339666 -0.895385 -0.633477 -0.546495 0.674459 0.496353
-0.339555 -0.894284 -0.639670 -0.645253 0.763298 0.030946
-0.346682 -0.915364 -0.648771 -0.558306 -0.755058 0.343699
-0.327217 -0.908795 -0.646961 0.338847 -0.838221 0.427229
-0.325667 -0.904323 -0.638070 0.273812 -0.887082 0.371593
-0.325471 -0.906189 -0.643027 0.302164 -0.868618 0.392590
-0.345401 -0.908132 -0.634362 -0.563311 -0.493393 0.662709
-0.337203 -0.909656 -0.641336 0.291696 -0.868465 0.400769
-0.342128 -0.910750 -0.640119 0.097812 -0.894223 0.436720
-0.341157 -0.896504 -0.644167 -0.698782 0.657735 -0.281198
-0.346682 -0.915364 -0.648771 -0.174718 0.069500 -0.982163
-0.344764 -0.910327 -0.648756 -0.174718 0.069500 -0.982163
-0.341678 -0.915105 -0.649643 -0.174718 0.069500 -0.982163
-0.344764 -0.910327 -0.648756 -0.167082 0.083525 -0.982399
-0.329758 -0.906478 -0.650981 -0.167082 0.083525 -0.982399
-0.328953 -0.911795 -0.651570 -0.167082 0.083525 -0.982399
-0.328953 -0.911795 -0.651570 -0.180825 0.127473 -0.975219
-0.336765 -0.914419 -0.650464 -0.180825 0.127473 -0.975219
-0.341678 -0.915105 -0.649643 -0.180825 0.127473 -0.975219
-0.344764 -0.910327 -0.648756 -0.168079 0.073943 -0.982996
-0.328953 -0.911795 -0.651570 -0.168079 0.073943 -0.982996
-0.341678 -0.915105 -0.649643 -0.168079 0.073943 -0.982996
-0.325667 -0.904323 -0.638070 0.031193 0.935863 -0.350981
-0.325471 -0.906189 -0.643027 0.031193 0.935863 -0.350981
-0.326865 -0.902501 -0.633316 0.031193 0.935863 -0.350981
-0.325471 -0.906189 -0.643027 0.610839 0.707707 -0.355003
-0.329758 -0.906478 -0.650981 0.610839 0.707707 -0.355003
-0.333687 -0.894279 -0.633421 0.610839 0.707707 -0.355003
-0.333687 -0.894279 -0.633421 0.766810 0.637226 0.077113
-0.329990 -0.899146 -0.629958 0.766810 0.637226 0.077113
-0.326865 -0.902501 -0.633316 0.766810 0.637226 0.077113
-0.325471 -0.906189 -0.643027 0.763836 0.632103 -0.130389
-0.333687 -0.894279 -0.633421 0.763836 0.632103 -0.130389
-0.326865 -0.902501 -0.633316 0.763836 0.632103 -0.130389
-0.341919 -0.912775 -0.644799 0.162236 -0.873531 0.458907
-0.341678 -0.915105 -0.649643 0.186285 -0.866024 0.463912
-0.341521 -0.899651 -0.648323 -0.167068 0.090554 -0.981778
-0.329758 -0.906478 -0.650981 -0.167068 0.090554 -0.981778
-0.344764 -0.910327 -0.648756 -0.167068 0.090554 -0.981778
-0.344218 -0.904372 -0.648326 -0.167068 0.090554 -0.981778
3 0 1 2
3 3 4 5
3 6 7 8
3 4 9 10
3 11 12 10
3 13 1 14
3 15 16 3
4 17 18 19 20
3 21 9 4
3 12 22 23
3 24 25 26
3 23 27 28
3 29 30 31
3 32 33 34
3 35 36 37
3 38 39 40
3 3 5 41
3 42 25 28
3 4 10 43
3 44 45 11
3 25 24 23
3 26 42 46
3 41 13 47
3 47 13 14
3 16 15 6
3 48 3 49
3 4 43 5
3 10 12 50
3 3 41 49
3 13 41 51
3 41 5 51
3 50 12 24
3 13 51 1
3 1 2 14
3 9 11 10
3 11 45 22
3 51 43 52
3 9 44 11
3 22 45 53
3 26 25 42
3 11 22 12
3 54 55 56
3 57 58 59
3 60 61 62
3 63 64 65
3 22 53 23
3 66 67 68
3 69 70 71
3 72 73 74
3 75 76 77
3 21 8 9
4 78 52 24 26
4 51 52 78 1
3 48 15 3
3 9 8 44
3 5 43 51
3 23 28 25
4 1 78 79 2
3 16 4 3
3 53 27 23
3 23 24 12
3 21 16 6
3 49 41 47
3 43 10 50
3 52 50 24
4 80 81 82 83
3 8 21 6
3 16 21 4
4 78 26 46 79
3 43 50 52
3 44 8 7
