ply
format ascii 1.0
comment Created by Blender 2.69 (sub 10) - www.blender.org, source file: 'bunny_base.blend'
element vertex 94
property float x
property float y
property float z
property float nx
property float ny
property float nz
element face 62
property list uchar uint vertex_indices
end_header
-0.267575 -0.862488 -0.678309 0.818445 0.252449 0.516098
-0.269396 -0.857803 -0.676769 0.856105 0.226264 0.464583
-0.269761 -0.863079 -0.673572 0.884579 0.195441 0.423383
-0.264085 -0.862424 -0.682730 0.444548 -0.537407 -0.716639
-0.301512 -0.866956 -0.702548 0.444548 -0.537407 -0.716639
-0.264031 -0.858257 -0.685821 0.444548 -0.537407 -0.716639
-0.301512 -0.866956 -0.702548 0.444623 -0.536462 -0.717300
-0.269726 -0.841006 -0.702253 0.444623 -0.536462 -0.717300
-0.267227 -0.844287 -0.698250 0.444623 -0.536462 -0.717300
-0.267227 -0.844287 -0.698250 0.444709 -0.536421 -0.717277
-0.265826 -0.848064 -0.694557 0.444709 -0.536421 -0.717277
-0.264953 -0.852569 -0.690646 0.444709 -0.536421 -0.717277
-0.301512 -0.866956 -0.702548 0.444624 -0.536460 -0.717301
-0.264953 -0.852569 -0.690646 0.444624 -0.536460 -0.717301
-0.264031 -0.858257 -0.685821 0.444624 -0.536460 -0.717301
-0.301512 -0.866956 -0.702548 0.444624 -0.536463 -0.717298
-0.267227 -0.844287 -0.698250 0.444624 -0.536463 -0.717298
-0.264953 -0.852569 -0.690646 0.444624 -0.536463 -0.717298
-0.267028 -0.846981 -0.689437 0.836665 0.455458 0.304086
-0.265826 -0.848064 -0.694557 0.883572 0.446333 0.141545
-0.270245 -0.840937 -0.694023 0.752617 0.639454 0.156896
-0.270090 -0.843092 -0.688590 0.718772 0.583728 0.377606
-0.273981 -0.838830 -0.689628 0.640431 0.704978 0.304666
-0.272209 -0.844767 -0.683592 0.763756 0.520066 0.382336
-0.274767 -0.836612 -0.694370 0.635212 0.741722 0.215217
-0.266540 -0.857042 -0.681064 0.846522 0.214393 0.487228
-0.269060 -0.852799 -0.679911 0.774804 0.393994 0.494400
-0.275044 -0.856896 -0.667995 -0.795911 0.330723 0.507097
-0.274475 -0.852055 -0.670260 -0.795911 0.330723 0.507097
-0.300262 -0.873846 -0.696521 -0.795911 0.330723 0.507097
-0.274475 -0.852055 -0.670260 -0.376069 0.920072 -0.109726
-0.271906 -0.851537 -0.674721 -0.376069 0.920072 -0.109726
-0.301512 -0.866956 -0.702548 -0.376069 0.920072 -0.109726
-0.274475 -0.852055 -0.670260 -0.794383 0.311867 0.521243
-0.301512 -0.866956 -0.702548 -0.794383 0.311867 0.521243
-0.300262 -0.873846 -0.696521 -0.794383 0.311867 0.521243
-0.264953 -0.852569 -0.690646 0.931669 0.311258 0.187323
-0.271772 -0.848683 -0.678864 0.782952 0.484054 0.390637
-0.266118 -0.852552 -0.685298 0.839717 0.404035 0.362712
-0.269726 -0.841006 -0.702253 -0.481785 0.597416 -0.641075
-0.301512 -0.866956 -0.702548 -0.481785 0.597416 -0.641075
-0.278170 -0.835430 -0.690710 -0.481785 0.597416 -0.641075
-0.275315 -0.840889 -0.682768 0.771599 0.596271 0.221473
-0.276356 -0.843595 -0.678345 0.677450 0.563768 0.472427
-0.269761 -0.863079 -0.673572 -0.038950 -0.883729 0.466375
-0.272177 -0.860821 -0.669494 -0.038950 -0.883729 0.466375
-0.300262 -0.873846 -0.696521 -0.038950 -0.883729 0.466375
-0.267575 -0.862488 -0.678309 -0.279081 -0.505750 0.816291
-0.300262 -0.873846 -0.696521 -0.279081 -0.505750 0.816291
-0.263952 -0.866490 -0.679549 -0.279081 -0.505750 0.816291
-0.267575 -0.862488 -0.678309 0.314698 -0.948811 0.026888
-0.269761 -0.863079 -0.673572 0.314698 -0.948811 0.026888
-0.300262 -0.873846 -0.696521 0.314698 -0.948811 0.026888
-0.271906 -0.851537 -0.674721 0.899503 0.312662 0.305124
-0.275433 -0.847826 -0.674131 0.686117 0.583026 0.435072
-0.275315 -0.840889 -0.682768 0.474590 0.696683 0.537957
-0.278105 -0.836910 -0.685459 0.474590 0.696683 0.537957
-0.276356 -0.843595 -0.678345 0.474590 0.696683 0.537957
-0.278105 -0.836910 -0.685459 -0.821280 0.546353 0.164311
-0.278170 -0.835430 -0.690710 -0.821280 0.546353 0.164311
-0.301512 -0.866956 -0.702548 -0.821280 0.546353 0.164311
-0.301512 -0.866956 -0.702548 -0.424396 -0.521263 0.740387
-0.271906 -0.851537 -0.674721 -0.424396 -0.521263 0.740387
-0.275433 -0.847826 -0.674131 -0.424396 -0.521263 0.740387
-0.278105 -0.836910 -0.685459 -0.795683 0.331406 0.507010
-0.275433 -0.847826 -0.674131 -0.795683 0.331406 0.507010
-0.276356 -0.843595 -0.678345 -0.795683 0.331406 0.507010
-0.278105 -0.836910 -0.685459 -0.795642 0.331451 0.507045
-0.301512 -0.866956 -0.702548 -0.795642 0.331451 0.507045
-0.275433 -0.847826 -0.674131 -0.795642 0.331451 0.507045
-0.267227 -0.844287 -0.698250 0.810389 0.572649 0.123722
-0.272036 -0.838476 -0.698159 0.733818 0.674306 0.082339
-0.300262 -0.873846 -0.696521 -0.414593 -0.572979 0.706971
-0.272177 -0.860821 -0.669494 -0.414593 -0.572979 0.706971
-0.275044 -0.856896 -0.667995 -0.414593 -0.572979 0.706971
-0.264031 -0.858257 -0.685821 0.878018 0.271737 0.393963
-0.269726 -0.841006 -0.702253 -0.481794 0.597408 -0.641076
-0.278170 -0.835430 -0.690710 -0.481794 0.597408 -0.641076
-0.274767 -0.836612 -0.694370 -0.481794 0.597408 -0.641076
-0.272036 -0.838476 -0.698159 -0.481794 0.597408 -0.641076
-0.272177 -0.860821 -0.669494 0.831233 0.214393 0.512864
-0.269538 -0.848908 -0.684660 0.755333 0.489059 0.436140
-0.278105 -0.836910 -0.685459 0.664418 0.692129 0.281899
-0.278170 -0.835430 -0.690710 0.573351 0.783044 0.240913
-0.264085 -0.862424 -0.682730 0.443312 -0.543290 -0.712959
-0.263952 -0.866490 -0.679549 0.443312 -0.543290 -0.712959
-0.300262 -0.873846 -0.696521 0.443312 -0.543290 -0.712959
-0.301512 -0.866956 -0.702548 0.443312 -0.543290 -0.712959
-0.274475 -0.852055 -0.670260 0.775506 0.267190 0.571947
-0.271456 -0.856522 -0.672266 0.853725 0.225471 0.469344
-0.264085 -0.862424 -0.682730 0.706504 0.427595 0.563891
-0.275044 -0.856896 -0.667995 0.731040 0.247536 0.635823
-0.263952 -0.866490 -0.679549 0.694876 0.457076 0.555132
-0.269726 -0.841006 -0.702253 0.770074 0.636616 0.041139
3 0 1 2
3 3 4 5
3 6 7 8
3 9 10 11
3 12 13 14
3 15 16 17
3 18 19 20
3 21 22 23
3 21 18 20
3 22 20 24
3 25 26 1
3 27 28 29
3 30 31 32
3 33 34 35
3 19 18 36
3 26 23 37
3 25 38 26
3 39 40 41
3 37 42 43
3 44 45 46
3 47 48 49
3 50 51 52
3 53 43 54
3 55 56 57
3 58 59 60
3 61 62 63
3 64 65 66
3 67 68 69
3 70 71 20
3 72 73 74
3 71 24 20
3 75 38 25
4 76 77 78 79
3 1 80 2
3 37 43 53
3 0 25 1
3 26 81 23
3 82 22 83
3 23 22 82
4 84 85 86 87
3 53 88 89
3 75 25 0
3 81 21 23
3 90 75 0
3 38 81 26
3 36 38 75
3 38 18 81
3 80 89 91
3 23 82 42
3 92 90 0
3 24 83 22
3 36 18 38
3 20 22 21
3 1 26 37
3 23 42 37
3 81 18 21
3 89 1 37
3 70 93 71
3 91 89 88
3 1 89 80
3 89 37 53
3 19 70 20
