ply
format ascii 1.0
comment Created by Blender 2.69 (sub 10) - www.blender.org, source file: 'bunny_base.blend'
element vertex 106
property float x
property float y
property float z
property float nx
property float ny
property float nz
element face 59
property list uchar uint vertex_indices
end_header
-0.369138 -0.810042 -0.689665 0.598500 0.784171 -0.163931
-0.371562 -0.809145 -0.694224 0.598500 0.784171 -0.163931
-0.369391 -0.808766 -0.684484 0.598500 0.784171 -0.163931
-0.371562 -0.809145 -0.694224 -0.667809 0.685255 0.290614
-0.374365 -0.809967 -0.698728 -0.667809 0.685255 0.290614
-0.384365 -0.826808 -0.681997 -0.667809 0.685255 0.290614
-0.371562 -0.809145 -0.694224 -0.751884 0.643700 0.142548
-0.384365 -0.826808 -0.681997 -0.751884 0.643700 0.142548
-0.369391 -0.808766 -0.684484 -0.751884 0.643700 0.142548
-0.363468 -0.819649 -0.675366 0.593616 0.786126 0.171911
-0.369229 -0.817684 -0.669873 0.501206 0.835047 0.226783
-0.363560 -0.820762 -0.670289 0.596332 0.780602 0.187078
-0.373390 -0.832894 -0.675519 0.485777 -0.862583 -0.141322
-0.377717 -0.834079 -0.683158 0.485777 -0.862583 -0.141322
-0.375595 -0.830768 -0.696073 0.485777 -0.862583 -0.141322
-0.359502 -0.822630 -0.677846 0.664571 0.744163 0.067507
-0.359812 -0.823701 -0.672574 0.669362 0.720084 0.182684
-0.374703 -0.823843 -0.670556 -0.657617 0.690407 0.301461
-0.369229 -0.817684 -0.669873 -0.657617 0.690407 0.301461
-0.368847 -0.816425 -0.674772 -0.657617 0.690407 0.301461
-0.384365 -0.826808 -0.681997 -0.657617 0.690407 0.301461
-0.370281 -0.813820 -0.697995 0.870907 0.468520 -0.148259
-0.369270 -0.818045 -0.700684 0.941557 0.333659 -0.045930
-0.371639 -0.812106 -0.703107 0.818384 0.554888 0.149449
-0.368146 -0.820085 -0.705233 0.999451 -0.012024 -0.030457
-0.368277 -0.814879 -0.705708 0.874630 0.313120 0.370037
-0.365088 -0.823057 -0.695048 0.858730 0.431562 -0.276193
-0.368844 -0.817150 -0.694412 0.878903 0.460280 -0.124882
-0.365640 -0.819770 -0.690641 0.802576 0.533280 -0.267251
-0.374703 -0.823843 -0.670556 0.107830 -0.465933 0.878225
-0.373390 -0.832894 -0.675519 0.107830 -0.465933 0.878225
-0.363560 -0.820762 -0.670289 0.107830 -0.465933 0.878225
-0.368029 -0.814991 -0.689853 0.890988 0.348308 -0.291147
-0.360337 -0.822374 -0.682875 0.573906 -0.807476 -0.136435
-0.359502 -0.822630 -0.677846 0.573906 -0.807476 -0.136435
-0.373390 -0.832894 -0.675519 0.573906 -0.807476 -0.136435
-0.359502 -0.822630 -0.677846 0.574103 -0.808334 -0.130395
-0.359812 -0.823701 -0.672574 0.574103 -0.808334 -0.130395
-0.360126 -0.824730 -0.667573 0.574103 -0.808334 -0.130395
-0.359502 -0.822630 -0.677846 0.575090 -0.807663 -0.130198
-0.360126 -0.824730 -0.667573 0.575090 -0.807663 -0.130198
-0.373390 -0.832894 -0.675519 0.575090 -0.807663 -0.130198
-0.371562 -0.809145 -0.694224 0.841548 0.398907 -0.364177
-0.360126 -0.824730 -0.667573 0.674673 0.713401 0.189215
-0.384365 -0.826808 -0.681997 -0.851928 -0.014142 -0.523468
-0.374365 -0.809967 -0.698728 -0.851928 -0.014142 -0.523468
-0.371639 -0.812106 -0.703107 -0.851928 -0.014142 -0.523468
-0.368524 -0.813142 -0.678859 -0.618179 0.600017 0.507774
-0.369391 -0.808766 -0.684484 -0.618179 0.600017 0.507774
-0.384365 -0.826808 -0.681997 -0.618179 0.600017 0.507774
-0.368847 -0.816425 -0.674772 -0.618179 0.600017 0.507774
-0.368277 -0.814879 -0.705708 -0.380642 -0.093499 -0.919983
-0.368146 -0.820085 -0.705233 -0.380642 -0.093499 -0.919983
-0.370984 -0.825187 -0.703541 -0.380642 -0.093499 -0.919983
-0.360337 -0.822374 -0.682875 0.666311 0.729728 -0.153203
-0.365516 -0.817350 -0.679697 0.737663 0.666219 0.109378
-0.367220 -0.823907 -0.700130 0.927366 0.041902 -0.371746
-0.369138 -0.810042 -0.689665 0.919797 0.271920 -0.282846
-0.366924 -0.814323 -0.684613 0.907468 0.418012 -0.041292
-0.368277 -0.814879 -0.705708 -0.781328 -0.018430 -0.623848
-0.370984 -0.825187 -0.703541 -0.781328 -0.018430 -0.623848
-0.375595 -0.830768 -0.696073 -0.781328 -0.018430 -0.623848
-0.371639 -0.812106 -0.703107 -0.781328 -0.018430 -0.623848
-0.370984 -0.825187 -0.703541 0.658528 -0.540147 -0.523942
-0.369391 -0.808766 -0.684484 0.913663 0.404584 0.038728
-0.368524 -0.813142 -0.678859 0.837031 0.485000 0.253151
-0.364780 -0.819023 -0.685333 0.783227 0.596667 -0.174627
-0.375595 -0.830768 -0.696073 -0.730368 -0.623154 -0.279717
-0.377717 -0.834079 -0.683158 -0.730368 -0.623154 -0.279717
-0.384365 -0.826808 -0.681997 -0.730368 -0.623154 -0.279717
-0.363560 -0.820762 -0.670289 -0.551911 0.089812 0.829053
-0.373390 -0.832894 -0.675519 -0.551911 0.089812 0.829053
-0.360126 -0.824730 -0.667573 -0.551911 0.089812 0.829053
-0.360337 -0.822374 -0.682875 0.351405 -0.788720 -0.504415
-0.373390 -0.832894 -0.675519 0.351405 -0.788720 -0.504415
-0.365640 -0.819770 -0.690641 0.351405 -0.788720 -0.504415
-0.373390 -0.832894 -0.675519 0.594581 -0.790749 -0.145565
-0.375595 -0.830768 -0.696073 0.594581 -0.790749 -0.145565
-0.365088 -0.823057 -0.695048 0.594581 -0.790749 -0.145565
-0.373390 -0.832894 -0.675519 0.932446 -0.223713 0.283721
-0.365088 -0.823057 -0.695048 0.932446 -0.223713 0.283721
-0.365640 -0.819770 -0.690641 0.932446 -0.223713 0.283721
-0.375595 -0.830768 -0.696073 -0.850820 -0.017539 -0.525165
-0.384365 -0.826808 -0.681997 -0.850820 -0.017539 -0.525165
-0.371639 -0.812106 -0.703107 -0.850820 -0.017539 -0.525165
-0.368847 -0.816425 -0.674772 0.603412 0.741050 0.294443
-0.365088 -0.823057 -0.695048 0.595025 -0.795209 -0.116568
-0.375595 -0.830768 -0.696073 0.595025 -0.795209 -0.116568
-0.367220 -0.823907 -0.700130 0.595025 -0.795209 -0.116568
-0.369229 -0.817684 -0.669873 0.008883 -0.118072 0.992965
-0.374703 -0.823843 -0.670556 0.008883 -0.118072 0.992965
-0.363560 -0.820762 -0.670289 0.008883 -0.118072 0.992965
-0.362153 -0.822707 -0.688162 -0.728641 -0.620744 0.289411
-0.360337 -0.822374 -0.682875 -0.728641 -0.620744 0.289411
-0.365640 -0.819770 -0.690641 -0.728641 -0.620744 0.289411
-0.377717 -0.834079 -0.683158 -0.621508 -0.640319 0.451353
-0.373390 -0.832894 -0.675519 -0.621508 -0.640319 0.451353
-0.384365 -0.826808 -0.681997 -0.621508 -0.640319 0.451353
-0.373390 -0.832894 -0.675519 -0.625040 -0.443060 0.642669
-0.374703 -0.823843 -0.670556 -0.625040 -0.443060 0.642669
-0.384365 -0.826808 -0.681997 -0.625040 -0.443060 0.642669
-0.362153 -0.822707 -0.688162 0.691641 0.679983 -0.243355
-0.374365 -0.809967 -0.698728 0.687857 0.681722 -0.249092
-0.367220 -0.823907 -0.700130 0.524930 -0.804698 -0.277326
-0.375595 -0.830768 -0.696073 0.524930 -0.804698 -0.277326
-0.370984 -0.825187 -0.703541 0.524930 -0.804698 -0.277326
3 0 1 2
3 3 4 5
3 6 7 8
3 9 10 11
3 12 13 14
3 15 9 16
4 17 18 19 20
3 21 22 23
3 24 25 22
3 26 27 28
3 29 30 31
3 27 32 28
3 33 34 35
3 36 37 38
3 39 40 41
3 21 42 27
3 16 11 43
3 44 45 46
4 47 48 49 50
3 51 52 53
3 15 54 55
3 56 24 22
3 32 57 58
4 59 60 61 62
3 22 21 26
3 63 24 56
3 16 9 11
3 64 58 57
3 32 42 57
3 58 65 55
3 55 66 58
3 56 22 26
3 67 68 69
3 70 71 72
3 73 74 75
3 76 77 78
3 79 80 81
3 82 83 84
3 58 64 65
3 9 85 10
3 86 87 88
3 32 58 66
3 89 90 91
3 92 93 94
3 95 96 97
3 22 25 23
3 27 42 32
3 98 99 100
3 55 65 85
3 54 66 55
3 28 66 101
3 9 55 85
3 9 15 55
3 28 32 66
3 26 21 27
3 23 102 21
3 21 102 42
3 103 104 105
3 66 54 101
