ply
format ascii 1.0
comment Created by Blender 2.69 (sub 10) - www.blender.org, source file: 'bunny_base.blend'
element vertex 205
property float x
property float y
property float z
property float nx
property float ny
property float nz
element face 157
property list uchar uint vertex_indices
end_header
-0.324059 -0.919259 -0.685909 0.270283 -0.898104 0.346924
-0.320251 -0.917114 -0.683323 0.270283 -0.898104 0.346924
-0.328966 -0.920995 -0.686580 0.270283 -0.898104 0.346924
-0.320251 -0.917114 -0.683323 -0.393539 0.065801 0.916950
-0.323848 -0.906555 -0.685625 -0.393539 0.065801 0.916950
-0.337990 -0.906996 -0.691663 -0.393539 0.065801 0.916950
-0.335221 -0.913193 -0.693841 0.148379 0.246976 0.957594
-0.340707 -0.917235 -0.691948 0.148379 0.246976 0.957594
-0.333359 -0.926963 -0.690578 0.148379 0.246976 0.957594
-0.320251 -0.917114 -0.683323 -0.382594 0.087320 0.919781
-0.337990 -0.906996 -0.691663 -0.382594 0.087320 0.919781
-0.328966 -0.920995 -0.686580 -0.382594 0.087320 0.919781
-0.335221 -0.913193 -0.693841 0.025874 0.233805 0.971939
-0.333359 -0.926963 -0.690578 0.025874 0.233805 0.971939
-0.329695 -0.923134 -0.691597 0.025874 0.233805 0.971939
-0.337990 -0.906996 -0.691663 -0.846677 -0.433906 0.308000
-0.329695 -0.923134 -0.691597 -0.846677 -0.433906 0.308000
-0.328966 -0.920995 -0.686580 -0.846677 -0.433906 0.308000
-0.337990 -0.906996 -0.691663 -0.877349 -0.450250 0.165930
-0.335221 -0.913193 -0.693841 -0.877349 -0.450250 0.165930
-0.329695 -0.923134 -0.691597 -0.877349 -0.450250 0.165930
-0.318681 -0.893031 -0.694692 0.665436 0.500111 -0.554152
-0.306030 -0.908337 -0.693314 0.665436 0.500111 -0.554152
-0.327034 -0.901484 -0.712351 0.665436 0.500111 -0.554152
-0.314886 -0.926388 -0.708360 -0.023347 -0.761010 -0.648274
-0.315658 -0.920292 -0.715495 -0.045473 -0.805536 -0.590777
-0.313408 -0.922176 -0.711145 0.398785 -0.599078 -0.694266
-0.323848 -0.906555 -0.685625 0.236890 0.476945 0.846408
-0.318681 -0.893031 -0.694692 0.236890 0.476945 0.846408
-0.323480 -0.894403 -0.692576 0.236890 0.476945 0.846408
-0.336863 -0.908490 -0.718106 -0.687613 -0.664663 -0.292154
-0.332267 -0.912682 -0.717956 -0.543199 -0.753685 -0.369915
-0.335894 -0.911377 -0.713800 -0.732566 -0.660573 -0.164159
-0.327431 -0.925720 -0.695247 0.469710 -0.485153 0.737541
-0.333359 -0.926963 -0.690578 0.547838 -0.483139 0.682943
-0.331089 -0.929548 -0.694226 0.491562 -0.593371 0.637349
-0.312126 -0.927872 -0.703706 0.310923 -0.911008 0.270852
-0.316487 -0.924397 -0.699074 0.361339 -0.515397 0.777001
-0.320169 -0.927994 -0.698571 0.366131 -0.546709 0.753014
-0.303307 -0.916582 -0.697404 0.314310 -0.883541 0.347209
-0.308242 -0.916283 -0.692176 0.291513 -0.896542 0.333415
-0.308027 -0.918294 -0.697489 0.302561 -0.851039 0.429121
-0.335114 -0.923397 -0.705038 -0.544755 0.014832 -0.838435
-0.336864 -0.919846 -0.701878 -0.754112 0.392590 -0.526444
-0.330517 -0.918407 -0.708638 -0.866146 -0.331309 -0.374126
-0.332641 -0.933224 -0.702989 0.083254 -0.865535 -0.493820
-0.329850 -0.931861 -0.698708 0.308237 -0.904721 0.293954
-0.336744 -0.933362 -0.696874 0.191870 -0.944548 0.266427
-0.344217 -0.931535 -0.694930 -0.711997 -0.681295 -0.169958
-0.340789 -0.929540 -0.700485 -0.742241 -0.083773 -0.664846
-0.341631 -0.934824 -0.697980 -0.485366 -0.873379 -0.039766
-0.342431 -0.925945 -0.697351 -0.874783 0.116825 -0.470168
-0.339788 -0.924414 -0.701853 -0.719199 0.161840 -0.675680
-0.333951 -0.914616 -0.707998 -0.831874 -0.491317 -0.257942
-0.335221 -0.913193 -0.693841 -0.912809 0.260384 -0.314554
-0.334057 -0.911918 -0.698586 -0.998535 -0.025971 -0.047334
-0.336862 -0.916759 -0.697272 -0.732658 0.588122 -0.342448
-0.325261 -0.927294 -0.707078 -0.098697 -0.518601 -0.849269
-0.326611 -0.931521 -0.704153 0.153356 -0.855037 -0.495346
-0.329249 -0.923891 -0.707522 -0.317698 -0.417188 -0.851466
-0.329695 -0.923134 -0.691597 0.406354 -0.690451 0.598407
-0.324840 -0.921390 -0.691111 0.316721 -0.859462 0.401166
-0.328966 -0.920995 -0.686580 0.280740 -0.899747 0.334086
-0.331572 -0.915300 -0.712475 -0.634571 -0.696951 -0.333934
-0.328080 -0.915770 -0.717075 -0.405133 -0.792230 -0.456282
-0.326898 -0.918763 -0.712922 -0.344890 -0.746910 -0.568438
-0.324811 -0.921674 -0.709287 -0.189489 -0.655446 -0.731071
-0.315658 -0.920292 -0.715495 0.824160 0.531287 -0.196198
-0.327034 -0.901484 -0.712351 0.824160 0.531287 -0.196198
-0.313408 -0.922176 -0.711145 0.824160 0.531287 -0.196198
-0.327034 -0.901484 -0.712351 0.666361 0.496144 -0.556601
-0.306030 -0.908337 -0.693314 0.666361 0.496144 -0.556601
-0.303307 -0.916582 -0.697404 0.666361 0.496144 -0.556601
-0.306774 -0.920758 -0.701666 0.787956 -0.249214 0.563044
-0.307271 -0.926073 -0.703323 0.787956 -0.249214 0.563044
-0.304326 -0.926877 -0.707800 0.787956 -0.249214 0.563044
-0.304326 -0.926877 -0.707800 0.230258 -0.228281 -0.945975
-0.309650 -0.926734 -0.709131 0.230258 -0.228281 -0.945975
-0.313408 -0.922176 -0.711145 0.230258 -0.228281 -0.945975
-0.327034 -0.901484 -0.712351 0.200678 -0.511718 -0.835388
-0.303307 -0.916582 -0.697404 0.200678 -0.511718 -0.835388
-0.308027 -0.918294 -0.697489 0.200678 -0.511718 -0.835388
-0.306774 -0.920758 -0.701666 0.536173 0.694924 -0.479166
-0.304326 -0.926877 -0.707800 0.536173 0.694924 -0.479166
-0.313408 -0.922176 -0.711145 0.536173 0.694924 -0.479166
-0.327034 -0.901484 -0.712351 0.762996 0.477019 -0.436223
-0.308027 -0.918294 -0.697489 0.762996 0.477019 -0.436223
-0.313408 -0.922176 -0.711145 0.762996 0.477019 -0.436223
-0.308027 -0.918294 -0.697489 0.371747 0.844086 -0.386423
-0.306774 -0.920758 -0.701666 0.371747 0.844086 -0.386423
-0.313408 -0.922176 -0.711145 0.371747 0.844086 -0.386423
-0.338942 -0.907291 -0.713668 -0.342046 0.834615 -0.431765
-0.327034 -0.901484 -0.712351 -0.342046 0.834615 -0.431765
-0.333681 -0.909472 -0.722051 -0.342046 0.834615 -0.431765
-0.336863 -0.908490 -0.718106 -0.342046 0.834615 -0.431765
-0.307271 -0.926073 -0.703323 0.243721 -0.820612 0.516892
-0.306774 -0.920758 -0.701666 0.395550 -0.521836 0.755760
-0.311565 -0.923265 -0.700499 0.356426 -0.545457 0.758538
-0.322644 -0.923119 -0.696620 0.371532 -0.583697 0.721976
-0.324059 -0.919259 -0.685909 0.282479 -0.902249 0.325755
-0.335988 -0.930963 -0.692175 0.363903 -0.792077 0.490036
-0.334060 -0.915377 -0.702783 -0.982116 0.182714 -0.044923
-0.340707 -0.917235 -0.691948 -0.612934 0.692282 -0.380810
-0.342101 -0.920380 -0.695679 -0.757805 0.468245 -0.454360
-0.319065 -0.918809 -0.689028 0.299509 -0.897794 0.322825
-0.314149 -0.917617 -0.690554 0.297678 -0.898099 0.323710
-0.315155 -0.915797 -0.684453 0.300882 -0.898556 0.319437
-0.320251 -0.917114 -0.683323 0.298471 -0.897275 0.325205
-0.304326 -0.926877 -0.707800 -0.060823 -0.988617 0.137394
-0.309650 -0.926734 -0.709131 -0.001587 -0.958861 -0.283761
-0.312957 -0.919338 -0.696271 0.337230 -0.787744 0.515458
-0.317877 -0.920477 -0.694847 0.288308 -0.818659 0.496628
-0.337026 -0.909245 -0.708522 -0.879269 -0.470626 0.073275
-0.323480 -0.894403 -0.692576 -0.365312 0.895882 -0.252870
-0.318681 -0.893031 -0.694692 -0.365312 0.895882 -0.252870
-0.338913 -0.904674 -0.706669 -0.365312 0.895882 -0.252870
-0.338889 -0.903224 -0.701608 -0.365312 0.895882 -0.252870
-0.338889 -0.903224 -0.701608 -0.832301 -0.544542 0.103366
-0.335375 -0.906870 -0.697221 -0.877834 -0.469008 -0.096988
-0.340271 -0.902648 -0.695492 -0.679617 -0.704581 -0.204016
-0.335825 -0.929288 -0.704109 -0.362560 -0.210700 -0.907804
-0.337578 -0.933700 -0.702100 -0.257851 -0.753777 -0.604389
-0.321891 -0.930886 -0.702453 0.212287 -0.976257 -0.042909
-0.325000 -0.930021 -0.698430 0.307962 -0.770592 0.557909
-0.341072 -0.932252 -0.691014 -0.032044 -0.986084 0.162969
-0.323363 -0.917499 -0.716956 -0.281045 -0.807520 -0.518540
-0.335917 -0.909532 -0.702789 -0.907956 -0.364330 0.207038
-0.338913 -0.904674 -0.706669 -0.888821 -0.436384 0.139775
-0.341072 -0.932252 -0.691014 -0.167668 0.937041 0.306337
-0.335988 -0.930963 -0.692175 -0.167668 0.937041 0.306337
-0.344217 -0.931535 -0.694930 -0.167668 0.937041 0.306337
-0.335988 -0.930963 -0.692175 -0.353795 -0.136937 0.925245
-0.333359 -0.926963 -0.690578 -0.353795 -0.136937 0.925245
-0.340707 -0.917235 -0.691948 -0.353795 -0.136937 0.925245
-0.340707 -0.917235 -0.691948 -0.896230 0.441988 -0.037668
-0.342101 -0.920380 -0.695679 -0.896230 0.441988 -0.037668
-0.344137 -0.924275 -0.692956 -0.896230 0.441988 -0.037668
-0.344137 -0.924275 -0.692956 -0.909713 0.118338 -0.398017
-0.342431 -0.925945 -0.697351 -0.909713 0.118338 -0.398017
-0.344217 -0.931535 -0.694930 -0.909713 0.118338 -0.398017
-0.335988 -0.930963 -0.692175 -0.307512 -0.121330 0.943777
-0.340707 -0.917235 -0.691948 -0.307512 -0.121330 0.943777
-0.344217 -0.931535 -0.694930 -0.307512 -0.121330 0.943777
-0.340707 -0.917235 -0.691948 0.252471 -0.256539 0.932977
-0.344137 -0.924275 -0.692956 0.252471 -0.256539 0.932977
-0.344217 -0.931535 -0.694930 0.252471 -0.256539 0.932977
-0.316965 -0.929807 -0.703777 0.255623 -0.963530 -0.078921
-0.319148 -0.923269 -0.709491 0.197577 -0.679281 -0.706748
-0.320135 -0.927671 -0.707049 -0.033631 -0.695395 -0.717826
-0.320468 -0.920376 -0.713913 -0.219764 -0.801141 -0.556597
-0.306030 -0.908337 -0.693314 0.720474 -0.102355 0.685887
-0.308242 -0.916283 -0.692176 0.720474 -0.102355 0.685887
-0.303307 -0.916582 -0.697404 0.720474 -0.102355 0.685887
-0.331038 -0.928064 -0.705397 -0.174444 -0.339000 -0.924436
-0.306030 -0.908337 -0.693314 0.047681 0.128613 0.990548
-0.318681 -0.893031 -0.694692 0.047681 0.128613 0.990548
-0.308242 -0.916283 -0.692176 0.047681 0.128613 0.990548
-0.318681 -0.893031 -0.694692 0.356428 0.428603 0.830216
-0.315155 -0.915797 -0.684453 0.356428 0.428603 0.830216
-0.310378 -0.915156 -0.686835 0.356428 0.428603 0.830216
-0.318681 -0.893031 -0.694692 0.870163 0.418768 0.259710
-0.310378 -0.915156 -0.686835 0.870163 0.418768 0.259710
-0.308242 -0.916283 -0.692176 0.870163 0.418768 0.259710
-0.337990 -0.906996 -0.691663 -0.365516 0.479047 0.798067
-0.323848 -0.906555 -0.685625 -0.365516 0.479047 0.798067
-0.323480 -0.894403 -0.692576 -0.365516 0.479047 0.798067
-0.340271 -0.902648 -0.695492 -0.365516 0.479047 0.798067
-0.337990 -0.906996 -0.691663 -0.798730 -0.461318 -0.386181
-0.324483 -0.914422 -0.720772 -0.258461 -0.799005 -0.542894
-0.338889 -0.903224 -0.701608 -0.408906 0.895300 -0.176731
-0.340271 -0.902648 -0.695492 -0.408906 0.895300 -0.176731
-0.323480 -0.894403 -0.692576 -0.408906 0.895300 -0.176731
-0.315658 -0.920292 -0.715495 -0.311787 -0.029836 -0.949684
-0.320468 -0.920376 -0.713913 -0.311787 -0.029836 -0.949684
-0.327034 -0.901484 -0.712351 -0.311787 -0.029836 -0.949684
-0.320468 -0.920376 -0.713913 -0.166624 -0.790803 -0.588955
-0.323363 -0.917499 -0.716956 -0.166624 -0.790803 -0.588955
-0.324483 -0.914422 -0.720772 -0.166624 -0.790803 -0.588955
-0.324483 -0.914422 -0.720772 0.449749 0.878033 0.163658
-0.329010 -0.911736 -0.722739 0.449749 0.878033 0.163658
-0.333681 -0.909472 -0.722051 0.449749 0.878033 0.163658
-0.320468 -0.920376 -0.713913 0.662998 0.287580 -0.691181
-0.333681 -0.909472 -0.722051 0.662998 0.287580 -0.691181
-0.327034 -0.901484 -0.712351 0.662998 0.287580 -0.691181
-0.320468 -0.920376 -0.713913 0.362786 0.798345 0.480658
-0.324483 -0.914422 -0.720772 0.362786 0.798345 0.480658
-0.333681 -0.909472 -0.722051 0.362786 0.798345 0.480658
-0.310378 -0.915156 -0.686835 0.284341 -0.906644 0.311624
-0.338913 -0.904674 -0.706669 0.248573 0.450247 -0.857607
-0.318681 -0.893031 -0.694692 0.248573 0.450247 -0.857607
-0.337026 -0.909245 -0.708522 0.248573 0.450247 -0.857607
-0.318681 -0.893031 -0.694692 -0.405617 0.884261 -0.231426
-0.327034 -0.901484 -0.712351 -0.405617 0.884261 -0.231426
-0.338942 -0.907291 -0.713668 -0.405617 0.884261 -0.231426
-0.318681 -0.893031 -0.694692 -0.757037 0.465464 0.458518
-0.338942 -0.907291 -0.713668 -0.757037 0.465464 0.458518
-0.337026 -0.909245 -0.708522 -0.757037 0.465464 0.458518
-0.333681 -0.909472 -0.722051 -0.542955 -0.741661 -0.393811
-0.323848 -0.906555 -0.685625 0.298720 0.391401 0.870386
-0.320251 -0.917114 -0.683323 0.298720 0.391401 0.870386
-0.315155 -0.915797 -0.684453 0.298720 0.391401 0.870386
-0.318681 -0.893031 -0.694692 0.298720 0.391401 0.870386
-0.329010 -0.911736 -0.722739 -0.388379 -0.783563 -0.484909
-0.338942 -0.907291 -0.713668 -0.800684 -0.594928 -0.070254
-0.344137 -0.924275 -0.692956 -0.892880 0.177313 -0.413892
3 0 1 2
3 3 4 5
3 6 7 8
3 9 10 11
3 12 13 14
3 15 16 17
3 18 19 20
3 21 22 23
3 24 25 26
3 27 28 29
3 30 31 32
3 33 34 35
3 36 37 38
3 39 40 41
3 42 43 44
3 45 46 47
3 48 49 50
3 51 52 49
3 53 44 43
3 54 55 56
3 57 58 59
3 60 61 62
3 63 31 64
3 59 65 66
3 67 68 69
3 70 71 72
3 73 74 75
3 76 77 78
3 79 80 81
3 82 83 84
3 85 86 87
3 88 89 90
4 91 92 93 94
3 95 96 97
3 33 98 61
3 61 99 62
3 35 100 46
3 63 32 31
3 43 101 53
3 102 56 103
4 104 105 106 107
3 43 42 52
3 108 95 109
3 63 53 32
4 110 111 37 97
3 53 112 32
4 113 114 115 116
3 35 34 100
3 117 118 119
3 120 45 121
3 58 57 122
3 123 38 33
3 38 98 33
3 47 124 48
3 66 65 125
3 46 100 47
3 126 127 112
3 44 53 63
3 128 129 130
3 131 132 133
3 134 135 136
3 137 138 139
3 140 141 142
3 143 144 145
3 56 55 101
3 38 146 36
3 147 148 149
3 123 35 46
3 37 98 38
3 150 151 152
3 105 104 111
3 153 120 42
3 120 49 52
3 57 148 122
3 154 155 156
3 157 158 159
3 160 161 162
3 24 148 147
3 43 103 56
3 147 149 25
3 121 47 50
3 101 55 126
3 103 52 51
3 120 153 45
3 36 95 97
4 163 164 165 166
3 63 64 65
3 118 167 119
3 148 24 146
3 122 38 123
3 54 118 55
3 65 64 125
3 148 66 149
3 125 64 168
3 109 24 26
3 58 45 153
3 148 146 122
3 169 170 171
3 61 98 111
3 121 49 120
3 126 117 127
4 55 118 117 126
3 101 126 112
3 57 66 148
3 42 59 153
3 96 110 97
4 46 45 58 123
3 45 47 121
3 110 105 111
3 35 123 33
3 47 48 50
3 172 173 174
3 175 176 177
3 178 179 180
3 181 182 183
3 184 185 186
4 105 40 187 106
3 188 189 190
3 191 192 193
3 194 195 196
3 59 66 57
3 167 118 54
3 47 100 124
3 58 153 59
3 146 38 122
3 66 125 149
3 56 102 54
3 37 111 98
3 103 43 52
3 97 37 36
3 59 63 65
3 121 50 49
3 41 110 96
3 61 60 33
3 107 99 104
3 30 197 31
4 198 199 200 201
3 31 202 64
3 168 64 202
3 30 32 203
4 99 61 111 104
3 42 120 52
3 53 101 112
4 105 110 41 40
3 56 101 43
3 42 44 59
3 33 60 34
3 24 147 25
3 123 58 122
3 95 36 109
3 36 24 109
3 31 197 202
3 48 51 49
3 44 63 59
3 32 112 203
3 24 36 146
3 204 103 51
