ply
format ascii 1.0
comment Created by Blender 2.69 (sub 10) - www.blender.org, source file: 'bunny_base.blend'
element vertex 59
property float x
property float y
property float z
property float nx
property float ny
property float nz
element face 59
property list uchar uint vertex_indices
end_header
-0.359420 -0.801704 -0.744891 0.696158 0.599292 0.395184
-0.365439 -0.793642 -0.744636 0.236854 0.947478 0.214759
-0.361784 -0.797101 -0.744087 0.482589 0.385174 -0.786554
-0.352875 -0.811146 -0.745748 0.921781 -0.352092 0.162236
-0.355487 -0.804472 -0.746580 0.777703 0.579943 0.242500
-0.352623 -0.806963 -0.742825 0.762688 0.338878 -0.550829
-0.355554 -0.806410 -0.759251 0.083987 -0.300485 -0.950041
-0.356248 -0.803365 -0.763155 0.742485 0.485275 0.461684
-0.359317 -0.802551 -0.759074 0.343760 0.293405 -0.892026
-0.361784 -0.797101 -0.744087 -0.482575 -0.385178 0.786612
-0.365439 -0.793642 -0.744636 -0.482575 -0.385178 0.786612
-0.359420 -0.801704 -0.744891 -0.482575 -0.385178 0.786612
-0.365439 -0.793642 -0.744636 -0.987711 0.117800 -0.102714
-0.365405 -0.797070 -0.748893 -0.987711 0.117800 -0.102714
-0.366402 -0.802669 -0.745720 -0.987711 0.117800 -0.102714
-0.366402 -0.802669 -0.745720 -0.115175 -0.019545 0.993153
-0.363465 -0.807519 -0.745475 -0.115175 -0.019545 0.993153
-0.359420 -0.801704 -0.744891 -0.115175 -0.019545 0.993153
-0.365439 -0.793642 -0.744636 -0.102476 -0.107812 0.988876
-0.366402 -0.802669 -0.745720 -0.102476 -0.107812 0.988876
-0.359420 -0.801704 -0.744891 -0.102476 -0.107812 0.988876
-0.350570 -0.806596 -0.747682 0.602893 0.738487 0.301859
-0.352152 -0.810216 -0.750880 0.575182 -0.783624 -0.234596
-0.354331 -0.801869 -0.757310 0.589465 0.690573 -0.419019
-0.361886 -0.798072 -0.758095 -0.158483 0.478896 -0.863430
-0.351896 -0.804644 -0.753881 0.775384 0.550035 0.310160
-0.359943 -0.797193 -0.749783 0.766686 0.591357 0.249855
-0.356136 -0.807624 -0.753628 -0.562426 -0.804834 -0.189367
-0.357834 -0.798374 -0.754249 0.666311 0.741691 -0.076510
-0.351223 -0.808722 -0.757501 0.620411 -0.560076 -0.548936
-0.349147 -0.811220 -0.742395 -0.553575 0.547258 0.627674
-0.363143 -0.791587 -0.749801 0.017426 0.999786 0.009369
-0.356745 -0.801467 -0.750467 0.738182 0.620808 0.263863
-0.358319 -0.808054 -0.748894 -0.449782 -0.800745 -0.395581
-0.355487 -0.804472 -0.746580 0.226551 -0.252056 0.940820
-0.359420 -0.801704 -0.744891 0.226551 -0.252056 0.940820
-0.363465 -0.807519 -0.745475 0.226551 -0.252056 0.940820
-0.363465 -0.807519 -0.745475 0.257743 0.702567 0.663301
-0.358169 -0.810402 -0.744478 0.257743 0.702567 0.663301
-0.352875 -0.811146 -0.745748 0.257743 0.702567 0.663301
-0.352875 -0.811146 -0.745748 -0.608581 -0.429502 0.667201
-0.349147 -0.811220 -0.742395 -0.608581 -0.429502 0.667201
-0.352623 -0.806963 -0.742825 -0.608581 -0.429502 0.667201
-0.355487 -0.804472 -0.746580 -0.194697 0.742407 0.641034
-0.363465 -0.807519 -0.745475 -0.194697 0.742407 0.641034
-0.352623 -0.806963 -0.742825 -0.194697 0.742407 0.641034
-0.363465 -0.807519 -0.745475 -0.170016 -0.557500 0.812581
-0.352875 -0.811146 -0.745748 -0.170016 -0.557500 0.812581
-0.352623 -0.806963 -0.742825 -0.170016 -0.557500 0.812581
-0.363114 -0.793888 -0.755154 -0.266366 0.755852 -0.598071
-0.358169 -0.810402 -0.744478 -0.346751 -0.859462 -0.375530
-0.349147 -0.811220 -0.742395 0.608570 0.429487 -0.667196
-0.360180 -0.804151 -0.754209 -0.706473 -0.607471 -0.363018
-0.365405 -0.797070 -0.748893 -0.938871 0.109226 -0.326426
-0.358204 -0.798736 -0.763089 0.783074 0.327708 0.528550
-0.366402 -0.802669 -0.745720 -0.804956 -0.360790 -0.470992
-0.362483 -0.804710 -0.749705 -0.659047 -0.583056 -0.475021
-0.363465 -0.807519 -0.745475 -0.552721 -0.661153 -0.507279
-0.363425 -0.799774 -0.752992 -0.869564 -0.275491 -0.409803
3 0 1 2
3 3 4 5
3 6 7 8
3 9 10 11
3 12 13 14
3 15 16 17
3 18 19 20
3 21 22 4
3 23 6 8
3 23 8 24
3 22 25 4
3 4 26 0
3 27 25 23
3 28 23 24
3 6 29 27
3 21 3 30
3 25 23 28
3 26 31 1
3 32 26 4
3 22 33 27
3 26 1 0
3 34 35 36
3 37 38 39
3 40 41 42
3 43 44 45
3 46 47 48
3 25 32 4
3 3 21 4
3 32 28 26
3 32 25 28
3 28 49 26
3 3 22 21
3 28 24 49
3 22 50 33
3 3 5 51
3 52 8 6
3 31 26 49
3 50 22 3
3 29 25 22
3 53 1 31
3 6 23 29
3 23 25 29
3 27 29 22
3 24 8 54
3 54 8 7
3 49 53 31
3 55 56 57
3 53 49 58
3 53 58 55
3 58 49 24
3 8 52 24
3 56 58 52
3 56 27 33
3 56 52 27
3 57 56 33
3 57 33 50
3 56 55 58
3 24 52 58
3 52 6 27
