ply
format ascii 1.0
comment Created by Blender 2.69 (sub 10) - www.blender.org, source file: 'bunny_base.blend'
element vertex 190
property float x
property float y
property float z
property float nx
property float ny
property float nz
element face 144
property list uchar uint vertex_indices
end_header
-0.324189 -0.908847 -0.649213 -0.696424 -0.429086 0.575221
-0.322441 -0.906281 -0.645183 -0.696424 -0.429086 0.575221
-0.327790 -0.906790 -0.652039 -0.696424 -0.429086 0.575221
-0.283760 -0.899870 -0.670915 0.400555 -0.698019 0.593524
-0.289803 -0.899861 -0.666826 0.295144 -0.835322 0.463790
-0.286368 -0.904103 -0.672861 0.162481 -0.726249 0.667898
-0.302580 -0.882046 -0.693985 0.064210 -0.055524 -0.996391
-0.317839 -0.891698 -0.694431 0.064210 -0.055524 -0.996391
-0.308299 -0.876801 -0.694646 0.064210 -0.055524 -0.996391
-0.291993 -0.898207 -0.661515 0.330271 -0.845454 0.419630
-0.296836 -0.900080 -0.661681 0.319590 -0.855831 0.406659
-0.305205 -0.897599 -0.638727 0.294259 -0.868343 0.399213
-0.303029 -0.899153 -0.643866 0.269692 -0.924345 0.269845
-0.298234 -0.896833 -0.641704 0.266610 -0.893155 0.362163
-0.322674 -0.893514 -0.691123 -0.610867 0.273024 -0.743169
-0.319611 -0.877312 -0.687689 -0.610867 0.273024 -0.743169
-0.317839 -0.891698 -0.694431 -0.610867 0.273024 -0.743169
-0.327790 -0.906790 -0.652039 0.287057 -0.328257 -0.899899
-0.325942 -0.913253 -0.661346 0.958556 -0.152440 -0.240669
-0.320813 -0.912252 -0.659641 0.317484 -0.862392 0.394269
-0.323038 -0.906762 -0.683448 -0.986985 -0.059484 -0.149405
-0.327790 -0.906790 -0.652039 -0.986985 -0.059484 -0.149405
-0.322674 -0.893514 -0.691123 -0.986985 -0.059484 -0.149405
-0.306309 -0.905907 -0.666807 0.311106 -0.875973 0.368572
-0.306525 -0.903867 -0.661895 0.324870 -0.860317 0.392773
-0.311297 -0.906400 -0.663726 0.328135 -0.871639 0.364086
-0.291170 -0.906337 -0.675183 0.030122 -0.711478 0.702017
-0.296184 -0.906366 -0.676129 0.111240 -0.831629 0.544023
-0.296398 -0.904312 -0.671201 0.296152 -0.850765 0.434126
-0.307869 -0.910295 -0.676459 0.302438 -0.888394 0.345317
-0.312855 -0.910778 -0.673367 0.310068 -0.887204 0.341563
-0.309631 -0.912690 -0.681095 0.301798 -0.890011 0.341716
-0.302580 -0.882046 -0.693985 0.083057 -0.085479 -0.992872
-0.305034 -0.905574 -0.692165 0.083057 -0.085479 -0.992872
-0.317839 -0.891698 -0.694431 0.083057 -0.085479 -0.992872
-0.299028 -0.898380 -0.656478 0.298624 0.366100 0.881314
-0.301225 -0.896643 -0.651393 0.320536 -0.845393 0.427259
-0.305990 -0.899267 -0.653009 -0.203589 -0.618366 -0.759026
-0.297950 -0.908760 -0.680766 0.129704 -0.905393 0.404248
-0.292866 -0.909510 -0.678666 -0.234687 -0.748375 0.620319
-0.314621 -0.913170 -0.677999 0.293741 -0.894436 0.337168
-0.318668 -0.915475 -0.680819 0.284158 -0.900754 0.328440
-0.313883 -0.915021 -0.683587 0.279122 -0.899899 0.335002
-0.327790 -0.906790 -0.652039 -0.989746 -0.029815 -0.139689
-0.323765 -0.881788 -0.685895 -0.989746 -0.029815 -0.139689
-0.322674 -0.893514 -0.691123 -0.989746 -0.029815 -0.139689
-0.317839 -0.891698 -0.694431 -0.507688 0.313525 -0.802468
-0.319611 -0.877312 -0.687689 -0.507688 0.313525 -0.802468
-0.308299 -0.876801 -0.694646 -0.507688 0.313525 -0.802468
-0.292183 -0.896856 -0.646289 0.257820 -0.914029 0.313120
-0.297047 -0.898523 -0.646862 0.243385 -0.926756 0.286142
-0.291016 -0.898360 -0.651927 0.121921 -0.985382 0.118900
-0.291170 -0.906337 -0.675183 0.382116 0.583016 -0.716994
-0.292866 -0.909510 -0.678666 0.382116 0.583016 -0.716994
-0.297950 -0.908760 -0.680766 0.382116 0.583016 -0.716994
-0.297950 -0.908760 -0.680766 0.850674 0.262917 -0.455223
-0.299811 -0.911085 -0.685587 0.850674 0.262917 -0.455223
-0.305034 -0.905574 -0.692165 0.850674 0.262917 -0.455223
-0.305034 -0.905574 -0.692165 0.717845 -0.127809 -0.684371
-0.302580 -0.882046 -0.693985 0.717845 -0.127809 -0.684371
-0.283760 -0.899870 -0.670915 0.717845 -0.127809 -0.684371
-0.291170 -0.906337 -0.675183 0.346104 0.207282 -0.915012
-0.283760 -0.899870 -0.670915 0.346104 0.207282 -0.915012
-0.286368 -0.904103 -0.672861 0.346104 0.207282 -0.915012
-0.291170 -0.906337 -0.675183 0.642938 -0.534159 -0.548913
-0.297950 -0.908760 -0.680766 0.642938 -0.534159 -0.548913
-0.305034 -0.905574 -0.692165 0.642938 -0.534159 -0.548913
-0.291170 -0.906337 -0.675183 0.697063 -0.410942 -0.587563
-0.305034 -0.905574 -0.692165 0.697063 -0.410942 -0.587563
-0.283760 -0.899870 -0.670915 0.697063 -0.410942 -0.587563
-0.322674 -0.893514 -0.691123 -0.614023 0.273065 -0.740547
-0.323765 -0.881788 -0.685895 -0.614023 0.273065 -0.740547
-0.319611 -0.877312 -0.687689 -0.614023 0.273065 -0.740547
-0.327049 -0.911678 -0.654736 -0.727500 -0.684896 0.040345
-0.323625 -0.915926 -0.665337 -0.052980 0.815210 -0.576678
-0.316210 -0.907656 -0.662112 0.625355 -0.744224 0.234565
-0.313476 -0.904845 -0.658213 0.522141 -0.794671 0.309549
-0.317111 -0.909053 -0.656357 0.598773 -0.755058 0.267037
-0.315631 -0.903597 -0.652105 0.537797 -0.837153 0.099429
-0.317512 -0.905235 -0.646305 0.360027 -0.899075 0.248970
-0.319270 -0.907713 -0.650530 0.467147 -0.838252 0.281198
-0.311093 -0.908345 -0.668844 0.320231 -0.880398 0.349742
-0.304711 -0.913667 -0.688141 -0.318992 -0.432107 -0.843521
-0.309442 -0.914476 -0.685938 -0.318992 -0.432107 -0.843521
-0.305034 -0.905574 -0.692165 -0.318992 -0.432107 -0.843521
-0.309442 -0.914476 -0.685938 -0.376583 -0.442320 -0.813965
-0.313883 -0.915021 -0.683587 -0.376583 -0.442320 -0.813965
-0.317839 -0.891698 -0.694431 -0.376583 -0.442320 -0.813965
-0.309442 -0.914476 -0.685938 -0.318990 -0.432108 -0.843521
-0.317839 -0.891698 -0.694431 -0.318990 -0.432108 -0.843521
-0.305034 -0.905574 -0.692165 -0.318990 -0.432108 -0.843521
-0.286128 -0.896936 -0.650856 0.209693 -0.934965 0.286050
-0.306101 -0.907907 -0.671831 0.300607 -0.885708 0.353679
-0.316001 -0.909647 -0.667127 0.612568 -0.753349 0.239113
-0.317775 -0.911932 -0.671950 0.446059 -0.879757 0.164434
-0.310904 -0.900479 -0.651506 0.156041 -0.522263 -0.838343
-0.322145 -0.909012 -0.654412 0.160772 -0.889553 0.427564
-0.291550 -0.902438 -0.671039 0.113804 -0.841487 0.528092
-0.296617 -0.902216 -0.666382 0.315989 -0.862972 0.394177
-0.307942 -0.900349 -0.642461 0.327586 -0.877957 0.349040
-0.314909 -0.901178 -0.639283 0.289193 -0.855647 0.429182
-0.312720 -0.902913 -0.644145 0.321146 -0.887295 0.330912
-0.310127 -0.898703 -0.637514 -0.580878 0.703384 0.409672
-0.319611 -0.877312 -0.687689 -0.580878 0.703384 0.409672
-0.323765 -0.881788 -0.685895 -0.580878 0.703384 0.409672
-0.322441 -0.906281 -0.645183 0.285775 -0.872250 0.396802
-0.313883 -0.915021 -0.683587 0.290262 -0.894040 0.341166
-0.309442 -0.914476 -0.685938 0.301187 -0.891140 0.339244
-0.304711 -0.911539 -0.682514 0.304086 -0.890011 0.339640
-0.302946 -0.909143 -0.677873 0.291116 -0.892148 0.345378
-0.324189 -0.908847 -0.649213 0.034974 -0.987732 0.152135
-0.321128 -0.914364 -0.675519 0.376934 -0.892300 0.248329
-0.322650 -0.914708 -0.670399 0.452864 -0.887478 -0.085147
-0.301180 -0.906754 -0.673244 0.296335 -0.883938 0.361675
-0.303797 -0.901010 -0.658100 0.323985 -0.851558 0.412091
-0.301607 -0.902660 -0.663407 0.320597 -0.861171 0.394391
-0.301390 -0.904752 -0.668219 0.310312 -0.872738 0.376782
-0.284015 -0.897355 -0.666320 0.230445 -0.923429 0.306803
-0.308713 -0.902169 -0.656695 0.353374 -0.841914 0.407758
-0.287157 -0.896240 -0.661562 -0.649068 -0.598712 -0.469283
-0.310127 -0.898703 -0.637514 0.293497 -0.860622 0.416059
-0.318956 -0.903507 -0.641270 0.271554 -0.876370 0.397748
-0.284960 -0.898425 -0.656661 -0.028657 -0.999298 -0.023011
-0.313883 -0.915021 -0.683587 -0.387436 -0.441894 -0.809088
-0.322674 -0.893514 -0.691123 -0.387436 -0.441894 -0.809088
-0.317839 -0.891698 -0.694431 -0.387436 -0.441894 -0.809088
-0.318630 -0.913858 -0.665053 0.603504 -0.775079 0.187048
-0.304711 -0.913667 -0.688141 0.570843 -0.347097 -0.744085
-0.305034 -0.905574 -0.692165 0.570843 -0.347097 -0.744085
-0.299811 -0.911085 -0.685587 0.570843 -0.347097 -0.744085
-0.299811 -0.911085 -0.685587 0.294961 -0.893704 0.337992
-0.304711 -0.913667 -0.688141 0.301859 -0.891385 0.338054
-0.323625 -0.915926 -0.665337 0.346538 -0.881130 0.321726
-0.286128 -0.896936 -0.650856 0.693058 0.720715 -0.015540
-0.284960 -0.898425 -0.656661 0.693058 0.720715 -0.015540
-0.302580 -0.882046 -0.693985 0.693058 0.720715 -0.015540
-0.308299 -0.876801 -0.694646 0.693058 0.720715 -0.015540
-0.284960 -0.898425 -0.656661 0.654913 0.755400 -0.021461
-0.284015 -0.897355 -0.666320 0.654913 0.755400 -0.021461
-0.283760 -0.899870 -0.670915 0.654913 0.755400 -0.021461
-0.302580 -0.882046 -0.693985 0.654913 0.755400 -0.021461
-0.299811 -0.911085 -0.685587 0.263009 -0.904874 0.334666
-0.298234 -0.896833 -0.641704 -0.009442 0.922815 0.385129
-0.319611 -0.877312 -0.687689 -0.009442 0.922815 0.385129
-0.310127 -0.898703 -0.637514 -0.009442 0.922815 0.385129
-0.305205 -0.897599 -0.638727 -0.009442 0.922815 0.385129
-0.327790 -0.906790 -0.652039 -0.149571 -0.873806 0.462661
-0.327049 -0.911678 -0.654736 -0.986501 -0.067176 -0.149342
-0.327790 -0.906790 -0.652039 -0.986501 -0.067176 -0.149342
-0.325942 -0.913253 -0.661346 -0.986501 -0.067176 -0.149342
-0.327790 -0.906790 -0.652039 -0.962984 -0.226644 -0.145922
-0.323038 -0.906762 -0.683448 -0.962984 -0.226644 -0.145922
-0.323625 -0.915926 -0.665337 -0.962984 -0.226644 -0.145922
-0.327790 -0.906790 -0.652039 -0.052905 0.815245 -0.576694
-0.323625 -0.915926 -0.665337 -0.052905 0.815245 -0.576694
-0.325942 -0.913253 -0.661346 -0.052905 0.815245 -0.576694
-0.323038 -0.906762 -0.683448 -0.415641 -0.447394 -0.791884
-0.322674 -0.893514 -0.691123 -0.415641 -0.447394 -0.791884
-0.313883 -0.915021 -0.683587 -0.415641 -0.447394 -0.791884
-0.318668 -0.915475 -0.680819 -0.415641 -0.447394 -0.791884
-0.314909 -0.901178 -0.639283 -0.294827 0.862867 -0.410533
-0.310127 -0.898703 -0.637514 -0.294827 0.862867 -0.410533
-0.318956 -0.903507 -0.641270 -0.294827 0.862867 -0.410533
-0.310127 -0.898703 -0.637514 -0.635680 0.655160 0.408260
-0.323765 -0.881788 -0.685895 -0.635680 0.655160 0.408260
-0.327790 -0.906790 -0.652039 -0.635680 0.655160 0.408260
-0.327790 -0.906790 -0.652039 -0.785921 0.136456 0.603082
-0.322441 -0.906281 -0.645183 -0.785921 0.136456 0.603082
-0.318956 -0.903507 -0.641270 -0.785921 0.136456 0.603082
-0.310127 -0.898703 -0.637514 -0.528146 0.829797 0.180272
-0.327790 -0.906790 -0.652039 -0.528146 0.829797 0.180272
-0.318956 -0.903507 -0.641270 -0.528146 0.829797 0.180272
-0.294194 -0.896414 -0.656525 -0.340739 0.826807 -0.447462
-0.292183 -0.896856 -0.646289 0.223897 0.930220 0.290795
-0.319611 -0.877312 -0.687689 0.223897 0.930220 0.290795
-0.298234 -0.896833 -0.641704 0.223897 0.930220 0.290795
-0.286128 -0.896936 -0.650856 0.190202 0.927663 0.321348
-0.308299 -0.876801 -0.694646 0.190202 0.927663 0.321348
-0.319611 -0.877312 -0.687689 0.190202 0.927663 0.321348
-0.292183 -0.896856 -0.646289 0.190202 0.927663 0.321348
-0.327049 -0.911678 -0.654736 0.986480 0.067171 0.149327
-0.322650 -0.914708 -0.670399 -0.822492 -0.496314 -0.277811
-0.323625 -0.915926 -0.665337 -0.822492 -0.496314 -0.277811
-0.323038 -0.906762 -0.683448 -0.822492 -0.496314 -0.277811
-0.323038 -0.906762 -0.683448 -0.822488 -0.496319 -0.277815
-0.318668 -0.915475 -0.680819 -0.822488 -0.496319 -0.277815
-0.321128 -0.914364 -0.675519 -0.822488 -0.496319 -0.277815
-0.322650 -0.914708 -0.670399 -0.822490 -0.496317 -0.277813
-0.323038 -0.906762 -0.683448 -0.822490 -0.496317 -0.277813
-0.321128 -0.914364 -0.675519 -0.822490 -0.496317 -0.277813
3 0 1 2
3 3 4 5
3 6 7 8
3 4 9 10
3 11 12 13
3 14 15 16
3 17 18 19
3 20 21 22
3 23 24 25
3 26 27 28
3 29 30 31
3 32 33 34
3 35 36 37
3 38 39 27
3 40 41 42
3 43 44 45
3 46 47 48
3 49 50 51
3 52 53 54
3 55 56 57
3 58 59 60
3 61 62 63
3 64 65 66
3 67 68 69
3 70 71 72
3 17 19 73
3 17 74 18
3 75 76 77
3 78 79 80
3 23 25 81
3 82 83 84
3 85 86 87
3 88 89 90
3 91 49 51
3 81 92 23
3 93 94 30
3 75 77 19
3 51 50 12
3 37 35 95
3 77 96 19
3 97 98 28
3 39 26 27
3 99 100 101
3 102 103 104
3 12 11 99
3 10 98 4
3 105 80 79
3 75 25 76
3 31 106 107
3 29 108 109
3 96 80 110
3 111 94 112
4 93 81 25 75
3 28 113 27
3 10 114 115
3 29 92 81
4 116 23 92 113
3 3 117 4
3 118 78 76
3 35 119 95
3 78 118 95
4 98 116 113 28
3 11 120 99
3 94 111 40
3 101 121 79
3 4 97 5
3 119 78 95
3 122 91 51
3 114 118 24
3 31 108 29
3 122 51 117
3 123 124 125
3 94 126 112
3 120 100 99
3 118 114 37
3 81 93 30
3 109 92 29
3 113 92 109
3 27 113 38
3 95 118 37
3 127 128 129
3 29 81 30
3 130 108 131
3 4 117 9
3 126 132 112
3 126 93 75
4 133 134 135 136
3 111 41 40
3 99 101 117
3 13 50 49
4 137 138 139 140
3 126 19 18
3 10 35 114
3 126 18 132
4 27 26 97 28
3 38 113 109
3 119 9 117
3 19 96 73
3 38 109 141
3 51 12 117
3 118 76 24
3 80 105 110
3 5 97 26
3 31 30 40
3 10 115 98
4 142 143 144 145
3 75 19 126
3 77 80 96
3 73 96 146
3 147 148 149
3 150 151 152
3 153 154 155
3 76 80 77
3 110 146 96
4 156 157 158 159
3 76 78 80
3 101 79 117
3 160 161 162
3 163 164 165
3 166 167 168
3 169 170 171
3 119 79 78
3 35 172 9
3 101 100 121
3 173 174 175
4 176 177 178 179
3 97 4 98
3 117 79 119
3 115 114 24
3 94 40 30
3 94 93 126
3 121 105 79
3 98 115 116
3 12 99 117
3 18 17 180
3 35 10 9
4 116 115 24 23
3 13 12 50
4 107 131 108 31
3 25 24 76
3 181 182 183
3 184 185 186
3 187 188 189
3 35 9 119
