ply
format ascii 1.0
comment Created by Blender 2.69 (sub 10) - www.blender.org, source file: 'bunny_base.blend'
element vertex 227
property float x
property float y
property float z
property float nx
property float ny
property float nz
element face 156
property list uchar uint vertex_indices
end_header
-0.317620 -0.870916 -0.689953 0.923485 -0.380109 0.051881
-0.312333 -0.855794 -0.673257 0.923485 -0.380109 0.051881
-0.319933 -0.876271 -0.688005 0.923485 -0.380109 0.051881
-0.349299 -0.866325 -0.645440 0.212653 0.050356 0.975799
-0.344504 -0.865255 -0.646686 0.302408 0.107028 0.947142
-0.351381 -0.860739 -0.645907 0.220557 0.204810 0.953612
-0.361094 -0.856500 -0.672537 -0.874327 0.481010 0.064671
-0.364196 -0.862950 -0.667860 -0.874327 0.481010 0.064671
-0.354806 -0.847723 -0.652799 -0.874327 0.481010 0.064671
-0.351828 -0.841464 -0.660458 -0.874327 0.481010 0.064671
-0.353181 -0.844080 -0.655950 0.820887 0.250771 0.513047
-0.354806 -0.847723 -0.652799 0.284707 0.581500 0.762078
-0.351828 -0.841464 -0.660458 0.387768 0.713981 0.582934
-0.343116 -0.844826 -0.659646 0.342723 0.678457 0.649770
-0.346876 -0.842246 -0.661775 0.235939 0.758995 0.606800
-0.348509 -0.845487 -0.657087 0.262032 0.713065 0.650227
-0.341072 -0.869653 -0.648051 0.344951 -0.075472 0.935545
-0.339902 -0.864527 -0.648516 0.468215 0.192969 0.862239
-0.353619 -0.874534 -0.676610 -0.639745 -0.267007 -0.720717
-0.346905 -0.866080 -0.685702 -0.639745 -0.267007 -0.720717
-0.345972 -0.875133 -0.683177 -0.639745 -0.267007 -0.720717
-0.346905 -0.866080 -0.685702 -0.186811 -0.281806 -0.941109
-0.319933 -0.876271 -0.688005 -0.186811 -0.281806 -0.941109
-0.345972 -0.875133 -0.683177 -0.186811 -0.281806 -0.941109
-0.346619 -0.859763 -0.647366 0.310953 0.302347 0.901028
-0.344665 -0.851975 -0.652942 0.386639 0.551195 0.739341
-0.343055 -0.847709 -0.655495 0.868313 0.190252 0.458022
-0.338299 -0.853055 -0.656373 0.376141 0.487625 0.787835
-0.358065 -0.865162 -0.675903 -0.649829 -0.254245 -0.716297
-0.346905 -0.866080 -0.685702 -0.649829 -0.254245 -0.716297
-0.353619 -0.874534 -0.676610 -0.649829 -0.254245 -0.716297
-0.352508 -0.854983 -0.646746 0.230079 0.458632 0.858303
-0.358227 -0.855535 -0.646178 0.079592 0.348491 0.933897
-0.319933 -0.876271 -0.688005 -0.183554 -0.410396 -0.893243
-0.326066 -0.879347 -0.685331 -0.183554 -0.410396 -0.893243
-0.345972 -0.875133 -0.683177 -0.183554 -0.410396 -0.893243
-0.341188 -0.859027 -0.649765 0.467727 0.400311 0.787988
-0.348182 -0.854735 -0.649306 0.351573 0.538621 0.765648
-0.317620 -0.870916 -0.689953 -0.181350 -0.266081 -0.946738
-0.319933 -0.876271 -0.688005 -0.181350 -0.266081 -0.946738
-0.346905 -0.866080 -0.685702 -0.181350 -0.266081 -0.946738
-0.336176 -0.863405 -0.652190 0.463363 0.374706 0.803003
-0.335676 -0.868789 -0.650192 0.307688 0.172826 0.935636
-0.349626 -0.848936 -0.653249 0.283547 0.611469 0.738701
-0.356540 -0.849347 -0.669856 -0.836024 0.547243 -0.039871
-0.361094 -0.856500 -0.672537 -0.836024 0.547243 -0.039871
-0.351828 -0.841464 -0.660458 -0.836024 0.547243 -0.039871
-0.334499 -0.847363 -0.660920 -0.071695 -0.513528 -0.855072
-0.330734 -0.844419 -0.663004 -0.071695 -0.513528 -0.855072
-0.326272 -0.846627 -0.662052 -0.071695 -0.513528 -0.855072
-0.326272 -0.846627 -0.662052 -0.396647 0.627916 -0.669621
-0.321816 -0.846192 -0.664283 -0.396647 0.627916 -0.669621
-0.317620 -0.870916 -0.689953 -0.396647 0.627916 -0.669621
-0.317620 -0.870916 -0.689953 0.071815 0.746215 -0.661820
-0.356540 -0.849347 -0.669856 0.071815 0.746215 -0.661820
-0.351828 -0.841464 -0.660458 0.071815 0.746215 -0.661820
-0.339170 -0.843781 -0.662884 0.238622 0.800838 0.549289
-0.346876 -0.842246 -0.661775 0.238622 0.800838 0.549289
-0.343116 -0.844826 -0.659646 0.238622 0.800838 0.549289
-0.334499 -0.847363 -0.660920 -0.157387 0.720157 -0.675724
-0.326272 -0.846627 -0.662052 -0.157387 0.720157 -0.675724
-0.317620 -0.870916 -0.689953 -0.157387 0.720157 -0.675724
-0.317620 -0.870916 -0.689953 -0.100404 0.643411 -0.758908
-0.351828 -0.841464 -0.660458 -0.100404 0.643411 -0.758908
-0.346876 -0.842246 -0.661775 -0.100404 0.643411 -0.758908
-0.339170 -0.843781 -0.662884 0.649535 0.729535 -0.214203
-0.334499 -0.847363 -0.660920 0.649535 0.729535 -0.214203
-0.317620 -0.870916 -0.689953 0.649535 0.729535 -0.214203
-0.339170 -0.843781 -0.662884 0.044920 0.723186 -0.689190
-0.317620 -0.870916 -0.689953 0.044920 0.723186 -0.689190
-0.346876 -0.842246 -0.661775 0.044920 0.723186 -0.689190
-0.356272 -0.851242 -0.649052 0.215918 0.627644 0.747917
-0.355825 -0.863155 -0.644203 -0.010926 0.039827 0.999146
-0.354143 -0.868150 -0.644677 0.089724 -0.055696 0.994385
-0.366729 -0.873161 -0.646553 0.062008 0.291361 -0.954601
-0.364579 -0.868865 -0.645102 0.062008 0.291361 -0.954601
-0.366500 -0.878097 -0.648044 0.062008 0.291361 -0.954601
-0.364579 -0.868865 -0.645102 -0.776649 0.612741 0.146170
-0.361315 -0.864875 -0.644482 -0.776649 0.612741 0.146170
-0.364196 -0.862950 -0.667860 -0.776649 0.612741 0.146170
-0.364579 -0.868865 -0.645102 -0.980563 0.193286 0.033722
-0.364196 -0.862950 -0.667860 -0.980563 0.193286 0.033722
-0.366500 -0.878097 -0.648044 -0.980563 0.193286 0.033722
-0.360062 -0.860003 -0.644884 0.010743 0.161443 0.986816
-0.355604 -0.874036 -0.645256 0.058138 -0.241829 0.968566
-0.358978 -0.870228 -0.644569 -0.021210 -0.093448 0.995392
-0.361572 -0.874542 -0.645383 -0.152806 -0.291635 0.944212
-0.321726 -0.877867 -0.682971 0.851101 -0.505172 0.142930
-0.319933 -0.876271 -0.688005 0.851101 -0.505172 0.142930
-0.321821 -0.870600 -0.656723 0.851101 -0.505172 0.142930
-0.319933 -0.876271 -0.688005 0.390756 -0.908372 -0.148900
-0.321726 -0.877867 -0.682971 0.390756 -0.908372 -0.148900
-0.326066 -0.879347 -0.685331 0.390756 -0.908372 -0.148900
-0.358065 -0.865162 -0.675903 -0.655533 0.063228 -0.752515
-0.361094 -0.856500 -0.672537 -0.655533 0.063228 -0.752515
-0.346905 -0.866080 -0.685702 -0.655533 0.063228 -0.752515
-0.326066 -0.879347 -0.685331 0.219861 -0.955806 0.195183
-0.321726 -0.877867 -0.682971 0.219861 -0.955806 0.195183
-0.361079 -0.879711 -0.647670 0.219861 -0.955806 0.195183
-0.364196 -0.862950 -0.667860 -0.805786 -0.421553 -0.415935
-0.353619 -0.874534 -0.676610 -0.805786 -0.421553 -0.415935
-0.366500 -0.878097 -0.648044 -0.805786 -0.421553 -0.415935
-0.361094 -0.856500 -0.672537 -0.800711 -0.047912 -0.597132
-0.358065 -0.865162 -0.675903 -0.800711 -0.047912 -0.597132
-0.364196 -0.862950 -0.667860 -0.800711 -0.047912 -0.597132
-0.361094 -0.856500 -0.672537 -0.364269 0.521161 -0.771816
-0.356540 -0.849347 -0.669856 -0.364269 0.521161 -0.771816
-0.346905 -0.866080 -0.685702 -0.364269 0.521161 -0.771816
-0.317620 -0.870916 -0.689953 0.044923 0.723186 -0.689191
-0.321816 -0.846192 -0.664283 0.044923 0.723186 -0.689191
-0.317777 -0.844287 -0.662021 0.044923 0.723186 -0.689191
-0.312333 -0.855794 -0.673257 0.226441 0.733233 -0.641166
-0.317620 -0.870916 -0.689953 0.226441 0.733233 -0.641166
-0.317777 -0.844287 -0.662021 0.226441 0.733233 -0.641166
-0.314292 -0.844208 -0.658235 0.226441 0.733233 -0.641166
-0.312762 -0.847979 -0.653896 0.955170 0.281267 -0.092405
-0.312333 -0.855794 -0.673257 0.955170 0.281267 -0.092405
-0.314292 -0.844208 -0.658235 0.955170 0.281267 -0.092405
-0.336517 -0.873857 -0.649808 0.211066 -0.044099 0.976470
-0.350776 -0.872009 -0.645396 0.158635 -0.155187 0.975036
-0.345836 -0.871027 -0.646319 0.291116 -0.121952 0.948851
-0.353619 -0.874534 -0.676610 -0.281081 -0.928520 -0.242578
-0.345972 -0.875133 -0.683177 -0.281081 -0.928520 -0.242578
-0.366500 -0.878097 -0.648044 -0.281081 -0.928520 -0.242578
-0.360062 -0.860003 -0.644884 -0.956273 0.257314 0.139037
-0.364196 -0.862950 -0.667860 -0.956273 0.257314 0.139037
-0.361315 -0.864875 -0.644482 -0.956273 0.257314 0.139037
-0.317163 -0.859622 -0.655046 0.683310 0.138721 -0.716829
-0.318082 -0.864829 -0.656930 0.683310 0.138721 -0.716829
-0.317517 -0.854558 -0.654403 0.683310 0.138721 -0.716829
-0.323182 -0.864995 -0.658113 0.970766 0.239549 0.015153
-0.321821 -0.870600 -0.656723 0.970766 0.239549 0.015153
-0.319933 -0.876271 -0.688005 0.970766 0.239549 0.015153
-0.319933 -0.876271 -0.688005 -0.133311 -0.828010 0.544635
-0.313259 -0.853405 -0.651608 -0.133311 -0.828010 0.544635
-0.317517 -0.854558 -0.654403 -0.133311 -0.828010 0.544635
-0.318082 -0.864829 -0.656930 -0.050152 -0.936253 0.347729
-0.323182 -0.864995 -0.658113 -0.050152 -0.936253 0.347729
-0.319933 -0.876271 -0.688005 -0.050152 -0.936253 0.347729
-0.318082 -0.864829 -0.656930 0.998085 -0.044329 -0.043139
-0.319933 -0.876271 -0.688005 0.998085 -0.044329 -0.043139
-0.317517 -0.854558 -0.654403 0.998085 -0.044329 -0.043139
-0.358065 -0.865162 -0.675903 -0.791201 -0.336856 -0.510420
-0.353619 -0.874534 -0.676610 -0.791201 -0.336856 -0.510420
-0.364196 -0.862950 -0.667860 -0.791201 -0.336856 -0.510420
-0.356540 -0.849347 -0.669856 0.008996 0.690300 -0.723467
-0.317620 -0.870916 -0.689953 0.008996 0.690300 -0.723467
-0.346905 -0.866080 -0.685702 0.008996 0.690300 -0.723467
-0.358227 -0.855535 -0.646178 -0.930158 0.350682 -0.108758
-0.356272 -0.851242 -0.649052 -0.930158 0.350682 -0.108758
-0.360062 -0.860003 -0.644884 -0.930158 0.350682 -0.108758
-0.356272 -0.851242 -0.649052 -0.883767 0.459955 0.086005
-0.354806 -0.847723 -0.652799 -0.883767 0.459955 0.086005
-0.364196 -0.862950 -0.667860 -0.883767 0.459955 0.086005
-0.356272 -0.851242 -0.649052 -0.893605 0.436452 0.104781
-0.364196 -0.862950 -0.667860 -0.893605 0.436452 0.104781
-0.360062 -0.860003 -0.644884 -0.893605 0.436452 0.104781
-0.345972 -0.875133 -0.683177 -0.224663 -0.949731 -0.218029
-0.326066 -0.879347 -0.685331 -0.224663 -0.949731 -0.218029
-0.361079 -0.879711 -0.647670 -0.224663 -0.949731 -0.218029
-0.313259 -0.853405 -0.651608 0.940522 -0.330949 0.076750
-0.319933 -0.876271 -0.688005 0.940522 -0.330949 0.076750
-0.312333 -0.855794 -0.673257 0.940522 -0.330949 0.076750
-0.312762 -0.847979 -0.653896 0.940522 -0.330949 0.076750
-0.334693 -0.859357 -0.655052 0.416364 0.384808 0.823725
-0.339074 -0.848033 -0.658998 0.266274 0.544877 0.795099
-0.330903 -0.872166 -0.650405 0.244606 0.213263 0.945860
-0.331271 -0.866441 -0.651986 0.339854 0.404340 0.849086
-0.339170 -0.843781 -0.662884 0.304483 0.646352 0.699637
-0.326439 -0.871190 -0.652456 0.491440 0.357372 0.794183
-0.332859 -0.854739 -0.656991 0.281411 0.338816 0.897763
-0.326985 -0.866282 -0.654685 0.499527 0.408094 0.764122
-0.334499 -0.847363 -0.660920 0.136662 0.551653 0.822779
-0.326727 -0.861007 -0.657468 0.293069 0.297464 0.908628
-0.330141 -0.849977 -0.659366 0.182134 0.387738 0.903562
-0.328151 -0.855716 -0.659061 0.299478 0.296670 0.906796
-0.321821 -0.870600 -0.656723 0.585162 0.355876 0.728629
-0.323182 -0.864995 -0.658113 0.289895 0.218665 0.931730
-0.330734 -0.844419 -0.663004 0.066073 0.551378 0.831599
-0.324991 -0.852145 -0.660797 -0.028291 0.332072 0.942808
-0.326272 -0.846627 -0.662052 0.296426 0.384686 0.874142
-0.321794 -0.859627 -0.658257 -0.271493 0.068758 0.959960
-0.364579 -0.868865 -0.645102 -0.164769 -0.119297 0.979064
-0.318082 -0.864829 -0.656930 -0.403882 -0.055269 0.913114
-0.317335 -0.848951 -0.656118 -0.593738 0.430433 0.679800
-0.320784 -0.848734 -0.659952 -0.596637 0.516617 0.614093
-0.317517 -0.854558 -0.654403 -0.667959 0.118168 0.734733
-0.321118 -0.854261 -0.657932 -0.605579 0.133641 0.784448
-0.317777 -0.844287 -0.662021 -0.578417 0.624622 0.524644
-0.361315 -0.864875 -0.644482 -0.000458 0.012085 0.999908
-0.313259 -0.853405 -0.651608 -0.529557 0.313639 0.788141
-0.330903 -0.872166 -0.650405 0.303549 -0.920334 0.246662
-0.336517 -0.873857 -0.649808 0.303549 -0.920334 0.246662
-0.321726 -0.877867 -0.682971 0.303549 -0.920334 0.246662
-0.341385 -0.875308 -0.649229 0.303553 -0.920323 0.246700
-0.346332 -0.876465 -0.647461 0.303553 -0.920323 0.246700
-0.351213 -0.877957 -0.647018 0.303553 -0.920323 0.246700
-0.356068 -0.879650 -0.647360 0.014421 -0.999244 -0.036107
-0.361079 -0.879711 -0.647670 0.014421 -0.999244 -0.036107
-0.321726 -0.877867 -0.682971 0.014421 -0.999244 -0.036107
-0.336517 -0.873857 -0.649808 0.303543 -0.920337 0.246660
-0.341385 -0.875308 -0.649229 0.303543 -0.920337 0.246660
-0.321726 -0.877867 -0.682971 0.303543 -0.920337 0.246660
-0.341385 -0.875308 -0.649229 0.303545 -0.920342 0.246641
-0.351213 -0.877957 -0.647018 0.303545 -0.920342 0.246641
-0.356068 -0.879650 -0.647360 0.303545 -0.920342 0.246641
-0.341385 -0.875308 -0.649229 0.303546 -0.920336 0.246661
-0.356068 -0.879650 -0.647360 0.303546 -0.920336 0.246661
-0.321726 -0.877867 -0.682971 0.303546 -0.920336 0.246661
-0.312762 -0.847979 -0.653896 -0.464309 0.473495 0.748436
-0.317163 -0.859622 -0.655046 -0.604358 -0.115940 0.788202
-0.314292 -0.844208 -0.658235 -0.538652 0.606494 0.584765
-0.321816 -0.846192 -0.664283 -0.337718 0.610370 0.716483
-0.366729 -0.873161 -0.646553 -0.248299 -0.272347 0.929594
-0.361079 -0.879711 -0.647670 -0.131108 -0.386975 0.912687
-0.366500 -0.878097 -0.648044 -0.152135 -0.292367 0.944121
-0.356068 -0.879650 -0.647360 0.011750 -0.369610 0.929106
-0.351213 -0.877957 -0.647018 0.123356 -0.299997 0.945921
-0.366500 -0.878097 -0.648044 -0.262667 -0.936459 -0.232488
-0.345972 -0.875133 -0.683177 -0.262667 -0.936459 -0.232488
-0.361079 -0.879711 -0.647670 -0.262667 -0.936459 -0.232488
-0.346332 -0.876465 -0.647461 0.267891 -0.239174 0.933256
-0.321821 -0.870600 -0.656723 0.330876 -0.909900 0.250207
-0.326439 -0.871190 -0.652456 0.330876 -0.909900 0.250207
-0.330903 -0.872166 -0.650405 0.330876 -0.909900 0.250207
-0.321726 -0.877867 -0.682971 0.330876 -0.909900 0.250207
-0.341385 -0.875308 -0.649229 0.297098 -0.214850 0.930326
3 0 1 2
3 3 4 5
4 6 7 8 9
3 10 11 12
3 13 14 15
3 16 17 4
3 18 19 20
3 21 22 23
3 4 24 5
3 25 13 26
3 25 27 13
3 28 29 30
3 5 31 32
3 33 34 35
3 36 37 24
3 36 25 37
3 38 39 40
3 24 37 31
3 41 17 42
3 15 10 43
3 44 45 46
3 47 48 49
3 50 51 52
3 53 54 55
3 56 57 58
3 59 60 61
3 62 63 64
3 65 66 67
3 68 69 70
3 25 15 43
3 37 11 71
3 3 72 73
3 74 75 76
3 77 78 79
3 80 81 82
3 41 36 17
3 10 15 12
3 72 32 83
3 43 10 11
3 84 85 86
3 12 15 14
3 87 88 89
3 31 37 71
3 37 43 11
3 42 17 16
3 90 91 92
3 93 94 95
3 96 97 98
3 99 100 101
3 102 103 104
3 105 106 107
3 17 24 4
3 108 109 110
3 36 27 25
4 111 112 113 114
3 72 5 32
3 36 24 17
3 25 43 37
3 115 116 117
3 42 16 118
3 119 120 3
3 121 122 123
3 25 26 15
3 31 71 32
3 124 125 126
3 5 24 31
3 127 128 129
3 130 131 132
3 133 134 135
3 136 137 138
3 139 140 141
3 142 143 144
3 145 146 147
3 16 4 120
3 26 13 15
3 148 149 150
3 151 152 153
3 154 155 156
3 157 158 159
3 119 3 73
3 3 5 72
3 4 3 120
4 160 161 162 163
3 164 36 41
3 164 27 36
3 165 13 27
3 118 166 42
3 166 167 42
3 42 167 41
3 13 165 168
3 167 164 41
3 169 167 166
3 170 27 164
3 170 165 27
3 171 164 167
3 170 172 165
3 172 168 165
3 173 164 171
3 173 170 164
3 169 171 167
3 170 174 172
3 173 175 170
3 170 175 174
3 176 171 169
3 177 173 171
3 174 178 172
3 177 171 176
3 179 174 175
3 179 180 174
3 174 180 178
3 177 181 173
3 181 179 175
3 85 182 86
3 83 73 72
3 177 183 181
3 184 185 186
3 187 185 179
3 184 188 185
3 85 189 182
3 187 179 181
3 190 184 186
3 191 192 193
3 194 195 196
3 197 198 199
3 200 201 202
3 203 204 205
3 206 207 208
3 190 209 184
3 210 186 187
3 184 211 188
3 185 212 179
3 73 83 189
3 188 212 185
3 189 85 73
3 212 180 179
3 210 187 181
3 183 210 181
3 86 182 213
3 186 185 187
3 209 211 184
3 181 175 173
3 214 213 215
3 86 213 214
3 214 216 86
3 216 84 86
3 216 217 84
3 84 73 85
3 84 119 73
3 218 219 220
3 217 119 84
3 217 221 119
4 222 223 224 225
3 221 120 119
3 226 120 221
3 16 120 226
3 226 118 16
