ply
format ascii 1.0
comment Created by Blender 2.69 (sub 10) - www.blender.org, source file: 'bunny_base.blend'
element vertex 145
property float x
property float y
property float z
property float nx
property float ny
property float nz
element face 95
property list uchar uint vertex_indices
end_header
-0.394454 -0.834605 -0.657326 -0.912748 -0.106235 0.394452
-0.394508 -0.828777 -0.658069 -0.932005 0.104251 0.347087
-0.396644 -0.828562 -0.663365 -0.895260 0.207251 0.394360
-0.392499 -0.850155 -0.666438 -0.487381 -0.557482 0.672018
-0.392271 -0.846413 -0.663057 -0.385449 -0.558550 0.734458
-0.397929 -0.843285 -0.664485 -0.694052 -0.361492 0.622547
-0.396285 -0.813408 -0.667160 -0.786035 0.314280 0.532304
-0.399489 -0.816886 -0.669406 -0.820154 -0.049013 0.569994
-0.396283 -0.818021 -0.664434 -0.878048 0.056001 0.475234
-0.401043 -0.821472 -0.672752 -0.819910 -0.132176 0.556993
-0.402756 -0.816176 -0.673873 -0.823359 -0.150487 0.547166
-0.404548 -0.819479 -0.677709 -0.842341 -0.154790 0.516190
-0.387175 -0.848787 -0.663206 -0.379162 -0.435347 0.816492
-0.395994 -0.839751 -0.661138 -0.686178 -0.284127 0.669607
-0.401637 -0.837916 -0.670782 -0.956755 0.005036 0.290841
-0.401118 -0.832000 -0.671796 -0.955199 0.140751 0.260262
-0.402623 -0.834526 -0.676625 -0.970428 0.135350 0.199805
-0.402474 -0.840169 -0.675237 -0.976440 -0.069552 0.204199
-0.390044 -0.858529 -0.664731 0.088366 -0.672460 -0.734839
-0.390309 -0.854294 -0.668639 0.088366 -0.672460 -0.734839
-0.389025 -0.862115 -0.661327 0.088366 -0.672460 -0.734839
-0.390309 -0.854294 -0.668639 0.301670 -0.321580 -0.897542
-0.394728 -0.852581 -0.670737 0.301670 -0.321580 -0.897542
-0.399051 -0.850302 -0.673007 0.301670 -0.321580 -0.897542
-0.390309 -0.854294 -0.668639 0.088334 -0.672465 -0.734839
-0.376323 -0.843898 -0.676470 0.088334 -0.672465 -0.734839
-0.389025 -0.862115 -0.661327 0.088334 -0.672465 -0.734839
-0.390309 -0.854294 -0.668639 0.072093 -0.660227 -0.747598
-0.399051 -0.850302 -0.673007 0.072093 -0.660227 -0.747598
-0.376323 -0.843898 -0.676470 0.072093 -0.660227 -0.747598
-0.395219 -0.823358 -0.663137 -0.916288 0.070376 0.394238
-0.388433 -0.844519 -0.660025 -0.444655 -0.655782 0.610065
-0.388674 -0.842500 -0.655190 -0.593738 -0.728538 0.341563
-0.392759 -0.840178 -0.657340 -0.718040 -0.560594 0.412427
-0.397372 -0.834516 -0.662240 -0.835170 0.066103 0.545976
-0.399736 -0.838126 -0.665383 -0.887570 -0.067721 0.455611
-0.399323 -0.832200 -0.666354 -0.888089 0.220130 0.403516
-0.397703 -0.826543 -0.668855 -0.892300 0.162175 0.421247
-0.404008 -0.824936 -0.678687 -0.855770 -0.225745 0.465438
-0.400874 -0.826493 -0.673678 -0.901303 -0.029450 0.432142
-0.400705 -0.843208 -0.669467 -0.904630 -0.209967 0.370800
-0.401790 -0.829717 -0.677887 -0.960936 -0.026917 0.275338
-0.393179 -0.832379 -0.653021 -0.943388 -0.081332 0.321512
-0.393704 -0.813603 -0.662790 -0.817469 0.292795 0.495926
-0.397556 -0.821506 -0.668061 -0.868679 -0.078768 0.489059
-0.402474 -0.840169 -0.675237 -0.081144 -0.240121 -0.967346
-0.402623 -0.834526 -0.676625 -0.081144 -0.240121 -0.967346
-0.401333 -0.845377 -0.674040 -0.081144 -0.240121 -0.967346
-0.402623 -0.834526 -0.676625 -0.079707 -0.240141 -0.967460
-0.401790 -0.829717 -0.677887 -0.079707 -0.240141 -0.967460
-0.383965 -0.830636 -0.679128 -0.079707 -0.240141 -0.967460
-0.383965 -0.830636 -0.679128 -0.079851 -0.239872 -0.967515
-0.376323 -0.843898 -0.676470 -0.079851 -0.239872 -0.967515
-0.399051 -0.850302 -0.673007 -0.079851 -0.239872 -0.967515
-0.402623 -0.834526 -0.676625 -0.080229 -0.240036 -0.967443
-0.399051 -0.850302 -0.673007 -0.080229 -0.240036 -0.967443
-0.401333 -0.845377 -0.674040 -0.080229 -0.240036 -0.967443
-0.402623 -0.834526 -0.676625 -0.079755 -0.239943 -0.967505
-0.383965 -0.830636 -0.679128 -0.079755 -0.239943 -0.967505
-0.399051 -0.850302 -0.673007 -0.079755 -0.239943 -0.967505
-0.390044 -0.858529 -0.664731 -0.837642 0.310251 0.449477
-0.387576 -0.853788 -0.663963 -0.785455 0.043733 0.617359
-0.390309 -0.854294 -0.668639 -0.746849 -0.357372 0.560778
-0.387576 -0.853788 -0.663963 0.806262 0.046403 0.589736
-0.387325 -0.857412 -0.660366 0.806262 0.046403 0.589736
-0.389025 -0.862115 -0.661327 0.806262 0.046403 0.589736
-0.376323 -0.843898 -0.676470 0.806262 0.046403 0.589736
-0.399051 -0.850302 -0.673007 -0.763451 -0.501083 0.407392
-0.394728 -0.852581 -0.670737 -0.520371 -0.644978 0.559618
-0.397996 -0.847831 -0.667991 -0.665273 -0.518754 0.536882
-0.393179 -0.832379 -0.653021 0.973661 0.195874 -0.116693
-0.392016 -0.838026 -0.652798 0.973661 0.195874 -0.116693
-0.394508 -0.828777 -0.658069 0.973661 0.195874 -0.116693
-0.392016 -0.838026 -0.652798 0.384998 0.513974 0.766556
-0.376711 -0.825252 -0.669049 0.384998 0.513974 0.766556
-0.396285 -0.813408 -0.667160 0.384998 0.513974 0.766556
-0.393704 -0.813603 -0.662790 -0.837614 0.325968 0.438346
-0.396283 -0.818021 -0.664434 -0.837614 0.325968 0.438346
-0.393770 -0.818265 -0.659451 -0.837614 0.325968 0.438346
-0.392016 -0.838026 -0.652798 -0.777979 0.139480 0.612612
-0.393319 -0.823600 -0.657736 -0.777979 0.139480 0.612612
-0.394508 -0.828777 -0.658069 -0.777979 0.139480 0.612612
-0.392016 -0.838026 -0.652798 0.848458 -0.149147 -0.507813
-0.396285 -0.813408 -0.667160 0.848458 -0.149147 -0.507813
-0.393704 -0.813603 -0.662790 0.848458 -0.149147 -0.507813
-0.393704 -0.813603 -0.662790 0.957742 0.158298 0.240152
-0.393770 -0.818265 -0.659451 0.957742 0.158298 0.240152
-0.393319 -0.823600 -0.657736 0.957742 0.158298 0.240152
-0.392016 -0.838026 -0.652798 0.936503 0.186269 0.297097
-0.393704 -0.813603 -0.662790 0.936503 0.186269 0.297097
-0.393319 -0.823600 -0.657736 0.936503 0.186269 0.297097
-0.376323 -0.843898 -0.676470 0.793252 -0.210875 0.571212
-0.376711 -0.825252 -0.669049 0.793252 -0.210875 0.571212
-0.387175 -0.848787 -0.663206 0.793252 -0.210875 0.571212
-0.376711 -0.825252 -0.669049 0.676049 0.115787 0.727702
-0.392016 -0.838026 -0.652798 0.676049 0.115787 0.727702
-0.388674 -0.842500 -0.655190 0.676049 0.115787 0.727702
-0.376711 -0.825252 -0.669049 0.785334 -0.204061 0.584474
-0.388433 -0.844519 -0.660025 0.785334 -0.204061 0.584474
-0.387175 -0.848787 -0.663206 0.785334 -0.204061 0.584474
-0.376711 -0.825252 -0.669049 0.875678 -0.428485 0.222686
-0.388674 -0.842500 -0.655190 0.875678 -0.428485 0.222686
-0.388433 -0.844519 -0.660025 0.875678 -0.428485 0.222686
-0.393770 -0.818265 -0.659451 -0.889309 0.069948 0.451888
-0.393319 -0.823600 -0.657736 -0.927396 0.096561 0.361339
-0.401333 -0.845377 -0.674040 -0.918729 -0.279641 0.278787
-0.396285 -0.813408 -0.667160 0.168413 0.420538 -0.891507
-0.376711 -0.825252 -0.669049 0.168413 0.420538 -0.891507
-0.399489 -0.816886 -0.669406 0.168413 0.420538 -0.891507
-0.376711 -0.825252 -0.669049 0.357348 0.692209 -0.627017
-0.383965 -0.830636 -0.679128 0.357348 0.692209 -0.627017
-0.402756 -0.816176 -0.673873 0.357348 0.692209 -0.627017
-0.376711 -0.825252 -0.669049 0.344348 0.933117 -0.103520
-0.402756 -0.816176 -0.673873 0.344348 0.933117 -0.103520
-0.399489 -0.816886 -0.669406 0.344348 0.933117 -0.103520
-0.392016 -0.838026 -0.652798 -0.844478 -0.392529 0.364330
-0.383965 -0.830636 -0.679128 0.105198 -0.136743 -0.985005
-0.377643 -0.836021 -0.677705 0.105198 -0.136743 -0.985005
-0.376323 -0.843898 -0.676470 0.105198 -0.136743 -0.985005
-0.376323 -0.843898 -0.676470 0.791782 -0.153085 0.591309
-0.387175 -0.848787 -0.663206 0.791782 -0.153085 0.591309
-0.387576 -0.853788 -0.663963 0.791782 -0.153085 0.591309
-0.387325 -0.857412 -0.660366 -0.843684 0.290719 0.451247
-0.389025 -0.862115 -0.661327 -0.852962 0.210944 0.477401
-0.404548 -0.819479 -0.677709 0.026918 0.178914 -0.983496
-0.395652 -0.823996 -0.678287 0.026918 0.178914 -0.983496
-0.404008 -0.824936 -0.678687 0.026918 0.178914 -0.983496
-0.377643 -0.836021 -0.677705 0.959648 0.120966 -0.253855
-0.376711 -0.825252 -0.669049 0.959648 0.120966 -0.253855
-0.376323 -0.843898 -0.676470 0.959648 0.120966 -0.253855
-0.395652 -0.823996 -0.678287 0.027607 0.173208 -0.984498
-0.383965 -0.830636 -0.679128 0.027607 0.173208 -0.984498
-0.404008 -0.824936 -0.678687 0.027607 0.173208 -0.984498
-0.377643 -0.836021 -0.677705 0.564598 0.486842 -0.666494
-0.383965 -0.830636 -0.679128 0.564598 0.486842 -0.666494
-0.376711 -0.825252 -0.669049 0.564598 0.486842 -0.666494
-0.404008 -0.824936 -0.678687 -0.078262 -0.199621 -0.976743
-0.383965 -0.830636 -0.679128 -0.078262 -0.199621 -0.976743
-0.401790 -0.829717 -0.677887 -0.078262 -0.199621 -0.976743
-0.402756 -0.816176 -0.673873 0.302845 0.647616 -0.699198
-0.383965 -0.830636 -0.679128 0.302845 0.647616 -0.699198
-0.404548 -0.819479 -0.677709 0.302845 0.647616 -0.699198
-0.404548 -0.819479 -0.677709 0.006783 -0.113815 0.993479
-0.383965 -0.830636 -0.679128 0.006783 -0.113815 0.993479
-0.395652 -0.823996 -0.678287 0.006783 -0.113815 0.993479
3 0 1 2
3 3 4 5
3 6 7 8
3 9 10 11
3 4 3 12
3 13 5 4
3 14 15 16
3 14 16 17
3 18 19 20
3 21 22 23
3 24 25 26
3 27 28 29
3 1 30 2
3 31 32 33
3 13 34 35
3 36 2 37
3 31 13 4
3 38 39 11
3 5 14 40
3 37 9 39
3 15 39 41
3 42 1 0
3 43 6 8
3 44 9 37
3 45 46 47
3 48 49 50
3 51 52 53
3 54 55 56
3 57 58 59
3 4 12 31
3 60 61 62
4 63 64 65 66
3 67 68 69
3 68 3 69
3 70 71 72
3 73 74 75
3 76 77 78
3 79 80 81
3 82 83 84
3 85 86 87
3 88 89 90
3 91 92 93
3 94 95 96
3 97 98 99
3 100 101 102
3 103 8 104
3 7 10 9
3 0 34 33
3 69 40 105
3 106 107 108
3 109 110 111
3 112 113 114
3 115 42 0
3 34 2 36
3 116 117 118
3 15 36 39
3 13 35 5
3 35 15 14
3 115 0 33
3 9 44 7
3 3 61 12
3 119 120 121
3 30 8 44
3 5 69 3
3 35 36 15
3 104 8 30
3 122 60 123
3 124 125 126
3 9 11 39
3 39 38 41
3 33 34 13
3 127 128 129
3 40 17 105
3 130 131 132
3 61 60 122
3 5 35 14
3 30 44 2
3 16 15 41
3 133 134 135
3 61 3 62
3 44 8 7
3 2 44 37
3 32 115 33
3 36 37 39
3 69 5 40
3 67 69 105
3 40 14 17
3 34 36 35
3 31 33 13
3 104 30 1
3 136 137 138
3 139 140 141
3 142 143 144
3 0 2 34
3 68 62 3
