ply
format ascii 1.0
comment Created by Blender 2.69 (sub 10) - www.blender.org, source file: 'bunny_base.blend'
element vertex 144
property float x
property float y
property float z
property float nx
property float ny
property float nz
element face 92
property list uchar uint vertex_indices
end_header
-0.351591 -0.864199 -0.690425 0.692367 0.707535 -0.141496
-0.348714 -0.866306 -0.686881 0.692367 0.707535 -0.141496
-0.365101 -0.855788 -0.714472 0.692367 0.707535 -0.141496
-0.376627 -0.890038 -0.694522 -0.561083 -0.538896 -0.628254
-0.372124 -0.891150 -0.697150 -0.495926 -0.631458 -0.596057
-0.372920 -0.894529 -0.692608 -0.418500 -0.723228 -0.549303
-0.382373 -0.878145 -0.696313 -0.659413 -0.318735 -0.680837
-0.377026 -0.881007 -0.700010 -0.661885 -0.331675 -0.672201
-0.379227 -0.883403 -0.695857 -0.661245 -0.383404 -0.644734
-0.369817 -0.871366 -0.710406 -0.557268 -0.222053 -0.800073
-0.365147 -0.870174 -0.713314 -0.462050 -0.189245 -0.866390
-0.364691 -0.875180 -0.712000 -0.442061 -0.232154 -0.866390
-0.371289 -0.879925 -0.706431 -0.603626 -0.349803 -0.716392
-0.374735 -0.876719 -0.703321 -0.673666 -0.290323 -0.679586
-0.372353 -0.874113 -0.707034 -0.647633 -0.275826 -0.710257
-0.348714 -0.866306 -0.686881 0.648033 0.321328 0.690508
-0.358633 -0.865780 -0.677816 0.648033 0.321328 0.690508
-0.347475 -0.875862 -0.683596 0.648033 0.321328 0.690508
-0.377980 -0.871597 -0.704082 -0.679800 -0.264565 -0.683981
-0.374372 -0.868562 -0.707487 -0.622242 -0.200629 -0.756645
-0.366369 -0.864953 -0.713139 0.749344 -0.195695 -0.632603
-0.368495 -0.859257 -0.712493 0.749344 -0.195695 -0.632603
-0.365101 -0.855788 -0.714472 0.749344 -0.195695 -0.632603
-0.348714 -0.866306 -0.686881 0.749344 -0.195695 -0.632603
-0.364351 -0.889612 -0.703909 -0.285257 -0.659597 -0.695364
-0.364310 -0.892913 -0.699960 -0.174169 -0.776666 -0.605335
-0.368695 -0.890028 -0.701401 -0.427931 -0.620594 -0.657002
-0.366369 -0.864953 -0.713139 -0.432051 -0.060244 -0.899808
-0.370845 -0.865562 -0.710982 -0.519547 -0.114689 -0.846675
-0.373195 -0.861146 -0.709994 -0.564898 -0.023835 -0.824793
-0.376791 -0.864166 -0.706575 -0.782998 -0.082475 -0.616532
-0.379263 -0.866850 -0.703076 -0.782998 -0.082475 -0.616532
-0.377821 -0.859102 -0.705944 -0.782998 -0.082475 -0.616532
-0.379263 -0.866850 -0.703076 0.633031 0.308333 0.710072
-0.385707 -0.877909 -0.692529 0.633031 0.308333 0.710072
-0.383756 -0.882731 -0.692175 0.633031 0.308333 0.710072
-0.383756 -0.882731 -0.692175 -0.662106 0.551339 0.507583
-0.358633 -0.865780 -0.677816 -0.662106 0.551339 0.507583
-0.374215 -0.855952 -0.708818 -0.662106 0.551339 0.507583
-0.379263 -0.866850 -0.703076 0.479597 0.224715 0.848228
-0.374215 -0.855952 -0.708818 0.479597 0.224715 0.848228
-0.377821 -0.859102 -0.705944 0.479597 0.224715 0.848228
-0.379263 -0.866850 -0.703076 -0.542280 0.574322 0.613258
-0.383756 -0.882731 -0.692175 -0.542280 0.574322 0.613258
-0.374215 -0.855952 -0.708818 -0.542280 0.574322 0.613258
-0.364518 -0.880351 -0.708799 -0.158879 -0.435408 -0.886074
-0.366137 -0.884717 -0.706363 -0.382885 -0.492416 -0.781579
-0.368671 -0.877113 -0.709645 -0.512864 -0.293435 -0.806726
-0.370488 -0.853773 -0.711360 -0.551897 -0.028443 -0.833399
-0.368495 -0.859257 -0.712493 -0.486251 -0.015412 -0.873653
-0.374215 -0.855952 -0.708818 -0.578692 0.037965 -0.814631
-0.379263 -0.866850 -0.703076 -0.722556 -0.103763 -0.683462
-0.376791 -0.864166 -0.706575 -0.659536 -0.156957 -0.735069
-0.358633 -0.865780 -0.677816 0.636053 0.295204 0.712946
-0.353988 -0.874905 -0.678182 0.636053 0.295204 0.712946
-0.347475 -0.875862 -0.683596 0.636053 0.295204 0.712946
-0.375553 -0.886320 -0.698338 -0.618946 -0.443709 -0.648030
-0.382373 -0.878145 -0.696313 -0.783770 -0.183643 -0.593279
-0.385707 -0.877909 -0.692529 -0.783770 -0.183643 -0.593279
-0.381799 -0.869598 -0.699716 -0.783770 -0.183643 -0.593279
-0.384062 -0.873294 -0.696131 -0.783770 -0.183643 -0.593279
-0.358427 -0.895019 -0.697416 -0.007111 -0.819697 -0.572741
-0.363204 -0.895949 -0.696026 -0.124607 -0.833491 -0.538255
-0.359557 -0.891910 -0.701701 -0.048860 -0.788842 -0.612598
-0.348714 -0.866306 -0.686881 0.310237 0.906322 0.286939
-0.351591 -0.864199 -0.690425 0.310237 0.906322 0.286939
-0.358633 -0.865780 -0.677816 0.310237 0.906322 0.286939
-0.377821 -0.859102 -0.705944 -0.658986 -0.001312 -0.752098
-0.368005 -0.894356 -0.696324 -0.325968 -0.773614 -0.543352
-0.351591 -0.864199 -0.690425 0.173453 0.960557 0.217356
-0.374215 -0.855952 -0.708818 0.173453 0.960557 0.217356
-0.358633 -0.865780 -0.677816 0.173453 0.960557 0.217356
-0.384062 -0.873294 -0.696131 -0.660695 -0.237861 -0.711936
-0.379009 -0.875295 -0.700151 -0.668874 -0.304300 -0.678213
-0.370426 -0.885066 -0.703719 -0.518509 -0.477371 -0.709372
-0.358123 -0.898081 -0.692842 -0.030335 -0.852260 -0.522202
-0.383756 -0.882731 -0.692175 -0.646779 -0.378277 -0.662221
-0.385707 -0.877909 -0.692529 -0.717124 -0.335093 -0.611072
-0.366369 -0.864953 -0.713139 0.816438 0.209264 -0.538180
-0.348714 -0.866306 -0.686881 0.816438 0.209264 -0.538180
-0.365147 -0.870174 -0.713314 0.816438 0.209264 -0.538180
-0.348714 -0.866306 -0.686881 0.504604 0.262404 -0.822508
-0.359557 -0.891910 -0.701701 0.504604 0.262404 -0.822508
-0.364351 -0.889612 -0.703909 0.504604 0.262404 -0.822508
-0.364351 -0.889612 -0.703909 -0.067916 -0.466747 -0.881779
-0.366137 -0.884717 -0.706363 -0.067916 -0.466747 -0.881779
-0.364518 -0.880351 -0.708799 -0.067916 -0.466747 -0.881779
-0.364518 -0.880351 -0.708799 -0.235652 -0.517296 -0.822723
-0.368671 -0.877113 -0.709645 -0.235652 -0.517296 -0.822723
-0.364691 -0.875180 -0.712000 -0.235652 -0.517296 -0.822723
-0.348714 -0.866306 -0.686881 0.851636 -0.059225 -0.520776
-0.364691 -0.875180 -0.712000 0.851636 -0.059225 -0.520776
-0.365147 -0.870174 -0.713314 0.851636 -0.059225 -0.520776
-0.348714 -0.866306 -0.686881 0.853386 -0.231254 -0.467176
-0.364351 -0.889612 -0.703909 0.853386 -0.231254 -0.467176
-0.364518 -0.880351 -0.708799 0.853386 -0.231254 -0.467176
-0.348714 -0.866306 -0.686881 0.854346 -0.252626 -0.454174
-0.364518 -0.880351 -0.708799 0.854346 -0.252626 -0.454174
-0.364691 -0.875180 -0.712000 0.854346 -0.252626 -0.454174
-0.380520 -0.887417 -0.692583 -0.642476 -0.380627 -0.665029
-0.385707 -0.877909 -0.692529 0.578572 0.360587 0.731596
-0.379263 -0.866850 -0.703076 0.578572 0.360587 0.731596
-0.381799 -0.869598 -0.699716 0.578572 0.360587 0.731596
-0.358427 -0.895019 -0.697416 0.906670 -0.320233 -0.274593
-0.347475 -0.875862 -0.683596 0.906670 -0.320233 -0.274593
-0.358123 -0.898081 -0.692842 0.906670 -0.320233 -0.274593
-0.381799 -0.869598 -0.699716 -0.736839 -0.234565 -0.634053
-0.362760 -0.898772 -0.691097 -0.132756 -0.865230 -0.483444
-0.359557 -0.891910 -0.701701 0.871805 -0.120736 -0.474741
-0.348714 -0.866306 -0.686881 0.871805 -0.120736 -0.474741
-0.347475 -0.875862 -0.683596 0.871805 -0.120736 -0.474741
-0.358427 -0.895019 -0.697416 0.871805 -0.120736 -0.474741
-0.372920 -0.894529 -0.692608 0.052215 0.427768 0.902379
-0.367631 -0.897308 -0.691597 0.052215 0.427768 0.902379
-0.376627 -0.890038 -0.694522 0.052215 0.427768 0.902379
-0.367631 -0.897308 -0.691597 -0.212582 -0.403442 0.889968
-0.362760 -0.898772 -0.691097 -0.212582 -0.403442 0.889968
-0.353988 -0.874905 -0.678182 -0.212582 -0.403442 0.889968
-0.353988 -0.874905 -0.678182 -0.084004 -0.670394 0.737235
-0.380520 -0.887417 -0.692583 -0.084004 -0.670394 0.737235
-0.376627 -0.890038 -0.694522 -0.084004 -0.670394 0.737235
-0.367631 -0.897308 -0.691597 -0.463959 -0.229747 0.855546
-0.353988 -0.874905 -0.678182 -0.463959 -0.229747 0.855546
-0.376627 -0.890038 -0.694522 -0.463959 -0.229747 0.855546
-0.367631 -0.897308 -0.691597 -0.266488 -0.833705 -0.483596
-0.362760 -0.898772 -0.691097 0.485998 -0.547302 0.681371
-0.347475 -0.875862 -0.683596 0.485998 -0.547302 0.681371
-0.353988 -0.874905 -0.678182 0.485998 -0.547302 0.681371
-0.347475 -0.875862 -0.683596 0.369282 -0.502332 0.781852
-0.362760 -0.898772 -0.691097 0.369282 -0.502332 0.781852
-0.358123 -0.898081 -0.692842 0.369282 -0.502332 0.781852
-0.374215 -0.855952 -0.708818 -0.126925 0.837425 0.531611
-0.351591 -0.864199 -0.690425 -0.126925 0.837425 0.531611
-0.370488 -0.853773 -0.711360 -0.126925 0.837425 0.531611
-0.351591 -0.864199 -0.690425 -0.451430 0.732353 0.509775
-0.365101 -0.855788 -0.714472 -0.451430 0.732353 0.509775
-0.368495 -0.859257 -0.712493 -0.451430 0.732353 0.509775
-0.351591 -0.864199 -0.690425 0.772289 0.384938 -0.505364
-0.368495 -0.859257 -0.712493 0.772289 0.384938 -0.505364
-0.370488 -0.853773 -0.711360 0.772289 0.384938 -0.505364
-0.380520 -0.887417 -0.692583 -0.356125 -0.253573 0.899375
-0.353988 -0.874905 -0.678182 -0.356125 -0.253573 0.899375
-0.358633 -0.865780 -0.677816 -0.356125 -0.253573 0.899375
-0.383756 -0.882731 -0.692175 -0.356125 -0.253573 0.899375
3 0 1 2
3 3 4 5
3 6 7 8
3 9 10 11
3 12 13 14
3 15 16 17
3 14 18 19
4 20 21 22 23
3 24 25 26
3 27 28 29
3 30 31 32
3 33 34 35
3 36 37 38
3 39 40 41
3 42 43 44
3 45 46 47
3 48 49 50
3 19 51 52
3 47 9 11
3 53 54 55
3 56 8 7
4 57 58 59 60
3 61 62 63
3 64 65 66
3 67 29 52
3 68 26 25
3 49 27 29
3 19 52 28
3 69 70 71
3 6 72 73
3 13 18 14
3 12 14 47
3 74 7 12
3 4 26 68
3 7 74 56
3 3 56 4
3 4 56 26
3 75 62 61
3 26 74 24
3 6 76 77
3 46 12 47
3 78 79 80
3 81 82 83
3 84 85 86
3 87 88 89
3 90 91 92
3 93 94 95
3 96 97 98
3 62 68 25
3 7 73 13
3 62 25 63
3 13 73 18
3 3 99 56
3 50 29 67
3 100 101 102
3 103 104 105
3 73 72 106
3 75 107 62
3 9 19 28
3 24 74 46
3 28 27 10
3 73 106 18
3 28 52 29
3 99 8 56
3 7 6 73
4 108 109 110 111
3 112 113 114
3 115 116 117
3 118 119 120
3 121 122 123
3 5 4 68
3 18 106 51
3 124 62 107
3 7 13 12
3 99 76 8
3 47 14 9
3 63 25 24
3 14 19 9
3 26 56 74
3 10 9 28
3 46 74 12
3 125 126 127
3 62 124 68
3 49 29 50
3 76 6 8
3 128 129 130
3 5 68 124
3 131 132 133
3 134 135 136
3 137 138 139
3 18 51 19
4 140 141 142 143
