ply
format ascii 1.0
comment Created by Blender 2.69 (sub 10) - www.blender.org, source file: 'bunny_base.blend'
element vertex 101
property float x
property float y
property float z
property float nx
property float ny
property float nz
element face 135
property list uchar uint vertex_indices
end_header
-0.398082 -0.818097 -0.724678 0.413800 0.889737 -0.192541
-0.395584 -0.818814 -0.719962 0.656636 0.725639 -0.205542
-0.391609 -0.823681 -0.721632 0.858608 0.407849 -0.310495
-0.401197 -0.816605 -0.720946 -0.037233 0.916745 -0.397656
-0.405156 -0.835417 -0.752061 0.875576 -0.315287 -0.365947
-0.404578 -0.829710 -0.751759 0.924772 0.139470 -0.353954
-0.402821 -0.832659 -0.747272 0.927183 -0.112735 -0.357219
-0.403439 -0.837880 -0.744051 0.885464 -0.321665 -0.335337
-0.401738 -0.827930 -0.745418 0.892148 0.230079 -0.388714
-0.403444 -0.822820 -0.743197 0.641285 0.590655 -0.489761
-0.400068 -0.831289 -0.741876 0.811212 -0.184973 -0.554704
-0.414924 -0.819004 -0.743457 -0.132206 0.989380 0.059877
-0.417571 -0.822586 -0.737902 -0.672109 0.710318 0.208960
-0.413416 -0.818889 -0.737668 -0.361034 0.932493 -0.006256
-0.405342 -0.817608 -0.733710 0.155339 0.980895 -0.116855
-0.411717 -0.820269 -0.728975 -0.455275 0.878933 0.141911
-0.408119 -0.817914 -0.726334 -0.197333 0.979522 -0.039186
-0.407978 -0.820941 -0.745452 0.426252 0.850581 -0.307871
-0.409013 -0.818719 -0.740569 0.029603 0.942930 -0.331584
-0.406523 -0.828684 -0.756353 0.911924 0.254616 -0.321726
-0.407718 -0.824335 -0.753443 0.734275 0.620319 -0.275643
-0.390131 -0.829222 -0.719261 0.924009 0.087130 -0.372234
-0.391950 -0.828227 -0.723844 0.921537 0.096408 -0.376080
-0.393774 -0.822701 -0.726115 0.802087 0.342601 -0.489151
-0.410231 -0.837879 -0.757034 -0.074953 -0.873745 -0.480514
-0.410422 -0.834918 -0.761554 0.099216 -0.771844 -0.627979
-0.407595 -0.830861 -0.760759 0.836299 -0.078127 -0.542650
-0.406460 -0.834577 -0.757097 0.780267 -0.413678 -0.469039
-0.395965 -0.824379 -0.732765 0.855892 0.330638 -0.397626
-0.400653 -0.819423 -0.732915 0.459883 0.828028 -0.320688
-0.397094 -0.820583 -0.729490 0.676412 0.654286 -0.338145
-0.408947 -0.839800 -0.752485 0.321451 -0.838893 -0.439192
-0.399072 -0.826577 -0.739979 0.820734 0.242897 -0.517045
-0.400042 -0.822218 -0.737154 0.657033 0.588427 -0.471145
-0.396297 -0.828960 -0.734977 0.922666 -0.005249 -0.385510
-0.404269 -0.819673 -0.738666 0.438185 0.830744 -0.343211
-0.397957 -0.834223 -0.735713 0.873379 -0.218238 -0.435377
-0.410552 -0.817788 -0.733674 -0.243782 0.957030 0.156987
-0.400905 -0.836370 -0.739514 0.848842 -0.310312 -0.427900
-0.393863 -0.827624 -0.729432 0.843410 -0.039216 -0.535783
-0.393500 -0.832226 -0.726614 0.898495 -0.123966 -0.421033
-0.395815 -0.833865 -0.731102 0.919950 -0.110416 -0.376141
-0.405498 -0.839493 -0.748449 0.822230 -0.414441 -0.390057
-0.413214 -0.820513 -0.754480 0.452315 0.886685 -0.095676
-0.410664 -0.821028 -0.749845 0.426954 0.882717 -0.196142
-0.418055 -0.821775 -0.764075 -0.597949 0.334391 -0.728416
-0.412681 -0.821651 -0.762845 0.456496 0.762200 -0.458907
-0.414748 -0.825475 -0.765998 -0.333476 -0.081240 -0.939238
-0.415667 -0.819644 -0.759272 0.121647 0.969604 -0.212165
-0.409937 -0.823726 -0.758889 0.758171 0.624104 -0.188726
-0.422030 -0.822545 -0.752990 -0.993866 -0.103061 0.039949
-0.421026 -0.823437 -0.748093 -0.952239 -0.272652 0.137272
-0.418059 -0.818832 -0.753741 -0.239601 0.970855 -0.004364
-0.389567 -0.824659 -0.717097 0.832972 0.459090 -0.308756
-0.404988 -0.825229 -0.749209 0.785791 0.518509 -0.337107
-0.394445 -0.818379 -0.714938 0.703726 0.647267 -0.292856
-0.417611 -0.819012 -0.747810 -0.354869 0.931974 0.073855
-0.411638 -0.830382 -0.765287 0.016236 -0.497635 -0.867214
-0.409831 -0.825741 -0.763846 0.748131 0.296548 -0.593585
-0.395584 -0.818814 -0.719962 -0.121319 0.130130 0.984047
-0.401197 -0.816605 -0.720946 -0.121319 0.130130 0.984047
-0.406567 -0.818416 -0.721369 -0.121319 0.130130 0.984047
-0.406567 -0.818416 -0.721369 -0.474100 -0.230952 0.849642
-0.387345 -0.826476 -0.712833 -0.474100 -0.230952 0.849642
-0.390529 -0.821060 -0.713138 -0.474100 -0.230952 0.849642
-0.395584 -0.818814 -0.719962 -0.615475 -0.760904 0.205467
-0.390529 -0.821060 -0.713138 -0.615475 -0.760904 0.205467
-0.394445 -0.818379 -0.714938 -0.615475 -0.760904 0.205467
-0.395584 -0.818814 -0.719962 -0.006273 0.948464 0.316822
-0.406567 -0.818416 -0.721369 -0.006273 0.948464 0.316822
-0.390529 -0.821060 -0.713138 -0.006273 0.948464 0.316822
-0.414696 -0.821397 -0.733450 -0.654135 0.720553 0.230022
-0.413416 -0.818889 -0.737668 -0.654135 0.720553 0.230022
-0.417571 -0.822586 -0.737902 -0.654135 0.720553 0.230022
-0.420776 -0.821511 -0.758803 -0.924772 0.174810 -0.337931
-0.408947 -0.839800 -0.752485 -0.711746 -0.306963 0.631817
-0.405498 -0.839493 -0.748449 -0.711746 -0.306963 0.631817
-0.411354 -0.834899 -0.752815 -0.711746 -0.306963 0.631817
-0.405498 -0.839493 -0.748449 -0.520958 -0.693216 0.498050
-0.403439 -0.837880 -0.744051 -0.520958 -0.693216 0.498050
-0.410416 -0.835053 -0.747414 -0.520958 -0.693216 0.498050
-0.405498 -0.839493 -0.748449 -0.656395 -0.748695 0.092744
-0.410416 -0.835053 -0.747414 -0.656395 -0.748695 0.092744
-0.411354 -0.834899 -0.752815 -0.656395 -0.748695 0.092744
-0.402713 -0.817198 -0.728027 0.034516 0.977966 -0.205817
-0.390529 -0.821060 -0.713138 0.713645 0.595874 -0.368236
-0.414696 -0.821397 -0.733450 -0.629963 0.738365 0.240608
-0.406567 -0.818416 -0.721369 -0.088321 0.995941 -0.016633
-0.419697 -0.823752 -0.742419 -0.977477 -0.060579 0.202063
-0.387345 -0.826476 -0.712833 0.843776 0.482986 -0.233955
-0.414290 -0.828206 -0.761365 -0.818812 -0.544755 -0.180944
-0.412440 -0.832354 -0.757386 -0.900357 -0.432691 -0.045473
-0.416287 -0.825561 -0.757201 -0.722404 -0.691427 0.006043
-0.411354 -0.834899 -0.752815 -0.924223 -0.374584 0.073946
-0.415901 -0.825436 -0.745458 -0.573565 -0.816858 0.060945
-0.412619 -0.827182 -0.740908 -0.704184 -0.663198 0.253426
-0.413515 -0.829171 -0.752702 -0.856471 -0.508896 0.086093
-0.416988 -0.824968 -0.751263 -0.581774 -0.813227 0.012329
-0.410416 -0.835053 -0.747414 -0.922941 -0.330912 0.196600
-0.412300 -0.829984 -0.747920 -0.853206 -0.503800 0.134892
-0.410368 -0.831847 -0.742979 -0.845363 -0.487106 0.219153
3 0 1 2
3 3 1 0
3 4 5 6
3 4 6 7
3 8 9 10
3 11 12 13
3 14 15 16
3 17 18 9
3 5 19 20
3 2 21 22
3 22 23 2
3 24 25 26
3 27 26 19
3 28 29 30
3 27 31 24
3 32 33 34
3 9 18 35
3 24 25 27
3 10 32 36
3 37 14 35
3 0 2 23
3 8 10 38
3 28 39 40
3 41 28 40
3 42 4 7
3 4 19 5
3 43 44 20
3 45 46 47
3 7 6 38
3 36 34 41
3 48 49 46
3 36 32 34
3 50 51 52
3 21 2 53
3 20 44 54
3 1 53 2
3 48 52 43
3 54 5 20
3 1 55 53
3 39 30 22
3 52 51 56
3 17 13 18
3 25 57 58
3 30 23 22
3 4 42 31
3 38 10 36
3 28 30 39
3 0 23 30
3 59 60 61
3 62 63 64
3 65 66 67
3 68 69 70
3 6 8 38
3 14 37 15
3 18 37 35
3 54 17 8
3 4 27 19
3 43 20 49
3 40 39 22
3 34 33 28
3 57 47 58
3 26 49 19
3 47 46 58
3 71 72 73
3 8 6 54
3 6 5 54
3 48 45 74
3 8 17 9
3 75 76 77
3 78 79 80
3 81 82 83
3 26 58 49
3 10 9 32
3 41 34 28
3 26 25 58
3 74 52 48
3 54 44 17
3 29 84 30
3 84 0 30
3 33 29 28
3 56 12 11
3 85 53 55
3 13 86 37
3 45 48 46
3 35 33 32
3 56 44 43
3 48 43 49
3 32 9 35
3 11 17 44
3 33 14 29
3 20 19 49
3 17 11 13
3 84 87 0
3 0 87 3
3 56 51 88
3 4 31 27
3 46 49 58
3 53 85 89
3 18 13 37
3 52 56 43
3 35 14 33
3 84 16 87
3 56 88 12
3 16 84 29
3 14 16 29
3 74 50 52
3 15 37 86
3 56 11 44
3 90 57 25
3 24 91 25
3 91 90 25
3 90 74 45
3 90 92 74
3 31 93 24
3 93 91 24
3 91 92 90
3 88 94 95
3 93 96 91
3 91 96 92
3 92 50 74
3 96 97 92
3 92 97 50
3 93 98 96
3 98 99 96
3 97 51 50
3 99 97 96
3 99 94 97
3 94 51 97
3 100 99 98
3 100 94 99
3 94 88 51
3 100 95 94
3 47 90 45
3 27 24 26
3 90 47 57
