ply
format ascii 1.0
comment Created by Blender 2.69 (sub 10) - www.blender.org, source file: 'bunny_base.blend'
element vertex 132
property float x
property float y
property float z
property float nx
property float ny
property float nz
element face 103
property list uchar uint vertex_indices
end_header
-0.276338 -0.873857 -0.657411 0.663167 0.235328 0.710471
-0.274467 -0.869330 -0.663342 0.746269 0.297983 0.595172
-0.277535 -0.868749 -0.659424 0.707358 0.279763 0.649129
-0.281011 -0.872814 -0.655248 0.519669 0.205420 0.829279
-0.264260 -0.893206 -0.672055 0.931761 -0.261513 0.251778
-0.262679 -0.889973 -0.675938 0.956114 -0.058321 0.287088
-0.264729 -0.890589 -0.667603 0.912259 0.028993 0.408490
-0.268164 -0.895169 -0.663049 0.738060 -0.429731 0.520127
-0.271234 -0.892168 -0.659207 0.739982 0.376782 0.557176
-0.273043 -0.896824 -0.660620 0.439619 -0.746696 0.499130
-0.278349 -0.898563 -0.661146 0.139897 -0.960143 0.241859
-0.275818 -0.899129 -0.665771 -0.002136 -0.989471 0.144658
-0.275791 -0.889103 -0.658144 0.595904 0.325053 0.734306
-0.275378 -0.893625 -0.655493 0.438856 -0.122898 0.890103
-0.271501 -0.873306 -0.664238 0.734825 0.239082 0.634663
-0.273376 -0.886149 -0.661906 0.714164 0.252541 0.652791
-0.271193 -0.881763 -0.664926 0.794885 -0.041475 0.605304
-0.275646 -0.882314 -0.658229 0.736229 -0.045808 0.675161
-0.266516 -0.870337 -0.672414 0.812281 0.331584 0.479781
-0.267339 -0.873687 -0.668671 0.815088 0.157689 0.557421
-0.264516 -0.875001 -0.673856 0.860836 0.097385 0.499435
-0.278095 -0.878388 -0.655290 0.594134 -0.003113 0.804315
-0.279721 -0.884056 -0.655619 0.452132 -0.100681 0.886227
-0.279354 -0.896960 -0.656368 0.469741 -0.532365 0.704184
-0.279733 -0.890588 -0.655037 0.459029 0.213752 0.862300
-0.272906 -0.877692 -0.661941 0.801172 -0.009949 0.598346
-0.264516 -0.875001 -0.673856 0.932970 0.135433 0.333505
-0.262587 -0.878981 -0.676712 0.932970 0.135433 0.333505
-0.262120 -0.885031 -0.676485 0.932970 0.135433 0.333505
-0.263682 -0.870737 -0.676997 0.932970 0.135433 0.333505
-0.277393 -0.863363 -0.661561 0.682089 0.271584 0.678945
-0.283202 -0.867897 -0.653763 0.502609 0.206610 0.839442
-0.268638 -0.865800 -0.673503 0.797845 0.382488 0.465896
-0.271064 -0.868230 -0.667354 0.722556 0.355724 0.592730
-0.287023 -0.871924 -0.652474 0.372753 0.076510 0.924741
-0.267487 -0.878785 -0.669054 0.825922 -0.075411 0.558641
-0.268175 -0.883829 -0.668595 0.770074 0.248421 0.587573
-0.284620 -0.887181 -0.654680 0.299020 0.023041 0.953948
-0.284953 -0.881600 -0.652585 0.407880 -0.224403 0.885006
-0.282686 -0.877092 -0.652831 0.469222 0.094974 0.877926
-0.262587 -0.878981 -0.676712 0.795618 -0.008667 0.605731
-0.266638 -0.896213 -0.668530 0.803491 -0.504715 0.315592
-0.270877 -0.898227 -0.666423 0.401135 -0.856624 0.324412
-0.271302 -0.863550 -0.669615 0.820765 0.248207 0.514481
-0.262679 -0.889973 -0.675938 0.403408 -0.029298 -0.914551
-0.304340 -0.875934 -0.695400 0.403408 -0.029298 -0.914551
-0.263682 -0.870737 -0.676997 0.403408 -0.029298 -0.914551
-0.262120 -0.885031 -0.676485 0.403408 -0.029298 -0.914551
-0.281195 -0.894521 -0.651789 0.796899 0.179907 0.576678
-0.285211 -0.861821 -0.656452 0.492416 0.428083 0.757775
-0.267520 -0.889203 -0.663455 0.713340 0.327219 0.619709
-0.264116 -0.886700 -0.671405 0.855800 0.266121 0.443556
-0.262120 -0.885031 -0.676485 0.857997 0.133030 0.496109
-0.265502 -0.881665 -0.673308 0.820856 0.071657 0.566576
-0.304340 -0.875934 -0.695400 -0.709053 -0.700873 0.077598
-0.280197 -0.897369 -0.668387 -0.709053 -0.700873 0.077598
-0.281195 -0.894521 -0.651789 -0.709053 -0.700873 0.077598
-0.280197 -0.897369 -0.668387 -0.730176 -0.679207 0.074305
-0.278349 -0.898563 -0.661146 -0.730176 -0.679207 0.074305
-0.279354 -0.896960 -0.656368 -0.730176 -0.679207 0.074305
-0.280197 -0.897369 -0.668387 -0.724061 -0.685744 0.074099
-0.279354 -0.896960 -0.656368 -0.724061 -0.685744 0.074099
-0.281195 -0.894521 -0.651789 -0.724061 -0.685744 0.074099
-0.288310 -0.865898 -0.652401 0.383648 0.334880 0.860591
-0.290156 -0.860823 -0.654136 0.452712 0.431379 0.780328
-0.270877 -0.898227 -0.666423 0.059817 -0.779004 -0.624159
-0.275818 -0.899129 -0.665771 0.059817 -0.779004 -0.624159
-0.266638 -0.896213 -0.668530 0.059817 -0.779004 -0.624159
-0.275818 -0.899129 -0.665771 0.059815 -0.778994 -0.624171
-0.280197 -0.897369 -0.668387 0.059815 -0.778994 -0.624171
-0.300533 -0.879340 -0.692837 0.059815 -0.778994 -0.624171
-0.300533 -0.879340 -0.692837 0.059815 -0.778995 -0.624170
-0.262679 -0.889973 -0.675938 0.059815 -0.778995 -0.624170
-0.264260 -0.893206 -0.672055 0.059815 -0.778995 -0.624170
-0.275818 -0.899129 -0.665771 0.059803 -0.778983 -0.624186
-0.264260 -0.893206 -0.672055 0.059803 -0.778983 -0.624186
-0.266638 -0.896213 -0.668530 0.059803 -0.778983 -0.624186
-0.275818 -0.899129 -0.665771 0.059816 -0.778994 -0.624172
-0.300533 -0.879340 -0.692837 0.059816 -0.778994 -0.624172
-0.264260 -0.893206 -0.672055 0.059816 -0.778994 -0.624172
-0.263682 -0.870737 -0.676997 0.840327 0.205176 0.501694
-0.274059 -0.863770 -0.665328 0.804529 0.158666 0.572283
-0.300533 -0.879340 -0.692837 0.306025 -0.329849 -0.893056
-0.304340 -0.875934 -0.695400 0.306025 -0.329849 -0.893056
-0.262679 -0.889973 -0.675938 0.306025 -0.329849 -0.893056
-0.300533 -0.879340 -0.692837 -0.670872 -0.741488 0.011242
-0.280197 -0.897369 -0.668387 -0.670872 -0.741488 0.011242
-0.304340 -0.875934 -0.695400 -0.670872 -0.741488 0.011242
-0.271302 -0.863550 -0.669615 -0.838474 -0.056012 -0.542055
-0.268638 -0.865800 -0.673503 -0.838474 -0.056012 -0.542055
-0.274059 -0.863770 -0.665328 -0.838474 -0.056012 -0.542055
-0.268638 -0.865800 -0.673503 0.770568 0.465068 0.435817
-0.266516 -0.870337 -0.672414 0.770568 0.465068 0.435817
-0.263682 -0.870737 -0.676997 0.770568 0.465068 0.435817
-0.268638 -0.865800 -0.673503 -0.088933 0.951271 -0.295252
-0.304340 -0.875934 -0.695400 -0.088933 0.951271 -0.295252
-0.274059 -0.863770 -0.665328 -0.088933 0.951271 -0.295252
-0.268638 -0.865800 -0.673503 0.218216 0.700155 -0.679827
-0.263682 -0.870737 -0.676997 0.218216 0.700155 -0.679827
-0.304340 -0.875934 -0.695400 0.218216 0.700155 -0.679827
-0.281237 -0.860275 -0.659424 0.560320 0.131535 0.817743
-0.304340 -0.875934 -0.695400 -0.892694 -0.276349 0.355991
-0.281195 -0.894521 -0.651789 -0.892694 -0.276349 0.355991
-0.284620 -0.887181 -0.654680 -0.892694 -0.276349 0.355991
-0.284620 -0.887181 -0.654680 -0.587624 0.253519 -0.768392
-0.284953 -0.881600 -0.652585 -0.587624 0.253519 -0.768392
-0.282686 -0.877092 -0.652831 -0.587624 0.253519 -0.768392
-0.287023 -0.871924 -0.652474 -0.902580 -0.197440 0.382580
-0.288310 -0.865898 -0.652401 -0.902580 -0.197440 0.382580
-0.290156 -0.860823 -0.654136 -0.902580 -0.197440 0.382580
-0.304340 -0.875934 -0.695400 -0.902582 -0.197442 0.382574
-0.284620 -0.887181 -0.654680 -0.902582 -0.197442 0.382574
-0.290156 -0.860823 -0.654136 -0.902582 -0.197442 0.382574
-0.284620 -0.887181 -0.654680 -0.108651 -0.159027 0.981277
-0.282686 -0.877092 -0.652831 -0.108651 -0.159027 0.981277
-0.287023 -0.871924 -0.652474 -0.108651 -0.159027 0.981277
-0.284620 -0.887181 -0.654680 -0.902583 -0.197442 0.382572
-0.287023 -0.871924 -0.652474 -0.902583 -0.197442 0.382572
-0.290156 -0.860823 -0.654136 -0.902583 -0.197442 0.382572
-0.274059 -0.863770 -0.665328 -0.150421 0.959843 -0.236802
-0.304340 -0.875934 -0.695400 -0.150421 0.959843 -0.236802
-0.277393 -0.863363 -0.661561 -0.150421 0.959843 -0.236802
-0.304340 -0.875934 -0.695400 0.024520 0.935980 -0.351198
-0.290156 -0.860823 -0.654136 0.024520 0.935980 -0.351198
-0.285211 -0.861821 -0.656452 0.024520 0.935980 -0.351198
-0.285211 -0.861821 -0.656452 -0.560338 -0.131551 -0.817750
-0.281237 -0.860275 -0.659424 -0.560338 -0.131551 -0.817750
-0.277393 -0.863363 -0.661561 -0.560338 -0.131551 -0.817750
-0.304340 -0.875934 -0.695400 -0.028323 0.944178 -0.328215
-0.285211 -0.861821 -0.656452 -0.028323 0.944178 -0.328215
-0.277393 -0.863363 -0.661561 -0.028323 0.944178 -0.328215
-0.280197 -0.897369 -0.668387 -0.336344 -0.939177 -0.069063
3 0 1 2
3 2 3 0
3 4 5 6
3 7 8 9
3 9 10 11
3 12 13 8
3 0 14 1
3 15 16 17
3 18 19 20
3 17 21 22
3 23 13 24
3 25 14 0
4 26 27 28 29
3 2 30 31
3 18 32 33
3 3 31 34
3 35 16 36
3 37 22 38
3 22 39 38
3 23 9 13
3 35 40 20
3 20 19 35
3 41 7 42
3 33 32 43
4 44 45 46 47
3 24 37 48
3 30 49 31
3 42 9 11
3 19 18 33
3 17 22 12
3 8 50 15
3 51 52 53
3 54 55 56
3 57 58 59
3 60 61 62
3 3 2 31
3 63 49 64
3 17 12 15
3 24 22 37
3 65 66 67
3 68 69 70
3 71 72 73
3 74 75 76
3 77 78 79
3 5 51 6
3 6 41 4
3 7 9 42
3 9 23 10
3 21 25 0
3 16 35 25
3 21 3 39
3 20 80 18
3 25 35 19
3 9 8 13
3 53 40 35
3 16 25 17
3 1 33 43
3 40 53 52
3 6 51 36
3 2 81 30
3 12 8 7
3 33 1 14
3 6 7 41
3 21 39 22
3 12 22 24
3 82 83 84
3 7 6 50
3 2 1 81
3 25 19 14
3 31 49 63
3 85 86 87
3 13 12 24
3 21 0 3
3 17 25 21
3 7 50 8
3 50 36 15
3 53 36 51
3 3 34 39
3 19 33 14
3 1 43 81
3 88 89 90
3 91 92 93
3 94 95 96
3 97 98 99
3 6 36 50
3 8 15 12
3 30 100 49
3 53 35 36
3 5 52 51
3 101 102 103
3 104 105 106
3 107 108 109
3 110 111 112
3 113 114 115
3 116 117 118
3 15 36 16
3 119 120 121
3 122 123 124
3 125 126 127
3 128 129 130
3 31 63 34
3 23 24 48
3 131 11 10
