ply
format ascii 1.0
comment Created by Blender 2.69 (sub 10) - www.blender.org, source file: 'bunny_base.blend'
element vertex 42
property float x
property float y
property float z
property float nx
property float ny
property float nz
element face 29
property list uchar uint vertex_indices
end_header
-0.354573 -0.918867 -0.674025 -0.716208 0.144444 -0.682730
-0.354141 -0.924286 -0.674237 -0.672811 -0.142735 -0.725883
-0.358102 -0.922314 -0.671053 -0.813013 0.021241 -0.581835
-0.361931 -0.923630 -0.659522 -0.831446 -0.493728 0.254707
-0.360915 -0.918364 -0.660591 -0.981964 0.186132 0.032991
-0.360153 -0.920936 -0.664948 -0.957091 0.062075 -0.283029
-0.355453 -0.928401 -0.671600 -0.674215 -0.607349 -0.420148
-0.359510 -0.926420 -0.667952 -0.777581 -0.608020 -0.160100
-0.354020 -0.922383 -0.657499 0.148686 -0.887539 0.436018
-0.355245 -0.920242 -0.653074 -0.296304 -0.476363 0.827815
-0.359058 -0.922307 -0.655627 -0.482437 -0.519639 0.705130
-0.357227 -0.916306 -0.669222 -0.871059 0.257607 -0.418134
-0.354141 -0.924286 -0.674237 0.861714 0.048977 0.505025
-0.354573 -0.918867 -0.674025 0.861714 0.048977 0.505025
-0.355453 -0.928401 -0.671600 0.861714 0.048977 0.505025
-0.354573 -0.918867 -0.674025 0.992806 0.119477 -0.007795
-0.354020 -0.922383 -0.657499 0.992806 0.119477 -0.007795
-0.353798 -0.924532 -0.662151 0.992806 0.119477 -0.007795
-0.353798 -0.924532 -0.662151 0.913916 0.293609 -0.280270
-0.354573 -0.926719 -0.666969 0.913916 0.293609 -0.280270
-0.355453 -0.928401 -0.671600 0.913916 0.293609 -0.280270
-0.354573 -0.918867 -0.674025 0.984938 -0.122035 -0.122495
-0.353798 -0.924532 -0.662151 0.984938 -0.122035 -0.122495
-0.355453 -0.928401 -0.671600 0.984938 -0.122035 -0.122495
-0.358664 -0.926154 -0.662819 -0.366192 -0.877041 0.310892
-0.354573 -0.926719 -0.666969 0.002655 -0.960967 0.276620
-0.353798 -0.924532 -0.662151 0.158696 -0.882931 0.441786
-0.358634 -0.914118 -0.664057 -0.915647 0.214118 -0.340098
-0.357227 -0.916306 -0.669222 0.860329 0.509402 0.018535
-0.358634 -0.914118 -0.664057 0.860329 0.509402 0.018535
-0.355245 -0.920242 -0.653074 0.860329 0.509402 0.018535
-0.360915 -0.918364 -0.660591 0.804154 0.223852 -0.550660
-0.359093 -0.915586 -0.656802 0.804154 0.223852 -0.550660
-0.355245 -0.920242 -0.653074 0.804154 0.223852 -0.550660
-0.358634 -0.914118 -0.664057 -0.479877 0.694891 0.535579
-0.360915 -0.918364 -0.660591 -0.479877 0.694891 0.535579
-0.355245 -0.920242 -0.653074 -0.479877 0.694891 0.535579
-0.359093 -0.915586 -0.656802 -0.818781 0.094577 0.566210
-0.357227 -0.916306 -0.669222 0.827153 0.558415 0.063175
-0.355245 -0.920242 -0.653074 0.827153 0.558415 0.063175
-0.354020 -0.922383 -0.657499 0.827153 0.558415 0.063175
-0.354573 -0.918867 -0.674025 0.827153 0.558415 0.063175
3 0 1 2
3 3 4 5
3 6 7 1
3 8 9 10
3 5 11 2
3 12 13 14
3 15 16 17
3 18 19 20
3 21 22 23
3 7 24 5
3 25 7 6
3 10 4 3
3 24 7 25
3 26 8 10
3 5 24 3
3 24 26 3
3 5 2 7
3 7 2 1
3 4 11 5
3 11 0 2
3 11 4 27
3 26 24 25
3 28 29 30
3 31 32 33
3 34 35 36
3 37 4 10
3 26 10 3
4 38 39 40 41
3 9 37 10
