ply
format ascii 1.0
comment Created by Blender 2.69 (sub 10) - www.blender.org, source file: 'bunny_base.blend'
element vertex 139
property float x
property float y
property float z
property float nx
property float ny
property float nz
element face 87
property list uchar uint vertex_indices
end_header
-0.329870 -0.889215 -0.645709 -0.187414 0.501267 0.844722
-0.327898 -0.884315 -0.647260 0.182623 0.369732 0.910977
-0.332862 -0.882050 -0.648551 -0.263833 0.191412 0.945372
-0.313104 -0.891087 -0.638945 -0.584124 0.280190 0.761742
-0.317199 -0.892910 -0.641414 -0.604022 0.426435 0.673238
-0.314028 -0.897784 -0.637190 -0.525071 0.336039 0.781884
-0.328627 -0.894351 -0.637138 0.240181 0.883053 0.403058
-0.325416 -0.891640 -0.643920 0.213416 0.718589 0.661855
-0.330993 -0.892706 -0.641923 -0.069918 0.921842 0.381176
-0.316286 -0.888865 -0.646430 -0.459304 0.709555 0.534349
-0.320494 -0.892315 -0.645467 -0.043611 0.744072 0.666646
-0.323022 -0.895270 -0.639738 0.460707 0.658467 0.595050
-0.339165 -0.895916 -0.650679 -0.648678 -0.756571 0.082565
-0.328688 -0.904967 -0.651306 -0.648678 -0.756571 0.082565
-0.339013 -0.895486 -0.645546 -0.648678 -0.756571 0.082565
-0.328688 -0.904967 -0.651306 -0.472544 -0.772410 0.424365
-0.320962 -0.903515 -0.640059 -0.472544 -0.772410 0.424365
-0.321791 -0.900694 -0.635848 -0.472544 -0.772410 0.424365
-0.321791 -0.900694 -0.635848 -0.636272 -0.734041 -0.237365
-0.325655 -0.897710 -0.634719 -0.636272 -0.734041 -0.237365
-0.328627 -0.894351 -0.637138 -0.636272 -0.734041 -0.237365
-0.328627 -0.894351 -0.637138 -0.130855 -0.985605 0.107045
-0.333402 -0.893573 -0.635817 -0.130855 -0.985605 0.107045
-0.337641 -0.893511 -0.640423 -0.130855 -0.985605 0.107045
-0.328688 -0.904967 -0.651306 -0.472542 -0.772410 0.424367
-0.337641 -0.893511 -0.640423 -0.472542 -0.772410 0.424367
-0.339013 -0.895486 -0.645546 -0.472542 -0.772410 0.424367
-0.328688 -0.904967 -0.651306 -0.649644 -0.607041 0.457672
-0.321791 -0.900694 -0.635848 -0.649644 -0.607041 0.457672
-0.328627 -0.894351 -0.637138 -0.649644 -0.607041 0.457672
-0.328688 -0.904967 -0.651306 -0.281487 -0.767320 0.576182
-0.328627 -0.894351 -0.637138 -0.281487 -0.767320 0.576182
-0.337641 -0.893511 -0.640423 -0.281487 -0.767320 0.576182
-0.318417 -0.898784 -0.639380 -0.225715 0.302286 0.926084
-0.334797 -0.892195 -0.645418 -0.456252 0.755516 0.470107
-0.334112 -0.887004 -0.648079 -0.471511 0.246040 0.846797
-0.337577 -0.890606 -0.649833 -0.748009 0.211798 0.628925
-0.324107 -0.887935 -0.647311 0.460250 0.514664 0.723350
-0.340702 -0.891725 -0.654213 -0.756645 -0.146367 0.637196
-0.342597 -0.883838 -0.652555 -0.181188 -0.478530 0.859157
-0.318083 -0.880382 -0.656193 0.687460 0.296030 0.663106
-0.320622 -0.876076 -0.655697 0.677541 0.386853 0.625477
-0.324540 -0.878008 -0.650259 0.473037 0.174932 0.863460
-0.320622 -0.876076 -0.655697 0.327250 0.938821 -0.107346
-0.321117 -0.878739 -0.680497 0.327250 0.938821 -0.107346
-0.327742 -0.873057 -0.651003 0.327250 0.938821 -0.107346
-0.347854 -0.881544 -0.649343 0.208289 -0.575610 0.790704
-0.352724 -0.883934 -0.650208 0.152287 -0.595782 0.788537
-0.348422 -0.885978 -0.652584 0.191443 -0.589465 0.784753
-0.333402 -0.893573 -0.635817 0.048463 0.986053 0.159124
-0.337641 -0.893511 -0.640423 -0.274087 0.960021 0.056581
-0.343978 -0.887966 -0.655192 -0.581644 -0.638362 -0.504167
-0.348422 -0.885978 -0.652584 -0.581644 -0.638362 -0.504167
-0.352724 -0.883934 -0.650208 -0.581644 -0.638362 -0.504167
-0.343978 -0.887966 -0.655192 -0.581646 -0.638375 -0.504149
-0.325762 -0.881622 -0.684242 -0.581646 -0.638375 -0.504149
-0.340702 -0.891725 -0.654213 -0.581646 -0.638375 -0.504149
-0.343978 -0.887966 -0.655192 -0.581641 -0.638380 -0.504147
-0.352724 -0.883934 -0.650208 -0.581641 -0.638380 -0.504147
-0.325762 -0.881622 -0.684242 -0.581641 -0.638380 -0.504147
-0.325762 -0.881622 -0.684242 -0.581642 -0.638378 -0.504149
-0.328688 -0.904967 -0.651306 -0.581642 -0.638378 -0.504149
-0.339165 -0.895916 -0.650679 -0.581642 -0.638378 -0.504149
-0.340702 -0.891725 -0.654213 -0.581642 -0.638378 -0.504149
-0.337805 -0.884740 -0.650753 -0.381573 -0.001526 0.924314
-0.319969 -0.888016 -0.650412 0.403821 0.558000 0.724937
-0.336881 -0.879562 -0.650560 -0.235786 0.055971 0.970183
-0.343021 -0.879483 -0.649566 0.067476 -0.438704 0.896084
-0.339013 -0.895486 -0.645546 -0.758690 0.637928 0.131840
-0.339165 -0.895916 -0.650679 -0.938047 0.240791 0.249123
-0.327742 -0.873057 -0.651003 -0.541370 0.029727 -0.840259
-0.323543 -0.872304 -0.653682 -0.541370 0.029727 -0.840259
-0.320622 -0.876076 -0.655697 -0.541370 0.029727 -0.840259
-0.352724 -0.883934 -0.650208 -0.389301 0.885285 -0.254390
-0.347854 -0.881544 -0.649343 -0.389301 0.885285 -0.254390
-0.321117 -0.878739 -0.680497 -0.389301 0.885285 -0.254390
-0.347854 -0.881544 -0.649343 -0.151488 0.251799 -0.955849
-0.343021 -0.879483 -0.649566 -0.151488 0.251799 -0.955849
-0.336881 -0.879562 -0.650560 -0.151488 0.251799 -0.955849
-0.336881 -0.879562 -0.650560 0.216763 0.005281 -0.976210
-0.334227 -0.875068 -0.649946 0.216763 0.005281 -0.976210
-0.329508 -0.877448 -0.648911 0.216763 0.005281 -0.976210
-0.329508 -0.877448 -0.648911 -0.932675 0.252050 -0.258046
-0.327742 -0.873057 -0.651003 -0.932675 0.252050 -0.258046
-0.321117 -0.878739 -0.680497 -0.932675 0.252050 -0.258046
-0.347854 -0.881544 -0.649343 -0.184882 0.980236 -0.070404
-0.336881 -0.879562 -0.650560 -0.184882 0.980236 -0.070404
-0.321117 -0.878739 -0.680497 -0.184882 0.980236 -0.070404
-0.336881 -0.879562 -0.650560 -0.251940 0.961896 -0.106219
-0.329508 -0.877448 -0.648911 -0.251940 0.961896 -0.106219
-0.321117 -0.878739 -0.680497 -0.251940 0.961896 -0.106219
-0.318083 -0.880382 -0.656193 0.855470 0.512804 -0.072134
-0.321117 -0.878739 -0.680497 0.855470 0.512804 -0.072134
-0.320622 -0.876076 -0.655697 0.855470 0.512804 -0.072134
-0.352724 -0.883934 -0.650208 -0.370692 0.899160 -0.232591
-0.321117 -0.878739 -0.680497 -0.370692 0.899160 -0.232591
-0.325762 -0.881622 -0.684242 -0.370692 0.899160 -0.232591
-0.314028 -0.897784 -0.637190 0.690057 -0.614095 -0.383025
-0.325762 -0.881622 -0.684242 0.690057 -0.614095 -0.383025
-0.321117 -0.878739 -0.680497 0.690057 -0.614095 -0.383025
-0.321372 -0.882727 -0.651978 0.609455 0.293222 0.736564
-0.329508 -0.877448 -0.648911 0.127720 0.215827 0.968017
-0.327742 -0.873057 -0.651003 0.453810 0.412366 0.789911
-0.317590 -0.885830 -0.654247 0.672201 0.337565 0.658925
-0.343978 -0.887966 -0.655192 -0.286905 -0.445662 0.847957
-0.325655 -0.897710 -0.634719 0.499069 0.647053 0.576373
-0.334227 -0.875068 -0.649946 -0.254006 0.141514 0.956755
-0.319969 -0.888016 -0.650412 0.400499 -0.747570 -0.529848
-0.316286 -0.888865 -0.646430 0.400499 -0.747570 -0.529848
-0.317199 -0.892910 -0.641414 0.400499 -0.747570 -0.529848
-0.317199 -0.892910 -0.641414 0.584130 -0.280193 -0.761764
-0.313104 -0.891087 -0.638945 0.584130 -0.280193 -0.761764
-0.314028 -0.897784 -0.637190 0.584130 -0.280193 -0.761764
-0.317590 -0.885830 -0.654247 0.991602 0.046539 -0.120663
-0.321117 -0.878739 -0.680497 0.991602 0.046539 -0.120663
-0.318083 -0.880382 -0.656193 0.991602 0.046539 -0.120663
-0.317590 -0.885830 -0.654247 -0.024891 0.874984 0.483511
-0.319969 -0.888016 -0.650412 -0.024891 0.874984 0.483511
-0.317199 -0.892910 -0.641414 -0.024891 0.874984 0.483511
-0.317199 -0.892910 -0.641414 0.763674 0.627688 0.151028
-0.314028 -0.897784 -0.637190 0.763674 0.627688 0.151028
-0.321117 -0.878739 -0.680497 0.763674 0.627688 0.151028
-0.317590 -0.885830 -0.654247 0.916378 -0.338035 -0.214438
-0.317199 -0.892910 -0.641414 0.916378 -0.338035 -0.214438
-0.321117 -0.878739 -0.680497 0.916378 -0.338035 -0.214438
-0.321791 -0.900694 -0.635848 0.878567 0.393445 0.270699
-0.321791 -0.900694 -0.635848 0.636219 0.734062 0.237342
-0.328627 -0.894351 -0.637138 0.636219 0.734062 0.237342
-0.325655 -0.897710 -0.634719 0.636219 0.734062 0.237342
-0.320962 -0.903515 -0.640059 0.716300 0.152348 0.680898
-0.318417 -0.898784 -0.639380 0.791501 -0.354261 -0.498021
-0.320962 -0.903515 -0.640059 0.791501 -0.354261 -0.498021
-0.328688 -0.904967 -0.651306 0.791501 -0.354261 -0.498021
-0.328688 -0.904967 -0.651306 0.677376 -0.627230 -0.384374
-0.325762 -0.881622 -0.684242 0.677376 -0.627230 -0.384374
-0.314028 -0.897784 -0.637190 0.677376 -0.627230 -0.384374
-0.318417 -0.898784 -0.639380 -0.047106 -0.869654 0.491409
-0.328688 -0.904967 -0.651306 -0.047106 -0.869654 0.491409
-0.314028 -0.897784 -0.637190 -0.047106 -0.869654 0.491409
3 0 1 2
3 3 4 5
3 6 7 8
3 4 9 10
3 11 7 6
3 12 13 14
3 15 16 17
3 18 19 20
3 21 22 23
3 24 25 26
3 27 28 29
3 30 31 32
3 33 10 11
3 34 35 36
3 37 1 7
3 38 36 39
3 4 10 33
3 33 5 4
3 40 41 42
3 43 44 45
3 46 47 48
3 49 8 50
3 51 52 53
3 54 55 56
3 57 58 59
4 60 61 62 63
3 35 64 36
3 9 65 10
3 10 65 37
3 2 66 35
3 11 10 7
3 67 46 39
3 0 2 35
3 68 36 69
3 70 71 72
3 36 38 69
3 73 74 75
3 76 77 78
3 79 80 81
3 82 83 84
3 85 86 87
3 88 89 90
3 7 1 0
3 91 92 93
3 94 95 96
3 36 64 39
3 97 98 99
3 34 36 68
3 10 37 7
3 100 42 101
3 42 102 101
3 103 100 65
3 38 39 104
3 8 34 50
3 105 11 6
3 106 2 101
3 34 68 50
3 37 100 1
3 66 2 106
3 49 6 8
3 107 108 109
3 110 111 112
3 113 114 115
3 116 117 118
3 119 120 121
3 122 123 124
3 1 101 2
3 105 125 11
3 7 0 8
3 67 64 66
3 35 66 64
3 126 127 128
3 41 102 42
3 65 100 37
3 100 101 1
3 8 0 34
3 129 33 11
3 130 131 132
3 133 134 135
3 136 137 138
3 39 64 67
3 34 0 35
3 129 11 125
3 40 42 100
3 40 100 103
3 39 46 48
3 39 48 104
