ply
format ascii 1.0
comment Created by Blender 2.69 (sub 10) - www.blender.org, source file: 'bunny_base.blend'
element vertex 107
property float x
property float y
property float z
property float nx
property float ny
property float nz
element face 65
property list uchar uint vertex_indices
end_header
-0.351506 -0.840458 -0.710521 -0.941627 -0.272238 -0.198054
-0.349349 -0.862788 -0.690082 -0.941627 -0.272238 -0.198054
-0.353270 -0.837104 -0.706746 -0.941627 -0.272238 -0.198054
-0.349349 -0.862788 -0.690082 -0.997632 0.056869 0.038678
-0.347662 -0.830849 -0.693518 -0.997632 0.056869 0.038678
-0.347957 -0.832358 -0.698908 -0.997632 0.056869 0.038678
-0.347957 -0.832358 -0.698908 -0.218199 -0.762160 0.609509
-0.351443 -0.834328 -0.702619 -0.218199 -0.762160 0.609509
-0.353270 -0.837104 -0.706746 -0.218199 -0.762160 0.609509
-0.349349 -0.862788 -0.690082 -0.861182 0.177548 0.476280
-0.347957 -0.832358 -0.698908 -0.861182 0.177548 0.476280
-0.353270 -0.837104 -0.706746 -0.861182 0.177548 0.476280
-0.346005 -0.835096 -0.703736 -0.191900 0.858547 -0.475387
-0.347957 -0.832358 -0.698908 -0.044801 0.925901 -0.375011
-0.341660 -0.832655 -0.701706 -0.290719 0.894742 -0.338969
-0.357973 -0.852704 -0.716145 0.314785 0.601049 0.734609
-0.353163 -0.852705 -0.718130 0.314785 0.601049 0.734609
-0.348414 -0.852319 -0.720556 0.314785 0.601049 0.734609
-0.343584 -0.852007 -0.722806 0.314785 0.601049 0.734609
-0.336044 -0.846930 -0.725826 -0.542405 0.434095 -0.719260
-0.334254 -0.850697 -0.728731 -0.479415 0.381664 -0.790216
-0.339082 -0.851280 -0.726084 -0.547044 0.428114 -0.719321
-0.342958 -0.831658 -0.696146 0.024415 0.981872 -0.187933
-0.341177 -0.839685 -0.716339 -0.547349 0.616871 -0.565539
-0.337751 -0.843735 -0.722048 -0.553697 0.460646 -0.693686
-0.344210 -0.843580 -0.717712 -0.471023 0.568407 -0.674520
-0.336721 -0.833161 -0.711829 -0.542619 0.750053 -0.378063
-0.341473 -0.836736 -0.711891 -0.523362 0.726341 -0.445509
-0.341491 -0.834380 -0.706946 -0.470748 0.814173 -0.339824
-0.345761 -0.840700 -0.712870 -0.409619 0.707816 -0.575457
-0.324308 -0.857323 -0.710532 -0.018924 -0.944685 -0.327432
-0.325258 -0.861369 -0.698805 -0.018924 -0.944685 -0.327432
-0.344867 -0.864876 -0.687553 -0.018924 -0.944685 -0.327432
-0.357016 -0.847129 -0.714767 -0.186621 0.418043 -0.889035
-0.352045 -0.848228 -0.716058 -0.288278 0.458907 -0.840388
-0.353163 -0.852705 -0.718130 -0.344859 0.413892 -0.842433
-0.348959 -0.844286 -0.715109 -0.331919 0.594562 -0.732292
-0.347269 -0.847571 -0.718509 -0.448439 0.469497 -0.760552
-0.355772 -0.842339 -0.712418 -0.124393 0.580706 -0.804529
-0.351506 -0.840458 -0.710521 -0.119480 0.751640 -0.648640
-0.335541 -0.835516 -0.717358 -0.560198 0.664724 -0.494247
-0.340671 -0.847877 -0.722520 -0.525193 0.444441 -0.725669
-0.343584 -0.852007 -0.722806 -0.485214 0.422468 -0.765557
-0.343345 -0.831017 -0.690395 -0.517986 0.106265 0.848763
-0.347662 -0.830849 -0.693518 -0.517986 0.106265 0.848763
-0.349349 -0.862788 -0.690082 -0.517986 0.106265 0.848763
-0.344867 -0.864876 -0.687553 -0.517986 0.106265 0.848763
-0.348414 -0.852319 -0.720556 -0.424909 0.448592 -0.786248
-0.357973 -0.852704 -0.716145 -0.280871 -0.922705 -0.264060
-0.344867 -0.864876 -0.687553 -0.280871 -0.922705 -0.264060
-0.349349 -0.862788 -0.690082 -0.280871 -0.922705 -0.264060
-0.336803 -0.831156 -0.706761 0.903162 0.415992 0.106064
-0.325258 -0.861369 -0.698805 0.903162 0.415992 0.106064
-0.324308 -0.857323 -0.710532 0.903162 0.415992 0.106064
-0.336721 -0.833161 -0.711829 0.903162 0.415992 0.106064
-0.343345 -0.831017 -0.690395 0.490175 0.051013 0.870130
-0.344867 -0.864876 -0.687553 0.490175 0.051013 0.870130
-0.325258 -0.861369 -0.698805 0.490175 0.051013 0.870130
-0.347175 -0.838146 -0.708425 -0.249794 0.803339 -0.540544
-0.353270 -0.837104 -0.706746 -0.030183 0.796625 -0.603687
-0.351443 -0.834328 -0.702619 0.007660 0.850826 -0.525346
-0.336803 -0.831156 -0.706761 -0.531663 0.790460 -0.304086
-0.335298 -0.838985 -0.721608 -0.608264 0.505875 -0.611591
-0.357973 -0.852704 -0.716145 -0.365886 0.282022 -0.886868
-0.324308 -0.857323 -0.710532 -0.034528 -0.942178 -0.333329
-0.344867 -0.864876 -0.687553 -0.034528 -0.942178 -0.333329
-0.339082 -0.851280 -0.726084 -0.034528 -0.942178 -0.333329
-0.334254 -0.850697 -0.728731 -0.034528 -0.942178 -0.333329
-0.357973 -0.852704 -0.716145 -0.937326 0.076836 0.339878
-0.349349 -0.862788 -0.690082 -0.937326 0.076836 0.339878
-0.357016 -0.847129 -0.714767 -0.937326 0.076836 0.339878
-0.349349 -0.862788 -0.690082 -0.529391 0.544414 0.650660
-0.351506 -0.840458 -0.710521 -0.529391 0.544414 0.650660
-0.355772 -0.842339 -0.712418 -0.529391 0.544414 0.650660
-0.349349 -0.862788 -0.690082 -0.937325 0.076837 0.339878
-0.355772 -0.842339 -0.712418 -0.937325 0.076837 0.339878
-0.357016 -0.847129 -0.714767 -0.937325 0.076837 0.339878
-0.343584 -0.852007 -0.722806 -0.114233 -0.931869 -0.344342
-0.344867 -0.864876 -0.687553 -0.114233 -0.931869 -0.344342
-0.357973 -0.852704 -0.716145 -0.114233 -0.931869 -0.344342
-0.341660 -0.832655 -0.701706 0.859961 0.507423 0.054668
-0.342958 -0.831658 -0.696146 0.859961 0.507423 0.054668
-0.343345 -0.831017 -0.690395 0.859961 0.507423 0.054668
-0.325258 -0.861369 -0.698805 0.859961 0.507423 0.054668
-0.339082 -0.851280 -0.726084 -0.100032 -0.933474 -0.344412
-0.344867 -0.864876 -0.687553 -0.100032 -0.933474 -0.344412
-0.343584 -0.852007 -0.722806 -0.100032 -0.933474 -0.344412
-0.347662 -0.830849 -0.693518 0.064760 0.980438 -0.185705
-0.341660 -0.832655 -0.701706 0.594316 0.409402 0.692227
-0.325258 -0.861369 -0.698805 0.594316 0.409402 0.692227
-0.336803 -0.831156 -0.706761 0.594316 0.409402 0.692227
-0.336721 -0.833161 -0.711829 0.889582 0.456752 -0.004731
-0.324308 -0.857323 -0.710532 0.889582 0.456752 -0.004731
-0.335541 -0.835516 -0.717358 0.889582 0.456752 -0.004731
-0.324308 -0.857323 -0.710532 0.796760 0.557860 -0.232307
-0.334254 -0.850697 -0.728731 0.796760 0.557860 -0.232307
-0.336044 -0.846930 -0.725826 0.796760 0.557860 -0.232307
-0.337751 -0.843735 -0.722048 0.793799 -0.448103 0.411201
-0.335298 -0.838985 -0.721608 0.793799 -0.448103 0.411201
-0.335541 -0.835516 -0.717358 0.793799 -0.448103 0.411201
-0.324308 -0.857323 -0.710532 0.769422 0.615008 -0.172494
-0.336044 -0.846930 -0.725826 0.769422 0.615008 -0.172494
-0.337751 -0.843735 -0.722048 0.769422 0.615008 -0.172494
-0.324308 -0.857323 -0.710532 0.736503 0.174841 -0.653448
-0.337751 -0.843735 -0.722048 0.736503 0.174841 -0.653448
-0.335541 -0.835516 -0.717358 0.736503 0.174841 -0.653448
-0.343345 -0.831017 -0.690395 0.112613 0.988311 -0.102451
3 0 1 2
3 3 4 5
3 6 7 8
3 9 10 11
3 12 13 14
4 15 16 17 18
3 19 20 21
3 14 13 22
3 23 24 25
3 26 27 28
3 29 23 25
3 30 31 32
3 33 34 35
3 36 25 37
3 38 39 36
3 27 40 23
3 41 21 42
4 43 44 45 46
3 27 23 29
3 34 47 35
3 48 49 50
4 51 52 53 54
3 55 56 57
3 39 58 29
3 39 59 58
3 34 37 47
3 41 19 21
3 25 41 37
3 60 12 58
3 28 61 26
3 40 62 23
3 41 42 37
3 24 19 41
3 25 24 41
3 33 35 63
4 64 65 66 67
3 36 37 34
3 59 60 58
3 39 29 36
3 38 36 34
3 68 69 70
3 71 72 73
3 74 75 76
3 28 12 14
3 23 62 24
3 27 12 28
3 77 78 79
3 60 13 12
4 80 81 82 83
3 84 85 86
3 34 33 38
3 87 22 13
3 27 26 40
3 88 89 90
3 91 92 93
3 94 95 96
3 97 98 99
3 100 101 102
3 103 104 105
3 58 12 27
3 37 42 47
3 61 28 14
3 29 25 36
3 29 58 27
3 22 87 106
