ply
format ascii 1.0
comment Created by Blender 2.69 (sub 10) - www.blender.org, source file: 'bunny_base.blend'
element vertex 88
property float x
property float y
property float z
property float nx
property float ny
property float nz
element face 99
property list uchar uint vertex_indices
end_header
-0.369749 -0.797050 -0.734575 -0.361064 0.931181 0.050203
-0.369431 -0.797925 -0.728386 0.039552 0.954253 0.296335
-0.364854 -0.799700 -0.731803 0.768151 0.570086 0.291330
-0.356295 -0.814363 -0.734455 0.240333 -0.954375 -0.177068
-0.355555 -0.811900 -0.742442 0.039216 -0.955870 -0.291116
-0.350669 -0.812002 -0.741286 0.897855 -0.394604 -0.195227
-0.365191 -0.792927 -0.742274 -0.040529 0.967223 0.250649
-0.369765 -0.799681 -0.739799 -0.887020 0.259041 -0.382214
-0.362154 -0.803043 -0.737917 0.835780 0.470809 0.282388
-0.362027 -0.798049 -0.742579 0.866756 0.395764 0.303385
-0.363495 -0.798196 -0.737298 0.747917 0.540056 0.385907
-0.367423 -0.809037 -0.740077 -0.586871 -0.559557 -0.585192
-0.365190 -0.807069 -0.744251 -0.602924 -0.545183 -0.582385
-0.361136 -0.809973 -0.743578 -0.338145 -0.776818 -0.531175
-0.372447 -0.800502 -0.722984 -0.191015 0.940764 0.280068
-0.375632 -0.803185 -0.718738 -0.434431 0.772301 0.463424
-0.370697 -0.802517 -0.717785 0.211737 0.680960 0.701010
-0.365191 -0.792927 -0.742274 0.241977 0.205975 -0.948168
-0.362027 -0.798049 -0.742579 0.241977 0.205975 -0.948168
-0.367450 -0.797274 -0.743795 0.241977 0.205975 -0.948168
-0.359940 -0.802667 -0.742551 0.231005 0.098345 -0.967969
-0.356121 -0.805895 -0.741967 0.231005 0.098345 -0.967969
-0.350669 -0.812002 -0.741286 0.231005 0.098345 -0.967969
-0.355555 -0.811900 -0.742442 -0.198871 -0.856723 -0.475895
-0.358992 -0.813034 -0.738964 -0.198871 -0.856723 -0.475895
-0.361136 -0.809973 -0.743578 -0.198871 -0.856723 -0.475895
-0.361136 -0.809973 -0.743578 0.231044 0.098383 -0.967956
-0.365190 -0.807069 -0.744251 0.231044 0.098383 -0.967956
-0.367398 -0.802409 -0.744305 0.231044 0.098383 -0.967956
-0.362027 -0.798049 -0.742579 0.231033 0.098377 -0.967960
-0.367398 -0.802409 -0.744305 0.231033 0.098377 -0.967960
-0.367450 -0.797274 -0.743795 0.231033 0.098377 -0.967960
-0.359940 -0.802667 -0.742551 0.231031 0.098372 -0.967961
-0.350669 -0.812002 -0.741286 0.231031 0.098372 -0.967961
-0.355555 -0.811900 -0.742442 0.231031 0.098372 -0.967961
-0.355555 -0.811900 -0.742442 0.231036 0.098375 -0.967959
-0.361136 -0.809973 -0.743578 0.231036 0.098375 -0.967959
-0.367398 -0.802409 -0.744305 0.231036 0.098375 -0.967959
-0.362027 -0.798049 -0.742579 0.231034 0.098376 -0.967960
-0.359940 -0.802667 -0.742551 0.231034 0.098376 -0.967960
-0.367398 -0.802409 -0.744305 0.231034 0.098376 -0.967960
-0.359940 -0.802667 -0.742551 0.231034 0.098373 -0.967960
-0.355555 -0.811900 -0.742442 0.231034 0.098373 -0.967960
-0.367398 -0.802409 -0.744305 0.231034 0.098373 -0.967960
-0.368283 -0.808296 -0.715357 0.608936 0.509720 0.607746
-0.362896 -0.818328 -0.724634 0.348399 -0.932920 -0.090701
-0.358185 -0.815955 -0.727849 0.492508 -0.869930 0.025330
-0.361291 -0.817108 -0.719503 0.766808 -0.523270 0.371715
-0.366109 -0.801136 -0.726248 0.750877 0.540513 0.379437
-0.375632 -0.803185 -0.718738 -0.470891 -0.874796 0.113986
-0.377184 -0.804654 -0.724172 -0.470891 -0.874796 0.113986
-0.366050 -0.808494 -0.719897 -0.470891 -0.874796 0.113986
-0.368283 -0.808296 -0.715357 -0.470891 -0.874796 0.113986
-0.358992 -0.813034 -0.738964 -0.050966 -0.916471 -0.396771
-0.363978 -0.812268 -0.738346 -0.298624 -0.784387 -0.543626
-0.361602 -0.816201 -0.731747 0.088656 -0.940611 -0.327616
-0.356121 -0.805895 -0.741967 0.554277 0.806513 0.205512
-0.353339 -0.808050 -0.737020 0.582263 0.673452 0.455397
-0.361740 -0.806025 -0.733379 0.589984 0.736442 0.330943
-0.364682 -0.805351 -0.729388 0.792291 0.516465 0.324778
-0.360736 -0.808128 -0.727351 0.269875 0.948027 0.168371
-0.353712 -0.813267 -0.729996 0.928220 -0.285958 0.237861
-0.356091 -0.808306 -0.731488 0.599567 0.765252 0.234199
-0.354450 -0.808942 -0.726536 0.786309 0.545640 0.289682
-0.351296 -0.812705 -0.735657 0.892941 -0.323985 0.312479
-0.359940 -0.802667 -0.742551 0.710105 0.581561 0.396802
-0.358439 -0.806504 -0.737158 0.417524 0.842952 0.339213
-0.366247 -0.817373 -0.728764 -0.067537 -0.920072 -0.385846
-0.366128 -0.814540 -0.734071 -0.254585 -0.814356 -0.521500
-0.357699 -0.813580 -0.723002 0.820582 -0.299936 0.486496
-0.360874 -0.808505 -0.720031 0.423933 0.714530 0.556505
-0.366050 -0.808494 -0.719897 0.504105 0.693808 0.514237
-0.365466 -0.806992 -0.724702 0.721549 0.648488 0.242500
-0.362582 -0.813854 -0.715662 -0.673656 -0.674510 -0.302032
-0.368283 -0.808296 -0.715357 -0.673656 -0.674510 -0.302032
-0.366050 -0.808494 -0.719897 -0.673656 -0.674510 -0.302032
-0.362582 -0.813854 -0.715662 0.665395 0.196356 0.720176
-0.374425 -0.801083 -0.727687 -0.773247 0.631062 -0.061617
-0.367450 -0.797274 -0.743795 -0.887967 0.340129 -0.309519
-0.370347 -0.811297 -0.735087 -0.628437 -0.529252 -0.569994
-0.373492 -0.801236 -0.732734 -0.885189 0.342967 -0.314280
-0.370325 -0.814741 -0.731235 -0.467086 -0.709738 -0.527299
-0.373768 -0.811093 -0.730246 -0.789453 -0.356853 -0.499374
-0.372998 -0.806279 -0.734094 -0.856166 -0.139439 -0.497452
-0.370601 -0.805062 -0.738512 -0.830500 -0.172857 -0.529466
-0.377184 -0.804654 -0.724172 -0.842158 0.523545 -0.129002
-0.375869 -0.806844 -0.728655 -0.912351 0.070498 -0.403241
-0.367398 -0.802409 -0.744305 -0.835597 -0.139470 -0.531266
3 0 1 2
3 3 4 5
3 6 7 0
3 8 9 10
3 11 12 13
3 14 15 16
3 17 18 19
3 20 21 22
3 23 24 25
3 26 27 28
3 29 30 31
3 32 33 34
3 35 36 37
3 38 39 40
3 41 42 43
3 44 16 15
3 45 46 47
3 48 1 14
4 49 50 51 52
3 2 10 0
3 53 54 13
3 55 53 3
3 5 56 57
3 58 59 60
3 16 48 14
3 61 62 63
3 5 57 64
3 65 8 66
3 56 65 66
3 57 66 64
3 45 67 55
3 57 56 66
3 65 9 8
3 68 54 53
3 64 57 62
3 69 63 70
3 57 62 61
3 62 60 63
3 63 60 70
3 66 8 58
3 44 71 16
3 58 10 59
3 60 72 70
3 60 59 72
3 62 58 60
3 10 2 59
3 8 10 58
3 46 55 3
3 59 2 48
3 61 63 69
3 66 58 62
3 73 74 75
3 48 16 71
3 64 62 61
3 72 48 71
3 76 70 71
3 57 66 62
3 70 72 71
3 47 69 76
3 76 69 70
3 59 48 72
3 2 1 48
3 47 46 69
3 61 69 46
3 3 61 46
3 64 61 3
3 0 77 1
3 78 7 6
3 79 11 68
3 1 77 14
3 10 9 6
3 0 80 77
3 10 6 0
3 45 55 46
3 11 54 68
3 81 68 67
3 82 83 79
3 82 79 81
3 11 84 12
3 15 77 85
3 81 79 68
3 54 11 13
3 86 85 77
3 87 7 78
3 83 7 84
3 80 7 83
3 86 83 82
3 86 80 83
3 77 80 86
3 14 77 15
3 80 0 7
3 84 7 87
3 53 4 3
3 12 84 87
3 84 11 79
3 68 55 67
3 83 84 79
3 5 64 3
3 68 53 55
