ply
format ascii 1.0
comment Created by Blender 2.69 (sub 10) - www.blender.org, source file: 'bunny_base.blend'
element vertex 130
property float x
property float y
property float z
property float nx
property float ny
property float nz
element face 84
property list uchar uint vertex_indices
end_header
-0.335440 -0.926428 -0.685743 0.697439 -0.668691 0.257576
-0.336577 -0.925321 -0.678804 0.591723 -0.765130 0.253822
-0.339302 -0.928192 -0.682765 0.404553 -0.853298 0.328867
-0.349154 -0.917587 -0.679103 -0.683554 -0.015412 -0.729698
-0.352819 -0.920835 -0.675893 -0.678549 0.037233 -0.733573
-0.352272 -0.915849 -0.675539 -0.714866 0.127201 -0.687582
-0.338900 -0.930190 -0.688001 0.438490 -0.827937 0.349590
-0.343106 -0.930383 -0.685251 -0.561327 -0.797784 0.220008
-0.345866 -0.921128 -0.681773 -0.803003 0.051424 -0.593707
-0.345601 -0.916228 -0.683024 -0.798975 -0.127689 -0.587634
-0.341520 -0.916420 -0.689242 -0.861141 0.013337 -0.508133
-0.338953 -0.921940 -0.667664 0.283364 -0.888424 0.361064
-0.334022 -0.920886 -0.668878 0.331126 -0.825465 0.457045
-0.339159 -0.919940 -0.662645 0.379986 -0.815485 0.436537
-0.348629 -0.920573 -0.657128 -0.054232 0.998527 -0.001846
-0.344159 -0.920335 -0.659763 -0.054232 0.998527 -0.001846
-0.352819 -0.920835 -0.675893 -0.054232 0.998527 -0.001846
-0.344159 -0.920335 -0.659763 -0.198450 0.929463 0.310993
-0.324975 -0.908261 -0.683605 -0.198450 0.929463 0.310993
-0.340987 -0.909716 -0.689476 -0.198450 0.929463 0.310993
-0.340987 -0.909716 -0.689476 0.345969 0.525139 0.777518
-0.344344 -0.912192 -0.686310 0.345969 0.525139 0.777518
-0.345601 -0.916228 -0.683024 0.345969 0.525139 0.777518
-0.345601 -0.916228 -0.683024 -0.745568 0.027656 -0.665855
-0.349154 -0.917587 -0.679103 -0.745568 0.027656 -0.665855
-0.352272 -0.915849 -0.675539 -0.745568 0.027656 -0.665855
-0.344159 -0.920335 -0.659763 -0.880120 0.063095 0.470539
-0.352272 -0.915849 -0.675539 -0.880120 0.063095 0.470539
-0.352819 -0.920835 -0.675893 -0.880120 0.063095 0.470539
-0.344159 -0.920335 -0.659763 -0.721291 0.673049 0.163538
-0.340987 -0.909716 -0.689476 -0.721291 0.673049 0.163538
-0.345601 -0.916228 -0.683024 -0.721291 0.673049 0.163538
-0.344159 -0.920335 -0.659763 0.229077 0.960917 0.155443
-0.345601 -0.916228 -0.683024 0.229077 0.960917 0.155443
-0.352272 -0.915849 -0.675539 0.229077 0.960917 0.155443
-0.341485 -0.926610 -0.677073 0.310831 -0.883816 0.349620
-0.346276 -0.928928 -0.679453 -0.313913 -0.941130 -0.125370
-0.332856 -0.921856 -0.685377 0.669271 -0.726585 0.155339
-0.335790 -0.923231 -0.673620 0.418073 -0.880001 0.225318
-0.340710 -0.924380 -0.672203 0.306070 -0.883358 0.354900
-0.346476 -0.927073 -0.673963 0.254280 -0.910428 0.326243
-0.350896 -0.928532 -0.675952 -0.073153 -0.995849 -0.053896
-0.344525 -0.925378 -0.684842 -0.959166 -0.038789 -0.280068
-0.343324 -0.921422 -0.690590 -0.956542 0.219581 -0.191717
-0.344872 -0.926344 -0.690194 -0.992706 0.037080 0.114444
-0.349286 -0.924491 -0.678715 -0.693106 -0.140965 -0.706900
-0.322906 -0.915252 -0.676673 0.444624 -0.894101 0.053255
-0.332087 -0.919602 -0.680495 0.820093 0.023621 -0.571703
-0.344159 -0.920335 -0.659763 0.282876 -0.884152 0.371807
-0.349510 -0.922875 -0.661677 0.289621 -0.879757 0.376965
-0.343948 -0.922326 -0.664777 0.288461 -0.883602 0.368786
-0.345706 -0.924805 -0.669192 0.298624 -0.879208 0.371166
-0.330345 -0.917389 -0.666197 0.211676 -0.792535 0.571856
-0.327136 -0.919305 -0.670798 0.361888 -0.921445 0.141240
-0.325253 -0.916848 -0.666302 0.103702 -0.890469 0.443007
-0.344442 -0.931514 -0.690312 -0.958373 -0.085971 0.272195
-0.323244 -0.917430 -0.682078 0.277749 -0.896512 0.345103
-0.328285 -0.917433 -0.678030 0.452956 -0.209754 -0.866482
-0.328045 -0.919688 -0.684063 0.287820 -0.891018 0.350993
-0.344344 -0.912192 -0.686310 -0.773675 -0.081179 -0.628315
-0.340987 -0.909716 -0.689476 -0.697562 0.030335 -0.715842
-0.330952 -0.921309 -0.673553 -0.374248 0.080508 0.923795
-0.350406 -0.925169 -0.666294 0.299387 -0.877132 0.375439
-0.324975 -0.908261 -0.683605 0.346934 -0.055663 -0.936236
-0.323244 -0.917430 -0.682078 0.346934 -0.055663 -0.936236
-0.328045 -0.919688 -0.684063 0.346934 -0.055663 -0.936236
-0.332856 -0.921856 -0.685377 0.346934 -0.055663 -0.936236
-0.335404 -0.917094 -0.664750 0.485977 -0.556444 0.673910
-0.339159 -0.919940 -0.662645 0.500446 -0.019864 0.865540
-0.335404 -0.917094 -0.664750 0.500446 -0.019864 0.865540
-0.344159 -0.920335 -0.659763 0.500446 -0.019864 0.865540
-0.335404 -0.917094 -0.664750 0.192601 0.843365 0.501638
-0.330345 -0.917389 -0.666197 0.192601 0.843365 0.501638
-0.324975 -0.908261 -0.683605 0.192601 0.843365 0.501638
-0.335404 -0.917094 -0.664750 -0.139288 0.924094 0.355878
-0.324975 -0.908261 -0.683605 -0.139288 0.924094 0.355878
-0.344159 -0.920335 -0.659763 -0.139288 0.924094 0.355878
-0.351343 -0.927420 -0.671083 0.207099 -0.949461 0.235817
-0.348629 -0.920573 -0.657128 0.276925 -0.877895 0.390606
-0.348629 -0.920573 -0.657128 -0.974097 -0.058859 0.218337
-0.352819 -0.920835 -0.675893 -0.974097 -0.058859 0.218337
-0.349510 -0.922875 -0.661677 -0.974097 -0.058859 0.218337
-0.352819 -0.920835 -0.675893 -0.718235 -0.174275 -0.673622
-0.349286 -0.924491 -0.678715 -0.718235 -0.174275 -0.673622
-0.350896 -0.928532 -0.675952 -0.718235 -0.174275 -0.673622
-0.350896 -0.928532 -0.675952 -0.626591 0.745339 -0.227714
-0.351343 -0.927420 -0.671083 -0.626591 0.745339 -0.227714
-0.350406 -0.925169 -0.666294 -0.626591 0.745339 -0.227714
-0.352819 -0.920835 -0.675893 -0.974097 -0.058862 0.218336
-0.350406 -0.925169 -0.666294 -0.974097 -0.058862 0.218336
-0.349510 -0.922875 -0.661677 -0.974097 -0.058862 0.218336
-0.352819 -0.920835 -0.675893 -0.961345 -0.241203 0.132805
-0.350896 -0.928532 -0.675952 -0.961345 -0.241203 0.132805
-0.350406 -0.925169 -0.666294 -0.961345 -0.241203 0.132805
-0.323244 -0.917430 -0.682078 0.978317 0.163595 -0.127011
-0.324975 -0.908261 -0.683605 0.978317 0.163595 -0.127011
-0.322906 -0.915252 -0.676673 0.978317 0.163595 -0.127011
-0.324975 -0.908261 -0.683605 -0.085805 0.893010 0.441781
-0.330345 -0.917389 -0.666197 -0.085805 0.893010 0.441781
-0.325253 -0.916848 -0.666302 -0.085805 0.893010 0.441781
-0.325253 -0.916848 -0.666302 0.734122 -0.676174 0.062084
-0.327136 -0.919305 -0.670798 0.734122 -0.676174 0.062084
-0.322906 -0.915252 -0.676673 0.734122 -0.676174 0.062084
-0.324975 -0.908261 -0.683605 0.822027 0.504715 0.263693
-0.325253 -0.916848 -0.666302 0.822027 0.504715 0.263693
-0.322906 -0.915252 -0.676673 0.822027 0.504715 0.263693
-0.343324 -0.921422 -0.690590 0.943600 -0.306861 -0.124323
-0.341520 -0.916420 -0.689242 0.943600 -0.306861 -0.124323
-0.344872 -0.926344 -0.690194 0.943600 -0.306861 -0.124323
-0.341520 -0.916420 -0.689242 0.348478 -0.060365 -0.935371
-0.340987 -0.909716 -0.689476 0.348478 -0.060365 -0.935371
-0.324975 -0.908261 -0.683605 0.348478 -0.060365 -0.935371
-0.332856 -0.921856 -0.685377 0.761411 -0.388929 -0.518640
-0.335440 -0.926428 -0.685743 0.761411 -0.388929 -0.518640
-0.338900 -0.930190 -0.688001 0.761411 -0.388929 -0.518640
-0.338900 -0.930190 -0.688001 0.159160 -0.971603 0.175087
-0.343106 -0.930383 -0.685251 0.159160 -0.971603 0.175087
-0.344442 -0.931514 -0.690312 0.159160 -0.971603 0.175087
-0.341520 -0.916420 -0.689242 0.171213 0.036646 -0.984552
-0.344442 -0.931514 -0.690312 0.171213 0.036646 -0.984552
-0.344872 -0.926344 -0.690194 0.171213 0.036646 -0.984552
-0.341520 -0.916420 -0.689242 0.359608 -0.087330 -0.929008
-0.324975 -0.908261 -0.683605 0.359608 -0.087330 -0.929008
-0.332856 -0.921856 -0.685377 0.359608 -0.087330 -0.929008
-0.332856 -0.921856 -0.685377 0.382004 0.013868 -0.924056
-0.338900 -0.930190 -0.688001 0.382004 0.013868 -0.924056
-0.344442 -0.931514 -0.690312 0.382004 0.013868 -0.924056
-0.341520 -0.916420 -0.689242 0.400718 -0.012638 -0.916114
-0.332856 -0.921856 -0.685377 0.400718 -0.012638 -0.916114
-0.344442 -0.931514 -0.690312 0.400718 -0.012638 -0.916114
3 0 1 2
3 3 4 5
3 6 2 7
3 8 9 10
3 11 12 13
3 14 15 16
3 17 18 19
3 20 21 22
3 23 24 25
3 26 27 28
3 29 30 31
3 32 33 34
3 35 36 2
3 37 1 0
3 38 11 39
3 36 40 41
3 38 39 1
3 1 35 2
3 42 43 44
3 45 8 42
3 46 37 47
3 48 49 50
3 50 49 51
3 45 4 8
3 52 53 54
3 7 44 55
3 56 57 58
3 59 60 10
3 2 36 7
3 58 57 47
3 61 53 12
3 51 49 62
4 63 64 65 66
3 56 46 57
3 9 59 10
3 8 3 9
3 12 67 13
3 42 44 7
3 12 11 38
3 38 37 46
4 39 51 40 35
3 42 7 36
3 36 41 45
3 61 38 53
3 1 39 35
3 11 50 39
3 46 47 57
3 38 1 37
3 45 42 36
3 0 2 6
3 61 12 38
3 68 69 70
3 71 72 73
3 74 75 76
3 52 67 12
3 40 77 41
3 58 47 37
3 8 4 3
3 53 38 46
3 35 40 36
3 51 62 40
3 48 78 49
3 11 13 50
3 79 80 81
3 82 83 84
3 85 86 87
3 88 89 90
3 91 92 93
3 53 52 12
3 94 95 96
3 97 98 99
3 100 101 102
3 103 104 105
3 106 107 108
3 109 110 111
3 112 113 114
3 115 116 117
3 118 119 120
3 121 122 123
3 124 125 126
3 127 128 129
4 8 10 43 42
3 13 48 50
3 39 50 51
