ply
format ascii 1.0
comment Created by Blender 2.69 (sub 10) - www.blender.org, source file: 'bunny_base.blend'
element vertex 229
property float x
property float y
property float z
property float nx
property float ny
property float nz
element face 151
property list uchar uint vertex_indices
end_header
-0.349953 -0.910550 -0.681233 -0.716544 -0.577685 -0.390912
-0.355102 -0.902547 -0.685329 -0.608081 -0.755181 -0.244697
-0.349008 -0.908707 -0.685802 -0.588885 -0.665426 -0.458632
-0.356567 -0.913304 -0.666503 -0.704459 0.673086 -0.225074
-0.352917 -0.909557 -0.663758 -0.628925 0.770287 0.105106
-0.352237 -0.909295 -0.670223 -0.934965 0.351329 0.048738
-0.361650 -0.899355 -0.686398 -0.593851 0.464432 -0.656996
-0.353865 -0.876160 -0.677039 -0.593851 0.464432 -0.656996
-0.357518 -0.899235 -0.690049 -0.593851 0.464432 -0.656996
-0.345753 -0.907125 -0.689735 -0.317972 -0.698202 -0.641346
-0.351270 -0.904335 -0.689421 -0.515549 -0.704856 -0.487167
-0.348347 -0.901918 -0.694121 -0.287973 -0.694784 -0.658986
-0.367734 -0.895873 -0.665952 -0.243319 0.883104 -0.401152
-0.366756 -0.893544 -0.661419 -0.243319 0.883104 -0.401152
-0.366836 -0.898000 -0.671180 -0.243319 0.883104 -0.401152
-0.324851 -0.905517 -0.684113 0.990728 0.092953 0.099088
-0.325273 -0.893714 -0.690967 0.990728 0.092953 0.099088
-0.326906 -0.881797 -0.685820 0.990728 0.092953 0.099088
-0.357972 -0.891171 -0.655616 -0.045289 -0.671987 0.739158
-0.355278 -0.887828 -0.652914 0.004364 -0.618305 0.785882
-0.361378 -0.886940 -0.652912 -0.177374 -0.626209 0.759178
-0.352896 -0.891663 -0.656588 0.109256 -0.684408 0.720817
-0.358222 -0.900754 -0.681798 -0.409131 -0.911252 -0.046541
-0.353694 -0.905430 -0.681384 -0.826807 -0.558336 -0.067843
-0.354812 -0.902094 -0.676769 -0.644978 -0.756493 0.108005
-0.334604 -0.914486 -0.652990 0.352191 -0.240884 0.904398
-0.329347 -0.912541 -0.654519 0.352191 -0.240884 0.904398
-0.330284 -0.906662 -0.652588 0.352191 -0.240884 0.904398
-0.330284 -0.906662 -0.652588 0.240510 -0.453185 0.858358
-0.344379 -0.918183 -0.654721 0.240510 -0.453185 0.858358
-0.339460 -0.917117 -0.655537 0.240510 -0.453185 0.858358
-0.334604 -0.914486 -0.652990 -0.557214 0.267268 0.786181
-0.330284 -0.906662 -0.652588 -0.557214 0.267268 0.786181
-0.339460 -0.917117 -0.655537 -0.557214 0.267268 0.786181
-0.365710 -0.899757 -0.676529 -0.220740 -0.966643 0.129704
-0.363817 -0.899728 -0.681570 -0.199988 -0.971374 -0.128056
-0.360283 -0.901033 -0.676798 -0.203497 -0.976836 0.066103
-0.356597 -0.894863 -0.659787 0.012329 -0.805902 0.591876
-0.346988 -0.912160 -0.650300 -0.437147 0.754509 0.489456
-0.342707 -0.907307 -0.653318 -0.708090 0.697684 0.108707
-0.347553 -0.909503 -0.654899 -0.473128 0.800043 0.368847
-0.353865 -0.876160 -0.677039 -0.512368 0.481882 -0.710822
-0.346834 -0.877002 -0.682677 -0.512368 0.481882 -0.710822
-0.357518 -0.899235 -0.690049 -0.512368 0.481882 -0.710822
-0.351327 -0.912772 -0.652813 -0.489303 0.738762 0.463424
-0.363359 -0.897964 -0.667176 -0.211798 -0.917966 0.335337
-0.358296 -0.897897 -0.666065 -0.078555 -0.927366 0.365795
-0.361526 -0.895932 -0.661656 -0.171758 -0.852290 0.494003
-0.348652 -0.908018 -0.660594 -0.469710 0.801416 0.370190
-0.353011 -0.910812 -0.657443 -0.477462 0.809626 0.341258
-0.345942 -0.897990 -0.665549 -0.359081 -0.482437 0.798914
-0.341750 -0.896896 -0.661753 -0.716300 -0.505966 0.480483
-0.349540 -0.895119 -0.660918 0.311106 -0.628620 0.712760
-0.344050 -0.906125 -0.659724 -0.495712 0.753746 0.431379
-0.346190 -0.902951 -0.664820 -0.558550 0.402478 0.725242
-0.366836 -0.898000 -0.671180 -0.256233 -0.931974 0.256417
-0.367734 -0.895873 -0.665952 -0.292428 -0.858394 0.421430
-0.353363 -0.897064 -0.663762 -0.007660 -0.853725 0.520615
-0.350058 -0.905722 -0.666905 -0.796930 0.408002 0.445418
-0.350702 -0.900387 -0.668401 -0.488784 -0.477004 0.730399
-0.339977 -0.903902 -0.657416 -0.922086 0.370678 0.110965
-0.341692 -0.901938 -0.662430 -0.747917 0.259041 0.611133
-0.347521 -0.888793 -0.655414 0.147832 -0.598834 0.787072
-0.357049 -0.914630 -0.656151 -0.498520 0.744804 0.443495
-0.357518 -0.899235 -0.690049 -0.463088 -0.792901 -0.395978
-0.353248 -0.900437 -0.692602 -0.462630 -0.689535 -0.557176
-0.366756 -0.893544 -0.661419 -0.350566 -0.776208 0.524003
-0.362868 -0.892264 -0.657271 -0.232917 -0.679922 0.695273
-0.367733 -0.889938 -0.657982 -0.400800 -0.637043 0.658406
-0.352687 -0.907353 -0.675923 -0.982543 -0.174627 0.063784
-0.353854 -0.914007 -0.671835 -0.919126 0.258095 -0.297617
-0.358199 -0.913173 -0.661306 -0.509049 0.847041 0.152684
-0.342358 -0.902587 -0.650015 -0.928007 0.298013 -0.223548
-0.340182 -0.898826 -0.656526 -0.986114 -0.103854 0.129398
-0.346834 -0.877002 -0.682677 -0.063939 0.419728 -0.905395
-0.326906 -0.881797 -0.685820 -0.063939 0.419728 -0.905395
-0.348347 -0.901918 -0.694121 -0.063939 0.419728 -0.905395
-0.353248 -0.900437 -0.692602 -0.063939 0.419728 -0.905395
-0.326906 -0.881797 -0.685820 0.221911 0.947485 0.230279
-0.360798 -0.882666 -0.649585 0.221911 0.947485 0.230279
-0.355671 -0.883770 -0.649980 0.221911 0.947485 0.230279
-0.355671 -0.883770 -0.649980 0.189146 -0.563252 0.804345
-0.355278 -0.887828 -0.652914 0.189146 -0.563252 0.804345
-0.347521 -0.888793 -0.655414 0.189146 -0.563252 0.804345
-0.345040 -0.892849 -0.658804 0.648938 0.254252 -0.717102
-0.340903 -0.893783 -0.655391 0.648938 0.254252 -0.717102
-0.340182 -0.898826 -0.656526 0.648938 0.254252 -0.717102
-0.326906 -0.881797 -0.685820 0.671845 0.478305 0.565551
-0.355671 -0.883770 -0.649980 0.671845 0.478305 0.565551
-0.347521 -0.888793 -0.655414 0.671845 0.478305 0.565551
-0.326906 -0.881797 -0.685820 0.498936 0.631686 0.593327
-0.345040 -0.892849 -0.658804 0.498936 0.631686 0.593327
-0.340182 -0.898826 -0.656526 0.498936 0.631686 0.593327
-0.326906 -0.881797 -0.685820 0.823973 0.031042 0.565778
-0.347521 -0.888793 -0.655414 0.823973 0.031042 0.565778
-0.345040 -0.892849 -0.658804 0.823973 0.031042 0.565778
-0.366756 -0.893544 -0.661419 -0.864874 0.459292 -0.202593
-0.353865 -0.876160 -0.677039 -0.864874 0.459292 -0.202593
-0.366836 -0.898000 -0.671180 -0.864874 0.459292 -0.202593
-0.353865 -0.876160 -0.677039 -0.839444 0.420611 -0.344123
-0.361650 -0.899355 -0.686398 -0.839444 0.420611 -0.344123
-0.363817 -0.899728 -0.681570 -0.839444 0.420611 -0.344123
-0.363817 -0.899728 -0.681570 -0.850367 0.420016 -0.316958
-0.365710 -0.899757 -0.676529 -0.850367 0.420016 -0.316958
-0.366836 -0.898000 -0.671180 -0.850367 0.420016 -0.316958
-0.353865 -0.876160 -0.677039 -0.850373 0.420003 -0.316958
-0.363817 -0.899728 -0.681570 -0.850373 0.420003 -0.316958
-0.366836 -0.898000 -0.671180 -0.850373 0.420003 -0.316958
-0.344379 -0.918183 -0.654721 0.242134 -0.454917 0.856984
-0.330284 -0.906662 -0.652588 0.242134 -0.454917 0.856984
-0.349519 -0.919294 -0.653859 0.242134 -0.454917 0.856984
-0.330284 -0.906662 -0.652588 -0.018458 -0.572253 0.819869
-0.342358 -0.902587 -0.650015 -0.018458 -0.572253 0.819869
-0.342707 -0.907307 -0.653318 -0.018458 -0.572253 0.819869
-0.346988 -0.912160 -0.650300 -0.475622 0.548648 0.687582
-0.351327 -0.912772 -0.652813 -0.475622 0.548648 0.687582
-0.354682 -0.916619 -0.652064 -0.475622 0.548648 0.687582
-0.330284 -0.906662 -0.652588 0.153920 -0.328137 0.932006
-0.354682 -0.916619 -0.652064 0.153920 -0.328137 0.932006
-0.349519 -0.919294 -0.653859 0.153920 -0.328137 0.932006
-0.330284 -0.906662 -0.652588 -0.077668 0.574970 0.814479
-0.342707 -0.907307 -0.653318 -0.077668 0.574970 0.814479
-0.346988 -0.912160 -0.650300 -0.077668 0.574970 0.814479
-0.330284 -0.906662 -0.652588 0.329475 -0.779325 0.533009
-0.346988 -0.912160 -0.650300 0.329475 -0.779325 0.533009
-0.354682 -0.916619 -0.652064 0.329475 -0.779325 0.533009
-0.361650 -0.899355 -0.686398 -0.317972 -0.927976 -0.194220
-0.355091 -0.899709 -0.670865 -0.257515 -0.724967 0.638813
-0.352529 -0.903897 -0.671817 -0.849269 -0.311289 0.426374
-0.330284 -0.906662 -0.652588 0.979935 0.098578 0.173231
-0.329347 -0.912541 -0.654519 0.979935 0.098578 0.173231
-0.328140 -0.913580 -0.660780 0.979935 0.098578 0.173231
-0.326906 -0.881797 -0.685820 0.979935 0.098578 0.173231
-0.334467 -0.915403 -0.658330 0.378521 -0.907468 0.182195
-0.328140 -0.913580 -0.660780 0.347270 -0.911985 0.218207
-0.329347 -0.912541 -0.654519 0.367412 -0.909330 0.195166
-0.357518 -0.899235 -0.690049 -0.363551 0.445885 -0.817935
-0.346834 -0.877002 -0.682677 -0.363551 0.445885 -0.817935
-0.353248 -0.900437 -0.692602 -0.363551 0.445885 -0.817935
-0.325273 -0.893714 -0.690967 -0.015595 0.396728 -0.917804
-0.343366 -0.902379 -0.694438 -0.015595 0.396728 -0.917804
-0.348347 -0.901918 -0.694121 -0.015595 0.396728 -0.917804
-0.326906 -0.881797 -0.685820 -0.015595 0.396728 -0.917804
-0.349953 -0.910550 -0.681233 0.146376 -0.941645 -0.303114
-0.349519 -0.919294 -0.653859 0.146376 -0.941645 -0.303114
-0.351595 -0.912380 -0.676339 0.146376 -0.941645 -0.303114
-0.353865 -0.876160 -0.677039 0.256692 0.949892 0.178364
-0.326906 -0.881797 -0.685820 0.256692 0.949892 0.178364
-0.346834 -0.877002 -0.682677 0.256692 0.949892 0.178364
-0.360107 -0.899732 -0.671803 -0.201147 -0.932524 0.299814
-0.366420 -0.886645 -0.654442 -0.887244 0.291023 -0.357917
-0.366566 -0.882821 -0.650970 -0.887244 0.291023 -0.357917
-0.353865 -0.876160 -0.677039 -0.887244 0.291023 -0.357917
-0.353865 -0.876160 -0.677039 -0.856980 0.214407 -0.468632
-0.366756 -0.893544 -0.661419 -0.856980 0.214407 -0.468632
-0.367733 -0.889938 -0.657982 -0.856980 0.214407 -0.468632
-0.366420 -0.886645 -0.654442 -0.815738 0.542121 -0.201683
-0.353865 -0.876160 -0.677039 -0.815738 0.542121 -0.201683
-0.367733 -0.889938 -0.657982 -0.815738 0.542121 -0.201683
-0.354682 -0.916619 -0.652064 -0.527238 0.654073 0.542375
-0.366420 -0.886645 -0.654442 -0.273873 -0.623432 0.732292
-0.345040 -0.892849 -0.658804 -0.232917 -0.666951 0.707724
-0.345753 -0.907125 -0.689735 0.325760 -0.567021 -0.756550
-0.343366 -0.902379 -0.694438 0.325760 -0.567021 -0.756550
-0.325273 -0.893714 -0.690967 0.325760 -0.567021 -0.756550
-0.324851 -0.905517 -0.684113 0.325760 -0.567021 -0.756550
-0.360798 -0.882666 -0.649585 -0.123020 -0.594958 0.794275
-0.366566 -0.882821 -0.650970 -0.214179 -0.624104 0.751366
-0.351595 -0.912380 -0.676339 -0.890591 -0.272164 -0.364299
-0.343366 -0.902379 -0.694438 -0.108768 -0.671621 -0.732841
-0.360798 -0.882666 -0.649585 -0.077092 0.974353 0.211408
-0.353865 -0.876160 -0.677039 -0.077092 0.974353 0.211408
-0.366566 -0.882821 -0.650970 -0.077092 0.974353 0.211408
-0.328140 -0.913580 -0.660780 0.980317 0.097284 0.171795
-0.324851 -0.905517 -0.684113 0.980317 0.097284 0.171795
-0.326906 -0.881797 -0.685820 0.980317 0.097284 0.171795
-0.349519 -0.919294 -0.653859 0.152592 -0.940721 -0.302918
-0.349953 -0.910550 -0.681233 0.152592 -0.940721 -0.302918
-0.344379 -0.918183 -0.654721 0.152592 -0.940721 -0.302918
-0.349953 -0.910550 -0.681233 -0.001515 -0.927292 -0.374335
-0.349008 -0.908707 -0.685802 -0.001515 -0.927292 -0.374335
-0.345753 -0.907125 -0.689735 -0.001515 -0.927292 -0.374335
-0.345753 -0.907125 -0.689735 0.153859 -0.940409 -0.303247
-0.324851 -0.905517 -0.684113 0.153859 -0.940409 -0.303247
-0.328140 -0.913580 -0.660780 0.153859 -0.940409 -0.303247
-0.334467 -0.915403 -0.658330 0.153398 -0.940548 -0.303049
-0.339460 -0.917117 -0.655537 0.153398 -0.940548 -0.303049
-0.344379 -0.918183 -0.654721 0.153398 -0.940548 -0.303049
-0.349953 -0.910550 -0.681233 0.153549 -0.940520 -0.303061
-0.345753 -0.907125 -0.689735 0.153549 -0.940520 -0.303061
-0.344379 -0.918183 -0.654721 0.153549 -0.940520 -0.303061
-0.345753 -0.907125 -0.689735 0.153658 -0.940476 -0.303140
-0.328140 -0.913580 -0.660780 0.153658 -0.940476 -0.303140
-0.334467 -0.915403 -0.658330 0.153658 -0.940476 -0.303140
-0.345753 -0.907125 -0.689735 0.153392 -0.940545 -0.303062
-0.334467 -0.915403 -0.658330 0.153392 -0.940545 -0.303062
-0.344379 -0.918183 -0.654721 0.153392 -0.940545 -0.303062
-0.342358 -0.902587 -0.650015 0.248422 0.129992 0.959890
-0.330284 -0.906662 -0.652588 0.248422 0.129992 0.959890
-0.339829 -0.898366 -0.651241 0.248422 0.129992 0.959890
-0.330284 -0.906662 -0.652588 0.348166 0.733259 0.584047
-0.326906 -0.881797 -0.685820 0.348166 0.733259 0.584047
-0.340182 -0.898826 -0.656526 0.348166 0.733259 0.584047
-0.330284 -0.906662 -0.652588 0.643319 0.757819 -0.108862
-0.340182 -0.898826 -0.656526 0.643319 0.757819 -0.108862
-0.339829 -0.898366 -0.651241 0.643319 0.757819 -0.108862
-0.340903 -0.893783 -0.655391 -0.648915 -0.254250 0.717093
-0.349519 -0.919294 -0.653859 0.085632 -0.950059 -0.300092
-0.353854 -0.914007 -0.671835 0.085632 -0.950059 -0.300092
-0.351595 -0.912380 -0.676339 0.085632 -0.950059 -0.300092
-0.354682 -0.916619 -0.652064 -0.492106 -0.860235 -0.133515
-0.357049 -0.914630 -0.656151 -0.492106 -0.860235 -0.133515
-0.349519 -0.919294 -0.653859 -0.492106 -0.860235 -0.133515
-0.357049 -0.914630 -0.656151 -0.492532 -0.860044 -0.133177
-0.358199 -0.913173 -0.661306 -0.492532 -0.860044 -0.133177
-0.356567 -0.913304 -0.666503 -0.492532 -0.860044 -0.133177
-0.356567 -0.913304 -0.666503 -0.489367 -0.861507 -0.135372
-0.353854 -0.914007 -0.671835 -0.489367 -0.861507 -0.135372
-0.349519 -0.919294 -0.653859 -0.489367 -0.861507 -0.135372
-0.357049 -0.914630 -0.656151 -0.492204 -0.860231 -0.133186
-0.356567 -0.913304 -0.666503 -0.492204 -0.860231 -0.133186
-0.349519 -0.919294 -0.653859 -0.492204 -0.860231 -0.133186
-0.355671 -0.883770 -0.649980 -0.064730 -0.588824 0.805658
-0.339829 -0.898366 -0.651241 -0.856166 0.516526 0.012085
-0.339460 -0.917117 -0.655537 0.392682 -0.904660 0.165380
-0.334604 -0.914486 -0.652990 0.392682 -0.904660 0.165380
-0.360798 -0.882666 -0.649585 0.285095 0.914028 0.288573
-0.326906 -0.881797 -0.685820 0.285095 0.914028 0.288573
-0.353865 -0.876160 -0.677039 0.285095 0.914028 0.288573
3 0 1 2
3 3 4 5
3 6 7 8
3 9 10 11
3 12 13 14
3 15 16 17
3 18 19 20
3 21 19 18
3 22 23 24
3 25 26 27
3 28 29 30
3 31 32 33
3 34 35 36
3 21 18 37
3 38 39 40
3 41 42 43
3 38 40 44
3 45 46 47
3 44 48 49
3 50 51 52
3 53 54 48
3 55 45 56
3 50 52 57
3 40 39 53
3 58 54 59
3 60 61 53
3 53 61 54
3 62 19 21
3 63 49 4
3 35 22 36
3 10 64 65
3 66 67 68
3 37 18 67
3 5 69 70
3 71 4 3
3 72 73 60
3 50 57 59
3 56 45 66
4 74 75 76 77
3 59 54 50
3 11 10 65
3 78 79 80
3 81 82 83
3 84 85 86
3 87 88 89
3 90 91 92
3 93 94 95
3 66 47 67
3 96 97 98
3 99 100 101
3 102 103 104
3 105 106 107
3 2 10 9
3 108 109 110
3 111 112 113
3 114 115 116
3 117 118 119
3 120 121 122
3 123 124 125
3 1 10 2
3 22 126 1
3 127 128 59
4 129 130 131 132
3 0 23 1
3 5 128 69
3 50 21 52
3 133 134 135
3 44 40 48
3 136 137 138
3 57 52 37
3 54 58 48
4 139 140 141 142
3 143 144 145
3 146 147 148
3 36 24 149
3 150 151 152
3 153 154 155
3 156 157 158
3 159 44 49
3 67 18 160
3 21 161 62
4 162 163 164 165
3 57 37 47
3 20 166 167
3 4 58 5
3 47 37 67
3 46 57 47
3 1 126 64
3 168 69 23
3 9 11 169
3 35 126 22
3 59 57 46
4 149 127 46 45
3 127 149 128
3 22 24 36
3 170 171 172
3 160 20 167
3 45 47 66
3 3 5 70
3 52 21 37
3 173 174 175
3 69 128 24
3 73 161 51
3 34 36 55
3 36 149 55
3 49 48 4
3 60 73 51
3 176 177 178
3 179 180 181
3 182 183 184
3 185 186 187
3 188 189 190
3 191 192 193
3 194 195 196
3 197 198 199
3 200 201 202
3 203 204 205
3 1 64 10
3 161 52 51
3 48 58 4
3 39 60 53
3 0 168 23
3 4 71 63
3 52 161 21
3 206 161 73
3 51 50 61
3 207 208 209
3 61 60 51
3 59 46 127
3 20 19 166
3 210 211 212
3 213 214 215
3 216 217 218
3 219 220 221
3 166 19 222
3 70 69 168
3 73 72 223
3 22 1 23
3 24 128 149
3 61 50 54
3 58 128 5
3 40 53 48
3 18 20 160
4 224 133 135 225
3 226 227 228
3 72 60 39
3 58 59 128
3 69 24 23
3 55 149 45
3 67 160 68
3 159 49 63
