ply
format ascii 1.0
comment Created by Blender 2.69 (sub 10) - www.blender.org, source file: 'bunny_base.blend'
element vertex 67
property float x
property float y
property float z
property float nx
property float ny
property float nz
element face 30
property list uchar uint vertex_indices
end_header
-0.338326 -0.831059 -0.693356 -0.075763 -0.219015 0.972776
-0.322909 -0.862170 -0.699160 -0.075763 -0.219015 0.972776
-0.325909 -0.825530 -0.691144 -0.075763 -0.219015 0.972776
-0.328674 -0.825925 -0.695474 -0.440504 0.887020 0.138249
-0.332362 -0.828847 -0.689306 -0.462478 0.875759 0.138279
-0.325909 -0.825530 -0.691144 -0.343364 0.913816 0.216773
-0.333409 -0.828867 -0.694254 0.475315 -0.847226 -0.237243
-0.338326 -0.831059 -0.693356 0.475315 -0.847226 -0.237243
-0.325909 -0.825530 -0.691144 0.475315 -0.847226 -0.237243
-0.332362 -0.828847 -0.689306 0.475315 -0.847226 -0.237243
-0.336087 -0.829801 -0.703195 -0.496994 0.859004 -0.122745
-0.337324 -0.830220 -0.698202 -0.454360 0.889035 0.055910
-0.332701 -0.827602 -0.699294 -0.475631 0.879147 0.029359
-0.320209 -0.823226 -0.693283 -0.253029 0.929655 0.267647
-0.322685 -0.825843 -0.687109 -0.223365 0.926389 0.303140
-0.317556 -0.824669 -0.687645 0.894811 0.276906 -0.350194
-0.309497 -0.866412 -0.700060 0.894811 0.276906 -0.350194
-0.320209 -0.823226 -0.693283 0.894811 0.276906 -0.350194
-0.309497 -0.866412 -0.700060 0.904259 0.419026 0.082056
-0.328361 -0.825385 -0.701690 0.904259 0.419026 0.082056
-0.328674 -0.825925 -0.695474 0.904259 0.419026 0.082056
-0.328674 -0.825925 -0.695474 0.357552 -0.889058 -0.285891
-0.323984 -0.823573 -0.696923 0.357552 -0.889058 -0.285891
-0.320209 -0.823226 -0.693283 0.357552 -0.889058 -0.285891
-0.309497 -0.866412 -0.700060 0.186244 0.197236 -0.962502
-0.328674 -0.825925 -0.695474 0.186244 0.197236 -0.962502
-0.320209 -0.823226 -0.693283 0.186244 0.197236 -0.962502
-0.334241 -0.830331 -0.708863 -0.515854 0.820978 -0.244697
-0.331434 -0.827498 -0.705277 -0.496017 0.856044 -0.145329
-0.334241 -0.830331 -0.708863 0.645996 0.268371 -0.714609
-0.331434 -0.827498 -0.705277 0.645996 0.268371 -0.714609
-0.328361 -0.825385 -0.701690 0.645996 0.268371 -0.714609
-0.309497 -0.866412 -0.700060 0.645996 0.268371 -0.714609
-0.322097 -0.858333 -0.708375 -0.886488 -0.392598 -0.244960
-0.322909 -0.862170 -0.699160 -0.886488 -0.392598 -0.244960
-0.338326 -0.831059 -0.693356 -0.886488 -0.392598 -0.244960
-0.337324 -0.830220 -0.698202 -0.886488 -0.392598 -0.244960
-0.333409 -0.828867 -0.694254 -0.471267 0.873806 0.119755
-0.334241 -0.830331 -0.708863 -0.886185 -0.388718 -0.252139
-0.322097 -0.858333 -0.708375 -0.886185 -0.388718 -0.252139
-0.337324 -0.830220 -0.698202 -0.886185 -0.388718 -0.252139
-0.336087 -0.829801 -0.703195 -0.886185 -0.388718 -0.252139
-0.323984 -0.823573 -0.696923 -0.340098 0.919279 0.197974
-0.309497 -0.866412 -0.700060 -0.301403 -0.870521 -0.389037
-0.322909 -0.862170 -0.699160 -0.301403 -0.870521 -0.389037
-0.322097 -0.858333 -0.708375 -0.301403 -0.870521 -0.389037
-0.317556 -0.824669 -0.687645 -0.085706 0.698695 0.710267
-0.322685 -0.825843 -0.687109 -0.085706 0.698695 0.710267
-0.312594 -0.825110 -0.686612 -0.085706 0.698695 0.710267
-0.322685 -0.825843 -0.687109 -0.035796 -0.314472 0.948592
-0.322909 -0.862170 -0.699160 -0.035796 -0.314472 0.948592
-0.309497 -0.866412 -0.700060 -0.035796 -0.314472 0.948592
-0.322685 -0.825843 -0.687109 -0.024185 -0.311163 0.950049
-0.309497 -0.866412 -0.700060 -0.024185 -0.311163 0.950049
-0.312594 -0.825110 -0.686612 -0.024185 -0.311163 0.950049
-0.309497 -0.866412 -0.700060 0.220325 0.316903 -0.922513
-0.317556 -0.824669 -0.687645 0.220325 0.316903 -0.922513
-0.312594 -0.825110 -0.686612 0.220325 0.316903 -0.922513
-0.317556 -0.824669 -0.687645 -0.179144 0.929533 0.322184
-0.328361 -0.825385 -0.701690 -0.464583 0.885220 -0.022584
-0.325909 -0.825530 -0.691144 -0.773627 -0.195217 0.602820
-0.322909 -0.862170 -0.699160 -0.773627 -0.195217 0.602820
-0.322685 -0.825843 -0.687109 -0.773627 -0.195217 0.602820
-0.338326 -0.831059 -0.693356 -0.394147 0.915799 0.076998
-0.334241 -0.830331 -0.708863 0.644173 0.266879 -0.716810
-0.309497 -0.866412 -0.700060 0.644173 0.266879 -0.716810
-0.322097 -0.858333 -0.708375 0.644173 0.266879 -0.716810
3 0 1 2
3 3 4 5
4 6 7 8 9
3 10 11 12
3 13 5 14
3 15 16 17
3 18 19 20
3 21 22 23
3 24 25 26
3 27 10 28
4 29 30 31 32
4 33 34 35 36
3 3 37 4
4 38 39 40 41
3 42 3 5
3 43 44 45
3 46 47 48
3 49 50 51
3 52 53 54
3 12 11 37
3 55 56 57
3 28 10 12
3 12 37 3
3 58 13 14
3 59 12 3
3 60 61 62
3 11 63 37
3 28 12 59
3 13 42 5
3 64 65 66
