ply
format ascii 1.0
comment Created by Blender 2.69 (sub 10) - www.blender.org, source file: 'bunny_base.blend'
element vertex 172
property float x
property float y
property float z
property float nx
property float ny
property float nz
element face 109
property list uchar uint vertex_indices
end_header
-0.310665 -0.866408 -0.697668 0.916651 -0.346076 0.199956
-0.308393 -0.858927 -0.695136 0.916651 -0.346076 0.199956
-0.311865 -0.858462 -0.678415 0.916651 -0.346076 0.199956
-0.332628 -0.835517 -0.675246 -0.075167 0.868374 0.490158
-0.336631 -0.837103 -0.672312 0.016541 0.845882 0.533067
-0.331479 -0.837941 -0.670950 -0.046846 0.801721 0.595813
-0.324545 -0.844698 -0.664992 0.115055 0.555589 0.823420
-0.319444 -0.841998 -0.667592 0.115909 0.769189 0.628376
-0.323692 -0.839179 -0.668835 0.078951 0.686361 0.722922
-0.315362 -0.840770 -0.670322 -0.081454 0.852351 0.516526
-0.315095 -0.836792 -0.673561 0.187506 0.615162 0.765770
-0.320238 -0.836470 -0.672601 0.143132 0.707541 0.692007
-0.312285 -0.840277 -0.665953 -0.409864 0.885830 0.217414
-0.316982 -0.843389 -0.663107 -0.340037 0.906400 0.250618
-0.312414 -0.841548 -0.660953 -0.448927 0.868709 0.209235
-0.344216 -0.836186 -0.671734 0.190008 0.881375 0.432447
-0.346404 -0.833911 -0.675865 0.042695 0.911557 0.408918
-0.349496 -0.836135 -0.671156 0.073550 0.918912 0.387494
-0.348029 -0.838118 -0.666066 0.099521 0.904965 0.413617
-0.345259 -0.840803 -0.662816 0.274331 0.839808 0.468429
-0.340572 -0.838676 -0.669374 0.208960 0.839595 0.501358
-0.336699 -0.833553 -0.678724 -0.039766 0.913999 0.403699
-0.337989 -0.831833 -0.683875 -0.021577 0.965667 0.258797
-0.340675 -0.835215 -0.675838 0.112094 0.885037 0.451766
-0.332859 -0.832187 -0.682050 -0.194678 0.890988 0.410108
-0.315093 -0.828875 -0.681009 0.034028 0.781274 0.623218
-0.318736 -0.825930 -0.685305 -0.133366 0.811762 0.568529
-0.318649 -0.831774 -0.677546 -0.001129 0.747795 0.663869
-0.343317 -0.831884 -0.680666 0.107242 0.936521 0.333750
-0.327212 -0.835864 -0.673126 -0.099460 0.799402 0.592486
-0.328126 -0.832310 -0.678900 -0.224555 0.824488 0.519364
-0.355669 -0.837616 -0.666385 0.134983 0.883419 0.448683
-0.355025 -0.834678 -0.671631 0.202979 0.897580 0.391308
-0.312657 -0.826549 -0.684717 0.116672 0.805017 0.581652
-0.310179 -0.830110 -0.680286 0.149998 0.709128 0.688894
-0.312657 -0.826549 -0.684717 0.851822 0.280696 -0.442277
-0.310179 -0.830110 -0.680286 0.851822 0.280696 -0.442277
-0.305815 -0.835201 -0.677030 0.851822 0.280696 -0.442277
-0.308393 -0.858927 -0.695136 0.851822 0.280696 -0.442277
-0.313702 -0.832887 -0.676683 0.148106 0.646260 0.748558
-0.336058 -0.841133 -0.667362 0.065676 0.797876 0.599170
-0.328009 -0.841372 -0.666804 0.011719 0.706320 0.707755
-0.332570 -0.843420 -0.664352 -0.022095 0.770867 0.636555
-0.310061 -0.837256 -0.674785 0.076296 0.735405 0.673299
-0.305815 -0.835201 -0.677030 0.121799 0.606708 0.785516
-0.344809 -0.830578 -0.685994 -0.562681 -0.019284 -0.826449
-0.340599 -0.864591 -0.688067 -0.562681 -0.019284 -0.826449
-0.347029 -0.860596 -0.683783 -0.562681 -0.019284 -0.826449
-0.348878 -0.832277 -0.680610 -0.814509 0.011792 -0.580031
-0.347029 -0.860596 -0.683783 -0.814509 0.011792 -0.580031
-0.356627 -0.846116 -0.670010 -0.814509 0.011792 -0.580031
-0.352037 -0.834218 -0.676214 -0.814509 0.011792 -0.580031
-0.330138 -0.828432 -0.687195 0.045032 0.299270 -0.953105
-0.324015 -0.862962 -0.697983 0.045032 0.299270 -0.953105
-0.340578 -0.831374 -0.688611 0.045032 0.299270 -0.953105
-0.335270 -0.830317 -0.688265 0.045032 0.299270 -0.953105
-0.305815 -0.835201 -0.677030 0.582439 -0.532193 0.614438
-0.310061 -0.837256 -0.674785 0.582439 -0.532193 0.614438
-0.308393 -0.858927 -0.695136 0.582439 -0.532193 0.614438
-0.310061 -0.837256 -0.674785 0.211236 -0.939903 -0.268257
-0.307679 -0.837993 -0.670327 0.211236 -0.939903 -0.268257
-0.312285 -0.840277 -0.665953 0.211236 -0.939903 -0.268257
-0.312285 -0.840277 -0.665953 0.971606 -0.118094 0.205024
-0.311865 -0.858462 -0.678415 0.971606 -0.118094 0.205024
-0.308393 -0.858927 -0.695136 0.971606 -0.118094 0.205024
-0.310061 -0.837256 -0.674785 0.971790 -0.117354 0.204576
-0.312285 -0.840277 -0.665953 0.971790 -0.117354 0.204576
-0.308393 -0.858927 -0.695136 0.971790 -0.117354 0.204576
-0.323640 -0.826662 -0.686024 -0.181005 0.830470 0.526780
-0.327146 -0.829089 -0.683174 -0.252937 0.822871 0.508805
-0.322641 -0.829751 -0.680811 -0.135380 0.813257 0.565905
-0.340336 -0.841365 -0.664765 0.268105 0.838008 0.475204
-0.328009 -0.841372 -0.666804 0.157520 0.593985 0.788903
-0.332570 -0.843420 -0.664352 0.157520 0.593985 0.788903
-0.324545 -0.844698 -0.664992 0.157520 0.593985 0.788903
-0.336058 -0.841133 -0.667362 0.505227 0.165074 0.847051
-0.340336 -0.841365 -0.664765 0.505227 0.165074 0.847051
-0.311865 -0.858462 -0.678415 0.505227 0.165074 0.847051
-0.332570 -0.843420 -0.664352 -0.060730 -0.725010 0.686056
-0.311865 -0.858462 -0.678415 -0.060730 -0.725010 0.686056
-0.324545 -0.844698 -0.664992 -0.060730 -0.725010 0.686056
-0.332570 -0.843420 -0.664352 -0.570421 -0.820484 0.037769
-0.336058 -0.841133 -0.667362 -0.570421 -0.820484 0.037769
-0.311865 -0.858462 -0.678415 -0.570421 -0.820484 0.037769
-0.310665 -0.866408 -0.697668 0.097923 0.292275 -0.951308
-0.324015 -0.862962 -0.697983 0.097923 0.292275 -0.951308
-0.308393 -0.858927 -0.695136 0.097923 0.292275 -0.951308
-0.352037 -0.834218 -0.676214 0.026337 0.942228 0.333842
-0.348878 -0.832277 -0.680610 -0.066897 0.942778 0.326579
-0.344809 -0.830578 -0.685994 0.164403 0.967650 0.191260
-0.312285 -0.840277 -0.665953 0.999624 0.004509 0.027062
-0.312414 -0.841548 -0.660953 0.999624 0.004509 0.027062
-0.311865 -0.858462 -0.678415 0.999624 0.004509 0.027062
-0.319444 -0.841998 -0.667592 0.546690 -0.269499 0.792780
-0.324545 -0.844698 -0.664992 0.546690 -0.269499 0.792780
-0.311865 -0.858462 -0.678415 0.546690 -0.269499 0.792780
-0.311865 -0.858462 -0.678415 -0.037915 -0.718357 0.694640
-0.312414 -0.841548 -0.660953 -0.037915 -0.718357 0.694640
-0.316982 -0.843389 -0.663107 -0.037915 -0.718357 0.694640
-0.319444 -0.841998 -0.667592 -0.795832 -0.542777 0.268411
-0.311865 -0.858462 -0.678415 -0.795832 -0.542777 0.268411
-0.316982 -0.843389 -0.663107 -0.795832 -0.542777 0.268411
-0.352649 -0.839711 -0.662736 -0.966247 -0.000937 0.257617
-0.355669 -0.837616 -0.666385 -0.966247 -0.000937 0.257617
-0.355025 -0.834678 -0.671631 -0.966247 -0.000937 0.257617
-0.356627 -0.846116 -0.670010 -0.966247 -0.000937 0.257617
-0.318736 -0.825930 -0.685305 0.092185 0.310736 -0.946015
-0.308393 -0.858927 -0.695136 0.092185 0.310736 -0.946015
-0.323640 -0.826662 -0.686024 0.092185 0.310736 -0.946015
-0.308393 -0.858927 -0.695136 0.091863 0.311779 -0.945704
-0.324015 -0.862962 -0.697983 0.091863 0.311779 -0.945704
-0.330138 -0.828432 -0.687195 0.091863 0.311779 -0.945704
-0.308393 -0.858927 -0.695136 -0.603892 -0.060923 -0.794734
-0.327146 -0.829089 -0.683174 -0.603892 -0.060923 -0.794734
-0.323640 -0.826662 -0.686024 -0.603892 -0.060923 -0.794734
-0.308393 -0.858927 -0.695136 0.686887 0.597534 -0.413691
-0.330138 -0.828432 -0.687195 0.686887 0.597534 -0.413691
-0.327146 -0.829089 -0.683174 0.686887 0.597534 -0.413691
-0.340578 -0.831374 -0.688611 0.006073 0.988189 0.152989
-0.335270 -0.830317 -0.688265 -0.229987 0.922300 0.310526
-0.323563 -0.832924 -0.676458 -0.087405 0.794214 0.601276
-0.307679 -0.837993 -0.670327 -0.211219 0.939879 0.268258
-0.340599 -0.864591 -0.688067 -0.241102 -0.808982 -0.536114
-0.324015 -0.862962 -0.697983 -0.241102 -0.808982 -0.536114
-0.315914 -0.869673 -0.691499 -0.241102 -0.808982 -0.536114
-0.330138 -0.828432 -0.687195 -0.379589 0.831294 0.405957
-0.352649 -0.839711 -0.662736 0.052339 0.911985 0.406842
-0.318736 -0.825930 -0.685305 0.123302 0.318644 -0.939821
-0.312657 -0.826549 -0.684717 0.123302 0.318644 -0.939821
-0.308393 -0.858927 -0.695136 0.123302 0.318644 -0.939821
-0.318736 -0.825930 -0.685305 0.032364 0.836967 0.546295
-0.315093 -0.828875 -0.681009 0.032364 0.836967 0.546295
-0.312657 -0.826549 -0.684717 0.032364 0.836967 0.546295
-0.324015 -0.862962 -0.697983 -0.190497 -0.791283 -0.581019
-0.310665 -0.866408 -0.697668 -0.190497 -0.791283 -0.581019
-0.315914 -0.869673 -0.691499 -0.190497 -0.791283 -0.581019
-0.347029 -0.860596 -0.683783 -0.055174 -0.749709 0.659463
-0.315914 -0.869673 -0.691499 -0.055174 -0.749709 0.659463
-0.311865 -0.858462 -0.678415 -0.055174 -0.749709 0.659463
-0.315914 -0.869673 -0.691499 0.731901 -0.612584 0.298431
-0.310665 -0.866408 -0.697668 0.731901 -0.612584 0.298431
-0.311865 -0.858462 -0.678415 0.731901 -0.612584 0.298431
-0.340599 -0.864591 -0.688067 -0.075493 -0.783296 0.617048
-0.315914 -0.869673 -0.691499 -0.075493 -0.783296 0.617048
-0.347029 -0.860596 -0.683783 -0.075493 -0.783296 0.617048
-0.340578 -0.831374 -0.688611 -0.515366 -0.013707 -0.856860
-0.324015 -0.862962 -0.697983 -0.515366 -0.013707 -0.856860
-0.340599 -0.864591 -0.688067 -0.515366 -0.013707 -0.856860
-0.344809 -0.830578 -0.685994 -0.515366 -0.013707 -0.856860
-0.348029 -0.838118 -0.666066 0.532580 -0.758138 0.376277
-0.352649 -0.839711 -0.662736 0.532580 -0.758138 0.376277
-0.356627 -0.846116 -0.670010 0.532580 -0.758138 0.376277
-0.356627 -0.846116 -0.670010 -0.098842 -0.719429 0.687497
-0.347029 -0.860596 -0.683783 -0.098842 -0.719429 0.687497
-0.345259 -0.840803 -0.662816 -0.098842 -0.719429 0.687497
-0.348029 -0.838118 -0.666066 -0.603507 0.280716 0.746310
-0.356627 -0.846116 -0.670010 -0.603507 0.280716 0.746310
-0.345259 -0.840803 -0.662816 -0.603507 0.280716 0.746310
-0.355025 -0.834678 -0.671631 -0.838086 0.040292 -0.544049
-0.352037 -0.834218 -0.676214 -0.838086 0.040292 -0.544049
-0.356627 -0.846116 -0.670010 -0.838086 0.040292 -0.544049
-0.357539 -0.832473 -0.667609 -0.838086 0.040292 -0.544049
-0.357539 -0.832473 -0.667609 0.837288 -0.040004 0.545297
-0.356627 -0.846116 -0.670010 0.837288 -0.040004 0.545297
-0.355025 -0.834678 -0.671631 0.837288 -0.040004 0.545297
-0.344809 -0.830578 -0.685994 -0.799978 0.014959 -0.599843
-0.347029 -0.860596 -0.683783 -0.799978 0.014959 -0.599843
-0.348878 -0.832277 -0.680610 -0.799978 0.014959 -0.599843
-0.345259 -0.840803 -0.662816 -0.033791 -0.696788 0.716481
-0.347029 -0.860596 -0.683783 -0.033791 -0.696788 0.716481
-0.311865 -0.858462 -0.678415 -0.033791 -0.696788 0.716481
-0.340336 -0.841365 -0.664765 -0.033791 -0.696788 0.716481
3 0 1 2
3 3 4 5
3 6 7 8
3 9 10 11
3 12 13 14
3 15 16 17
3 18 15 17
3 19 20 18
3 21 22 23
3 24 21 3
3 25 26 27
3 20 15 18
3 22 28 23
3 29 30 3
3 31 17 32
3 33 25 34
3 3 21 4
3 29 3 5
4 35 36 37 38
3 39 34 25
3 7 9 11
3 5 4 40
3 6 8 41
3 41 5 42
3 4 20 40
3 43 44 34
3 23 15 20
3 10 27 11
3 45 46 47
4 48 49 50 51
4 52 53 54 55
3 56 57 58
3 59 60 61
3 62 63 64
3 65 66 67
3 30 24 3
3 68 69 70
3 40 20 71
3 72 73 74
3 75 76 77
3 78 79 80
3 81 82 83
3 84 85 86
3 15 23 16
3 4 23 20
3 27 26 70
3 24 22 21
3 17 87 32
3 88 28 89
3 90 91 92
3 28 88 16
3 26 68 70
3 93 94 95
3 96 97 98
3 99 100 101
3 21 23 4
4 102 103 104 105
3 106 107 108
3 109 110 111
3 112 113 114
3 115 116 117
3 118 22 119
3 70 30 120
3 43 12 121
3 122 123 124
3 69 125 24
3 27 70 120
3 120 29 8
3 12 43 9
3 17 31 126
3 127 128 129
3 39 27 10
3 8 29 41
3 69 24 30
3 130 131 132
3 27 120 11
3 23 28 16
3 133 134 135
3 136 137 138
3 5 40 42
3 24 119 22
3 43 34 39
3 139 140 141
3 142 143 144
3 25 27 39
3 125 119 24
3 16 88 87
3 120 30 29
3 71 20 19
3 16 87 17
4 145 146 147 148
3 18 17 126
3 29 5 41
3 70 69 30
3 149 150 151
3 152 153 154
3 155 156 157
3 11 120 8
3 28 118 89
4 158 159 160 161
3 162 163 164
3 165 166 167
3 43 39 10
4 168 169 170 171
3 13 9 7
3 11 8 7
3 13 12 9
3 9 43 10
3 118 28 22
