ply
format ascii 1.0
comment Created by Blender 2.69 (sub 10) - www.blender.org, source file: 'bunny_base.blend'
element vertex 110
property float x
property float y
property float z
property float nx
property float ny
property float nz
element face 65
property list uchar uint vertex_indices
end_header
-0.393417 -0.818501 -0.712349 0.222999 0.974792 0.005493
-0.395201 -0.816905 -0.707457 -0.183294 0.947600 -0.261513
-0.388743 -0.820997 -0.710185 0.438276 0.807581 -0.394574
-0.395763 -0.816632 -0.701624 -0.438673 0.859584 -0.261940
-0.390450 -0.817350 -0.705732 -0.024598 0.845119 -0.533982
-0.397015 -0.815149 -0.696264 -0.528245 0.765709 -0.366894
-0.399439 -0.814199 -0.690675 -0.590777 0.722587 -0.358898
-0.392505 -0.812547 -0.695872 -0.369640 0.824610 -0.428175
-0.399805 -0.820018 -0.700613 -0.630055 0.748253 -0.207648
-0.385448 -0.826314 -0.683491 0.363195 0.564835 0.740980
-0.380483 -0.809909 -0.698430 0.363195 0.564835 0.740980
-0.394769 -0.811114 -0.690509 0.363195 0.564835 0.740980
-0.380483 -0.809909 -0.698430 -0.235420 0.939085 -0.250313
-0.385934 -0.812073 -0.699012 -0.327982 0.840877 -0.430464
-0.388047 -0.810023 -0.693952 -0.296579 0.850887 -0.433576
-0.401825 -0.819329 -0.695373 -0.382318 -0.923885 -0.016412
-0.405409 -0.818024 -0.685370 -0.382318 -0.923885 -0.016412
-0.403626 -0.818667 -0.690715 -0.382318 -0.923885 -0.016412
-0.401960 -0.814300 -0.686101 0.275465 0.734849 0.619771
-0.405579 -0.818027 -0.680075 0.275465 0.734849 0.619771
-0.398498 -0.820955 -0.679750 0.275465 0.734849 0.619771
-0.390384 -0.814618 -0.700942 -0.290689 0.842158 -0.454115
-0.400122 -0.819743 -0.706252 -0.379437 0.922300 0.073244
-0.405409 -0.818024 -0.685370 -0.382355 -0.923942 -0.011636
-0.385448 -0.826314 -0.683491 -0.382355 -0.923942 -0.011636
-0.398498 -0.820955 -0.679750 -0.382355 -0.923942 -0.011636
-0.405579 -0.818027 -0.680075 -0.382355 -0.923942 -0.011636
-0.374475 -0.808893 -0.706048 0.985732 -0.002499 0.168302
-0.375292 -0.810284 -0.701281 0.985732 -0.002499 0.168302
-0.374960 -0.830075 -0.703520 0.985732 -0.002499 0.168302
-0.375292 -0.810284 -0.701281 0.437433 0.529489 0.726838
-0.380483 -0.809909 -0.698430 0.437433 0.529489 0.726838
-0.385448 -0.826314 -0.683491 0.437433 0.529489 0.726838
-0.375292 -0.810284 -0.701281 0.882271 -0.038268 0.469183
-0.385448 -0.826314 -0.683491 0.882271 -0.038268 0.469183
-0.374960 -0.830075 -0.703520 0.882271 -0.038268 0.469183
-0.384907 -0.814484 -0.703923 -0.500565 0.754875 -0.423719
-0.380165 -0.810913 -0.703987 -0.406507 0.913602 0.005066
-0.394769 -0.811114 -0.690509 -0.465987 0.801324 -0.375072
-0.375292 -0.810284 -0.701281 -0.155461 0.986541 0.050539
-0.382458 -0.812249 -0.709258 -0.816980 0.572283 -0.070711
-0.378830 -0.808580 -0.708497 -0.452162 0.839747 0.300577
-0.403626 -0.818667 -0.690715 -0.683645 0.638234 -0.353893
-0.405409 -0.818024 -0.685370 -0.739860 0.655721 -0.150334
-0.401960 -0.814300 -0.686101 -0.670400 0.690664 -0.271035
-0.398035 -0.811255 -0.685508 -0.537248 0.787255 -0.302561
-0.401825 -0.819329 -0.695373 -0.651357 0.675954 -0.344646
-0.380483 -0.809909 -0.698430 0.466522 -0.422239 0.777220
-0.388047 -0.810023 -0.693952 0.466522 -0.422239 0.777220
-0.394769 -0.811114 -0.690509 0.466522 -0.422239 0.777220
-0.403551 -0.818088 -0.716223 -0.377512 -0.925697 -0.023869
-0.374960 -0.830075 -0.703520 -0.377512 -0.925697 -0.023869
-0.401835 -0.818909 -0.711521 -0.377512 -0.925697 -0.023869
-0.374960 -0.830075 -0.703520 -0.377516 -0.925696 -0.023859
-0.385448 -0.826314 -0.683491 -0.377516 -0.925696 -0.023859
-0.401825 -0.819329 -0.695373 -0.377516 -0.925696 -0.023859
-0.374960 -0.830075 -0.703520 -0.377516 -0.925696 -0.023855
-0.400122 -0.819743 -0.706252 -0.377516 -0.925696 -0.023855
-0.401835 -0.818909 -0.711521 -0.377516 -0.925696 -0.023855
-0.374960 -0.830075 -0.703520 -0.377514 -0.925697 -0.023849
-0.401825 -0.819329 -0.695373 -0.377514 -0.925697 -0.023849
-0.399805 -0.820018 -0.700613 -0.377514 -0.925697 -0.023849
-0.374960 -0.830075 -0.703520 -0.377515 -0.925696 -0.023862
-0.399805 -0.820018 -0.700613 -0.377515 -0.925696 -0.023862
-0.400122 -0.819743 -0.706252 -0.377515 -0.925696 -0.023862
-0.398423 -0.816700 -0.714525 -0.000031 0.938505 0.345195
-0.401835 -0.818909 -0.711521 -0.354930 0.898679 0.257607
-0.405579 -0.818027 -0.680075 -0.735710 0.676870 -0.023194
-0.374475 -0.808893 -0.706048 -0.211554 0.923276 0.320597
-0.398498 -0.820955 -0.679750 0.447815 0.728191 0.518845
-0.385448 -0.826314 -0.683491 0.447815 0.728191 0.518845
-0.401960 -0.814300 -0.686101 0.447815 0.728191 0.518845
-0.385448 -0.826314 -0.683491 0.656564 0.608438 0.445788
-0.394769 -0.811114 -0.690509 0.656564 0.608438 0.445788
-0.398035 -0.811255 -0.685508 0.656564 0.608438 0.445788
-0.385448 -0.826314 -0.683491 -0.152963 0.004483 0.988222
-0.398035 -0.811255 -0.685508 -0.152963 0.004483 0.988222
-0.401960 -0.814300 -0.686101 -0.152963 0.004483 0.988222
-0.393417 -0.818501 -0.712349 0.347532 -0.151704 -0.925315
-0.388743 -0.820997 -0.710185 0.347532 -0.151704 -0.925315
-0.398423 -0.816700 -0.714525 0.347532 -0.151704 -0.925315
-0.383299 -0.817345 -0.708739 0.347533 -0.151673 -0.925319
-0.382458 -0.812249 -0.709258 0.347533 -0.151673 -0.925319
-0.378830 -0.808580 -0.708497 0.347533 -0.151673 -0.925319
-0.378830 -0.808580 -0.708497 0.480669 -0.114756 -0.869361
-0.374475 -0.808893 -0.706048 0.480669 -0.114756 -0.869361
-0.374960 -0.830075 -0.703520 0.480669 -0.114756 -0.869361
-0.374960 -0.830075 -0.703520 0.377512 0.925697 0.023869
-0.403551 -0.818088 -0.716223 0.377512 0.925697 0.023869
-0.401835 -0.818909 -0.711521 0.377512 0.925697 0.023869
-0.388743 -0.820997 -0.710185 -0.058314 -0.771446 -0.633617
-0.401835 -0.818909 -0.711521 -0.058314 -0.771446 -0.633617
-0.398423 -0.816700 -0.714525 -0.058314 -0.771446 -0.633617
-0.384316 -0.822539 -0.708269 0.347537 -0.151674 -0.925318
-0.383299 -0.817345 -0.708739 0.347537 -0.151674 -0.925318
-0.378830 -0.808580 -0.708497 0.347537 -0.151674 -0.925318
-0.388743 -0.820997 -0.710185 -0.015677 -0.607053 -0.794507
-0.374960 -0.830075 -0.703520 -0.015677 -0.607053 -0.794507
-0.401835 -0.818909 -0.711521 -0.015677 -0.607053 -0.794507
-0.384316 -0.822539 -0.708269 0.347544 -0.151677 -0.925315
-0.378830 -0.808580 -0.708497 0.347544 -0.151677 -0.925315
-0.374960 -0.830075 -0.703520 0.347544 -0.151677 -0.925315
-0.388743 -0.820997 -0.710185 0.347535 -0.151689 -0.925316
-0.384316 -0.822539 -0.708269 0.347535 -0.151689 -0.925316
-0.374960 -0.830075 -0.703520 0.347535 -0.151689 -0.925316
-0.401825 -0.819329 -0.695373 -0.382202 -0.923934 -0.016364
-0.385448 -0.826314 -0.683491 -0.382202 -0.923934 -0.016364
-0.405409 -0.818024 -0.685370 -0.382202 -0.923934 -0.016364
-0.383299 -0.817345 -0.708739 -0.611744 0.293924 -0.734397
-0.384316 -0.822539 -0.708269 -0.048982 0.391430 -0.918882
3 0 1 2
3 1 3 4
3 5 6 7
3 1 8 3
3 9 10 11
3 12 13 14
3 15 16 17
3 18 19 20
3 3 5 21
3 22 8 1
4 23 24 25 26
3 27 28 29
3 30 31 32
3 33 34 35
3 36 13 37
3 14 7 38
3 0 22 1
3 39 37 12
3 40 37 41
3 3 21 4
3 42 43 44
3 40 36 37
3 38 6 45
3 46 5 3
3 46 42 5
3 6 38 7
3 6 42 44
3 47 48 49
3 2 1 4
3 21 13 36
3 13 12 37
3 50 51 52
3 53 54 55
3 56 57 58
3 59 60 61
3 62 63 64
3 65 66 22
3 44 43 67
3 45 6 44
3 37 68 41
3 21 7 13
3 42 6 5
3 69 70 71
3 72 73 74
3 75 76 77
3 78 79 80
3 81 82 83
3 84 85 86
3 87 88 89
3 90 91 92
3 93 94 95
3 96 97 98
3 99 100 101
3 102 103 104
3 105 106 107
3 46 3 8
3 7 14 13
3 108 36 40
3 68 37 39
3 65 22 0
3 5 7 21
3 36 108 4
3 108 109 4
3 4 109 2
3 21 36 4
