ply
format ascii 1.0
comment Created by Blender 2.69 (sub 10) - www.blender.org, source file: 'bunny_base.blend'
element vertex 171
property float x
property float y
property float z
property float nx
property float ny
property float nz
element face 90
property list uchar uint vertex_indices
end_header
-0.357503 -0.848366 -0.671677 0.878859 0.022838 0.476535
-0.354722 -0.832498 -0.677967 0.878859 0.022838 0.476535
-0.356283 -0.828363 -0.674885 0.878859 0.022838 0.476535
-0.359854 -0.827568 -0.668738 0.878859 0.022838 0.476535
-0.367297 -0.840660 -0.707126 -0.177343 0.396954 -0.900510
-0.367577 -0.845408 -0.710455 -0.490249 0.426435 -0.760125
-0.371636 -0.845463 -0.707207 -0.421277 0.326365 -0.846156
-0.366957 -0.830199 -0.702465 0.561418 0.328501 -0.759484
-0.367243 -0.825342 -0.700836 0.661000 0.395520 -0.637654
-0.362054 -0.831650 -0.699370 0.451796 0.636891 -0.624653
-0.362729 -0.843617 -0.711884 -0.289010 0.568041 -0.770562
-0.357662 -0.843188 -0.712867 -0.211524 0.619678 -0.755791
-0.358971 -0.847499 -0.715055 -0.257759 0.449141 -0.855464
-0.370830 -0.851935 -0.704231 -0.416251 -0.905074 -0.087035
-0.354703 -0.859914 -0.698387 -0.416251 -0.905074 -0.087035
-0.357444 -0.860396 -0.680271 -0.416251 -0.905074 -0.087035
-0.376152 -0.835414 -0.685002 -0.982002 -0.125762 -0.140914
-0.373077 -0.834290 -0.707139 -0.982002 -0.125762 -0.140914
-0.372464 -0.839332 -0.707200 -0.982002 -0.125762 -0.140914
-0.371636 -0.845463 -0.707207 -0.982002 -0.125762 -0.140914
-0.362300 -0.839269 -0.707289 -0.116611 0.685751 -0.718406
-0.358460 -0.836468 -0.704801 -0.050722 0.790155 -0.610767
-0.356525 -0.839475 -0.709491 -0.221320 0.728263 -0.648518
-0.368245 -0.835397 -0.705452 0.312204 0.330760 -0.890561
-0.373077 -0.834290 -0.707139 0.345500 0.083224 -0.934690
-0.371150 -0.829790 -0.705870 0.505966 0.199530 -0.839106
-0.354295 -0.831719 -0.682905 0.986979 -0.148492 0.061818
-0.354722 -0.832498 -0.677967 0.986979 -0.148492 0.061818
-0.357503 -0.848366 -0.671677 0.986979 -0.148492 0.061818
-0.363964 -0.834754 -0.702857 0.261208 0.625813 -0.734886
-0.372464 -0.839332 -0.707200 0.142582 0.121799 -0.982238
-0.357503 -0.848366 -0.671677 0.380154 -0.527678 0.759631
-0.361697 -0.854260 -0.673672 0.380154 -0.527678 0.759631
-0.349452 -0.862909 -0.685809 0.380154 -0.527678 0.759631
-0.363853 -0.848742 -0.713917 -0.397198 0.311411 -0.863247
-0.350548 -0.830639 -0.689113 -0.044801 0.998138 -0.041017
-0.355803 -0.830642 -0.687652 0.542314 0.838160 -0.057649
-0.354295 -0.831719 -0.682905 0.791864 0.610126 0.025636
-0.357086 -0.825819 -0.679626 -0.982722 -0.168901 0.075698
-0.357354 -0.826500 -0.684629 -0.982722 -0.168901 0.075698
-0.356283 -0.828363 -0.674885 -0.982722 -0.168901 0.075698
-0.360588 -0.823667 -0.687375 0.659636 0.661060 -0.357602
-0.358920 -0.827143 -0.690722 0.659636 0.661060 -0.357602
-0.363092 -0.824131 -0.692852 0.659636 0.661060 -0.357602
-0.363092 -0.824131 -0.692852 -0.257958 0.825937 -0.501284
-0.363789 -0.826910 -0.697073 -0.257958 0.825937 -0.501284
-0.374558 -0.830938 -0.698168 -0.257958 0.825937 -0.501284
-0.374558 -0.830938 -0.698168 0.013583 0.992625 -0.120462
-0.359854 -0.827568 -0.668738 0.013583 0.992625 -0.120462
-0.356283 -0.828363 -0.674885 0.013583 0.992625 -0.120462
-0.357354 -0.826500 -0.684629 0.616370 0.783173 0.082024
-0.360588 -0.823667 -0.687375 0.616370 0.783173 0.082024
-0.356283 -0.828363 -0.674885 0.616370 0.783173 0.082024
-0.360588 -0.823667 -0.687375 -0.564910 0.802911 0.190291
-0.363092 -0.824131 -0.692852 -0.564910 0.802911 0.190291
-0.374558 -0.830938 -0.698168 -0.564910 0.802911 0.190291
-0.360588 -0.823667 -0.687375 -0.661153 0.598228 0.452768
-0.374558 -0.830938 -0.698168 -0.661153 0.598228 0.452768
-0.356283 -0.828363 -0.674885 -0.661153 0.598228 0.452768
-0.358920 -0.827143 -0.690722 0.705710 0.648244 -0.285836
-0.354430 -0.831504 -0.693301 0.187811 0.965117 -0.182379
-0.352097 -0.832587 -0.698853 -0.020051 0.933958 -0.356731
-0.349150 -0.830949 -0.694132 -0.129368 0.976806 -0.170568
-0.373077 -0.834290 -0.707139 -0.502509 0.859419 -0.094252
-0.374558 -0.830938 -0.698168 -0.502509 0.859419 -0.094252
-0.366957 -0.830199 -0.702465 -0.502509 0.859419 -0.094252
-0.371150 -0.829790 -0.705870 -0.502509 0.859419 -0.094252
-0.363853 -0.848742 -0.713917 -0.265221 0.173372 -0.948473
-0.358971 -0.847499 -0.715055 -0.265221 0.173372 -0.948473
-0.362227 -0.853655 -0.715270 -0.265221 0.173372 -0.948473
-0.358971 -0.847499 -0.715055 0.957693 -0.287729 -0.005943
-0.357662 -0.843188 -0.712867 0.957693 -0.287729 -0.005943
-0.356525 -0.839475 -0.709491 0.957693 -0.287729 -0.005943
-0.356525 -0.839475 -0.709491 0.605365 -0.759066 0.239482
-0.353311 -0.835118 -0.703808 0.605365 -0.759066 0.239482
-0.352097 -0.832587 -0.698853 0.605365 -0.759066 0.239482
-0.352097 -0.832587 -0.698853 0.860911 -0.135834 -0.490287
-0.349150 -0.830949 -0.694132 0.860911 -0.135834 -0.490287
-0.349452 -0.862909 -0.685809 0.860911 -0.135834 -0.490287
-0.358971 -0.847499 -0.715055 0.788061 -0.400496 -0.467507
-0.349452 -0.862909 -0.685809 0.788061 -0.400496 -0.467507
-0.362227 -0.853655 -0.715270 0.788061 -0.400496 -0.467507
-0.358971 -0.847499 -0.715055 0.928966 -0.027121 -0.369169
-0.356525 -0.839475 -0.709491 0.928966 -0.027121 -0.369169
-0.352097 -0.832587 -0.698853 0.928966 -0.027121 -0.369169
-0.358971 -0.847499 -0.715055 0.938525 -0.064075 -0.339212
-0.352097 -0.832587 -0.698853 0.938525 -0.064075 -0.339212
-0.349452 -0.862909 -0.685809 0.938525 -0.064075 -0.339212
-0.373077 -0.834290 -0.707139 -0.988216 -0.061068 -0.140359
-0.376152 -0.835414 -0.685002 -0.988216 -0.061068 -0.140359
-0.374558 -0.830938 -0.698168 -0.988216 -0.061068 -0.140359
-0.361697 -0.854260 -0.673672 0.339462 -0.569663 0.748498
-0.357444 -0.860396 -0.680271 0.339462 -0.569663 0.748498
-0.349452 -0.862909 -0.685809 0.339462 -0.569663 0.748498
-0.360588 -0.823667 -0.687375 0.791162 0.553026 -0.261086
-0.359854 -0.827568 -0.668738 -0.229522 -0.161601 0.959794
-0.361697 -0.854260 -0.673672 -0.229522 -0.161601 0.959794
-0.357503 -0.848366 -0.671677 -0.229522 -0.161601 0.959794
-0.359121 -0.830447 -0.695328 0.426801 0.760674 -0.489029
-0.357292 -0.833597 -0.699984 0.069552 0.852870 -0.517441
-0.354722 -0.832498 -0.677967 0.931547 0.352153 0.090304
-0.357086 -0.825819 -0.679626 0.915708 0.401776 0.000824
-0.356283 -0.828363 -0.674885 0.940672 0.338511 0.022462
-0.370475 -0.849808 -0.710303 -0.530290 0.316782 -0.786401
-0.367206 -0.852542 -0.713187 -0.443464 0.224708 -0.867641
-0.374558 -0.830938 -0.698168 -0.578965 0.790768 0.198708
-0.376152 -0.835414 -0.685002 -0.578965 0.790768 0.198708
-0.359854 -0.827568 -0.668738 -0.578965 0.790768 0.198708
-0.357444 -0.860396 -0.680271 -0.347535 -0.934465 -0.077420
-0.354703 -0.859914 -0.698387 -0.347535 -0.934465 -0.077420
-0.349452 -0.862909 -0.685809 -0.347535 -0.934465 -0.077420
-0.363789 -0.826910 -0.697073 0.673299 0.537309 -0.507828
-0.357354 -0.826500 -0.684629 0.831690 0.503861 -0.233161
-0.362227 -0.853655 -0.715270 0.920709 0.195234 -0.337902
-0.349452 -0.862909 -0.685809 0.920709 0.195234 -0.337902
-0.354703 -0.859914 -0.698387 0.920709 0.195234 -0.337902
-0.367243 -0.825342 -0.700836 -0.762943 -0.245565 0.598009
-0.366957 -0.830199 -0.702465 -0.762943 -0.245565 0.598009
-0.363789 -0.826910 -0.697073 -0.762943 -0.245565 0.598009
-0.356525 -0.839475 -0.709491 -0.104834 0.817021 -0.566998
-0.358460 -0.836468 -0.704801 -0.104834 0.817021 -0.566998
-0.353311 -0.835118 -0.703808 -0.104834 0.817021 -0.566998
-0.376152 -0.835414 -0.685002 -0.588435 0.779859 0.213460
-0.376091 -0.836802 -0.679760 -0.588435 0.779859 0.213460
-0.359854 -0.827568 -0.668738 -0.588435 0.779859 0.213460
-0.363092 -0.824131 -0.692852 0.647786 0.594195 -0.476730
-0.359854 -0.827568 -0.668738 -0.422798 -0.136441 0.895894
-0.374066 -0.842286 -0.677686 -0.422798 -0.136441 0.895894
-0.361697 -0.854260 -0.673672 -0.422798 -0.136441 0.895894
-0.376091 -0.836802 -0.679760 -0.592109 0.084487 0.801416
-0.374066 -0.842286 -0.677686 -0.592109 0.084487 0.801416
-0.359854 -0.827568 -0.668738 -0.592109 0.084487 0.801416
-0.374066 -0.842286 -0.677686 -0.713402 -0.679338 0.171923
-0.357444 -0.860396 -0.680271 -0.713402 -0.679338 0.171923
-0.361697 -0.854260 -0.673672 -0.713402 -0.679338 0.171923
-0.357503 -0.848366 -0.671677 0.887253 0.095751 0.451236
-0.349452 -0.862909 -0.685809 0.887253 0.095751 0.451236
-0.350548 -0.830639 -0.689113 0.887253 0.095751 0.451236
-0.354295 -0.831719 -0.682905 0.887253 0.095751 0.451236
-0.353311 -0.835118 -0.703808 -0.107425 0.880276 -0.462111
-0.370830 -0.851935 -0.704231 -0.913315 0.147601 -0.379566
-0.376152 -0.835414 -0.685002 -0.913315 0.147601 -0.379566
-0.367206 -0.852542 -0.713187 -0.913315 0.147601 -0.379566
-0.376152 -0.835414 -0.685002 -0.977123 -0.176336 -0.118894
-0.371636 -0.845463 -0.707207 -0.977123 -0.176336 -0.118894
-0.370475 -0.849808 -0.710303 -0.977123 -0.176336 -0.118894
-0.376152 -0.835414 -0.685002 -0.352295 -0.845231 0.401838
-0.370475 -0.849808 -0.710303 -0.352295 -0.845231 0.401838
-0.367206 -0.852542 -0.713187 -0.352295 -0.845231 0.401838
-0.366957 -0.830199 -0.702465 -0.293057 0.883105 -0.366391
-0.374558 -0.830938 -0.698168 -0.293057 0.883105 -0.366391
-0.363789 -0.826910 -0.697073 -0.293057 0.883105 -0.366391
-0.376091 -0.836802 -0.679760 -0.939291 -0.342972 0.010176
-0.370830 -0.851935 -0.704231 -0.939291 -0.342972 0.010176
-0.374066 -0.842286 -0.677686 -0.939291 -0.342972 0.010176
-0.362227 -0.853655 -0.715270 -0.356059 0.136662 -0.924406
-0.374066 -0.842286 -0.677686 -0.715772 -0.679791 0.159855
-0.370830 -0.851935 -0.704231 -0.715772 -0.679791 0.159855
-0.357444 -0.860396 -0.680271 -0.715772 -0.679791 0.159855
-0.376091 -0.836802 -0.679760 -0.967202 -0.248094 -0.054498
-0.376152 -0.835414 -0.685002 -0.967202 -0.248094 -0.054498
-0.370830 -0.851935 -0.704231 -0.967202 -0.248094 -0.054498
-0.350548 -0.830639 -0.689113 0.962538 0.059776 0.264476
-0.349452 -0.862909 -0.685809 0.962538 0.059776 0.264476
-0.349150 -0.830949 -0.694132 0.962538 0.059776 0.264476
-0.367206 -0.852542 -0.713187 -0.410288 -0.905931 -0.104657
-0.354703 -0.859914 -0.698387 -0.410288 -0.905931 -0.104657
-0.370830 -0.851935 -0.704231 -0.410288 -0.905931 -0.104657
-0.362227 -0.853655 -0.715270 -0.297093 -0.930858 -0.212695
-0.354703 -0.859914 -0.698387 -0.297093 -0.930858 -0.212695
-0.367206 -0.852542 -0.713187 -0.297093 -0.930858 -0.212695
4 0 1 2 3
3 4 5 6
3 7 8 9
3 10 11 12
3 13 14 15
4 16 17 18 19
3 20 21 22
3 23 24 25
3 26 27 28
3 20 29 21
3 30 4 6
3 4 20 10
3 31 32 33
3 10 20 11
3 5 10 34
3 35 36 37
3 38 39 40
3 41 42 43
3 44 45 46
3 47 48 49
3 50 51 52
3 53 54 55
3 56 57 58
3 59 36 60
3 61 60 62
4 63 64 65 66
3 67 68 69
3 70 71 72
3 73 74 75
3 76 77 78
3 79 80 81
3 82 83 84
3 85 86 87
3 88 89 90
3 91 92 93
3 36 59 94
3 20 22 11
3 95 96 97
3 9 98 99
3 100 101 102
3 60 36 35
3 103 34 104
3 61 98 60
3 105 106 107
3 108 109 110
3 23 25 7
3 61 99 98
3 23 29 20
3 9 8 111
3 112 36 94
3 113 114 115
3 116 117 118
3 119 120 121
3 122 123 124
3 5 34 103
3 4 10 5
3 100 37 101
3 98 125 59
3 126 127 128
3 129 130 131
3 132 133 134
3 23 4 30
3 29 23 7
3 37 36 112
3 9 99 21
4 135 136 137 138
3 23 20 4
3 99 61 139
3 111 125 98
3 98 59 60
3 140 141 142
3 143 144 145
3 146 147 148
3 10 12 34
3 6 5 103
3 149 150 151
3 24 23 30
3 152 153 154
3 29 7 9
3 155 104 34
3 156 157 158
3 29 9 21
3 21 99 139
3 159 160 161
3 162 163 164
3 9 111 98
3 165 166 167
3 168 169 170
3 37 112 101
3 62 60 35
