ply
format ascii 1.0
comment Created by Blender 2.69 (sub 10) - www.blender.org, source file: 'bunny_base.blend'
element vertex 174
property float x
property float y
property float z
property float nx
property float ny
property float nz
element face 127
property list uchar uint vertex_indices
end_header
-0.248517 -0.882305 -0.689710 0.733024 0.176153 0.656972
-0.247126 -0.878510 -0.693148 0.722404 0.353679 0.594134
-0.254379 -0.876211 -0.690040 0.272927 0.637684 0.720298
-0.247323 -0.888747 -0.693859 0.849208 -0.307901 0.428907
-0.246192 -0.883406 -0.694048 0.894223 -0.047182 0.445082
-0.249716 -0.887980 -0.689476 0.788232 -0.243660 0.565050
-0.242638 -0.882112 -0.704773 0.981475 -0.020661 0.190405
-0.243166 -0.876455 -0.705915 0.923734 0.312937 0.220771
-0.243612 -0.878955 -0.700493 0.950926 0.148350 0.271462
-0.261099 -0.863816 -0.710162 0.937559 0.282327 -0.203009
-0.259825 -0.863883 -0.704715 0.955535 0.261086 -0.136967
-0.258371 -0.868818 -0.703617 0.553697 0.831629 0.042085
-0.259274 -0.889112 -0.682662 -0.320482 -0.940045 0.116648
-0.292946 -0.879110 -0.694569 -0.320482 -0.940045 0.116648
-0.268504 -0.888167 -0.700401 -0.320482 -0.940045 0.116648
-0.262380 -0.854935 -0.697033 0.932676 0.348399 0.093112
-0.264614 -0.849702 -0.700761 0.904569 0.426283 -0.000885
-0.264580 -0.850476 -0.695701 0.903989 0.414167 0.106082
-0.258377 -0.872965 -0.688444 0.972564 0.148137 0.179205
-0.259738 -0.873567 -0.681873 0.951048 0.153325 0.268258
-0.259718 -0.878568 -0.682177 0.944090 0.048067 0.326121
-0.245286 -0.874077 -0.698847 0.806604 0.487197 0.334574
-0.248711 -0.868213 -0.708069 0.375835 0.921323 0.099307
-0.252044 -0.867927 -0.703867 0.134770 0.969756 0.203436
-0.247114 -0.870078 -0.702099 0.602527 0.729240 0.324229
-0.245030 -0.871528 -0.707054 0.755120 0.619648 0.213904
-0.257571 -0.872727 -0.693924 0.619495 0.639454 0.455306
-0.258029 -0.878637 -0.687163 0.693991 0.382580 0.609882
-0.254908 -0.890844 -0.684626 0.552324 -0.080935 0.829676
-0.253105 -0.884805 -0.684874 0.465285 0.145421 0.873104
-0.258580 -0.883210 -0.684386 0.659841 0.184851 0.728263
-0.243775 -0.887621 -0.703830 0.947905 -0.229530 0.220832
-0.244304 -0.884805 -0.698636 0.938231 -0.147496 0.312937
-0.246357 -0.890852 -0.698450 0.881863 -0.344981 0.321360
-0.261485 -0.858666 -0.706529 0.947356 0.268227 -0.174657
-0.260944 -0.859550 -0.701345 0.956328 0.291696 -0.017853
-0.262509 -0.854237 -0.702166 0.938505 0.343547 -0.033723
-0.263316 -0.853379 -0.707477 0.922239 0.340831 -0.182348
-0.265294 -0.848632 -0.705656 0.889767 0.447157 -0.091098
-0.252451 -0.869954 -0.698603 0.212653 0.859645 0.464492
-0.252377 -0.872694 -0.694350 0.629658 0.550768 0.547868
-0.260870 -0.860267 -0.696245 0.953124 0.290292 0.085299
-0.259407 -0.868420 -0.709112 0.640400 0.765221 -0.065401
-0.259656 -0.866950 -0.687982 0.929136 0.299631 0.216529
-0.262296 -0.869251 -0.679789 0.862941 0.340129 0.373608
-0.266950 -0.844914 -0.702044 0.871944 0.480300 -0.094607
-0.257732 -0.870043 -0.698273 0.605243 0.739555 0.294443
-0.263378 -0.884621 -0.706418 -0.360753 -0.635964 -0.682207
-0.268504 -0.888167 -0.700401 -0.360753 -0.635964 -0.682207
-0.291636 -0.860625 -0.713844 -0.360753 -0.635964 -0.682207
-0.262010 -0.862596 -0.686742 0.887845 0.364513 0.280801
-0.260613 -0.862854 -0.691882 0.938871 0.310465 0.148564
-0.250076 -0.893404 -0.693514 -0.061516 -0.866920 -0.494637
-0.268504 -0.888167 -0.700401 -0.061516 -0.866920 -0.494637
-0.246357 -0.890852 -0.698450 -0.061516 -0.866920 -0.494637
-0.259434 -0.864354 -0.699406 0.958129 0.285531 0.021088
-0.259274 -0.889112 -0.682662 0.649525 0.141820 0.746971
-0.291636 -0.860625 -0.713844 -0.391168 -0.647667 -0.653847
-0.268504 -0.888167 -0.700401 -0.391168 -0.647667 -0.653847
-0.299735 -0.865896 -0.703778 -0.391168 -0.647667 -0.653847
-0.261062 -0.884650 -0.679505 0.889035 0.018250 0.457411
-0.259274 -0.889112 -0.682662 -0.331394 0.007499 0.943463
-0.297029 -0.874795 -0.696038 -0.331394 0.007499 0.943463
-0.292946 -0.879110 -0.694569 -0.331394 0.007499 0.943463
-0.262505 -0.857255 -0.691764 0.931150 0.320505 0.173681
-0.269456 -0.841711 -0.705909 0.854640 0.510483 -0.094577
-0.252278 -0.892242 -0.688661 -0.474668 -0.880153 -0.004583
-0.254908 -0.890844 -0.684626 -0.474668 -0.880153 -0.004583
-0.250076 -0.893404 -0.693514 -0.474668 -0.880153 -0.004583
-0.254908 -0.890844 -0.684626 -0.320480 -0.940046 0.116647
-0.259274 -0.889112 -0.682662 -0.320480 -0.940046 0.116647
-0.268504 -0.888167 -0.700401 -0.320480 -0.940046 0.116647
-0.254908 -0.890844 -0.684626 -0.307955 -0.945599 0.104910
-0.268504 -0.888167 -0.700401 -0.307955 -0.945599 0.104910
-0.250076 -0.893404 -0.693514 -0.307955 -0.945599 0.104910
-0.268504 -0.888167 -0.700401 -0.056035 -0.841068 -0.538020
-0.263378 -0.884621 -0.706418 -0.056035 -0.841068 -0.538020
-0.243775 -0.887621 -0.703830 -0.056035 -0.841068 -0.538020
-0.246357 -0.890852 -0.698450 -0.056035 -0.841068 -0.538020
-0.268504 -0.888167 -0.700401 -0.396026 -0.653193 -0.645370
-0.292946 -0.879110 -0.694569 -0.396026 -0.653193 -0.645370
-0.299735 -0.865896 -0.703778 -0.396026 -0.653193 -0.645370
-0.291636 -0.860625 -0.713844 -0.559505 0.814291 0.154548
-0.299735 -0.865896 -0.703778 -0.559505 0.814291 0.154548
-0.267837 -0.844957 -0.710236 -0.559505 0.814291 0.154548
-0.270724 -0.843844 -0.714946 -0.559505 0.814291 0.154548
-0.262296 -0.869251 -0.679789 -0.393668 0.598150 0.698027
-0.262010 -0.862596 -0.686742 -0.393668 0.598150 0.698027
-0.299735 -0.865896 -0.703778 -0.393668 0.598150 0.698027
-0.297029 -0.874795 -0.696038 -0.393668 0.598150 0.698027
-0.259063 -0.867756 -0.693565 0.957579 0.268441 0.104526
-0.267064 -0.848740 -0.713642 0.860378 0.418958 -0.290109
-0.267837 -0.844957 -0.710236 0.856471 0.472701 -0.207343
-0.292946 -0.879110 -0.694569 -0.481314 -0.653990 -0.583639
-0.297029 -0.874795 -0.696038 -0.481314 -0.653990 -0.583639
-0.299735 -0.865896 -0.703778 -0.481314 -0.653990 -0.583639
-0.270724 -0.843844 -0.714946 0.098347 -0.186706 -0.977481
-0.267064 -0.848740 -0.713642 0.098347 -0.186706 -0.977481
-0.291636 -0.860625 -0.713844 0.098347 -0.186706 -0.977481
-0.267064 -0.848740 -0.713642 0.098220 -0.186763 -0.977483
-0.265006 -0.853198 -0.712583 0.098220 -0.186763 -0.977483
-0.262957 -0.858695 -0.711327 0.098220 -0.186763 -0.977483
-0.259407 -0.868420 -0.709112 0.098344 -0.186707 -0.977481
-0.253735 -0.867569 -0.708705 0.098344 -0.186707 -0.977481
-0.263378 -0.884621 -0.706418 0.098344 -0.186707 -0.977481
-0.267064 -0.848740 -0.713642 0.098349 -0.186708 -0.977480
-0.263378 -0.884621 -0.706418 0.098349 -0.186708 -0.977480
-0.291636 -0.860625 -0.713844 0.098349 -0.186708 -0.977480
-0.267064 -0.848740 -0.713642 0.098357 -0.186706 -0.977480
-0.262957 -0.858695 -0.711327 0.098357 -0.186706 -0.977480
-0.259407 -0.868420 -0.709112 0.098357 -0.186706 -0.977480
-0.267064 -0.848740 -0.713642 0.098351 -0.186708 -0.977480
-0.259407 -0.868420 -0.709112 0.098351 -0.186708 -0.977480
-0.263378 -0.884621 -0.706418 0.098351 -0.186708 -0.977480
-0.243166 -0.876455 -0.705915 0.100223 -0.187933 -0.977020
-0.248711 -0.868213 -0.708069 0.100223 -0.187933 -0.977020
-0.245030 -0.871528 -0.707054 0.100223 -0.187933 -0.977020
-0.261099 -0.863816 -0.710162 -0.099114 0.186422 0.977458
-0.259407 -0.868420 -0.709112 -0.099114 0.186422 0.977458
-0.262957 -0.858695 -0.711327 -0.099114 0.186422 0.977458
-0.267837 -0.844957 -0.710236 -0.511298 0.584594 -0.629940
-0.299735 -0.865896 -0.703778 -0.511298 0.584594 -0.629940
-0.269456 -0.841711 -0.705909 -0.511298 0.584594 -0.629940
-0.265006 -0.853198 -0.712583 0.904294 0.316782 -0.286111
-0.270724 -0.843844 -0.714946 0.789148 0.492172 -0.367351
-0.262296 -0.869251 -0.679789 -0.281325 -0.547464 0.788124
-0.297029 -0.874795 -0.696038 -0.281325 -0.547464 0.788124
-0.259738 -0.873567 -0.681873 -0.281325 -0.547464 0.788124
-0.297029 -0.874795 -0.696038 -0.460418 -0.628174 0.627226
-0.259274 -0.889112 -0.682662 -0.460418 -0.628174 0.627226
-0.261062 -0.884650 -0.679505 -0.460418 -0.628174 0.627226
-0.261062 -0.884650 -0.679505 0.911779 -0.021339 0.410126
-0.259718 -0.878568 -0.682177 0.911779 -0.021339 0.410126
-0.259738 -0.873567 -0.681873 0.911779 -0.021339 0.410126
-0.297029 -0.874795 -0.696038 -0.351862 0.235577 0.905923
-0.261062 -0.884650 -0.679505 -0.351862 0.235577 0.905923
-0.259738 -0.873567 -0.681873 -0.351862 0.235577 0.905923
-0.252278 -0.892242 -0.688661 -0.320475 -0.940031 0.116672
-0.254908 -0.890844 -0.684626 -0.320475 -0.940031 0.116672
-0.259274 -0.889112 -0.682662 -0.320475 -0.940031 0.116672
-0.262957 -0.858695 -0.711327 0.925748 0.264016 -0.270669
-0.269456 -0.841711 -0.705909 -0.398384 0.562596 0.724414
-0.299735 -0.865896 -0.703778 -0.398384 0.562596 0.724414
-0.266950 -0.844914 -0.702044 -0.398384 0.562596 0.724414
-0.299735 -0.865896 -0.703778 -0.367648 0.618747 0.694253
-0.262010 -0.862596 -0.686742 -0.367648 0.618747 0.694253
-0.262505 -0.857255 -0.691764 -0.367648 0.618747 0.694253
-0.262505 -0.857255 -0.691764 -0.948394 -0.314348 -0.041639
-0.264580 -0.850476 -0.695701 -0.948394 -0.314348 -0.041639
-0.264614 -0.849702 -0.700761 -0.948394 -0.314348 -0.041639
-0.299735 -0.865896 -0.703778 -0.165845 0.178990 0.969772
-0.264614 -0.849702 -0.700761 -0.165845 0.178990 0.969772
-0.266950 -0.844914 -0.702044 -0.165845 0.178990 0.969772
-0.299735 -0.865896 -0.703778 -0.364299 0.669420 0.647429
-0.262505 -0.857255 -0.691764 -0.364299 0.669420 0.647429
-0.264614 -0.849702 -0.700761 -0.364299 0.669420 0.647429
-0.243775 -0.887621 -0.703830 0.100210 -0.187937 -0.977056
-0.263378 -0.884621 -0.706418 0.100210 -0.187937 -0.977056
-0.242638 -0.882112 -0.704773 0.100210 -0.187937 -0.977056
-0.263378 -0.884621 -0.706418 0.099539 -0.187350 -0.977237
-0.253735 -0.867569 -0.708705 0.099539 -0.187350 -0.977237
-0.248711 -0.868213 -0.708069 0.099539 -0.187350 -0.977237
-0.248711 -0.868213 -0.708069 0.100187 -0.187950 -0.977055
-0.245030 -0.871528 -0.707054 0.100187 -0.187950 -0.977055
-0.243166 -0.876455 -0.705915 0.100187 -0.187950 -0.977055
-0.263378 -0.884621 -0.706418 0.100209 -0.187925 -0.977058
-0.243166 -0.876455 -0.705915 0.100209 -0.187925 -0.977058
-0.242638 -0.882112 -0.704773 0.100209 -0.187925 -0.977058
-0.263378 -0.884621 -0.706418 0.100212 -0.187933 -0.977056
-0.248711 -0.868213 -0.708069 0.100212 -0.187933 -0.977056
-0.243166 -0.876455 -0.705915 0.100212 -0.187933 -0.977056
-0.253735 -0.867569 -0.708705 -0.047731 0.995422 0.082492
-0.252278 -0.892242 -0.688661 0.758263 -0.363231 0.541337
-0.250076 -0.893404 -0.693514 0.790857 -0.435682 0.429731
3 0 1 2
3 3 4 5
3 6 7 8
3 9 10 11
3 12 13 14
3 15 16 17
3 4 0 5
3 18 19 20
3 1 8 21
4 22 23 24 25
3 2 26 27
3 28 29 30
3 31 32 33
3 10 34 35
3 36 37 38
3 39 26 40
3 24 39 21
3 35 36 41
3 11 42 9
3 43 44 19
3 8 1 4
3 16 38 45
3 39 23 46
3 1 21 40
3 47 48 49
3 44 43 50
3 51 50 43
3 52 53 54
3 2 27 29
3 10 35 55
3 24 23 39
3 56 28 30
3 7 24 8
3 18 43 19
3 40 21 39
3 57 58 59
3 30 20 60
3 4 1 0
3 61 62 63
3 41 15 64
3 45 38 65
3 30 27 20
3 6 8 32
3 66 67 68
3 69 70 71
3 72 73 74
4 75 76 77 78
3 40 26 2
3 6 32 31
3 37 36 35
3 79 80 81
4 82 83 84 85
4 86 87 88 89
3 56 30 60
3 32 4 3
3 2 1 40
3 90 43 18
3 37 91 92
3 5 0 29
3 32 8 4
3 15 17 64
3 28 5 29
3 93 94 95
3 39 40 2
3 11 10 46
3 10 55 46
3 51 64 50
3 27 18 20
3 39 46 26
3 90 41 51
3 36 16 15
3 29 27 30
3 96 97 98
3 99 100 101
3 102 103 104
3 105 106 107
3 108 109 110
3 111 112 113
3 114 115 116
3 117 118 119
3 41 64 51
3 26 18 27
3 0 2 29
3 7 25 24
3 120 121 122
3 26 90 18
3 90 51 43
3 36 15 41
3 46 90 26
3 55 41 90
3 55 35 41
3 46 55 90
3 38 92 65
3 36 38 16
3 8 24 21
3 33 32 3
3 37 92 38
3 123 37 34
3 123 91 37
3 124 92 91
3 125 126 127
3 128 129 130
3 131 132 133
3 134 135 136
3 137 138 139
3 140 34 10
3 9 140 10
3 140 123 34
3 141 142 143
3 144 145 146
3 147 148 149
3 150 151 152
3 153 154 155
3 11 46 23
3 156 157 158
3 159 160 161
3 162 163 164
3 165 166 167
3 168 169 170
3 42 11 171
3 34 37 35
3 23 22 171
3 11 23 171
3 5 28 172
3 173 33 3
3 3 172 173
3 5 172 3
