ply
format ascii 1.0
comment Created by Blender 2.69 (sub 10) - www.blender.org, source file: 'bunny_base.blend'
element vertex 238
property float x
property float y
property float z
property float nx
property float ny
property float nz
element face 144
property list uchar uint vertex_indices
end_header
-0.346653 -0.861761 -0.723950 -0.511399 0.110813 -0.852138
-0.348636 -0.866436 -0.723222 -0.526139 -0.072359 -0.847285
-0.354051 -0.864603 -0.719306 -0.491409 -0.064455 -0.868526
-0.339704 -0.903309 -0.707102 -0.830348 -0.528123 0.177557
-0.344291 -0.896036 -0.706917 -0.800836 -0.598071 -0.030549
-0.342485 -0.900198 -0.710133 -0.814631 -0.535874 0.221809
-0.358515 -0.891170 -0.702994 -0.204688 -0.760460 -0.616260
-0.360320 -0.887771 -0.706484 -0.213050 -0.677938 -0.703543
-0.355639 -0.887022 -0.708325 -0.302896 -0.680929 -0.666738
-0.362971 -0.873549 -0.713098 -0.412702 -0.290750 -0.863186
-0.358791 -0.871488 -0.715458 -0.416730 -0.243904 -0.875668
-0.355812 -0.876887 -0.715365 -0.461898 -0.296854 -0.835749
-0.350952 -0.887933 -0.710446 -0.584033 -0.652272 -0.483108
-0.348514 -0.885739 -0.716899 -0.916257 -0.207617 -0.342570
-0.347887 -0.891208 -0.715338 -0.962371 -0.271615 0.005249
-0.346405 -0.880861 -0.723952 0.223221 -0.342985 -0.912433
-0.343289 -0.876894 -0.724656 0.223221 -0.342985 -0.912433
-0.327030 -0.899360 -0.712259 0.223221 -0.342985 -0.912433
-0.348019 -0.885708 -0.722500 0.223221 -0.342985 -0.912433
-0.346295 -0.895758 -0.712278 -0.887051 -0.407605 0.216742
-0.347412 -0.895695 -0.718504 -0.942564 -0.311472 0.120518
-0.346405 -0.880861 -0.723952 -0.870083 0.180883 -0.458449
-0.348019 -0.885708 -0.722500 -0.980285 0.178076 -0.085574
-0.323624 -0.863916 -0.699548 0.383933 0.844830 0.372637
-0.307732 -0.870093 -0.701917 0.383933 0.844830 0.372637
-0.322734 -0.859284 -0.710965 0.383933 0.844830 0.372637
-0.325537 -0.880480 -0.687703 0.189916 0.256474 0.947709
-0.318923 -0.876119 -0.690209 0.189916 0.256474 0.947709
-0.316501 -0.871550 -0.691931 0.189916 0.256474 0.947709
-0.363339 -0.867799 -0.714616 -0.407544 -0.170721 -0.897061
-0.331548 -0.852836 -0.730207 0.409402 0.904980 0.115764
-0.322734 -0.859284 -0.710965 0.409402 0.904980 0.115764
-0.308033 -0.864837 -0.719549 0.409402 0.904980 0.115764
-0.343759 -0.857206 -0.724846 -0.491256 0.167852 -0.854671
-0.349377 -0.858223 -0.721335 -0.457350 0.288491 -0.841151
-0.346525 -0.853766 -0.721856 -0.545183 0.255531 -0.798395
-0.341060 -0.904175 -0.713727 -0.841426 -0.495682 0.215003
-0.344376 -0.899645 -0.716260 -0.817530 -0.547105 0.179662
-0.344011 -0.867505 -0.725556 -0.420270 -0.148015 -0.895230
-0.341844 -0.862350 -0.726932 -0.375439 0.079470 -0.923429
-0.339305 -0.866823 -0.727275 -0.304727 -0.133427 -0.943022
-0.343289 -0.876894 -0.724656 -0.600360 0.093966 -0.794153
-0.347312 -0.876265 -0.720810 -0.672445 -0.101291 -0.733146
-0.345713 -0.871945 -0.723315 -0.516037 -0.197394 -0.833491
-0.319038 -0.891618 -0.695039 0.371133 -0.898396 0.234829
-0.339611 -0.901957 -0.702077 0.371133 -0.898396 0.234829
-0.339704 -0.903309 -0.707102 0.371133 -0.898396 0.234829
-0.356333 -0.894411 -0.699082 -0.422071 -0.732170 -0.534532
-0.353392 -0.891347 -0.704691 -0.296030 -0.737297 -0.607227
-0.351605 -0.897057 -0.700072 -0.291971 -0.743461 -0.601611
-0.357397 -0.881221 -0.712845 -0.446822 -0.475234 -0.757927
-0.362182 -0.878829 -0.710962 -0.502182 -0.401715 -0.765770
-0.359115 -0.865763 -0.716896 -0.434126 -0.132420 -0.891049
-0.354720 -0.869655 -0.718132 -0.494156 -0.203711 -0.845149
-0.340429 -0.871579 -0.725868 -0.385968 -0.153691 -0.909604
-0.307732 -0.870093 -0.701917 0.448824 0.851062 0.272488
-0.307706 -0.866976 -0.711695 0.448824 0.851062 0.272488
-0.322734 -0.859284 -0.710965 0.448824 0.851062 0.272488
-0.318923 -0.876119 -0.690209 0.529212 0.038895 0.847598
-0.309755 -0.874772 -0.695995 0.529212 0.038895 0.847598
-0.316501 -0.871550 -0.691931 0.529212 0.038895 0.847598
-0.348873 -0.880540 -0.718198 -0.720389 -0.199011 -0.664357
-0.322734 -0.859284 -0.710965 0.453105 0.864732 0.216644
-0.307706 -0.866976 -0.711695 0.453105 0.864732 0.216644
-0.308033 -0.864837 -0.719549 0.453105 0.864732 0.216644
-0.348019 -0.885708 -0.722500 0.215918 -0.351427 -0.910977
-0.327030 -0.899360 -0.712259 0.215918 -0.351427 -0.910977
-0.348160 -0.890828 -0.720558 0.215918 -0.351427 -0.910977
-0.327030 -0.899360 -0.712259 0.215921 -0.351421 -0.910978
-0.341060 -0.904175 -0.713727 0.215921 -0.351421 -0.910978
-0.344376 -0.899645 -0.716260 0.215921 -0.351421 -0.910978
-0.344376 -0.899645 -0.716260 0.215920 -0.351422 -0.910978
-0.347412 -0.895695 -0.718504 0.215920 -0.351422 -0.910978
-0.348160 -0.890828 -0.720558 0.215920 -0.351422 -0.910978
-0.327030 -0.899360 -0.712259 0.215921 -0.351422 -0.910978
-0.344376 -0.899645 -0.716260 0.215921 -0.351422 -0.910978
-0.348160 -0.890828 -0.720558 0.215921 -0.351422 -0.910978
-0.343713 -0.901182 -0.696160 -0.402020 -0.766259 -0.501175
-0.346200 -0.897124 -0.700369 -0.377056 -0.761223 -0.527573
-0.339611 -0.901957 -0.702077 -0.734519 -0.667837 -0.120121
-0.351852 -0.875162 -0.718305 -0.503891 -0.274545 -0.818964
-0.341060 -0.904175 -0.713727 0.138855 -0.636037 0.759062
-0.327030 -0.899360 -0.712259 0.138855 -0.636037 0.759062
-0.342485 -0.900198 -0.710133 0.138855 -0.636037 0.759062
-0.327030 -0.899360 -0.712259 0.373685 -0.898456 0.230514
-0.319038 -0.891618 -0.695039 0.373685 -0.898456 0.230514
-0.339704 -0.903309 -0.707102 0.373685 -0.898456 0.230514
-0.327030 -0.899360 -0.712259 -0.055735 -0.721903 -0.689746
-0.339704 -0.903309 -0.707102 -0.055735 -0.721903 -0.689746
-0.342485 -0.900198 -0.710133 -0.055735 -0.721903 -0.689746
-0.352786 -0.882234 -0.715160 -0.532090 -0.629597 -0.566057
-0.339017 -0.856468 -0.727431 0.427231 0.273296 0.861849
-0.343759 -0.857206 -0.724846 0.427231 0.273296 0.861849
-0.334482 -0.856920 -0.729536 0.427231 0.273296 0.861849
-0.343759 -0.857206 -0.724846 0.406828 0.763266 -0.501912
-0.346525 -0.853766 -0.721856 0.406828 0.763266 -0.501912
-0.322734 -0.859284 -0.710965 0.406828 0.763266 -0.501912
-0.322734 -0.859284 -0.710965 -0.666246 0.559744 0.492750
-0.331548 -0.852836 -0.730207 -0.666246 0.559744 0.492750
-0.334482 -0.856920 -0.729536 -0.666246 0.559744 0.492750
-0.343759 -0.857206 -0.724846 0.025192 0.993548 0.110578
-0.322734 -0.859284 -0.710965 0.025192 0.993548 0.110578
-0.334482 -0.856920 -0.729536 0.025192 0.993548 0.110578
-0.348160 -0.890828 -0.720558 -0.996551 -0.082858 0.001465
-0.348484 -0.892837 -0.704097 -0.378094 -0.770592 -0.513016
-0.307732 -0.870093 -0.701917 0.852926 -0.498013 -0.156523
-0.319038 -0.891618 -0.695039 0.852926 -0.498013 -0.156523
-0.307706 -0.866976 -0.711695 0.852926 -0.498013 -0.156523
-0.325537 -0.880480 -0.687703 0.478698 -0.240967 0.844265
-0.323684 -0.892301 -0.692128 0.478698 -0.240967 0.844265
-0.318923 -0.876119 -0.690209 0.478698 -0.240967 0.844265
-0.307706 -0.866976 -0.711695 0.847227 -0.502546 -0.172204
-0.327030 -0.899360 -0.712259 0.847227 -0.502546 -0.172204
-0.308033 -0.864837 -0.719549 0.847227 -0.502546 -0.172204
-0.307732 -0.870093 -0.701917 0.870552 -0.484587 -0.085528
-0.309755 -0.874772 -0.695995 0.870552 -0.484587 -0.085528
-0.319038 -0.891618 -0.695039 0.870552 -0.484587 -0.085528
-0.325537 -0.880480 -0.687703 0.028122 -0.346559 0.937607
-0.345901 -0.875334 -0.685190 0.028122 -0.346559 0.937607
-0.323684 -0.892301 -0.692128 0.028122 -0.346559 0.937607
-0.354184 -0.858755 -0.719416 -0.443434 0.060732 -0.894223
-0.339017 -0.856468 -0.727431 -0.474563 -0.031831 -0.879635
-0.336982 -0.862168 -0.728323 -0.332377 0.031220 -0.942595
-0.346770 -0.891509 -0.709600 -0.772057 -0.627949 -0.097751
-0.334482 -0.856920 -0.729536 0.246547 -0.327122 -0.912253
-0.331548 -0.852836 -0.730207 0.246547 -0.327122 -0.912253
-0.308033 -0.864837 -0.719549 0.246547 -0.327122 -0.912253
-0.354160 -0.897653 -0.695794 -0.491012 -0.773370 -0.400952
-0.349239 -0.900520 -0.695949 -0.206946 -0.788476 -0.579150
-0.345901 -0.875334 -0.685190 0.180179 0.279786 0.943003
-0.316501 -0.871550 -0.691931 0.180179 0.279786 0.943003
-0.346757 -0.866510 -0.687645 0.180179 0.279786 0.943003
-0.316501 -0.871550 -0.691931 0.183321 0.262925 0.947240
-0.345901 -0.875334 -0.685190 0.183321 0.262925 0.947240
-0.325537 -0.880480 -0.687703 0.183321 0.262925 0.947240
-0.350249 -0.870828 -0.720792 -0.529893 -0.260231 -0.807123
-0.309755 -0.874772 -0.695995 0.542628 -0.253590 0.800779
-0.318923 -0.876119 -0.690209 0.542628 -0.253590 0.800779
-0.319038 -0.891618 -0.695039 0.542628 -0.253590 0.800779
-0.307706 -0.866976 -0.711695 0.847905 -0.503035 -0.167370
-0.319038 -0.891618 -0.695039 0.847905 -0.503035 -0.167370
-0.327030 -0.899360 -0.712259 0.847905 -0.503035 -0.167370
-0.316501 -0.871550 -0.691931 0.213206 0.782581 0.584902
-0.323624 -0.863916 -0.699548 0.213206 0.782581 0.584902
-0.346757 -0.866510 -0.687645 0.213206 0.782581 0.584902
-0.318923 -0.876119 -0.690209 0.540093 -0.254059 0.802343
-0.323684 -0.892301 -0.692128 0.540093 -0.254059 0.802343
-0.319038 -0.891618 -0.695039 0.540093 -0.254059 0.802343
-0.309755 -0.874772 -0.695995 0.609413 0.507473 0.609169
-0.307732 -0.870093 -0.701917 0.609413 0.507473 0.609169
-0.316501 -0.871550 -0.691931 0.609413 0.507473 0.609169
-0.363339 -0.867799 -0.714616 -0.851034 0.082534 0.518584
-0.362971 -0.873549 -0.713098 -0.851034 0.082534 0.518584
-0.362182 -0.878829 -0.710962 -0.851034 0.082534 0.518584
-0.361376 -0.883422 -0.708909 -0.851034 0.082534 0.518584
-0.343289 -0.876894 -0.724656 0.234253 -0.334237 -0.912914
-0.340429 -0.871579 -0.725868 0.234253 -0.334237 -0.912914
-0.327030 -0.899360 -0.712259 0.234253 -0.334237 -0.912914
-0.340429 -0.871579 -0.725868 0.246126 -0.328028 -0.912041
-0.339305 -0.866823 -0.727275 0.246126 -0.328028 -0.912041
-0.336982 -0.862168 -0.728323 0.246126 -0.328028 -0.912041
-0.336982 -0.862168 -0.728323 -0.421675 -0.008716 -0.906705
-0.339017 -0.856468 -0.727431 -0.421675 -0.008716 -0.906705
-0.334482 -0.856920 -0.729536 -0.421675 -0.008716 -0.906705
-0.334482 -0.856920 -0.729536 0.246183 -0.328044 -0.912021
-0.308033 -0.864837 -0.719549 0.246183 -0.328044 -0.912021
-0.327030 -0.899360 -0.712259 0.246183 -0.328044 -0.912021
-0.340429 -0.871579 -0.725868 0.246186 -0.328044 -0.912020
-0.336982 -0.862168 -0.728323 0.246186 -0.328044 -0.912020
-0.327030 -0.899360 -0.712259 0.246186 -0.328044 -0.912020
-0.336982 -0.862168 -0.728323 0.246195 -0.328041 -0.912018
-0.334482 -0.856920 -0.729536 0.246195 -0.328041 -0.912018
-0.327030 -0.899360 -0.712259 0.246195 -0.328041 -0.912018
-0.323624 -0.863916 -0.699548 0.092596 0.920139 0.380488
-0.322734 -0.859284 -0.710965 0.092596 0.920139 0.380488
-0.346757 -0.866510 -0.687645 0.092596 0.920139 0.380488
-0.307732 -0.870093 -0.701917 0.380893 0.806541 0.452119
-0.323624 -0.863916 -0.699548 0.380893 0.806541 0.452119
-0.316501 -0.871550 -0.691931 0.380893 0.806541 0.452119
-0.361376 -0.883422 -0.708909 -0.463820 -0.486007 -0.740684
-0.353122 -0.862435 -0.698702 0.864744 -0.011649 -0.502077
-0.346757 -0.866510 -0.687645 0.864744 -0.011649 -0.502077
-0.362544 -0.857423 -0.715046 0.864744 -0.011649 -0.502077
-0.358515 -0.891170 -0.702994 -0.850393 0.081996 0.519720
-0.346757 -0.866510 -0.687645 -0.850393 0.081996 0.519720
-0.353122 -0.862435 -0.698702 -0.850393 0.081996 0.519720
-0.360320 -0.887771 -0.706484 -0.850393 0.081996 0.519720
-0.358949 -0.860767 -0.717406 -0.455885 0.020508 -0.889767
-0.345901 -0.875334 -0.685190 -0.842243 0.069944 0.534541
-0.346757 -0.866510 -0.687645 -0.842243 0.069944 0.534541
-0.358515 -0.891170 -0.702994 -0.842243 0.069944 0.534541
-0.356333 -0.894411 -0.699082 -0.842243 0.069944 0.534541
-0.354184 -0.858755 -0.719416 0.443485 -0.127151 0.887217
-0.358018 -0.855114 -0.716978 0.443485 -0.127151 0.887217
-0.362544 -0.857423 -0.715046 0.443485 -0.127151 0.887217
-0.362544 -0.857423 -0.715046 0.012892 0.951288 0.308033
-0.346757 -0.866510 -0.687645 0.012892 0.951288 0.308033
-0.322734 -0.859284 -0.710965 0.012892 0.951288 0.308033
-0.322734 -0.859284 -0.710965 -0.333056 0.316848 0.888077
-0.346525 -0.853766 -0.721856 -0.333056 0.316848 0.888077
-0.349377 -0.858223 -0.721335 -0.333056 0.316848 0.888077
-0.354184 -0.858755 -0.719416 -0.378592 0.385060 -0.841664
-0.362544 -0.857423 -0.715046 -0.378592 0.385060 -0.841664
-0.349377 -0.858223 -0.721335 -0.378592 0.385060 -0.841664
-0.362544 -0.857423 -0.715046 0.049153 0.998501 -0.024090
-0.322734 -0.859284 -0.710965 0.049153 0.998501 -0.024090
-0.349377 -0.858223 -0.721335 0.049153 0.998501 -0.024090
-0.362544 -0.857423 -0.715046 -0.850406 0.091115 0.518177
-0.362991 -0.862440 -0.714898 -0.850406 0.091115 0.518177
-0.353122 -0.862435 -0.698702 -0.850406 0.091115 0.518177
-0.362991 -0.862440 -0.714898 -0.504440 -0.019440 -0.863216
-0.339611 -0.901957 -0.702077 0.327439 -0.883967 0.333744
-0.319038 -0.891618 -0.695039 0.327439 -0.883967 0.333744
-0.323684 -0.892301 -0.692128 0.327439 -0.883967 0.333744
-0.343713 -0.901182 -0.696160 0.327439 -0.883967 0.333744
-0.323684 -0.892301 -0.692128 -0.011657 -0.391494 0.920107
-0.345901 -0.875334 -0.685190 -0.011657 -0.391494 0.920107
-0.343713 -0.901182 -0.696160 -0.011657 -0.391494 0.920107
-0.345901 -0.875334 -0.685190 -0.184172 -0.365363 0.912464
-0.354160 -0.897653 -0.695794 -0.184172 -0.365363 0.912464
-0.349239 -0.900520 -0.695949 -0.184172 -0.365363 0.912464
-0.345901 -0.875334 -0.685190 -0.011663 -0.391494 0.920107
-0.349239 -0.900520 -0.695949 -0.011663 -0.391494 0.920107
-0.343713 -0.901182 -0.696160 -0.011663 -0.391494 0.920107
-0.362544 -0.857423 -0.715046 -0.490280 0.084964 -0.867397
-0.358018 -0.855114 -0.716978 -0.441359 0.139836 -0.886349
-0.360320 -0.887771 -0.706484 -0.851043 0.082523 0.518571
-0.353122 -0.862435 -0.698702 -0.851043 0.082523 0.518571
-0.361376 -0.883422 -0.708909 -0.851043 0.082523 0.518571
-0.353122 -0.862435 -0.698702 -0.851044 0.082520 0.518569
-0.362991 -0.862440 -0.714898 -0.851044 0.082520 0.518569
-0.363339 -0.867799 -0.714616 -0.851044 0.082520 0.518569
-0.353122 -0.862435 -0.698702 -0.851045 0.082526 0.518567
-0.363339 -0.867799 -0.714616 -0.851045 0.082526 0.518567
-0.361376 -0.883422 -0.708909 -0.851045 0.082526 0.518567
-0.345901 -0.875334 -0.685190 -0.819418 0.031291 0.572341
-0.356333 -0.894411 -0.699082 -0.819418 0.031291 0.572341
-0.354160 -0.897653 -0.695794 -0.819418 0.031291 0.572341
3 0 1 2
3 3 4 5
3 6 7 8
3 9 10 11
3 12 13 14
4 15 16 17 18
3 19 14 20
3 13 21 22
3 23 24 25
3 26 27 28
3 9 29 10
3 30 31 32
3 33 34 35
3 5 4 19
3 36 5 37
3 38 39 40
3 41 42 43
3 44 45 46
3 47 48 49
3 39 0 33
3 50 51 9
3 10 52 53
3 43 38 54
3 55 56 57
3 58 59 60
3 29 52 10
3 13 61 21
3 62 63 64
3 65 66 67
3 68 69 70
3 71 72 73
3 74 75 76
3 77 78 79
3 11 10 80
3 81 82 83
3 84 85 86
3 87 88 89
3 90 50 11
3 91 92 93
3 94 95 96
3 97 98 99
3 100 101 102
3 13 22 103
3 104 4 78
3 105 106 107
3 108 109 110
3 111 112 113
3 114 115 116
3 117 118 119
3 5 19 37
3 0 2 120
3 121 122 33
3 122 40 39
3 38 1 0
3 50 90 8
3 122 39 33
3 48 6 8
3 19 4 123
3 124 125 126
3 41 43 54
3 47 49 127
3 127 49 128
3 129 130 131
3 132 133 134
3 42 135 43
3 33 0 34
3 136 137 138
3 8 12 48
3 123 12 14
3 80 53 135
3 2 1 53
3 80 10 53
3 19 123 14
3 139 140 141
3 142 143 144
3 145 146 147
3 148 149 150
3 135 53 1
3 2 53 52
3 42 80 135
4 151 152 153 154
3 61 11 80
3 20 14 103
3 78 4 79
3 155 156 157
3 158 159 160
3 161 162 163
3 164 165 166
3 167 168 169
3 170 171 172
3 14 13 103
3 173 174 175
3 8 7 50
3 34 0 120
3 176 177 178
3 13 90 61
3 41 21 42
3 179 51 50
3 128 49 78
3 180 181 182
4 183 184 185 186
3 120 2 187
3 50 9 11
3 8 90 12
3 3 79 4
3 38 40 54
3 43 135 1
3 7 179 50
3 90 11 61
4 188 189 190 191
3 48 12 123
3 192 193 194
3 195 196 197
3 198 199 200
3 201 202 203
3 204 205 206
3 207 208 209
3 38 43 1
3 52 29 210
4 211 212 213 214
3 49 48 104
3 12 90 13
3 215 216 217
3 218 219 220
3 221 222 223
3 38 0 39
3 123 4 104
3 187 210 224
3 187 52 210
3 225 187 224
3 226 227 228
3 229 230 231
3 232 233 234
3 225 120 187
3 2 52 187
3 6 48 47
3 90 50 13
3 21 61 42
3 78 49 104
3 235 236 237
3 48 123 104
3 61 80 42
3 128 78 77
3 37 19 20
