ply
format ascii 1.0
comment Created by Blender 2.69 (sub 10) - www.blender.org, source file: 'bunny_base.blend'
element vertex 98
property float x
property float y
property float z
property float nx
property float ny
property float nz
element face 73
property list uchar uint vertex_indices
end_header
-0.392157 -0.817913 -0.657434 -0.568506 -0.469519 -0.675538
-0.392023 -0.813624 -0.660528 -0.568506 -0.469519 -0.675538
-0.391712 -0.822284 -0.654770 -0.568506 -0.469519 -0.675538
-0.392023 -0.813624 -0.660528 -0.568557 -0.469503 -0.675508
-0.374947 -0.823784 -0.667838 -0.568557 -0.469503 -0.675508
-0.387987 -0.836898 -0.647748 -0.568557 -0.469503 -0.675508
-0.387987 -0.836898 -0.647748 -0.568555 -0.469501 -0.675511
-0.391023 -0.831750 -0.648771 -0.568555 -0.469501 -0.675511
-0.391571 -0.826996 -0.651614 -0.568555 -0.469501 -0.675511
-0.392023 -0.813624 -0.660528 -0.568549 -0.469504 -0.675513
-0.387987 -0.836898 -0.647748 -0.568549 -0.469504 -0.675513
-0.391712 -0.822284 -0.654770 -0.568549 -0.469504 -0.675513
-0.387987 -0.836898 -0.647748 -0.568573 -0.469501 -0.675495
-0.391571 -0.826996 -0.651614 -0.568573 -0.469501 -0.675495
-0.391712 -0.822284 -0.654770 -0.568573 -0.469501 -0.675495
-0.377385 -0.827730 -0.647029 -0.018372 0.122227 0.992309
-0.381543 -0.818639 -0.647957 -0.285592 0.397137 0.872158
-0.382976 -0.823452 -0.647126 -0.206030 0.292062 0.933927
-0.372946 -0.830145 -0.645813 0.424518 -0.859428 -0.284901
-0.364416 -0.823208 -0.654032 0.424518 -0.859428 -0.284901
-0.365062 -0.825066 -0.649388 0.424518 -0.859428 -0.284901
-0.368393 -0.827723 -0.646342 0.424518 -0.859428 -0.284901
-0.382890 -0.808726 -0.660360 0.131791 0.495790 -0.858384
-0.377776 -0.809236 -0.659869 0.131791 0.495790 -0.858384
-0.387990 -0.810016 -0.661888 0.131791 0.495790 -0.858384
-0.377776 -0.809236 -0.659869 0.131798 0.495832 -0.858359
-0.372533 -0.812324 -0.660848 0.131798 0.495832 -0.858359
-0.369878 -0.816911 -0.663090 0.131798 0.495832 -0.858359
-0.369878 -0.816911 -0.663090 0.217333 0.441223 -0.870683
-0.366625 -0.820867 -0.664283 0.217333 0.441223 -0.870683
-0.374947 -0.823784 -0.667838 0.217333 0.441223 -0.870683
-0.374947 -0.823784 -0.667838 -0.364211 0.056735 -0.929587
-0.392023 -0.813624 -0.660528 -0.364211 0.056735 -0.929587
-0.387990 -0.810016 -0.661888 -0.364211 0.056735 -0.929587
-0.377776 -0.809236 -0.659869 0.131785 0.495822 -0.858366
-0.369878 -0.816911 -0.663090 0.131785 0.495822 -0.858366
-0.387990 -0.810016 -0.661888 0.131785 0.495822 -0.858366
-0.369878 -0.816911 -0.663090 0.131784 0.495821 -0.858367
-0.374947 -0.823784 -0.667838 0.131784 0.495821 -0.858367
-0.387990 -0.810016 -0.661888 0.131784 0.495821 -0.858367
-0.364416 -0.823208 -0.654032 0.422822 -0.859665 -0.286701
-0.372946 -0.830145 -0.645813 0.422822 -0.859665 -0.286701
-0.365208 -0.821871 -0.659210 0.422822 -0.859665 -0.286701
-0.377385 -0.827730 -0.647029 0.184029 -0.322525 -0.928500
-0.378561 -0.833038 -0.645418 0.184029 -0.322525 -0.928500
-0.383346 -0.835342 -0.645566 0.184029 -0.322525 -0.928500
-0.383346 -0.835342 -0.645566 0.422826 -0.859664 -0.286697
-0.387987 -0.836898 -0.647748 0.422826 -0.859664 -0.286697
-0.374947 -0.823784 -0.667838 0.422826 -0.859664 -0.286697
-0.374947 -0.823784 -0.667838 0.424074 -0.858486 -0.288381
-0.366625 -0.820867 -0.664283 0.424074 -0.858486 -0.288381
-0.365208 -0.821871 -0.659210 0.424074 -0.858486 -0.288381
-0.372946 -0.830145 -0.645813 -0.244496 -0.755499 -0.607817
-0.377385 -0.827730 -0.647029 -0.244496 -0.755499 -0.607817
-0.365208 -0.821871 -0.659210 -0.244496 -0.755499 -0.607817
-0.377385 -0.827730 -0.647029 0.784688 -0.619364 -0.025539
-0.383346 -0.835342 -0.645566 0.784688 -0.619364 -0.025539
-0.374947 -0.823784 -0.667838 0.784688 -0.619364 -0.025539
-0.377385 -0.827730 -0.647029 0.310309 -0.939985 -0.141905
-0.374947 -0.823784 -0.667838 0.310309 -0.939985 -0.141905
-0.365208 -0.821871 -0.659210 0.310309 -0.939985 -0.141905
-0.376704 -0.822669 -0.646754 -0.070986 0.161657 0.984283
-0.379788 -0.814292 -0.651217 -0.021485 0.754997 0.655354
-0.385037 -0.815506 -0.652445 -0.455885 0.573290 0.680776
-0.383433 -0.811721 -0.655715 -0.246956 0.799921 0.546922
-0.376173 -0.816901 -0.648876 0.254463 0.624683 0.738212
-0.372742 -0.815359 -0.654263 0.543901 0.776452 0.318217
-0.377411 -0.811967 -0.655020 0.289895 0.808618 0.511917
-0.377776 -0.809236 -0.659869 0.241615 0.844478 0.477920
-0.382890 -0.808726 -0.660360 -0.183843 0.825220 0.534013
-0.372946 -0.830145 -0.645813 -0.050447 0.099734 0.993713
-0.368393 -0.827723 -0.646342 0.234046 0.294076 0.926664
-0.371383 -0.822720 -0.647318 0.333537 0.458266 0.823817
-0.372533 -0.812324 -0.660848 0.682455 0.646382 0.341136
-0.365062 -0.825066 -0.649388 0.529130 0.574084 0.624805
-0.368198 -0.819599 -0.652778 0.612812 0.653798 0.443800
-0.364416 -0.823208 -0.654032 0.711661 0.631550 0.307627
-0.369624 -0.817443 -0.657909 0.715232 0.687918 0.123203
-0.365208 -0.821871 -0.659210 0.726981 0.686148 0.026002
-0.369878 -0.816911 -0.663090 0.796625 0.604389 -0.005554
-0.366625 -0.820867 -0.664283 0.757225 0.647786 -0.083254
-0.364416 -0.823208 -0.654032 -0.425153 0.859249 0.284433
-0.368393 -0.827723 -0.646342 -0.425153 0.859249 0.284433
-0.365062 -0.825066 -0.649388 -0.425153 0.859249 0.284433
-0.388006 -0.813680 -0.656603 -0.511277 0.631367 0.583026
-0.387990 -0.810016 -0.661888 -0.403821 0.752403 0.520371
-0.392023 -0.813624 -0.660528 -0.549608 0.609607 0.571184
-0.378561 -0.833038 -0.645418 0.062197 0.089541 0.994018
-0.386852 -0.830497 -0.646182 -0.404553 0.091830 0.909848
-0.383346 -0.835342 -0.645566 -0.226112 -0.011170 0.974029
-0.387699 -0.820556 -0.651133 -0.576891 0.395337 0.714743
-0.387355 -0.825487 -0.648453 -0.527055 0.334483 0.781213
-0.382178 -0.828565 -0.645383 -0.026521 0.186956 0.981994
-0.392157 -0.817913 -0.657434 -0.637410 0.437147 0.634449
-0.391712 -0.822284 -0.654770 -0.693045 0.333598 0.639027
-0.387987 -0.836898 -0.647748 -0.408124 -0.059755 0.910947
-0.391023 -0.831750 -0.648771 -0.533219 0.155675 0.831507
-0.391571 -0.826996 -0.651614 -0.623463 0.370983 0.688192
3 0 1 2
3 3 4 5
3 6 7 8
3 9 10 11
3 12 13 14
3 15 16 17
4 18 19 20 21
3 22 23 24
3 25 26 27
3 28 29 30
3 31 32 33
3 34 35 36
3 37 38 39
3 40 41 42
3 43 44 45
3 46 47 48
3 49 50 51
3 52 53 54
3 55 56 57
3 58 59 60
3 15 61 16
3 62 63 16
3 62 64 63
3 61 65 16
3 65 62 16
3 65 66 62
3 67 68 64
3 62 67 64
3 64 68 69
3 70 71 61
3 71 72 61
3 61 72 65
3 66 67 62
3 65 72 66
3 67 73 68
3 74 75 72
3 71 74 72
3 75 72 76
3 77 67 66
3 77 73 67
3 66 72 75
3 77 66 75
3 75 76 77
3 76 78 77
3 77 79 73
3 78 79 77
3 78 80 79
3 74 76 75
3 81 82 83
3 64 69 84
3 63 64 84
3 84 69 85
3 70 61 15
3 17 16 63
3 84 85 86
3 87 88 89
3 90 63 84
3 17 90 91
3 92 17 91
3 87 92 88
3 15 92 87
3 15 17 92
3 92 91 88
3 17 63 90
3 90 93 94
3 90 94 91
3 93 84 86
3 90 84 93
3 95 89 96
3 89 88 96
3 88 97 96
3 88 91 97
3 91 94 97
