ply
format ascii 1.0
comment Created by Blender 2.69 (sub 10) - www.blender.org, source file: 'bunny_base.blend'
element vertex 126
property float x
property float y
property float z
property float nx
property float ny
property float nz
element face 72
property list uchar uint vertex_indices
end_header
-0.391876 -0.867211 -0.681419 -0.989654 -0.091494 -0.110416
-0.390410 -0.866315 -0.687247 -0.929106 -0.070223 -0.363048
-0.390749 -0.871294 -0.684444 -0.948912 -0.155217 -0.274606
-0.391570 -0.862244 -0.684227 -0.947508 -0.220466 -0.231452
-0.388985 -0.861234 -0.690526 -0.855617 -0.213263 -0.471603
-0.382498 -0.864979 -0.699583 -0.780755 -0.099460 -0.616840
-0.383911 -0.858746 -0.698795 -0.782556 -0.083621 -0.616901
-0.380958 -0.860716 -0.702358 -0.793207 -0.104038 -0.599933
-0.386809 -0.877397 -0.690982 -0.890866 -0.173132 -0.419904
-0.388387 -0.871579 -0.690032 -0.884518 -0.153935 -0.440321
-0.385704 -0.873578 -0.694086 -0.851283 -0.096652 -0.515671
-0.392211 -0.861416 -0.678434 -0.982818 -0.184027 0.013031
-0.392905 -0.856485 -0.677257 -0.860988 -0.461959 0.212683
-0.396297 -0.854266 -0.682005 -0.777032 -0.629414 0.002106
-0.391028 -0.861989 -0.666581 -0.972167 -0.003052 0.234169
-0.391718 -0.858820 -0.672832 -0.973724 -0.003265 0.227607
-0.392075 -0.864200 -0.670955 -0.989227 -0.043825 0.139500
-0.365609 -0.862268 -0.668674 0.222095 0.523132 0.822804
-0.374416 -0.844587 -0.677538 0.222095 0.523132 0.822804
-0.386903 -0.864687 -0.661388 0.222095 0.523132 0.822804
-0.374416 -0.844587 -0.677538 0.713715 0.677478 -0.177860
-0.362387 -0.856237 -0.673642 0.713715 0.677478 -0.177860
-0.372539 -0.852933 -0.701799 0.713715 0.677478 -0.177860
-0.394397 -0.855441 -0.687031 -0.811487 -0.504593 -0.294656
-0.386224 -0.863038 -0.695414 -0.814417 -0.095279 -0.572375
-0.391354 -0.855983 -0.691480 -0.741172 -0.452315 -0.495987
-0.391232 -0.871484 -0.674724 -0.992523 -0.118564 0.028138
-0.390962 -0.873501 -0.679567 -0.986724 -0.156285 -0.043641
-0.386809 -0.877397 -0.690982 0.569610 -0.611253 -0.549467
-0.385704 -0.873578 -0.694086 0.569610 -0.611253 -0.549467
-0.359824 -0.864792 -0.677030 0.569610 -0.611253 -0.549467
-0.385704 -0.873578 -0.694086 0.575911 -0.581845 -0.574267
-0.384225 -0.869331 -0.696904 0.575911 -0.581845 -0.574267
-0.380958 -0.860716 -0.702358 0.575911 -0.581845 -0.574267
-0.380958 -0.860716 -0.702358 0.575947 -0.581835 -0.574241
-0.378739 -0.856445 -0.704459 0.575947 -0.581835 -0.574241
-0.372539 -0.852933 -0.701799 0.575947 -0.581835 -0.574241
-0.385704 -0.873578 -0.694086 0.575949 -0.581838 -0.574236
-0.372539 -0.852933 -0.701799 0.575949 -0.581838 -0.574236
-0.359824 -0.864792 -0.677030 0.575949 -0.581838 -0.574236
-0.385704 -0.873578 -0.694086 0.575950 -0.581839 -0.574235
-0.380958 -0.860716 -0.702358 0.575950 -0.581839 -0.574235
-0.372539 -0.852933 -0.701799 0.575950 -0.581839 -0.574235
-0.390190 -0.867196 -0.665351 -0.957701 -0.093753 0.271950
-0.362387 -0.856237 -0.673642 0.885491 0.374272 -0.275367
-0.359824 -0.864792 -0.677030 0.885491 0.374272 -0.275367
-0.372539 -0.852933 -0.701799 0.885491 0.374272 -0.275367
-0.384225 -0.869331 -0.696904 -0.811212 -0.082797 -0.578814
-0.387667 -0.867261 -0.692549 -0.848567 -0.106540 -0.518235
-0.387455 -0.858188 -0.694236 -0.797296 -0.199072 -0.569781
-0.394999 -0.853672 -0.673144 -0.688894 -0.711936 0.136113
-0.374416 -0.844587 -0.677538 -0.324677 0.886367 -0.330059
-0.372539 -0.852933 -0.701799 -0.324677 0.886367 -0.330059
-0.397958 -0.853136 -0.677339 -0.324677 0.886367 -0.330059
-0.372539 -0.852933 -0.701799 -0.495441 0.184771 -0.848762
-0.387455 -0.858188 -0.694236 -0.495441 0.184771 -0.848762
-0.391354 -0.855983 -0.691480 -0.495441 0.184771 -0.848762
-0.391354 -0.855983 -0.691480 -0.324657 0.886377 -0.330050
-0.394397 -0.855441 -0.687031 -0.324657 0.886377 -0.330050
-0.396297 -0.854266 -0.682005 -0.324657 0.886377 -0.330050
-0.372539 -0.852933 -0.701799 -0.324678 0.886366 -0.330061
-0.396297 -0.854266 -0.682005 -0.324678 0.886366 -0.330061
-0.397958 -0.853136 -0.677339 -0.324678 0.886366 -0.330061
-0.391354 -0.855983 -0.691480 -0.324677 0.886367 -0.330059
-0.396297 -0.854266 -0.682005 -0.324677 0.886367 -0.330059
-0.388945 -0.875873 -0.686225 -0.910459 -0.201727 -0.360973
-0.391227 -0.869372 -0.669819 -0.983367 -0.117771 0.138096
-0.391839 -0.866310 -0.675909 -0.994812 -0.100406 0.016053
-0.365609 -0.862268 -0.668674 0.252494 0.531221 0.808735
-0.362387 -0.856237 -0.673642 0.252494 0.531221 0.808735
-0.374416 -0.844587 -0.677538 0.252494 0.531221 0.808735
-0.362387 -0.856237 -0.673642 0.825315 0.023748 0.564173
-0.365609 -0.862268 -0.668674 0.825315 0.023748 0.564173
-0.359824 -0.864792 -0.677030 0.825315 0.023748 0.564173
-0.365609 -0.862268 -0.668674 0.246576 -0.867160 0.432705
-0.386903 -0.864687 -0.661388 0.246576 -0.867160 0.432705
-0.359824 -0.864792 -0.677030 0.246576 -0.867160 0.432705
-0.391028 -0.861989 -0.666581 -0.776742 0.023597 0.629377
-0.390190 -0.867196 -0.665351 -0.776742 0.023597 0.629377
-0.386903 -0.864687 -0.661388 -0.776742 0.023597 0.629377
-0.374416 -0.844587 -0.677538 -0.318732 0.885551 0.337949
-0.397958 -0.853136 -0.677339 -0.318732 0.885551 0.337949
-0.394999 -0.853672 -0.673144 -0.318732 0.885551 0.337949
-0.391028 -0.861989 -0.666581 0.016512 0.892546 0.450654
-0.386903 -0.864687 -0.661388 0.016512 0.892546 0.450654
-0.391718 -0.858820 -0.672832 0.016512 0.892546 0.450654
-0.374416 -0.844587 -0.677538 0.142567 0.150152 0.978330
-0.394999 -0.853672 -0.673144 0.142567 0.150152 0.978330
-0.391718 -0.858820 -0.672832 0.142567 0.150152 0.978330
-0.386903 -0.864687 -0.661388 -0.436786 0.712533 0.549104
-0.374416 -0.844587 -0.677538 -0.436786 0.712533 0.549104
-0.391718 -0.858820 -0.672832 -0.436786 0.712533 0.549104
-0.384225 -0.869331 -0.696904 -0.575949 0.581839 0.574235
-0.382498 -0.864979 -0.699583 -0.575949 0.581839 0.574235
-0.380958 -0.860716 -0.702358 -0.575949 0.581839 0.574235
-0.397958 -0.853136 -0.677339 -0.549181 -0.825556 0.129582
-0.383911 -0.858746 -0.698795 -0.496736 0.726352 -0.475044
-0.387455 -0.858188 -0.694236 -0.496736 0.726352 -0.475044
-0.372539 -0.852933 -0.701799 -0.496736 0.726352 -0.475044
-0.372539 -0.852933 -0.701799 -0.575947 0.581835 0.574241
-0.378739 -0.856445 -0.704459 -0.575947 0.581835 0.574241
-0.380958 -0.860716 -0.702358 -0.575947 0.581835 0.574241
-0.383911 -0.858746 -0.698795 -0.465204 0.552918 -0.691279
-0.372539 -0.852933 -0.701799 -0.465204 0.552918 -0.691279
-0.380958 -0.860716 -0.702358 -0.465204 0.552918 -0.691279
-0.390749 -0.871294 -0.684444 -0.937231 -0.300516 -0.176887
-0.388945 -0.875873 -0.686225 -0.937231 -0.300516 -0.176887
-0.390962 -0.873501 -0.679567 -0.937231 -0.300516 -0.176887
-0.388945 -0.875873 -0.686225 0.219252 -0.896240 0.385593
-0.386809 -0.877397 -0.690982 0.219252 -0.896240 0.385593
-0.359824 -0.864792 -0.677030 0.219252 -0.896240 0.385593
-0.359824 -0.864792 -0.677030 0.219248 -0.896241 0.385593
-0.386903 -0.864687 -0.661388 0.219248 -0.896241 0.385593
-0.390190 -0.867196 -0.665351 0.219248 -0.896241 0.385593
-0.390190 -0.867196 -0.665351 0.219285 -0.896233 0.385592
-0.391227 -0.869372 -0.669819 0.219285 -0.896233 0.385592
-0.391232 -0.871484 -0.674724 0.219285 -0.896233 0.385592
-0.388945 -0.875873 -0.686225 0.219251 -0.896239 0.385597
-0.391232 -0.871484 -0.674724 0.219251 -0.896239 0.385597
-0.390962 -0.873501 -0.679567 0.219251 -0.896239 0.385597
-0.388945 -0.875873 -0.686225 0.219250 -0.896239 0.385597
-0.359824 -0.864792 -0.677030 0.219250 -0.896239 0.385597
-0.390190 -0.867196 -0.665351 0.219250 -0.896239 0.385597
-0.388945 -0.875873 -0.686225 0.219256 -0.896237 0.385597
-0.390190 -0.867196 -0.665351 0.219256 -0.896237 0.385597
-0.391232 -0.871484 -0.674724 0.219256 -0.896237 0.385597
3 0 1 2
3 3 4 1
3 5 6 7
3 8 9 10
3 11 12 13
3 14 15 16
3 0 3 1
3 17 18 19
3 20 21 22
3 3 11 23
3 5 24 6
3 25 4 3
3 26 0 27
3 28 29 30
3 31 32 33
3 34 35 36
3 37 38 39
3 40 41 42
3 43 14 16
3 27 0 2
3 11 13 23
3 44 45 46
3 47 48 5
3 15 12 16
3 24 49 6
3 4 24 48
3 12 15 50
3 51 52 53
3 54 55 56
3 57 58 59
3 60 61 62
3 52 63 64
3 65 9 8
3 26 66 67
3 25 49 4
3 68 69 70
3 71 72 73
3 74 75 76
3 77 78 79
3 80 81 82
3 83 84 85
3 86 87 88
3 89 90 91
3 48 24 5
3 92 93 94
3 4 49 24
3 16 11 67
3 16 12 11
3 67 0 26
3 67 11 0
3 12 50 95
3 1 48 9
3 25 3 23
3 96 97 98
3 99 100 101
3 102 103 104
3 12 95 13
3 2 9 65
3 43 16 66
3 66 16 67
3 105 106 107
3 108 109 110
3 111 112 113
3 114 115 116
3 117 118 119
3 120 121 122
3 123 124 125
3 2 1 9
3 1 4 48
3 11 3 0
3 10 9 47
3 9 48 47
