ply
format ascii 1.0
comment Created by Blender 2.69 (sub 10) - www.blender.org, source file: 'bunny_base.blend'
element vertex 213
property float x
property float y
property float z
property float nx
property float ny
property float nz
element face 168
property list uchar uint vertex_indices
end_header
-0.313005 -0.899730 -0.732675 0.039766 -0.499405 -0.865444
-0.307296 -0.899474 -0.732189 0.011658 -0.536576 -0.843745
-0.309138 -0.903993 -0.730330 0.087130 -0.466933 -0.879971
-0.312461 -0.889073 -0.738084 0.026643 -0.280282 -0.959532
-0.310229 -0.884149 -0.739006 0.055300 -0.285989 -0.956603
-0.307427 -0.890408 -0.737137 0.109073 -0.285348 -0.952178
-0.329815 -0.909129 -0.725236 -0.680841 -0.486074 0.547893
-0.325657 -0.912258 -0.722846 -0.680841 -0.486074 0.547893
-0.325629 -0.900189 -0.712103 -0.680841 -0.486074 0.547893
-0.325657 -0.912258 -0.722846 -0.662117 -0.497390 0.560539
-0.321843 -0.915287 -0.721029 -0.662117 -0.497390 0.560539
-0.318079 -0.917424 -0.718479 -0.662117 -0.497390 0.560539
-0.318079 -0.917424 -0.718479 -0.385591 -0.463934 0.797549
-0.313286 -0.919403 -0.717313 -0.385591 -0.463934 0.797549
-0.325629 -0.900189 -0.712103 -0.385591 -0.463934 0.797549
-0.325657 -0.912258 -0.722846 -0.662117 -0.497382 0.560547
-0.318079 -0.917424 -0.718479 -0.662117 -0.497382 0.560547
-0.325629 -0.900189 -0.712103 -0.662117 -0.497382 0.560547
-0.318079 -0.917424 -0.718479 -0.072085 -0.737938 -0.670980
-0.321843 -0.915287 -0.721029 -0.044252 -0.668203 -0.742637
-0.316266 -0.914133 -0.722294 -0.082369 -0.662465 -0.744530
-0.302169 -0.925501 -0.711792 0.058565 -0.830866 -0.553362
-0.307164 -0.918948 -0.715945 -0.059145 -0.800256 -0.596667
-0.301405 -0.917810 -0.717548 -0.032411 -0.743584 -0.667837
-0.301586 -0.913645 -0.723992 0.040620 -0.709769 -0.703238
-0.303476 -0.906350 -0.728338 -0.056001 -0.506302 -0.860530
-0.299331 -0.909493 -0.727470 0.059145 -0.548936 -0.833766
-0.307088 -0.924188 -0.711758 -0.217872 -0.611133 -0.760918
-0.296455 -0.912348 -0.724485 0.115574 -0.708548 -0.696097
-0.297488 -0.905001 -0.729373 -0.011109 -0.485214 -0.874294
-0.293343 -0.908176 -0.728568 0.091433 -0.578845 -0.810266
-0.296367 -0.924350 -0.708120 0.220707 -0.731110 0.645574
-0.291639 -0.922715 -0.707885 0.220707 -0.731110 0.645574
-0.294998 -0.920838 -0.704610 0.220707 -0.731110 0.645574
-0.291639 -0.922715 -0.707885 0.688714 -0.031441 0.724351
-0.302399 -0.883260 -0.695942 0.688714 -0.031441 0.724351
-0.305350 -0.905684 -0.694110 0.688714 -0.031441 0.724351
-0.305350 -0.905684 -0.694110 0.536922 -0.206983 0.817846
-0.301618 -0.916795 -0.699372 0.536922 -0.206983 0.817846
-0.297333 -0.916936 -0.702220 0.536922 -0.206983 0.817846
-0.291639 -0.922715 -0.707885 0.688715 -0.031443 0.724350
-0.297333 -0.916936 -0.702220 0.688715 -0.031443 0.724350
-0.294998 -0.920838 -0.704610 0.688715 -0.031443 0.724350
-0.291639 -0.922715 -0.707885 0.688728 -0.031420 0.724339
-0.305350 -0.905684 -0.694110 0.688728 -0.031420 0.724339
-0.297333 -0.916936 -0.702220 0.688728 -0.031420 0.724339
-0.304738 -0.876087 -0.739758 0.068697 0.072878 -0.994964
-0.298587 -0.877873 -0.739160 0.076632 -0.057466 -0.995392
-0.301784 -0.881804 -0.739217 0.125828 -0.183020 -0.975005
-0.319822 -0.911184 -0.724311 -0.049135 -0.645436 -0.762200
-0.314953 -0.910203 -0.725504 -0.056825 -0.649831 -0.757897
-0.325657 -0.912258 -0.722846 -0.119144 -0.612659 -0.781274
-0.329815 -0.909129 -0.725236 0.060579 -0.553880 -0.830378
-0.327608 -0.905276 -0.727645 -0.130131 -0.554826 -0.821680
-0.309334 -0.912600 -0.723615 0.051271 -0.635853 -0.770074
-0.310857 -0.916761 -0.720900 -0.011719 -0.746666 -0.665090
-0.310670 -0.908139 -0.727631 -0.027772 -0.611408 -0.790796
-0.301483 -0.925514 -0.706621 0.365673 -0.832270 0.416639
-0.296367 -0.924350 -0.708120 0.238502 -0.945372 0.222175
-0.302051 -0.920998 -0.703423 0.264138 -0.587939 0.764519
-0.297306 -0.915903 -0.720139 0.026002 -0.741081 -0.670888
-0.291327 -0.903479 -0.730010 0.688085 0.699846 -0.191716
-0.302399 -0.883260 -0.695942 0.688085 0.699846 -0.191716
-0.287703 -0.906256 -0.727139 0.688085 0.699846 -0.191716
-0.302399 -0.883260 -0.695942 0.828438 0.536807 -0.159776
-0.285201 -0.915705 -0.715774 0.828438 0.536807 -0.159776
-0.287621 -0.913205 -0.719929 0.828438 0.536807 -0.159776
-0.302399 -0.883260 -0.695942 0.932875 0.264528 0.244477
-0.287621 -0.913205 -0.719929 0.932875 0.264528 0.244477
-0.287703 -0.906256 -0.727139 0.932875 0.264528 0.244477
-0.305272 -0.916734 -0.720805 0.047731 -0.808679 -0.586291
-0.305242 -0.910771 -0.726251 0.000488 -0.579455 -0.814966
-0.320342 -0.902503 -0.730141 -0.115085 -0.490005 -0.864071
-0.318041 -0.898387 -0.733585 -0.082003 -0.512101 -0.854976
-0.314340 -0.905349 -0.730025 -0.029084 -0.545946 -0.837275
-0.310608 -0.895495 -0.735888 0.026276 -0.478286 -0.877773
-0.323424 -0.908324 -0.726513 -0.159825 -0.599689 -0.784082
-0.325458 -0.901567 -0.730459 -0.094302 -0.525864 -0.845302
-0.293950 -0.920059 -0.716480 0.047151 -0.653645 -0.755303
-0.292861 -0.923735 -0.713159 0.246773 -0.905057 -0.346294
-0.297851 -0.923402 -0.713851 0.022858 -0.820063 -0.571764
-0.297132 -0.894515 -0.735174 0.124180 -0.334788 -0.934049
-0.299168 -0.886604 -0.737371 0.079043 -0.302286 -0.949919
-0.294893 -0.889595 -0.736144 0.143712 -0.271645 -0.951598
-0.318723 -0.907488 -0.728082 -0.092868 -0.593768 -0.799249
-0.299427 -0.872822 -0.739681 -0.098239 -0.118290 -0.988098
-0.303830 -0.870424 -0.739530 -0.085238 0.020539 -0.996124
-0.323054 -0.897411 -0.733516 -0.096622 -0.533921 -0.839961
-0.306426 -0.865579 -0.720953 -0.878282 0.476148 -0.043643
-0.305561 -0.865761 -0.740327 -0.878282 0.476148 -0.043643
-0.325629 -0.900189 -0.712103 -0.878282 0.476148 -0.043643
-0.305561 -0.865761 -0.740327 -0.136099 -0.215903 -0.966883
-0.303830 -0.870424 -0.739530 -0.136099 -0.215903 -0.966883
-0.308736 -0.871459 -0.738608 -0.136099 -0.215903 -0.966883
-0.308736 -0.871459 -0.738608 -0.878279 0.476151 -0.043672
-0.311037 -0.875848 -0.740197 -0.878279 0.476151 -0.043672
-0.313428 -0.880272 -0.740342 -0.878279 0.476151 -0.043672
-0.313428 -0.880272 -0.740342 -0.878015 0.476947 -0.040138
-0.315814 -0.884567 -0.739182 -0.878015 0.476947 -0.040138
-0.318342 -0.889094 -0.737679 -0.878015 0.476947 -0.040138
-0.318342 -0.889094 -0.737679 -0.878462 0.475791 -0.043907
-0.320822 -0.893499 -0.735797 -0.878462 0.475791 -0.043907
-0.323054 -0.897411 -0.733516 -0.878462 0.475791 -0.043907
-0.323054 -0.897411 -0.733516 -0.878558 0.475580 -0.044261
-0.325458 -0.901567 -0.730459 -0.878558 0.475580 -0.044261
-0.327608 -0.905276 -0.727645 -0.878558 0.475580 -0.044261
-0.327608 -0.905276 -0.727645 -0.878456 0.475804 -0.043879
-0.329815 -0.909129 -0.725236 -0.878456 0.475804 -0.043879
-0.325629 -0.900189 -0.712103 -0.878456 0.475804 -0.043879
-0.305561 -0.865761 -0.740327 -0.878279 0.476153 -0.043635
-0.308736 -0.871459 -0.738608 -0.878279 0.476153 -0.043635
-0.325629 -0.900189 -0.712103 -0.878279 0.476153 -0.043635
-0.308736 -0.871459 -0.738608 -0.878309 0.476118 -0.043424
-0.313428 -0.880272 -0.740342 -0.878309 0.476118 -0.043424
-0.318342 -0.889094 -0.737679 -0.878309 0.476118 -0.043424
-0.318342 -0.889094 -0.737679 -0.878460 0.475796 -0.043897
-0.323054 -0.897411 -0.733516 -0.878460 0.475796 -0.043897
-0.327608 -0.905276 -0.727645 -0.878460 0.475796 -0.043897
-0.308736 -0.871459 -0.738608 -0.878381 0.475938 -0.043933
-0.327608 -0.905276 -0.727645 -0.878381 0.475938 -0.043933
-0.325629 -0.900189 -0.712103 -0.878381 0.475938 -0.043933
-0.308736 -0.871459 -0.738608 -0.878312 0.476131 -0.043220
-0.318342 -0.889094 -0.737679 -0.878312 0.476131 -0.043220
-0.327608 -0.905276 -0.727645 -0.878312 0.476131 -0.043220
-0.315431 -0.893917 -0.736250 -0.071627 -0.414258 -0.907315
-0.289491 -0.917772 -0.718146 0.353221 -0.609394 -0.709799
-0.287621 -0.913205 -0.719929 0.436201 -0.571490 -0.695059
-0.285201 -0.915705 -0.715774 0.591327 -0.539872 -0.599017
-0.287785 -0.920782 -0.713201 0.504746 -0.751366 -0.425031
-0.291086 -0.910916 -0.724497 0.316324 -0.691519 -0.649373
-0.304862 -0.895226 -0.735370 0.078158 -0.404004 -0.911374
-0.303830 -0.870424 -0.739530 0.798256 0.571368 0.190593
-0.302399 -0.883260 -0.695942 0.798256 0.571368 0.190593
-0.298587 -0.877873 -0.739160 0.798256 0.571368 0.190593
-0.299427 -0.872822 -0.739681 0.798256 0.571368 0.190593
-0.295868 -0.900751 -0.731858 0.107334 -0.439283 -0.891903
-0.300449 -0.898099 -0.733856 0.044282 -0.440626 -0.896573
-0.302030 -0.902327 -0.731313 -0.061403 -0.526749 -0.847774
-0.287703 -0.906256 -0.727139 0.383221 -0.566424 -0.729576
-0.318342 -0.889094 -0.737679 -0.077517 -0.313242 -0.946471
-0.294998 -0.920838 -0.704610 0.195044 -0.658864 0.726524
-0.315814 -0.884567 -0.739182 -0.035890 -0.261605 -0.964476
-0.313428 -0.880272 -0.740342 0.012024 -0.173315 -0.984771
-0.292398 -0.896982 -0.732738 0.226661 -0.378094 -0.897580
-0.291327 -0.903479 -0.730010 0.223670 -0.374371 -0.899869
-0.310925 -0.920596 -0.712997 -0.089206 -0.780053 -0.619312
-0.313286 -0.919403 -0.717313 0.113102 -0.829218 -0.547319
-0.306911 -0.880550 -0.740364 0.082827 -0.131291 -0.987854
-0.305323 -0.885627 -0.738434 0.083590 -0.312571 -0.946196
-0.301233 -0.891320 -0.735915 0.058931 -0.293161 -0.954222
-0.308736 -0.871459 -0.738608 -0.054231 0.196234 -0.979034
-0.311037 -0.875848 -0.740197 0.046236 0.147954 -0.987884
-0.296416 -0.882517 -0.738478 0.094394 -0.235389 -0.967284
-0.292300 -0.914760 -0.720987 0.188360 -0.665944 -0.721824
-0.320822 -0.893499 -0.735797 -0.105655 -0.417066 -0.902707
-0.301618 -0.916795 -0.699372 0.279458 -0.556352 0.782525
-0.297333 -0.916936 -0.702220 0.279458 -0.556352 0.782525
-0.307088 -0.924188 -0.711758 0.123457 0.438973 0.889978
-0.302169 -0.925501 -0.711792 0.123457 0.438973 0.889978
-0.310925 -0.920596 -0.712997 0.123457 0.438973 0.889978
-0.302169 -0.925501 -0.711792 -0.968697 -0.212671 0.128056
-0.301483 -0.925514 -0.706621 -0.968697 -0.212671 0.128056
-0.302051 -0.920998 -0.703423 -0.968697 -0.212671 0.128056
-0.302051 -0.920998 -0.703423 -0.648449 -0.492642 0.580360
-0.301618 -0.916795 -0.699372 -0.648449 -0.492642 0.580360
-0.305350 -0.905684 -0.694110 -0.648449 -0.492642 0.580360
-0.305350 -0.905684 -0.694110 -0.631777 -0.553085 0.543098
-0.325629 -0.900189 -0.712103 -0.631777 -0.553085 0.543098
-0.313286 -0.919403 -0.717313 -0.631777 -0.553085 0.543098
-0.302169 -0.925501 -0.711792 -0.486949 -0.766263 0.419191
-0.302051 -0.920998 -0.703423 -0.486949 -0.766263 0.419191
-0.310925 -0.920596 -0.712997 -0.486949 -0.766263 0.419191
-0.302051 -0.920998 -0.703423 -0.711683 -0.470543 0.521628
-0.305350 -0.905684 -0.694110 -0.711683 -0.470543 0.521628
-0.313286 -0.919403 -0.717313 -0.711683 -0.470543 0.521628
-0.302051 -0.920998 -0.703423 -0.465832 0.753853 0.463365
-0.313286 -0.919403 -0.717313 -0.465832 0.753853 0.463365
-0.310925 -0.920596 -0.712997 -0.465832 0.753853 0.463365
-0.302399 -0.883260 -0.695942 -0.026025 0.084796 0.996058
-0.307929 -0.875821 -0.696719 -0.026025 0.084796 0.996058
-0.305350 -0.905684 -0.694110 -0.026025 0.084796 0.996058
-0.307929 -0.875821 -0.696719 -0.032587 0.084216 0.995915
-0.317105 -0.891935 -0.695657 -0.032587 0.084216 0.995915
-0.305350 -0.905684 -0.694110 -0.032587 0.084216 0.995915
-0.306426 -0.865579 -0.720953 -0.844388 0.510250 0.163262
-0.325629 -0.900189 -0.712103 -0.844388 0.510250 0.163262
-0.307929 -0.875821 -0.696719 -0.844388 0.510250 0.163262
-0.298587 -0.877873 -0.739160 0.890284 0.435603 0.132834
-0.302399 -0.883260 -0.695942 0.890284 0.435603 0.132834
-0.296416 -0.882517 -0.738478 0.890284 0.435603 0.132834
-0.302399 -0.883260 -0.695942 0.957282 0.230869 0.174102
-0.291327 -0.903479 -0.730010 0.957282 0.230869 0.174102
-0.292398 -0.896982 -0.732738 0.957282 0.230869 0.174102
-0.292398 -0.896982 -0.732738 0.729193 -0.067666 -0.680955
-0.294893 -0.889595 -0.736144 0.729193 -0.067666 -0.680955
-0.296416 -0.882517 -0.738478 0.729193 -0.067666 -0.680955
-0.302399 -0.883260 -0.695942 0.938923 0.315429 0.137578
-0.292398 -0.896982 -0.732738 0.938923 0.315429 0.137578
-0.296416 -0.882517 -0.738478 0.938923 0.315429 0.137578
-0.325629 -0.900189 -0.712103 -0.847577 0.495194 0.190779
-0.317105 -0.891935 -0.695657 -0.847577 0.495194 0.190779
-0.307929 -0.875821 -0.696719 -0.847577 0.495194 0.190779
-0.306426 -0.865579 -0.720953 0.751529 0.589647 0.295839
-0.307929 -0.875821 -0.696719 0.751529 0.589647 0.295839
-0.302399 -0.883260 -0.695942 0.751529 0.589647 0.295839
-0.317105 -0.891935 -0.695657 -0.649203 -0.489526 0.582150
-0.325629 -0.900189 -0.712103 -0.649203 -0.489526 0.582150
-0.305350 -0.905684 -0.694110 -0.649203 -0.489526 0.582150
-0.291639 -0.922715 -0.707885 0.401837 -0.911924 0.083102
-0.306426 -0.865579 -0.720953 0.950511 0.306140 0.052976
-0.302399 -0.883260 -0.695942 0.950511 0.306140 0.052976
-0.303830 -0.870424 -0.739530 0.950511 0.306140 0.052976
-0.305561 -0.865761 -0.740327 0.950511 0.306140 0.052976
3 0 1 2
3 3 4 5
3 6 7 8
3 9 10 11
3 12 13 14
3 15 16 17
3 18 19 20
3 21 22 23
3 24 25 26
3 21 27 22
3 28 29 30
3 31 32 33
3 34 35 36
3 37 38 39
3 40 41 42
3 43 44 45
3 46 47 48
3 20 49 50
3 51 52 53
3 54 55 56
3 28 26 29
3 57 58 59
3 60 24 28
3 61 62 63
3 64 65 66
3 67 68 69
3 24 70 71
3 23 70 24
3 72 73 74
3 75 3 5
3 76 53 77
3 51 53 76
3 78 79 80
3 81 82 83
3 84 72 74
3 85 47 86
3 72 87 73
3 74 73 0
3 88 89 90
3 91 92 93
3 94 95 96
3 97 98 99
3 100 101 102
3 103 104 105
3 106 107 108
3 109 110 111
3 112 113 114
3 115 116 117
3 118 119 120
3 121 122 123
3 124 3 75
3 70 22 55
3 125 126 127
3 19 51 76
3 79 125 128
3 50 84 74
3 129 28 30
3 130 75 5
4 131 132 133 134
3 19 76 49
3 135 29 136
3 29 26 137
3 138 129 30
3 137 1 130
3 72 77 87
3 125 127 128
3 139 3 124
3 140 59 58
3 25 1 137
3 78 125 79
3 3 141 142
3 28 24 26
3 143 135 81
3 30 135 144
3 84 77 72
3 0 124 75
3 3 139 141
3 126 129 138
3 145 146 55
3 4 147 148
3 76 77 84
3 149 148 82
3 150 46 151
3 148 48 82
3 149 82 81
3 82 48 152
3 70 55 54
3 153 28 129
3 73 87 154
3 75 130 1
3 71 2 25
3 78 80 60
3 25 2 1
3 21 23 80
3 20 19 49
4 155 59 140 156
3 4 3 142
3 124 154 139
3 18 20 146
3 151 147 142
3 50 49 84
3 47 46 86
3 47 152 48
3 157 158 159
3 160 161 162
3 163 164 165
3 166 167 168
3 169 170 171
3 172 173 174
3 175 176 177
3 78 60 153
3 144 138 30
3 56 50 74
3 55 50 56
3 49 76 84
3 27 145 22
3 29 137 136
3 71 56 2
3 143 81 83
3 1 0 75
3 55 20 50
3 178 179 180
3 136 137 130
3 26 25 137
3 181 182 183
3 184 185 186
3 4 142 147
4 80 58 57 21
3 46 150 86
3 46 48 147
3 153 60 28
3 187 188 189
3 190 191 192
3 193 194 195
3 196 197 198
3 199 200 201
3 202 203 204
3 205 206 207
3 24 71 25
3 23 22 70
3 58 80 79
3 151 46 147
3 60 23 24
3 148 5 4
3 54 56 71
3 135 136 81
3 208 79 128
3 136 149 81
3 125 78 153
4 209 210 211 212
3 70 54 71
3 56 74 2
3 83 82 152
3 130 5 149
3 144 135 143
3 29 135 30
3 149 5 148
3 125 153 126
3 146 20 55
3 148 147 48
3 73 154 124
3 130 149 136
3 58 79 208
3 2 74 0
3 80 23 60
3 0 73 124
3 126 153 129
3 22 145 55
