ply
format ascii 1.0
comment Created by Blender 2.69 (sub 10) - www.blender.org, source file: 'bunny_base.blend'
element vertex 178
property float x
property float y
property float z
property float nx
property float ny
property float nz
element face 130
property list uchar uint vertex_indices
end_header
-0.368718 -0.853774 -0.648894 -0.332041 0.420454 0.844356
-0.366663 -0.849415 -0.650959 -0.153569 0.581500 0.798883
-0.370237 -0.846748 -0.654093 -0.111057 0.533616 0.838374
-0.370456 -0.868672 -0.646308 -0.434675 -0.057558 0.898709
-0.369607 -0.863537 -0.645949 -0.357402 0.113895 0.926939
-0.374099 -0.861777 -0.648905 -0.472579 0.174474 0.863826
-0.372266 -0.851627 -0.651814 -0.386151 0.424177 0.819086
-0.374428 -0.844257 -0.655221 -0.039888 -0.324198 0.945128
-0.375667 -0.849551 -0.655012 -0.517869 0.317789 0.794214
-0.359971 -0.848450 -0.651495 0.942530 -0.334117 -0.001764
-0.361370 -0.852413 -0.648452 0.942530 -0.334117 -0.001764
-0.362231 -0.854717 -0.672374 0.942530 -0.334117 -0.001764
-0.362231 -0.854717 -0.672374 0.949173 -0.285983 -0.131472
-0.356281 -0.839416 -0.662695 0.949173 -0.285983 -0.131472
-0.356693 -0.844199 -0.655264 0.949173 -0.285983 -0.131472
-0.359971 -0.848450 -0.651495 0.822388 -0.563272 0.080023
-0.362231 -0.854717 -0.672374 0.822388 -0.563272 0.080023
-0.356693 -0.844199 -0.655264 0.822388 -0.563272 0.080023
-0.384995 -0.854480 -0.658980 -0.871420 0.156539 -0.464890
-0.374097 -0.843734 -0.675793 -0.871420 0.156539 -0.464890
-0.387237 -0.864549 -0.658169 -0.871420 0.156539 -0.464890
-0.386369 -0.859312 -0.658035 -0.871420 0.156539 -0.464890
-0.375219 -0.866714 -0.648717 -0.496506 0.016388 0.867855
-0.375931 -0.871869 -0.649545 -0.482162 -0.081423 0.872250
-0.378897 -0.864526 -0.651369 -0.567309 0.029969 0.822932
-0.369176 -0.836166 -0.649031 0.471206 -0.540269 0.697134
-0.369645 -0.831496 -0.646165 0.398785 -0.440443 0.804315
-0.374561 -0.832529 -0.646355 0.186651 -0.387890 0.902585
-0.383798 -0.867455 -0.654574 -0.576098 0.019410 0.817133
-0.386369 -0.859312 -0.658035 -0.640126 0.225776 0.734306
-0.387237 -0.864549 -0.658169 -0.680410 0.094119 0.726737
-0.373984 -0.856207 -0.650437 -0.436048 0.338237 0.833918
-0.377508 -0.854078 -0.653373 -0.470687 0.393414 0.789697
-0.379179 -0.847410 -0.658013 -0.472823 -0.104831 0.874874
-0.380834 -0.852057 -0.656748 -0.569353 0.399853 0.718253
-0.358517 -0.833316 -0.665703 0.740471 0.094394 0.665395
-0.360257 -0.826941 -0.665986 0.809076 0.332041 0.484848
-0.361931 -0.832897 -0.661963 0.869411 -0.028413 0.493210
-0.379590 -0.869539 -0.652408 -0.592090 -0.062685 0.803400
-0.382669 -0.862239 -0.653843 -0.596362 0.119419 0.793756
-0.368724 -0.842654 -0.656917 0.334941 0.079684 0.938841
-0.374097 -0.843734 -0.675793 0.405087 0.157307 -0.900644
-0.373439 -0.834721 -0.673922 0.405087 0.157307 -0.900644
-0.362231 -0.854717 -0.672374 0.405087 0.157307 -0.900644
-0.383488 -0.844863 -0.658521 -0.871600 0.159858 -0.463421
-0.373439 -0.834721 -0.673922 -0.871600 0.159858 -0.463421
-0.383390 -0.849779 -0.660400 -0.871600 0.159858 -0.463421
-0.373439 -0.834721 -0.673922 -0.871843 0.159784 -0.462990
-0.374097 -0.843734 -0.675793 -0.871843 0.159784 -0.462990
-0.384995 -0.854480 -0.658980 -0.871843 0.159784 -0.462990
-0.373439 -0.834721 -0.673922 -0.870525 0.156234 -0.466666
-0.384995 -0.854480 -0.658980 -0.870525 0.156234 -0.466666
-0.383390 -0.849779 -0.660400 -0.870525 0.156234 -0.466666
-0.364934 -0.856092 -0.646514 0.874391 -0.480735 0.065832
-0.365560 -0.862498 -0.666441 0.874391 -0.480735 0.065832
-0.362231 -0.854717 -0.672374 0.874391 -0.480735 0.065832
-0.361370 -0.852413 -0.648452 0.874391 -0.480735 0.065832
-0.383488 -0.844863 -0.658521 -0.269997 -0.679037 0.682607
-0.379449 -0.843462 -0.654607 -0.073489 -0.812464 0.578326
-0.385543 -0.842951 -0.653991 -0.075961 -0.893033 0.443464
-0.373439 -0.834721 -0.673922 0.409126 0.159746 -0.898386
-0.358646 -0.847881 -0.669525 0.409126 0.159746 -0.898386
-0.362231 -0.854717 -0.672374 0.409126 0.159746 -0.898386
-0.371760 -0.840738 -0.652569 0.388867 -0.689871 0.610584
-0.364929 -0.861709 -0.645232 -0.249763 0.196936 0.948057
-0.370336 -0.858417 -0.647700 -0.365673 0.296426 0.882260
-0.376783 -0.840791 -0.650534 0.148625 -0.756035 0.637410
-0.379157 -0.837028 -0.646406 0.089145 -0.691366 0.716941
-0.381755 -0.841368 -0.650356 -0.000916 -0.806604 0.591052
-0.364135 -0.832189 -0.651300 0.838862 -0.294259 0.457900
-0.379157 -0.837028 -0.646406 -0.055245 0.901477 -0.429288
-0.374097 -0.837356 -0.647747 -0.055245 0.901477 -0.429288
-0.384152 -0.837416 -0.646579 -0.055245 0.901477 -0.429288
-0.374561 -0.832529 -0.646355 -0.144788 0.535766 0.831860
-0.369645 -0.831496 -0.646165 -0.144788 0.535766 0.831860
-0.365585 -0.827629 -0.647949 -0.144788 0.535766 0.831860
-0.365585 -0.827629 -0.647949 -0.921494 0.112039 -0.371882
-0.363576 -0.825213 -0.652200 -0.921494 0.112039 -0.371882
-0.362573 -0.828632 -0.655716 -0.921494 0.112039 -0.371882
-0.362573 -0.828632 -0.655716 -0.654742 0.271017 0.705594
-0.364356 -0.823133 -0.659483 -0.654742 0.271017 0.705594
-0.374672 -0.825159 -0.668276 -0.654742 0.271017 0.705594
-0.374672 -0.825159 -0.668276 -0.704342 0.704130 0.090016
-0.387230 -0.840081 -0.649817 -0.704342 0.704130 0.090016
-0.384152 -0.837416 -0.646579 -0.704342 0.704130 0.090016
-0.374097 -0.837356 -0.647747 0.112846 -0.265334 0.957530
-0.374561 -0.832529 -0.646355 0.112846 -0.265334 0.957530
-0.384152 -0.837416 -0.646579 0.112846 -0.265334 0.957530
-0.374561 -0.832529 -0.646355 -0.497682 0.814476 -0.298230
-0.365585 -0.827629 -0.647949 -0.497682 0.814476 -0.298230
-0.362573 -0.828632 -0.655716 -0.497682 0.814476 -0.298230
-0.362573 -0.828632 -0.655716 -0.182945 0.888077 0.421723
-0.374672 -0.825159 -0.668276 -0.182945 0.888077 0.421723
-0.384152 -0.837416 -0.646579 -0.182945 0.888077 0.421723
-0.374561 -0.832529 -0.646355 -0.441022 0.874802 -0.200551
-0.362573 -0.828632 -0.655716 -0.441022 0.874802 -0.200551
-0.384152 -0.837416 -0.646579 -0.441022 0.874802 -0.200551
-0.374097 -0.837356 -0.647747 0.269936 -0.574816 0.772454
-0.365183 -0.839630 -0.659313 0.664479 0.171239 0.727409
-0.366997 -0.837922 -0.653947 0.680715 -0.566271 0.464644
-0.360257 -0.826941 -0.665986 0.195926 0.503451 -0.841517
-0.373439 -0.834721 -0.673922 0.195926 0.503451 -0.841517
-0.374672 -0.825159 -0.668276 0.195926 0.503451 -0.841517
-0.365242 -0.821967 -0.664384 0.195926 0.503451 -0.841517
-0.361188 -0.838164 -0.663410 0.562029 0.394116 0.727134
-0.377856 -0.859493 -0.651406 -0.506668 0.213691 0.835200
-0.358646 -0.847881 -0.669525 0.257891 0.562058 -0.785864
-0.361188 -0.838164 -0.663410 0.257891 0.562058 -0.785864
-0.356281 -0.839416 -0.662695 0.257891 0.562058 -0.785864
-0.365585 -0.827629 -0.647949 0.805933 -0.186102 0.561937
-0.362573 -0.828632 -0.655716 0.986694 -0.047761 0.155217
-0.363576 -0.825213 -0.652200 0.921476 -0.112033 0.371868
-0.359971 -0.848450 -0.651495 -0.049562 0.653218 0.755516
-0.364118 -0.844890 -0.654723 0.006561 0.666738 0.745232
-0.361370 -0.852413 -0.648452 -0.067324 0.579821 0.811914
-0.381413 -0.857344 -0.654297 -0.580309 0.290536 0.760796
-0.384152 -0.837416 -0.646579 -0.031587 -0.700583 0.712851
-0.384995 -0.854480 -0.658980 -0.617542 0.357982 0.700308
-0.387230 -0.840081 -0.649817 -0.123356 -0.781426 0.611652
-0.383798 -0.867455 -0.654574 -0.129682 -0.828205 -0.545214
-0.387237 -0.864549 -0.658169 -0.129682 -0.828205 -0.545214
-0.365560 -0.862498 -0.666441 -0.129682 -0.828205 -0.545214
-0.379590 -0.869539 -0.652408 -0.129682 -0.828205 -0.545214
-0.363559 -0.834273 -0.656583 0.914640 -0.324686 0.240730
-0.360257 -0.826941 -0.665986 0.987688 -0.047803 0.148952
-0.358517 -0.833316 -0.665703 0.987688 -0.047803 0.148952
-0.361188 -0.838164 -0.663410 0.987688 -0.047803 0.148952
-0.358646 -0.847881 -0.669525 0.987688 -0.047803 0.148952
-0.356281 -0.839416 -0.662695 0.126408 0.827723 0.546678
-0.360433 -0.841903 -0.657968 0.106235 0.769463 0.629780
-0.373439 -0.834721 -0.673922 0.425788 0.182541 -0.886218
-0.360257 -0.826941 -0.665986 0.425788 0.182541 -0.886218
-0.358646 -0.847881 -0.669525 0.425788 0.182541 -0.886218
-0.364929 -0.861709 -0.645232 0.982348 -0.185727 -0.022329
-0.365910 -0.866912 -0.645128 0.982348 -0.185727 -0.022329
-0.365560 -0.862498 -0.666441 0.982348 -0.185727 -0.022329
-0.365910 -0.866912 -0.645128 -0.135510 -0.285733 0.948680
-0.370456 -0.868672 -0.646308 -0.135510 -0.285733 0.948680
-0.371281 -0.873515 -0.647884 -0.135510 -0.285733 0.948680
-0.365910 -0.866912 -0.645128 0.793173 -0.598799 -0.110978
-0.371281 -0.873515 -0.647884 0.793173 -0.598799 -0.110978
-0.365560 -0.862498 -0.666441 0.793173 -0.598799 -0.110978
-0.362514 -0.827688 -0.660847 0.948332 0.231208 0.217200
-0.374672 -0.825159 -0.668276 -0.871672 0.160911 -0.462921
-0.373439 -0.834721 -0.673922 -0.871672 0.160911 -0.462921
-0.387230 -0.840081 -0.649817 -0.871672 0.160911 -0.462921
-0.373439 -0.834721 -0.673922 -0.871656 0.160309 -0.463160
-0.383488 -0.844863 -0.658521 -0.871656 0.160309 -0.463160
-0.385543 -0.842951 -0.653991 -0.871656 0.160309 -0.463160
-0.373439 -0.834721 -0.673922 -0.871672 0.160913 -0.462921
-0.385543 -0.842951 -0.653991 -0.871672 0.160913 -0.462921
-0.387230 -0.840081 -0.649817 -0.871672 0.160913 -0.462921
-0.383390 -0.849779 -0.660400 -0.557451 0.183782 0.809564
-0.371281 -0.873515 -0.647884 -0.110956 -0.838643 -0.533260
-0.375931 -0.871869 -0.649545 -0.110956 -0.838643 -0.533260
-0.379590 -0.869539 -0.652408 -0.110956 -0.838643 -0.533260
-0.365560 -0.862498 -0.666441 -0.110956 -0.838643 -0.533260
-0.364356 -0.823133 -0.659483 0.924650 0.380200 -0.020508
-0.365242 -0.821967 -0.664384 0.843532 0.508713 0.172155
-0.365910 -0.866912 -0.645128 -0.207373 0.010681 0.978179
-0.356693 -0.844199 -0.655264 -0.019807 0.748375 0.662954
-0.365560 -0.862498 -0.666441 -0.263864 -0.510900 -0.818142
-0.387237 -0.864549 -0.658169 -0.263864 -0.510900 -0.818142
-0.362231 -0.854717 -0.672374 -0.263864 -0.510900 -0.818142
-0.364934 -0.856092 -0.646514 -0.318094 0.344096 0.883389
-0.387237 -0.864549 -0.658169 -0.253752 -0.526712 -0.811286
-0.374097 -0.843734 -0.675793 -0.253752 -0.526712 -0.811286
-0.362231 -0.854717 -0.672374 -0.253752 -0.526712 -0.811286
-0.371281 -0.873515 -0.647884 -0.440107 -0.146367 0.885922
-0.364929 -0.861709 -0.645232 0.999547 -0.005797 -0.029539
-0.365560 -0.862498 -0.666441 0.999547 -0.005797 -0.029539
-0.364934 -0.856092 -0.646514 0.999547 -0.005797 -0.029539
-0.356281 -0.839416 -0.662695 0.704745 -0.554249 0.442880
-0.362231 -0.854717 -0.672374 0.704745 -0.554249 0.442880
-0.358646 -0.847881 -0.669525 0.704745 -0.554249 0.442880
-0.364356 -0.823133 -0.659483 -0.409684 0.868004 0.280584
-0.365242 -0.821967 -0.664384 -0.409684 0.868004 0.280584
-0.374672 -0.825159 -0.668276 -0.409684 0.868004 0.280584
3 0 1 2
3 3 4 5
3 6 7 8
3 9 10 11
3 12 13 14
3 15 16 17
4 18 19 20 21
3 3 5 22
3 23 22 24
3 25 26 27
3 28 29 30
3 31 6 32
3 32 33 34
3 35 36 37
3 38 24 39
3 1 40 2
3 41 42 43
3 23 24 38
3 44 45 46
3 47 48 49
3 50 51 52
4 53 54 55 56
3 57 58 59
3 60 61 62
3 40 63 7
3 64 0 65
3 0 2 6
3 66 67 68
3 63 66 7
3 7 2 40
3 8 7 33
3 25 69 26
3 70 71 72
3 73 74 75
3 76 77 78
3 79 80 81
3 82 83 84
3 85 86 87
3 88 89 90
3 91 92 93
3 94 95 96
3 66 97 67
3 66 68 58
3 32 8 33
3 98 99 40
4 100 101 102 103
3 63 97 66
3 7 58 33
3 35 37 104
3 97 25 27
3 99 25 63
3 22 105 24
3 65 31 5
3 106 107 108
3 109 110 111
3 112 113 114
3 32 34 115
3 57 33 58
3 104 37 98
3 67 116 68
3 115 34 117
3 24 105 115
3 68 116 118
3 66 58 7
4 119 120 121 122
3 37 123 98
4 124 125 126 127
3 128 104 129
3 130 131 132
3 133 134 135
3 136 137 138
3 139 140 141
3 38 39 28
3 98 40 113
3 37 36 142
3 143 144 145
3 146 147 148
3 149 150 151
3 110 109 69
3 129 104 98
3 34 152 117
3 99 63 40
3 64 65 4
3 65 6 31
3 24 115 39
3 7 6 2
3 59 68 118
3 28 39 29
3 123 110 69
3 31 32 105
3 25 97 63
3 69 25 99
3 105 32 115
4 153 154 155 156
3 129 98 113
3 157 142 158
3 37 142 123
3 159 4 3
3 34 33 152
3 115 117 39
3 160 128 129
3 142 157 110
3 161 162 163
3 142 110 123
3 160 129 112
3 123 99 98
3 0 164 1
3 57 152 33
3 165 166 167
3 114 1 164
3 32 6 8
3 31 105 5
3 113 40 1
3 123 69 99
3 36 158 142
3 168 22 23
3 169 170 171
3 114 113 1
3 129 113 112
3 168 3 22
3 172 173 174
3 164 0 64
3 159 64 4
3 26 69 109
3 58 68 59
3 4 65 5
3 39 117 29
3 175 176 177
3 65 0 6
3 22 5 105
