ply
format ascii 1.0
comment Created by Blender 2.69 (sub 10) - www.blender.org, source file: 'bunny_base.blend'
element vertex 212
property float x
property float y
property float z
property float nx
property float ny
property float nz
element face 150
property list uchar uint vertex_indices
end_header
-0.390764 -0.826585 -0.680484 0.481748 0.866826 0.128575
-0.385964 -0.829151 -0.681172 0.481748 0.866826 0.128575
-0.376997 -0.831758 -0.697189 0.481748 0.866826 0.128575
-0.409106 -0.833927 -0.741065 0.950331 0.194776 -0.242761
-0.407710 -0.834741 -0.736251 0.950331 0.194776 -0.242761
-0.409640 -0.836605 -0.745302 0.950331 0.194776 -0.242761
-0.407710 -0.834741 -0.736251 0.691181 0.167340 -0.703041
-0.390464 -0.831498 -0.718524 0.691181 0.167340 -0.703041
-0.393261 -0.834019 -0.721874 0.691181 0.167340 -0.703041
-0.393261 -0.834019 -0.721874 -0.577928 0.811543 0.086006
-0.397213 -0.835820 -0.731425 -0.577928 0.811543 0.086006
-0.401658 -0.838918 -0.732065 -0.577928 0.811543 0.086006
-0.401658 -0.838918 -0.732065 -0.670071 0.734556 0.106922
-0.400886 -0.837433 -0.737428 -0.670071 0.734556 0.106922
-0.403139 -0.838864 -0.741717 -0.670071 0.734556 0.106922
-0.403139 -0.838864 -0.741717 0.761020 -0.080933 -0.643660
-0.406606 -0.841117 -0.745534 0.761020 -0.080933 -0.643660
-0.409891 -0.839549 -0.749615 0.761020 -0.080933 -0.643660
-0.407710 -0.834741 -0.736251 0.918929 0.298779 -0.257487
-0.409891 -0.839549 -0.749615 0.918929 0.298779 -0.257487
-0.409640 -0.836605 -0.745302 0.918929 0.298779 -0.257487
-0.407710 -0.834741 -0.736251 0.669697 0.281569 -0.687187
-0.393261 -0.834019 -0.721874 0.669697 0.281569 -0.687187
-0.401658 -0.838918 -0.732065 0.669697 0.281569 -0.687187
-0.401658 -0.838918 -0.732065 -0.130640 0.991098 0.025637
-0.403139 -0.838864 -0.741717 -0.130640 0.991098 0.025637
-0.409891 -0.839549 -0.749615 -0.130640 0.991098 0.025637
-0.407710 -0.834741 -0.736251 0.682758 0.644876 -0.343478
-0.401658 -0.838918 -0.732065 0.682758 0.644876 -0.343478
-0.409891 -0.839549 -0.749615 0.682758 0.644876 -0.343478
-0.400630 -0.828717 -0.708603 -0.779687 -0.519791 0.349101
-0.403453 -0.824790 -0.712056 -0.858547 -0.203864 0.470382
-0.402419 -0.829727 -0.713377 -0.754021 -0.516617 0.405591
-0.406326 -0.838050 -0.730174 -0.651601 -0.645344 0.398633
-0.408706 -0.829804 -0.734947 -0.835261 -0.515488 0.191260
-0.407710 -0.834741 -0.736251 -0.964904 -0.206854 0.161687
-0.385666 -0.832463 -0.708904 0.414197 -0.455336 -0.788079
-0.380668 -0.834412 -0.708568 0.019623 -0.243416 -0.969695
-0.382667 -0.838802 -0.707093 -0.096194 -0.294504 -0.950774
-0.408534 -0.839912 -0.740354 -0.672842 -0.717246 0.181066
-0.409106 -0.833927 -0.741065 -0.963652 -0.095737 0.249367
-0.409640 -0.836605 -0.745302 -0.907254 -0.394635 0.145329
-0.401512 -0.828124 -0.691768 -0.977325 -0.113132 -0.178808
-0.403292 -0.822846 -0.692726 -0.908139 -0.372082 -0.191748
-0.401393 -0.824271 -0.697460 -0.946379 -0.222999 -0.233711
-0.399734 -0.837445 -0.726783 0.149541 -0.973540 0.172613
-0.405574 -0.835882 -0.725631 -0.696310 -0.547563 0.463942
-0.401658 -0.838918 -0.732065 0.215278 -0.959288 0.182653
-0.395122 -0.834903 -0.716450 0.185492 -0.966643 0.176458
-0.398407 -0.832664 -0.712121 -0.387646 -0.798791 0.460036
-0.400289 -0.833666 -0.716855 -0.457045 -0.802149 0.384228
-0.399404 -0.827781 -0.703582 -0.954253 -0.298196 -0.020814
-0.400294 -0.822818 -0.702333 -0.981506 -0.190008 -0.022187
-0.401386 -0.823739 -0.707414 -0.916868 -0.226447 0.328684
-0.405006 -0.830741 -0.725050 -0.840205 -0.275033 0.467269
-0.406470 -0.826744 -0.721863 -0.836818 -0.439070 0.326945
-0.410374 -0.824186 -0.724145 -0.727866 -0.546587 0.414014
-0.397818 -0.836515 -0.721824 0.085635 -0.977233 0.194067
-0.395172 -0.835094 -0.726784 0.464949 -0.884976 -0.024384
-0.402982 -0.825358 -0.687866 -0.931852 -0.345836 -0.109561
-0.402627 -0.826753 -0.682447 -0.941893 -0.335734 -0.009369
-0.405350 -0.821052 -0.686822 -0.889431 -0.448958 -0.085452
-0.402584 -0.834679 -0.721419 -0.596301 -0.700552 0.391949
-0.394919 -0.837385 -0.702077 -0.645222 -0.459273 -0.610492
-0.398714 -0.834047 -0.700320 -0.851741 -0.343608 -0.395520
-0.397019 -0.831353 -0.706217 -0.700400 -0.684011 -0.203772
-0.402193 -0.830094 -0.686329 -0.994842 -0.070986 -0.072268
-0.380255 -0.844078 -0.705777 -0.131840 -0.263985 -0.955443
-0.376959 -0.840311 -0.707077 -0.020600 -0.220222 -0.975219
-0.406559 -0.832126 -0.730905 -0.938994 -0.234138 0.251839
-0.408455 -0.826907 -0.728230 -0.784539 -0.553148 0.280099
-0.411510 -0.826364 -0.732161 -0.653005 -0.658834 0.373455
-0.400291 -0.836401 -0.693970 -0.910886 -0.231330 -0.341624
-0.400380 -0.830063 -0.697146 -0.959136 -0.146306 -0.242073
-0.402492 -0.833108 -0.690329 -0.974425 0.031617 -0.222327
-0.393192 -0.833919 -0.711593 0.043947 -0.998688 0.025666
-0.390464 -0.831498 -0.718524 0.533769 -0.844752 -0.038057
-0.406308 -0.840471 -0.735165 -0.390606 -0.905637 0.164861
-0.391021 -0.840224 -0.704104 -0.511063 -0.367870 -0.776788
-0.388239 -0.831433 -0.713735 0.322550 -0.888760 -0.325602
-0.392503 -0.834739 -0.705681 -0.443190 -0.687948 -0.574664
-0.385388 -0.847007 -0.703446 -0.317270 -0.404523 -0.857723
-0.385872 -0.842456 -0.705543 -0.275063 -0.356609 -0.892819
-0.397213 -0.835820 -0.731425 0.517899 -0.855220 -0.018159
-0.403139 -0.838864 -0.741717 0.320170 -0.944517 0.073061
-0.406606 -0.841117 -0.745534 -0.548296 -0.812067 0.199652
-0.390297 -0.845240 -0.702578 -0.397046 -0.319163 -0.860500
-0.394284 -0.842697 -0.700412 -0.655263 -0.298502 -0.693869
-0.387316 -0.836950 -0.707072 -0.211554 -0.465499 -0.859371
-0.376997 -0.831758 -0.697189 0.989563 0.020900 0.142575
-0.378502 -0.835275 -0.686223 0.989563 0.020900 0.142575
-0.375482 -0.834821 -0.707252 0.989563 0.020900 0.142575
-0.401386 -0.823739 -0.707414 0.382766 0.891090 -0.243822
-0.400294 -0.822818 -0.702333 0.382766 0.891090 -0.243822
-0.375482 -0.834821 -0.707252 0.382766 0.891090 -0.243822
-0.375482 -0.834821 -0.707252 0.514911 0.716379 -0.470816
-0.408194 -0.820610 -0.721404 0.514911 0.716379 -0.470816
-0.405603 -0.819637 -0.717090 0.514911 0.716379 -0.470816
-0.401386 -0.823739 -0.707414 0.369097 0.857461 -0.358508
-0.375482 -0.834821 -0.707252 0.369097 0.857461 -0.358508
-0.403453 -0.824790 -0.712056 0.369097 0.857461 -0.358508
-0.375482 -0.834821 -0.707252 0.142310 0.721417 0.677720
-0.405603 -0.819637 -0.717090 0.142310 0.721417 0.677720
-0.403453 -0.824790 -0.712056 0.142310 0.721417 0.677720
-0.404105 -0.830721 -0.718194 -0.811853 -0.508560 0.286721
-0.397634 -0.839813 -0.697632 -0.784387 -0.339946 -0.518754
-0.402492 -0.833108 -0.690329 -0.173332 -0.780260 0.600958
-0.400291 -0.836401 -0.693970 -0.173332 -0.780260 0.600958
-0.402193 -0.830094 -0.686329 -0.173332 -0.780260 0.600958
-0.400291 -0.836401 -0.693970 -0.173311 -0.780258 0.600967
-0.397634 -0.839813 -0.697632 -0.173311 -0.780258 0.600967
-0.394284 -0.842697 -0.700412 -0.173311 -0.780258 0.600967
-0.394284 -0.842697 -0.700412 -0.176998 -0.784105 0.594854
-0.390297 -0.845240 -0.702578 -0.176998 -0.784105 0.594854
-0.385388 -0.847007 -0.703446 -0.176998 -0.784105 0.594854
-0.380025 -0.848909 -0.704365 -0.169839 -0.780888 0.601140
-0.374199 -0.853052 -0.708100 -0.169839 -0.780888 0.601140
-0.378502 -0.835275 -0.686223 -0.169839 -0.780888 0.601140
-0.400291 -0.836401 -0.693970 -0.173319 -0.780260 0.600961
-0.378502 -0.835275 -0.686223 -0.173319 -0.780260 0.600961
-0.402193 -0.830094 -0.686329 -0.173319 -0.780260 0.600961
-0.400291 -0.836401 -0.693970 -0.172901 -0.780141 0.601236
-0.394284 -0.842697 -0.700412 -0.172901 -0.780141 0.601236
-0.385388 -0.847007 -0.703446 -0.172901 -0.780141 0.601236
-0.385388 -0.847007 -0.703446 -0.173736 -0.780185 0.600939
-0.380025 -0.848909 -0.704365 -0.173736 -0.780185 0.600939
-0.378502 -0.835275 -0.686223 -0.173736 -0.780185 0.600939
-0.400291 -0.836401 -0.693970 -0.173281 -0.780343 0.600864
-0.385388 -0.847007 -0.703446 -0.173281 -0.780343 0.600864
-0.378502 -0.835275 -0.686223 -0.173281 -0.780343 0.600864
-0.408706 -0.829804 -0.734947 0.535085 0.750423 -0.388008
-0.415892 -0.824990 -0.735546 0.535085 0.750423 -0.388008
-0.411510 -0.826364 -0.732161 0.535085 0.750423 -0.388008
-0.411510 -0.826364 -0.732161 0.833202 0.492277 -0.251867
-0.412762 -0.822577 -0.728901 0.833202 0.492277 -0.251867
-0.410374 -0.824186 -0.724145 0.833202 0.492277 -0.251867
-0.410374 -0.824186 -0.724145 0.490273 0.321993 -0.809909
-0.408194 -0.820610 -0.721404 0.490273 0.321993 -0.809909
-0.375482 -0.834821 -0.707252 0.490273 0.321993 -0.809909
-0.375482 -0.834821 -0.707252 0.250025 0.497677 -0.830545
-0.380668 -0.834412 -0.708568 0.250025 0.497677 -0.830545
-0.385666 -0.832463 -0.708904 0.250025 0.497677 -0.830545
-0.388239 -0.831433 -0.713735 -0.313407 0.940276 0.132880
-0.390464 -0.831498 -0.718524 -0.313407 0.940276 0.132880
-0.407710 -0.834741 -0.736251 -0.313407 0.940276 0.132880
-0.408706 -0.829804 -0.734947 0.615639 0.734017 -0.286720
-0.411510 -0.826364 -0.732161 0.615639 0.734017 -0.286720
-0.410374 -0.824186 -0.724145 0.615639 0.734017 -0.286720
-0.408706 -0.829804 -0.734947 0.695682 0.311359 -0.647365
-0.388239 -0.831433 -0.713735 0.695682 0.311359 -0.647365
-0.407710 -0.834741 -0.736251 0.695682 0.311359 -0.647365
-0.408706 -0.829804 -0.734947 0.428335 0.827055 -0.364018
-0.410374 -0.824186 -0.724145 0.428335 0.827055 -0.364018
-0.375482 -0.834821 -0.707252 0.428335 0.827055 -0.364018
-0.408706 -0.829804 -0.734947 -0.282941 0.896165 0.341809
-0.385666 -0.832463 -0.708904 -0.282941 0.896165 0.341809
-0.388239 -0.831433 -0.713735 -0.282941 0.896165 0.341809
-0.408706 -0.829804 -0.734947 -0.241869 -0.963394 0.115631
-0.375482 -0.834821 -0.707252 -0.241869 -0.963394 0.115631
-0.385666 -0.832463 -0.708904 -0.241869 -0.963394 0.115631
-0.390764 -0.826585 -0.680484 -0.157209 -0.199817 0.967139
-0.404957 -0.821889 -0.681821 -0.157209 -0.199817 0.967139
-0.402627 -0.826753 -0.682447 -0.157209 -0.199817 0.967139
-0.406488 -0.824670 -0.716963 -0.914853 -0.147343 0.375835
-0.390764 -0.826585 -0.680484 -0.135974 -0.485959 0.863339
-0.402627 -0.826753 -0.682447 -0.135974 -0.485959 0.863339
-0.385964 -0.829151 -0.681172 -0.135974 -0.485959 0.863339
-0.380025 -0.848909 -0.704365 -0.236000 -0.171117 -0.956542
-0.375037 -0.848174 -0.705711 -0.254463 0.087466 -0.963103
-0.375482 -0.834821 -0.707252 0.987695 0.062838 0.143210
-0.378502 -0.835275 -0.686223 0.987695 0.062838 0.143210
-0.374199 -0.853052 -0.708100 0.987695 0.062838 0.143210
-0.412762 -0.822577 -0.728901 -0.701529 -0.653981 0.283029
-0.400886 -0.837433 -0.737428 0.468245 -0.881436 -0.061434
-0.393261 -0.834019 -0.721874 0.526353 -0.849452 0.036531
-0.408194 -0.820610 -0.721404 -0.860897 -0.118625 0.494705
-0.376997 -0.831758 -0.697189 0.718283 0.627786 0.299924
-0.385964 -0.829151 -0.681172 0.718283 0.627786 0.299924
-0.378502 -0.835275 -0.686223 0.718283 0.627786 0.299924
-0.402193 -0.830094 -0.686329 -0.162117 -0.745444 0.646553
-0.378502 -0.835275 -0.686223 -0.162117 -0.745444 0.646553
-0.385964 -0.829151 -0.681172 -0.162117 -0.745444 0.646553
-0.402627 -0.826753 -0.682447 -0.162117 -0.745444 0.646553
-0.374199 -0.853052 -0.708100 -0.292825 0.379528 -0.877590
-0.376997 -0.831758 -0.697189 0.288637 0.932685 -0.216302
-0.375482 -0.834821 -0.707252 0.288637 0.932685 -0.216302
-0.401393 -0.824271 -0.697460 0.288637 0.932685 -0.216302
-0.403292 -0.822846 -0.692726 0.288637 0.932685 -0.216302
-0.405350 -0.821052 -0.686822 0.739710 0.670749 0.054082
-0.404957 -0.821889 -0.681821 0.739710 0.670749 0.054082
-0.403292 -0.822846 -0.692726 0.739710 0.670749 0.054082
-0.404957 -0.821889 -0.681821 0.316694 0.947968 -0.032588
-0.390764 -0.826585 -0.680484 0.316694 0.947968 -0.032588
-0.376997 -0.831758 -0.697189 0.316694 0.947968 -0.032588
-0.404957 -0.821889 -0.681821 0.315446 0.948295 -0.035069
-0.376997 -0.831758 -0.697189 0.315446 0.948295 -0.035069
-0.403292 -0.822846 -0.692726 0.315446 0.948295 -0.035069
-0.404957 -0.821889 -0.681821 -0.901914 -0.431898 -0.001373
-0.405603 -0.819637 -0.717090 -0.852229 0.162450 0.497238
-0.376959 -0.840311 -0.707077 -0.726021 -0.102650 -0.679968
-0.375482 -0.834821 -0.707252 -0.726021 -0.102650 -0.679968
-0.374199 -0.853052 -0.708100 -0.726021 -0.102650 -0.679968
-0.375037 -0.848174 -0.705711 -0.726021 -0.102650 -0.679968
-0.409891 -0.839549 -0.749615 -0.750114 -0.524979 0.402081
-0.375482 -0.834821 -0.707252 0.237770 -0.094760 -0.966674
-0.393261 -0.834019 -0.721874 0.711338 0.575895 -0.402918
-0.395172 -0.835094 -0.726784 0.711338 0.575895 -0.402918
-0.397213 -0.835820 -0.731425 0.711338 0.575895 -0.402918
-0.415892 -0.824990 -0.735546 -0.535081 -0.750389 0.388012
-0.401393 -0.824271 -0.697460 0.463288 0.815174 0.347643
-0.375482 -0.834821 -0.707252 0.463288 0.815174 0.347643
-0.400294 -0.822818 -0.702333 0.463288 0.815174 0.347643
3 0 1 2
3 3 4 5
3 6 7 8
3 9 10 11
3 12 13 14
3 15 16 17
3 18 19 20
3 21 22 23
3 24 25 26
3 27 28 29
3 30 31 32
3 33 34 35
3 36 37 38
3 39 40 41
3 42 43 44
3 45 46 47
3 48 49 50
3 51 52 53
3 54 55 56
3 57 45 58
3 59 60 61
3 57 50 62
3 49 32 50
3 49 30 32
3 63 64 65
3 42 66 59
3 67 38 68
3 69 70 71
3 72 73 64
3 66 42 74
3 75 48 76
3 47 33 77
3 78 63 65
3 75 79 80
3 81 78 82
3 45 83 58
3 74 73 72
3 84 39 85
3 65 75 80
3 44 52 73
3 35 40 77
3 45 57 62
3 86 87 78
3 78 80 88
3 69 34 33
3 89 90 91
3 51 53 30
3 92 93 94
3 95 96 97
3 98 99 100
3 101 102 103
3 104 55 62
3 50 104 62
3 64 63 105
3 54 56 70
3 106 107 108
3 109 110 111
3 112 113 114
3 115 116 117
3 118 119 120
3 121 122 123
3 124 125 126
3 127 128 129
3 130 131 132
3 133 134 135
3 136 137 138
3 139 140 141
3 142 143 144
3 145 146 147
3 148 149 150
3 151 152 153
3 154 155 156
3 157 158 159
3 160 161 162
3 78 63 80
3 62 54 46
3 32 163 104
3 73 42 44
3 164 165 166
3 77 39 84
3 87 63 78
3 49 48 75
3 57 48 50
3 167 67 168
3 65 51 30
3 169 170 171
3 30 53 31
3 70 172 71
3 81 86 78
3 77 84 173
3 64 51 65
3 57 174 48
3 55 163 175
3 82 38 67
3 48 174 76
3 57 58 174
3 70 56 172
3 43 59 61
3 32 31 163
3 176 177 178
4 179 180 181 182
3 168 183 167
3 59 43 42
3 69 71 34
3 38 88 36
4 184 185 186 187
3 78 88 82
3 52 51 73
3 38 37 68
3 75 30 49
3 188 189 190
3 191 192 193
3 194 195 196
3 50 32 104
3 46 54 70
3 60 197 61
3 88 79 36
3 175 163 198
3 31 198 163
3 75 76 79
3 60 59 66
3 33 35 77
3 55 175 56
3 39 41 85
3 45 62 46
3 104 163 55
4 199 200 201 202
3 63 65 80
3 47 77 173
3 203 85 41
3 67 68 168
3 37 204 68
3 46 69 33
3 81 82 167
3 205 206 207
3 73 51 64
3 71 208 34
3 82 67 167
3 33 47 46
3 88 80 79
3 72 64 105
3 77 40 39
3 46 70 69
3 82 88 38
3 42 73 74
3 75 65 30
3 62 55 54
3 209 210 211
3 87 105 63
3 45 47 83
