ply
format ascii 1.0
comment Created by Blender 2.69 (sub 10) - www.blender.org, source file: 'bunny_base.blend'
element vertex 145
property float x
property float y
property float z
property float nx
property float ny
property float nz
element face 112
property list uchar uint vertex_indices
end_header
-0.384425 -0.882398 -0.665228 -0.703848 -0.485061 0.518906
-0.387645 -0.880675 -0.669731 -0.825190 -0.511032 0.240547
-0.384057 -0.884553 -0.670210 -0.760369 -0.611652 0.218329
-0.360323 -0.866995 -0.676544 0.352109 0.248736 -0.902303
-0.366796 -0.898545 -0.687767 0.352109 0.248736 -0.902303
-0.386176 -0.879955 -0.690206 0.352109 0.248736 -0.902303
-0.366796 -0.898545 -0.687767 0.352117 0.248757 -0.902294
-0.372211 -0.896086 -0.689203 0.352117 0.248757 -0.902294
-0.376434 -0.893114 -0.690032 0.352117 0.248757 -0.902294
-0.376434 -0.893114 -0.690032 0.352126 0.248749 -0.902293
-0.380282 -0.889777 -0.690613 0.352126 0.248749 -0.902293
-0.383819 -0.884536 -0.690549 0.352126 0.248749 -0.902293
-0.366796 -0.898545 -0.687767 0.352109 0.248736 -0.902302
-0.383819 -0.884536 -0.690549 0.352109 0.248736 -0.902302
-0.386176 -0.879955 -0.690206 0.352109 0.248736 -0.902302
-0.366796 -0.898545 -0.687767 0.352105 0.248730 -0.902306
-0.376434 -0.893114 -0.690032 0.352105 0.248730 -0.902306
-0.383819 -0.884536 -0.690549 0.352105 0.248730 -0.902306
-0.386402 -0.868860 -0.657432 -0.777856 -0.434614 0.453871
-0.389286 -0.867860 -0.663079 -0.878353 -0.241707 0.412305
-0.384665 -0.873677 -0.659069 -0.756828 -0.362621 0.543748
-0.378120 -0.873895 -0.653050 -0.519059 -0.359996 0.775201
-0.382609 -0.871378 -0.655114 -0.661580 -0.361003 0.657216
-0.380794 -0.877418 -0.656135 -0.588977 -0.403119 0.700369
-0.383699 -0.886971 -0.685929 -0.822230 -0.554765 -0.126926
-0.382707 -0.888882 -0.680485 -0.775750 -0.627308 -0.068148
-0.386044 -0.882538 -0.684966 -0.851405 -0.487869 -0.192450
-0.373646 -0.884902 -0.656053 -0.499405 -0.512589 0.698416
-0.374009 -0.880336 -0.653677 -0.495865 -0.464583 0.733634
-0.377902 -0.881732 -0.657484 -0.555956 -0.538469 0.633198
-0.386282 -0.884525 -0.679022 -0.800867 -0.595721 -0.060732
-0.389049 -0.879821 -0.680510 -0.881375 -0.459761 -0.108432
-0.378343 -0.893500 -0.680137 -0.590320 -0.806391 -0.035096
-0.379201 -0.891660 -0.685132 -0.670064 -0.730583 -0.131260
-0.389461 -0.875876 -0.668033 -0.904386 -0.259774 0.338450
-0.390330 -0.872040 -0.672184 -0.986877 -0.143315 0.074221
-0.389453 -0.876811 -0.673510 -0.954833 -0.281259 0.095676
-0.383864 -0.886764 -0.675140 -0.786035 -0.597217 0.159429
-0.377146 -0.889313 -0.664280 -0.564989 -0.725822 0.392315
-0.379566 -0.884477 -0.662368 -0.638386 -0.548479 0.539994
-0.381615 -0.886741 -0.666369 -0.672353 -0.630055 0.388501
-0.369040 -0.880135 -0.650274 0.767375 0.384778 0.512915
-0.355979 -0.875565 -0.676832 0.767375 0.384778 0.512915
-0.365440 -0.864601 -0.667314 0.767375 0.384778 0.512915
-0.373447 -0.876052 -0.650332 0.767375 0.384778 0.512915
-0.369853 -0.892914 -0.662851 0.818425 -0.230219 0.526479
-0.355979 -0.875565 -0.676832 0.818425 -0.230219 0.526479
-0.371174 -0.889156 -0.659155 0.818425 -0.230219 0.526479
-0.355979 -0.875565 -0.676832 0.875795 -0.298458 0.379349
-0.369040 -0.880135 -0.650274 0.875795 -0.298458 0.379349
-0.369145 -0.884454 -0.653430 0.875795 -0.298458 0.379349
-0.355979 -0.875565 -0.676832 0.776835 -0.593021 0.211787
-0.369145 -0.884454 -0.653430 0.776835 -0.593021 0.211787
-0.371174 -0.889156 -0.659155 0.776835 -0.593021 0.211787
-0.385512 -0.877524 -0.663860 -0.778375 -0.404370 0.480148
-0.383048 -0.879710 -0.660013 -0.736198 -0.518876 0.434400
-0.368964 -0.897763 -0.682704 -0.382488 -0.923795 -0.016053
-0.374637 -0.895434 -0.684766 -0.496658 -0.863979 -0.082461
-0.366796 -0.898545 -0.687767 -0.382855 -0.922727 -0.043947
-0.389781 -0.870949 -0.666986 -0.937284 -0.219428 0.270730
-0.388172 -0.873208 -0.662783 -0.837245 -0.371685 0.401074
-0.376359 -0.894122 -0.675224 -0.492080 -0.845515 0.207190
-0.381201 -0.891129 -0.676193 -0.703330 -0.698813 0.130070
-0.381321 -0.888920 -0.671294 -0.689718 -0.672201 0.269112
-0.376571 -0.891969 -0.670305 -0.530992 -0.783410 0.322916
-0.373447 -0.876052 -0.650332 0.044524 0.818425 0.572887
-0.365440 -0.864601 -0.667314 0.044524 0.818425 0.572887
-0.378120 -0.873895 -0.653050 0.044524 0.818425 0.572887
-0.365440 -0.864601 -0.667314 -0.093685 0.971042 0.219775
-0.389286 -0.867860 -0.663079 -0.093685 0.971042 0.219775
-0.386402 -0.868860 -0.657432 -0.093685 0.971042 0.219775
-0.386402 -0.868860 -0.657432 0.200887 0.809920 0.551065
-0.382609 -0.871378 -0.655114 0.200887 0.809920 0.551065
-0.378120 -0.873895 -0.653050 0.200887 0.809920 0.551065
-0.365440 -0.864601 -0.667314 0.137743 0.769359 0.623790
-0.386402 -0.868860 -0.657432 0.137743 0.769359 0.623790
-0.378120 -0.873895 -0.653050 0.137743 0.769359 0.623790
-0.366796 -0.898545 -0.687767 0.400950 0.232915 -0.885997
-0.360323 -0.866995 -0.676544 0.400950 0.232915 -0.885997
-0.355979 -0.875565 -0.676832 0.400950 0.232915 -0.885997
-0.389286 -0.867860 -0.663079 -0.243462 0.891748 -0.381460
-0.360323 -0.866995 -0.676544 -0.243462 0.891748 -0.381460
-0.390330 -0.872040 -0.672184 -0.243462 0.891748 -0.381460
-0.389781 -0.870949 -0.666986 -0.243462 0.891748 -0.381460
-0.372211 -0.896086 -0.689203 -0.456435 -0.881588 -0.120029
-0.380282 -0.889777 -0.690613 -0.714743 -0.681143 -0.158513
-0.389286 -0.867860 -0.663079 -0.186647 0.920849 -0.342346
-0.365440 -0.864601 -0.667314 -0.186647 0.920849 -0.342346
-0.360323 -0.866995 -0.676544 -0.186647 0.920849 -0.342346
-0.375890 -0.887075 -0.659970 -0.558153 -0.614856 0.557085
-0.372968 -0.896136 -0.678927 -0.420362 -0.906308 0.043123
-0.367566 -0.898522 -0.677412 -0.409986 -0.910489 0.053835
-0.365440 -0.864601 -0.667314 0.837838 0.412704 0.357355
-0.355979 -0.875565 -0.676832 0.837838 0.412704 0.357355
-0.360323 -0.866995 -0.676544 0.837838 0.412704 0.357355
-0.386176 -0.879955 -0.690206 -0.865749 -0.455763 -0.206732
-0.388741 -0.877650 -0.685378 -0.840114 -0.484268 -0.244209
-0.373271 -0.892474 -0.666480 -0.521392 -0.754026 0.399494
-0.369558 -0.895682 -0.667690 -0.521392 -0.754026 0.399494
-0.369853 -0.892914 -0.662851 -0.521392 -0.754026 0.399494
-0.369558 -0.895682 -0.667690 -0.350642 -0.915828 0.195725
-0.370814 -0.896260 -0.672645 -0.350642 -0.915828 0.195725
-0.367566 -0.898522 -0.677412 -0.350642 -0.915828 0.195725
-0.367566 -0.898522 -0.677412 -0.395181 -0.918194 -0.027409
-0.368964 -0.897763 -0.682704 -0.395181 -0.918194 -0.027409
-0.366796 -0.898545 -0.687767 -0.395181 -0.918194 -0.027409
-0.366796 -0.898545 -0.687767 0.839963 -0.497974 0.215600
-0.355979 -0.875565 -0.676832 0.839963 -0.497974 0.215600
-0.369853 -0.892914 -0.662851 0.839963 -0.497974 0.215600
-0.369558 -0.895682 -0.667690 0.848233 -0.435735 0.301059
-0.367566 -0.898522 -0.677412 0.848233 -0.435735 0.301059
-0.369853 -0.892914 -0.662851 0.848233 -0.435735 0.301059
-0.367566 -0.898522 -0.677412 0.974942 0.210464 0.072067
-0.366796 -0.898545 -0.687767 0.974942 0.210464 0.072067
-0.369853 -0.892914 -0.662851 0.974942 0.210464 0.072067
-0.383819 -0.884536 -0.690549 -0.850002 -0.474776 -0.228156
-0.371174 -0.889156 -0.659155 -0.321310 -0.672700 0.666509
-0.369145 -0.884454 -0.653430 -0.321310 -0.672700 0.666509
-0.373646 -0.884902 -0.656053 -0.321310 -0.672700 0.666509
-0.370814 -0.896260 -0.672645 -0.464095 -0.860103 0.211554
-0.390330 -0.872040 -0.672184 -0.178115 0.233077 -0.956007
-0.360323 -0.866995 -0.676544 -0.178115 0.233077 -0.956007
-0.389453 -0.876811 -0.673510 -0.178115 0.233077 -0.956007
-0.360323 -0.866995 -0.676544 -0.165789 0.852795 -0.495232
-0.386176 -0.879955 -0.690206 -0.165789 0.852795 -0.495232
-0.388741 -0.877650 -0.685378 -0.165789 0.852795 -0.495232
-0.388741 -0.877650 -0.685378 -0.947367 -0.265879 -0.178340
-0.389049 -0.879821 -0.680510 -0.947367 -0.265879 -0.178340
-0.390640 -0.875187 -0.678965 -0.947367 -0.265879 -0.178340
-0.360323 -0.866995 -0.676544 -0.270716 0.904909 0.328407
-0.390640 -0.875187 -0.678965 -0.270716 0.904909 0.328407
-0.389453 -0.876811 -0.673510 -0.270716 0.904909 0.328407
-0.360323 -0.866995 -0.676544 -0.208426 0.890761 -0.403860
-0.388741 -0.877650 -0.685378 -0.208426 0.890761 -0.403860
-0.390640 -0.875187 -0.678965 -0.208426 0.890761 -0.403860
-0.388206 -0.881668 -0.674982 -0.863521 -0.490188 0.118320
-0.390640 -0.875187 -0.678965 -0.947691 -0.310343 0.074252
-0.376434 -0.893114 -0.690032 -0.606372 -0.781976 -0.144200
-0.373271 -0.892474 -0.666480 -0.513779 -0.787255 0.340922
-0.369853 -0.892914 -0.662851 -0.451033 -0.758568 0.470199
-0.369558 -0.895682 -0.667690 -0.528184 -0.802667 0.276955
-0.371174 -0.889156 -0.659155 -0.409894 -0.699637 0.585192
-0.373447 -0.876052 -0.650332 -0.545152 -0.470351 0.693899
-0.369145 -0.884454 -0.653430 -0.446944 -0.482833 0.753014
-0.369040 -0.880135 -0.650274 -0.472579 -0.508255 0.719932
3 0 1 2
3 3 4 5
3 6 7 8
3 9 10 11
3 12 13 14
3 15 16 17
3 18 19 20
3 21 22 23
3 24 25 26
3 27 28 29
3 30 31 26
3 32 25 33
3 34 35 36
3 25 37 30
3 38 39 40
4 41 42 43 44
3 45 46 47
3 48 49 50
3 51 52 53
3 20 54 55
3 56 57 58
3 19 59 60
3 29 28 23
3 1 34 36
3 39 0 40
3 61 62 32
3 60 20 19
3 39 55 54
3 40 63 64
3 65 66 67
3 68 69 70
3 71 72 73
3 74 75 76
3 77 78 79
4 80 81 82 83
3 22 18 20
3 29 23 55
3 57 84 58
3 22 20 23
3 33 24 85
3 60 59 54
3 40 0 2
3 39 54 0
3 86 87 88
3 34 59 35
3 89 39 38
3 63 40 2
3 89 27 29
3 90 61 32
3 32 62 25
3 91 61 90
3 62 37 25
3 20 60 54
3 92 93 94
3 1 0 34
3 95 26 96
3 97 98 99
3 100 101 102
3 103 104 105
3 106 107 108
3 109 110 111
3 112 113 114
3 89 29 39
3 26 95 24
3 0 54 34
3 85 24 115
3 24 95 115
3 54 59 34
3 25 30 26
3 26 31 96
3 116 117 118
3 91 119 61
3 120 121 122
3 123 124 125
3 126 127 128
3 129 130 131
3 132 133 134
3 23 20 55
3 28 21 23
3 30 135 31
3 37 135 30
3 135 136 31
3 61 63 62
3 63 37 62
3 119 64 61
3 61 64 63
3 36 136 135
3 63 2 37
3 37 2 135
3 2 1 135
3 1 36 135
3 33 85 137
3 32 33 57
3 33 137 57
3 90 56 91
3 90 57 56
3 32 57 90
3 57 137 84
3 55 39 29
3 38 40 138
3 138 139 38
3 139 89 38
3 119 140 64
3 89 141 27
3 28 142 21
3 139 141 89
3 27 143 28
3 143 144 28
3 144 142 28
3 33 25 24
3 138 64 140
3 64 138 40
