ply
format ascii 1.0
comment Created by Blender 2.69 (sub 10) - www.blender.org, source file: 'bunny_base.blend'
element vertex 148
property float x
property float y
property float z
property float nx
property float ny
property float nz
element face 111
property list uchar uint vertex_indices
end_header
-0.299695 -0.884561 -0.648600 0.169805 0.656636 0.734794
-0.294714 -0.885094 -0.649960 0.385113 0.370312 0.845302
-0.296983 -0.880288 -0.648851 0.129063 0.036927 0.990936
-0.313192 -0.857938 -0.652016 -0.188528 0.401740 -0.896138
-0.311046 -0.853282 -0.651336 -0.188528 0.401740 -0.896138
-0.315320 -0.867522 -0.655865 -0.188528 0.401740 -0.896138
-0.314931 -0.862138 -0.654489 -0.188528 0.401740 -0.896138
-0.298574 -0.862785 -0.652010 0.094974 0.209418 0.973174
-0.297301 -0.857740 -0.652653 0.069430 0.108860 0.991607
-0.302753 -0.856129 -0.652041 0.167455 0.189154 0.967528
-0.303522 -0.862212 -0.650580 0.094546 0.142735 0.985229
-0.307802 -0.857636 -0.651414 -0.032655 0.050233 0.998199
-0.290120 -0.869180 -0.651340 0.353893 0.168218 0.920011
-0.295247 -0.869948 -0.649228 0.086184 0.126286 0.988220
-0.291838 -0.874179 -0.650207 0.160649 0.030030 0.986541
-0.304715 -0.883606 -0.649596 -0.259713 0.656362 0.708304
-0.309864 -0.883535 -0.652358 -0.508377 0.549852 0.662709
-0.308518 -0.884944 -0.646233 -0.308512 0.900662 0.305918
-0.293423 -0.865385 -0.651177 0.117740 0.300729 0.946379
-0.302821 -0.884645 -0.643343 0.093326 0.922239 0.375164
-0.300498 -0.867555 -0.650381 0.012909 0.171392 0.985107
-0.305972 -0.866660 -0.650432 -0.243904 -0.001770 0.969787
-0.303587 -0.872034 -0.649717 -0.227607 0.044923 0.972686
-0.293456 -0.889790 -0.644375 0.508927 0.512436 0.691610
-0.297413 -0.886364 -0.644077 0.444716 0.748619 0.491714
-0.302249 -0.877721 -0.648914 -0.187750 0.088778 0.978179
-0.313117 -0.886643 -0.648646 -0.487472 0.829157 0.273507
-0.312150 -0.887995 -0.643495 -0.425275 0.830073 0.360698
-0.294371 -0.894838 -0.641547 0.555742 0.304117 0.773705
-0.289645 -0.894029 -0.645016 0.559862 0.392956 0.729453
-0.313192 -0.857938 -0.652016 -0.234413 -0.156957 0.959349
-0.310008 -0.862185 -0.651846 -0.351115 -0.086795 0.932279
-0.318513 -0.870828 -0.658079 -0.996297 0.085627 0.007787
-0.317571 -0.875181 -0.688218 -0.996297 0.085627 0.007787
-0.319317 -0.878024 -0.681808 -0.996297 0.085627 0.007787
-0.317389 -0.875851 -0.657567 -0.996297 0.085627 0.007787
-0.311046 -0.853282 -0.651336 0.054048 0.073305 0.995819
-0.304041 -0.895625 -0.635726 -0.117774 -0.939225 -0.322469
-0.319317 -0.878024 -0.681808 -0.117774 -0.939225 -0.322469
-0.294371 -0.894838 -0.641547 -0.117774 -0.939225 -0.322469
-0.299203 -0.895415 -0.638499 -0.117774 -0.939225 -0.322469
-0.319317 -0.878024 -0.681808 -0.077952 -0.936204 -0.342703
-0.308132 -0.874197 -0.694806 -0.077952 -0.936204 -0.342703
-0.294371 -0.894838 -0.641547 -0.077952 -0.936204 -0.342703
-0.308132 -0.874197 -0.694806 0.064707 -0.918582 -0.389897
-0.286371 -0.892150 -0.648899 0.064707 -0.918582 -0.389897
-0.289645 -0.894029 -0.645016 0.064707 -0.918582 -0.389897
-0.308132 -0.874197 -0.694806 -0.088992 -0.936253 -0.339870
-0.289645 -0.894029 -0.645016 -0.088992 -0.936253 -0.339870
-0.294371 -0.894838 -0.641547 -0.088992 -0.936253 -0.339870
-0.291874 -0.880548 -0.649715 0.164953 -0.033784 0.985717
-0.302753 -0.856129 -0.652041 0.207652 0.356948 0.910752
-0.297301 -0.857740 -0.652653 0.207652 0.356948 0.910752
-0.304205 -0.851003 -0.653719 0.207652 0.356948 0.910752
-0.311048 -0.870265 -0.693229 0.306255 0.833702 -0.459509
-0.308605 -0.848815 -0.652683 0.306255 0.833702 -0.459509
-0.304205 -0.851003 -0.653719 0.306255 0.833702 -0.459509
-0.297301 -0.857740 -0.652653 0.667022 0.617640 -0.416656
-0.311048 -0.870265 -0.693229 0.667022 0.617640 -0.416656
-0.304205 -0.851003 -0.653719 0.667022 0.617640 -0.416656
-0.308605 -0.848815 -0.652683 0.848109 0.445494 -0.286786
-0.311048 -0.870265 -0.693229 0.848109 0.445494 -0.286786
-0.311202 -0.860411 -0.678376 0.848109 0.445494 -0.286786
-0.289966 -0.886073 -0.651967 0.490768 0.429487 0.758049
-0.299203 -0.895415 -0.638499 0.465773 0.181158 0.866146
-0.297991 -0.889738 -0.640145 0.572954 0.413617 0.707511
-0.302288 -0.887556 -0.638615 0.271859 0.638356 0.720084
-0.307015 -0.886717 -0.641114 -0.254219 0.841121 0.477309
-0.306333 -0.890087 -0.636211 -0.012268 0.488693 0.872341
-0.304041 -0.895625 -0.635726 0.346690 0.223212 0.911008
-0.311202 -0.860411 -0.678376 -0.882975 0.455140 -0.114906
-0.317571 -0.875181 -0.688218 -0.882975 0.455140 -0.114906
-0.311046 -0.853282 -0.651336 -0.882975 0.455140 -0.114906
-0.308605 -0.848815 -0.652683 -0.882975 0.455140 -0.114906
-0.287762 -0.877600 -0.650162 0.053285 0.076632 0.995605
-0.309107 -0.895009 -0.635204 -0.146140 -0.939329 -0.310329
-0.319317 -0.878024 -0.681808 -0.146140 -0.939329 -0.310329
-0.304041 -0.895625 -0.635726 -0.146140 -0.939329 -0.310329
-0.308132 -0.874197 -0.694806 0.642361 0.643493 -0.416281
-0.311048 -0.870265 -0.693229 0.642361 0.643493 -0.416281
-0.297301 -0.857740 -0.652653 0.642361 0.643493 -0.416281
-0.317571 -0.875181 -0.688218 -0.219996 -0.868139 -0.444901
-0.308132 -0.874197 -0.694806 -0.219996 -0.868139 -0.444901
-0.319317 -0.878024 -0.681808 -0.219996 -0.868139 -0.444901
-0.311131 -0.889682 -0.638826 -0.358654 0.712668 0.602863
-0.317571 -0.875181 -0.688218 -0.563853 -0.088724 -0.821096
-0.311048 -0.870265 -0.693229 -0.563853 -0.088724 -0.821096
-0.308132 -0.874197 -0.694806 -0.563853 -0.088724 -0.821096
-0.311202 -0.860411 -0.678376 -0.725654 0.569860 -0.385599
-0.311048 -0.870265 -0.693229 -0.725654 0.569860 -0.385599
-0.317571 -0.875181 -0.688218 -0.725654 0.569860 -0.385599
-0.314021 -0.885749 -0.654522 -0.591906 0.475661 0.650624
-0.304205 -0.851003 -0.653719 0.388318 0.384167 0.837611
-0.308605 -0.848815 -0.652683 0.227454 0.264199 0.937254
-0.289966 -0.886073 -0.651967 0.882466 0.387380 -0.266814
-0.286371 -0.892150 -0.648899 0.882466 0.387380 -0.266814
-0.308132 -0.874197 -0.694806 0.882466 0.387380 -0.266814
-0.308132 -0.874197 -0.694806 0.857464 0.364891 -0.362780
-0.297301 -0.857740 -0.652653 0.857464 0.364891 -0.362780
-0.293423 -0.865385 -0.651177 0.857464 0.364891 -0.362780
-0.293423 -0.865385 -0.651177 -0.214550 -0.145226 -0.965856
-0.290120 -0.869180 -0.651340 -0.214550 -0.145226 -0.965856
-0.291838 -0.874179 -0.650207 -0.214550 -0.145226 -0.965856
-0.291838 -0.874179 -0.650207 -0.053255 -0.076652 -0.995635
-0.287762 -0.877600 -0.650162 -0.053255 -0.076652 -0.995635
-0.291874 -0.880548 -0.649715 -0.053255 -0.076652 -0.995635
-0.289966 -0.886073 -0.651967 0.875764 0.407817 -0.258307
-0.308132 -0.874197 -0.694806 0.875764 0.407817 -0.258307
-0.291874 -0.880548 -0.649715 0.875764 0.407817 -0.258307
-0.308132 -0.874197 -0.694806 0.931255 0.130300 -0.340274
-0.293423 -0.865385 -0.651177 0.931255 0.130300 -0.340274
-0.291838 -0.874179 -0.650207 0.931255 0.130300 -0.340274
-0.308132 -0.874197 -0.694806 0.938805 -0.031909 -0.342967
-0.291838 -0.874179 -0.650207 0.938805 -0.031909 -0.342967
-0.291874 -0.880548 -0.649715 0.938805 -0.031909 -0.342967
-0.297529 -0.875004 -0.649616 0.050844 0.075625 0.995819
-0.311131 -0.889682 -0.638826 -0.950916 -0.292213 0.101837
-0.312150 -0.887995 -0.643495 -0.950916 -0.292213 0.101837
-0.309107 -0.895009 -0.635204 -0.950916 -0.292213 0.101837
-0.312150 -0.887995 -0.643495 -0.950915 -0.292215 0.101836
-0.313117 -0.886643 -0.648646 -0.950915 -0.292215 0.101836
-0.314021 -0.885749 -0.654522 -0.950915 -0.292215 0.101836
-0.315606 -0.881235 -0.656372 -0.950914 -0.292220 0.101835
-0.317389 -0.875851 -0.657567 -0.950914 -0.292220 0.101835
-0.319317 -0.878024 -0.681808 -0.950914 -0.292220 0.101835
-0.314021 -0.885749 -0.654522 -0.950916 -0.292213 0.101837
-0.314021 -0.885749 -0.654522 -0.950916 -0.292212 0.101836
-0.315606 -0.881235 -0.656372 -0.950916 -0.292212 0.101836
-0.319317 -0.878024 -0.681808 -0.950916 -0.292212 0.101836
-0.314021 -0.885749 -0.654522 -0.950915 -0.292217 0.101834
-0.319317 -0.878024 -0.681808 -0.950915 -0.292217 0.101834
-0.309107 -0.895009 -0.635204 -0.950915 -0.292217 0.101834
-0.286371 -0.892150 -0.648899 0.572680 0.544633 0.612659
-0.309107 -0.895009 -0.635204 -0.117893 0.262185 0.957762
-0.307930 -0.873169 -0.652391 -0.500290 -0.020661 0.865596
-0.306892 -0.878639 -0.651021 -0.500107 0.061464 0.863765
-0.312856 -0.872968 -0.655304 -0.495773 -0.038636 0.867580
-0.315320 -0.867522 -0.655865 -0.505600 -0.153508 0.848964
-0.315606 -0.881235 -0.656372 -0.504074 0.098422 0.857997
-0.318513 -0.870828 -0.658079 -0.915272 0.401611 -0.031401
-0.315320 -0.867522 -0.655865 -0.915272 0.401611 -0.031401
-0.311046 -0.853282 -0.651336 -0.915272 0.401611 -0.031401
-0.317571 -0.875181 -0.688218 -0.915272 0.401611 -0.031401
-0.311620 -0.878589 -0.654312 -0.524705 0.067690 0.848567
-0.317389 -0.875851 -0.657567 -0.461196 0.022065 0.886990
-0.318513 -0.870828 -0.658079 -0.459853 -0.067598 0.885403
-0.314931 -0.862138 -0.654489 -0.482681 -0.207221 0.850917
-0.310458 -0.867682 -0.652841 -0.491226 -0.144688 0.858913
3 0 1 2
4 3 4 5 6
3 7 8 9
3 10 9 11
3 12 13 14
3 15 16 17
3 18 7 13
3 19 0 15
3 18 8 7
3 20 21 22
3 23 1 24
3 0 2 25
3 17 26 27
3 13 7 20
3 28 29 23
3 16 26 17
3 21 20 10
3 11 30 31
4 32 33 34 35
3 9 36 11
4 37 38 39 40
3 41 42 43
3 44 45 46
3 47 48 49
3 19 24 0
3 1 50 2
3 28 23 24
3 51 52 53
3 54 55 56
3 57 58 59
3 60 61 62
3 23 63 1
3 13 12 18
3 20 7 10
3 64 65 66
3 67 66 19
3 10 7 9
3 68 69 64
3 28 24 65
3 67 68 66
4 70 71 72 73
3 14 50 74
3 65 64 28
3 75 76 77
3 78 79 80
3 81 82 83
3 31 21 11
3 17 27 84
3 85 86 87
3 67 19 17
3 67 17 84
3 88 89 90
3 16 91 26
3 24 1 0
3 92 93 9
3 94 95 96
3 97 98 99
3 100 101 102
3 103 104 105
3 106 107 108
3 109 110 111
3 112 113 114
3 24 19 65
3 50 14 115
3 63 50 1
3 14 13 115
3 9 93 36
3 116 117 118
3 119 120 121
3 122 123 124
3 117 125 118
3 126 127 128
3 129 130 131
3 2 50 115
3 64 66 68
3 65 19 66
3 132 63 23
3 29 132 23
3 11 21 10
3 133 69 68
3 115 20 22
3 68 67 84
3 25 134 135
3 19 15 17
3 136 134 137
3 91 16 138
4 139 140 141 142
3 143 136 144
3 16 143 138
3 133 68 84
3 138 143 144
3 30 11 36
3 135 134 136
3 143 135 136
3 16 15 143
3 144 136 145
3 115 25 2
3 15 135 143
3 146 31 30
3 145 136 137
3 20 115 13
3 147 31 146
3 25 22 134
3 147 146 137
3 134 22 147
3 22 21 147
3 134 147 137
3 15 0 25
3 21 31 147
3 135 15 25
3 25 115 22
