ply
format ascii 1.0
comment Created by Blender 2.69 (sub 10) - www.blender.org, source file: 'bunny_base.blend'
element vertex 157
property float x
property float y
property float z
property float nx
property float ny
property float nz
element face 115
property list uchar uint vertex_indices
end_header
-0.306586 -0.862943 -0.721178 -0.402388 -0.903208 -0.149327
-0.308481 -0.865256 -0.702078 -0.402388 -0.903208 -0.149327
-0.322348 -0.857563 -0.711245 -0.402388 -0.903208 -0.149327
-0.326656 -0.851375 -0.732975 -0.373512 -0.895354 -0.242549
-0.306586 -0.862943 -0.721178 -0.373512 -0.895354 -0.242549
-0.330979 -0.850313 -0.730236 -0.373512 -0.895354 -0.242549
-0.323955 -0.827608 -0.716879 -0.421644 0.823359 -0.379772
-0.328516 -0.828614 -0.713603 -0.462508 0.817286 -0.343577
-0.324018 -0.825669 -0.711847 -0.410779 0.862117 -0.296579
-0.318287 -0.825341 -0.717733 -0.329112 0.857875 -0.394604
-0.331234 -0.828074 -0.707988 -0.454817 0.842860 -0.287515
-0.328502 -0.825699 -0.704525 -0.414258 0.884701 -0.213599
-0.308212 -0.845083 -0.737878 -0.052675 0.265236 -0.962737
-0.313186 -0.843828 -0.737115 -0.181433 0.354961 -0.917081
-0.310076 -0.840087 -0.735562 -0.126377 0.492386 -0.861110
-0.318965 -0.843047 -0.734799 -0.392407 0.356365 -0.847926
-0.316149 -0.847971 -0.737404 -0.298837 0.197760 -0.933561
-0.312879 -0.823356 -0.717042 0.638807 0.735005 -0.227361
-0.313038 -0.821642 -0.711947 0.638807 0.735005 -0.227361
-0.311877 -0.825716 -0.721855 0.638807 0.735005 -0.227361
-0.313038 -0.821642 -0.711947 0.985201 0.128574 0.113350
-0.308481 -0.865256 -0.702078 0.985201 0.128574 0.113350
-0.306586 -0.862943 -0.721178 0.985201 0.128574 0.113350
-0.313038 -0.821642 -0.711947 0.988260 0.141516 0.057584
-0.306586 -0.862943 -0.721178 0.988260 0.141516 0.057584
-0.311877 -0.825716 -0.721855 0.988260 0.141516 0.057584
-0.322837 -0.829549 -0.721889 -0.401074 0.777032 -0.485092
-0.317234 -0.827467 -0.722642 -0.287027 0.817682 -0.498947
-0.316372 -0.830472 -0.727193 -0.259407 0.713706 -0.650594
-0.317671 -0.834480 -0.730319 -0.293954 0.577654 -0.761498
-0.312826 -0.835396 -0.732235 -0.160436 0.561235 -0.811914
-0.315925 -0.839166 -0.733661 -0.253182 0.485458 -0.836756
-0.320744 -0.838349 -0.731421 -0.412519 0.454115 -0.789666
-0.324584 -0.841432 -0.730410 -0.430586 0.359569 -0.827815
-0.318409 -0.823457 -0.712706 -0.326701 0.901944 -0.282388
-0.323117 -0.823726 -0.706783 -0.373760 0.904691 -0.204474
-0.322822 -0.846174 -0.733646 -0.476241 0.305979 -0.824335
-0.329705 -0.831576 -0.718253 -0.496963 0.753990 -0.429518
-0.326908 -0.832399 -0.722514 -0.466842 0.700797 -0.539354
-0.327523 -0.845643 -0.730488 -0.444990 0.273171 -0.852840
-0.326656 -0.851375 -0.732975 -0.513535 0.296670 -0.805139
-0.317637 -0.822043 -0.707435 -0.277871 0.945250 -0.170934
-0.333631 -0.840849 -0.725052 -0.588916 0.460799 -0.663930
-0.329413 -0.840542 -0.728465 -0.445723 0.399274 -0.801172
-0.332576 -0.845330 -0.727939 -0.489395 0.259987 -0.832392
-0.330979 -0.850313 -0.730236 -0.441786 0.280923 -0.851985
-0.311217 -0.849110 -0.738528 -0.105899 0.124363 -0.986541
-0.333851 -0.831471 -0.712489 -0.718362 -0.286491 0.633939
-0.322348 -0.857563 -0.711245 -0.718362 -0.286491 0.633939
-0.331234 -0.828074 -0.707988 -0.718362 -0.286491 0.633939
-0.322348 -0.857563 -0.711245 -0.960714 0.125398 -0.247597
-0.321504 -0.822662 -0.696843 -0.960714 0.125398 -0.247597
-0.320139 -0.821760 -0.701681 -0.960714 0.125398 -0.247597
-0.320139 -0.821760 -0.701681 0.378157 -0.913038 0.152836
-0.325356 -0.823783 -0.700857 0.378157 -0.913038 0.152836
-0.328502 -0.825699 -0.704525 0.378157 -0.913038 0.152836
-0.322348 -0.857563 -0.711245 -0.654146 -0.274948 0.704625
-0.328502 -0.825699 -0.704525 -0.654146 -0.274948 0.704625
-0.331234 -0.828074 -0.707988 -0.654146 -0.274948 0.704625
-0.322348 -0.857563 -0.711245 -0.209123 -0.240309 0.947903
-0.320139 -0.821760 -0.701681 -0.209123 -0.240309 0.947903
-0.328502 -0.825699 -0.704525 -0.209123 -0.240309 0.947903
-0.313038 -0.821642 -0.711947 -0.269356 0.931272 -0.245247
-0.312293 -0.820423 -0.706592 -0.267891 0.953856 -0.135502
-0.333851 -0.831471 -0.712489 -0.507553 0.783532 -0.358348
-0.305231 -0.851856 -0.739145 -0.098331 0.009278 -0.995086
-0.307175 -0.856451 -0.738578 -0.048799 -0.020081 -0.998596
-0.317693 -0.852942 -0.737824 -0.247078 0.210364 -0.945860
-0.322299 -0.832762 -0.726310 -0.408277 0.648793 -0.642140
-0.325369 -0.836606 -0.727598 -0.414777 0.543931 -0.729423
-0.320139 -0.821760 -0.701681 -0.254616 0.966063 -0.042940
-0.314804 -0.820719 -0.702064 -0.186438 0.982330 0.015809
-0.311877 -0.825716 -0.721855 -0.214972 0.842708 -0.493545
-0.312259 -0.854542 -0.738803 -0.320335 -0.891045 -0.321598
-0.307175 -0.856451 -0.738578 -0.320335 -0.891045 -0.321598
-0.322476 -0.851798 -0.736230 -0.320335 -0.891045 -0.321598
-0.310707 -0.820772 -0.699085 -0.071718 0.982482 0.171911
-0.316600 -0.821795 -0.695700 -0.108890 0.979583 0.168950
-0.314936 -0.822848 -0.691103 -0.033692 0.971435 0.234779
-0.312879 -0.823356 -0.717042 -0.264199 0.880703 -0.393109
-0.330049 -0.836094 -0.724291 -0.503403 0.619739 -0.602039
-0.312259 -0.854542 -0.738803 -0.046602 0.070894 -0.996368
-0.322476 -0.851798 -0.736230 -0.344981 0.374187 -0.860744
-0.334110 -0.833942 -0.716853 -0.534989 0.718741 -0.444044
-0.310989 -0.828570 -0.726461 -0.176183 0.760247 -0.625263
-0.309641 -0.831840 -0.730026 -0.138890 0.632588 -0.761895
-0.321504 -0.822662 -0.696843 -0.147348 -0.374237 0.915552
-0.322348 -0.857563 -0.711245 -0.147348 -0.374237 0.915552
-0.316600 -0.821795 -0.695700 -0.147348 -0.374237 0.915552
-0.322348 -0.857563 -0.711245 -0.633226 -0.282813 0.720446
-0.308481 -0.865256 -0.702078 -0.633226 -0.282813 0.720446
-0.314936 -0.822848 -0.691103 -0.633226 -0.282813 0.720446
-0.322348 -0.857563 -0.711245 -0.940083 0.002895 0.340932
-0.314936 -0.822848 -0.691103 -0.940083 0.002895 0.340932
-0.316600 -0.821795 -0.695700 -0.940083 0.002895 0.340932
-0.310707 -0.820772 -0.699085 0.123843 -0.974370 -0.187793
-0.314936 -0.822848 -0.691103 0.123843 -0.974370 -0.187793
-0.314804 -0.820719 -0.702064 0.123843 -0.974370 -0.187793
-0.314936 -0.822848 -0.691103 0.987371 0.125136 0.097153
-0.308481 -0.865256 -0.702078 0.987371 0.125136 0.097153
-0.313038 -0.821642 -0.711947 0.987371 0.125136 0.097153
-0.313038 -0.821642 -0.711947 0.384631 -0.910175 0.153754
-0.312293 -0.820423 -0.706592 0.384631 -0.910175 0.153754
-0.314804 -0.820719 -0.702064 0.384631 -0.910175 0.153754
-0.314936 -0.822848 -0.691103 0.860161 0.498634 0.107184
-0.313038 -0.821642 -0.711947 0.860161 0.498634 0.107184
-0.314804 -0.820719 -0.702064 0.860161 0.498634 0.107184
-0.334059 -0.837323 -0.721477 -0.569201 0.619343 -0.540696
-0.332576 -0.845330 -0.727939 -0.886438 -0.379381 0.265136
-0.322348 -0.857563 -0.711245 -0.886438 -0.379381 0.265136
-0.333631 -0.840849 -0.725052 -0.886438 -0.379381 0.265136
-0.322348 -0.857563 -0.711245 -0.886504 -0.378130 0.266700
-0.333851 -0.831471 -0.712489 -0.886504 -0.378130 0.266700
-0.334110 -0.833942 -0.716853 -0.886504 -0.378130 0.266700
-0.334110 -0.833942 -0.716853 -0.886522 -0.378100 0.266680
-0.334059 -0.837323 -0.721477 -0.886522 -0.378100 0.266680
-0.333631 -0.840849 -0.725052 -0.886522 -0.378100 0.266680
-0.322348 -0.857563 -0.711245 -0.886503 -0.378129 0.266705
-0.334110 -0.833942 -0.716853 -0.886503 -0.378129 0.266705
-0.333631 -0.840849 -0.725052 -0.886503 -0.378129 0.266705
-0.312259 -0.854542 -0.738803 -0.320333 -0.891052 -0.321579
-0.322476 -0.851798 -0.736230 -0.320333 -0.891052 -0.321579
-0.317693 -0.852942 -0.737824 -0.320333 -0.891052 -0.321579
-0.306904 -0.836489 -0.733500 0.097493 -0.558287 0.823900
-0.309641 -0.831840 -0.730026 0.097493 -0.558287 0.823900
-0.310076 -0.840087 -0.735562 0.097493 -0.558287 0.823900
-0.309641 -0.831840 -0.730026 0.837616 0.521752 -0.161783
-0.310989 -0.828570 -0.726461 0.837616 0.521752 -0.161783
-0.311877 -0.825716 -0.721855 0.837616 0.521752 -0.161783
-0.311877 -0.825716 -0.721855 0.989820 0.141037 0.019112
-0.306586 -0.862943 -0.721178 0.989820 0.141037 0.019112
-0.307175 -0.856451 -0.738578 0.989820 0.141037 0.019112
-0.307175 -0.856451 -0.738578 0.338469 -0.027053 0.940589
-0.305231 -0.851856 -0.739145 0.338469 -0.027053 0.940589
-0.308212 -0.845083 -0.737878 0.338469 -0.027053 0.940589
-0.309641 -0.831840 -0.730026 0.379597 0.501798 -0.777242
-0.308212 -0.845083 -0.737878 0.379597 0.501798 -0.777242
-0.310076 -0.840087 -0.735562 0.379597 0.501798 -0.777242
-0.309641 -0.831840 -0.730026 0.965736 0.006596 0.259442
-0.311877 -0.825716 -0.721855 0.965736 0.006596 0.259442
-0.307175 -0.856451 -0.738578 0.965736 0.006596 0.259442
-0.309641 -0.831840 -0.730026 0.995552 0.088855 0.031313
-0.307175 -0.856451 -0.738578 0.995552 0.088855 0.031313
-0.308212 -0.845083 -0.737878 0.995552 0.088855 0.031313
-0.325356 -0.823783 -0.700857 -0.384228 0.913083 -0.136418
-0.321504 -0.822662 -0.696843 -0.190619 0.974517 0.118015
-0.306904 -0.836489 -0.733500 -0.074007 0.556597 -0.827448
-0.330979 -0.850313 -0.730236 -0.406929 -0.899606 -0.158484
-0.306586 -0.862943 -0.721178 -0.406929 -0.899606 -0.158484
-0.322348 -0.857563 -0.711245 -0.406929 -0.899606 -0.158484
-0.330979 -0.850313 -0.730236 -0.882882 -0.397902 0.249385
-0.322348 -0.857563 -0.711245 -0.882882 -0.397902 0.249385
-0.332576 -0.845330 -0.727939 -0.882882 -0.397902 0.249385
-0.307175 -0.856451 -0.738578 -0.323684 -0.891086 -0.318112
-0.306586 -0.862943 -0.721178 -0.323684 -0.891086 -0.318112
-0.326656 -0.851375 -0.732975 -0.323684 -0.891086 -0.318112
-0.322476 -0.851798 -0.736230 -0.323684 -0.891086 -0.318112
3 0 1 2
3 3 4 5
3 6 7 8
3 6 8 9
3 8 10 11
3 12 13 14
3 15 13 16
3 17 18 19
3 20 21 22
3 23 24 25
3 26 27 28
3 29 30 31
3 32 15 33
3 34 8 35
3 33 15 36
3 37 26 38
3 33 36 39
3 26 6 27
3 15 16 36
3 39 36 40
3 34 35 41
3 42 43 44
3 39 40 45
3 12 46 13
3 47 48 49
3 50 51 52
3 53 54 55
3 56 57 58
3 59 60 61
3 62 41 63
3 7 10 8
3 64 7 37
3 65 66 46
3 16 67 36
3 31 14 13
3 68 29 69
3 41 70 71
3 27 9 72
3 68 28 29
3 28 30 29
3 6 9 27
3 73 74 75
3 14 31 30
3 9 8 34
3 76 77 78
3 79 34 62
3 38 68 69
3 80 43 42
3 46 66 81
3 13 46 16
3 79 9 34
3 36 82 40
3 81 67 16
3 69 33 43
3 38 80 83
3 71 77 76
3 32 31 15
3 69 29 32
3 28 84 85
3 86 87 88
3 89 90 91
3 92 93 94
3 95 96 97
3 98 99 100
3 101 102 103
3 104 105 106
3 28 27 84
3 28 68 26
3 31 13 15
3 107 80 42
3 83 80 107
3 108 109 110
3 111 112 113
3 114 115 116
3 117 118 119
3 12 65 46
3 7 6 26
3 38 69 80
3 120 121 122
3 123 124 125
3 126 127 128
3 129 130 131
3 132 133 134
3 135 136 137
3 138 139 140
3 141 142 143
3 35 144 70
3 34 41 62
3 64 10 7
3 43 39 44
3 71 145 77
3 9 79 72
3 27 72 84
3 46 81 16
3 80 69 43
3 83 37 38
3 29 31 32
3 41 35 70
3 69 32 33
3 146 30 85
3 147 148 149
3 38 26 68
3 11 35 8
3 150 151 152
3 43 33 39
4 153 154 155 156
3 30 146 14
3 37 7 26
3 30 28 85
3 63 41 71
3 35 11 144
3 70 145 71
3 67 82 36
3 83 64 37
3 44 39 45
