ply
format ascii 1.0
comment Created by Blender 2.69 (sub 10) - www.blender.org, source file: 'bunny_base.blend'
element vertex 225
property float x
property float y
property float z
property float nx
property float ny
property float nz
element face 194
property list uchar uint vertex_indices
end_header
-0.286306 -0.829111 -0.695609 0.417005 0.799493 0.432264
-0.290516 -0.826150 -0.696740 0.373455 0.814783 0.443434
-0.293337 -0.830281 -0.689518 0.267769 0.835292 0.480148
-0.280067 -0.831908 -0.714526 0.607105 0.702445 -0.371410
-0.278465 -0.831511 -0.708887 0.668874 0.734550 -0.113865
-0.275763 -0.834818 -0.711824 0.718833 0.648122 -0.251289
-0.296283 -0.825522 -0.694613 0.358623 0.796930 0.486068
-0.297718 -0.827470 -0.689759 0.431654 0.738884 0.517380
-0.310103 -0.824902 -0.687094 -0.847180 -0.224440 0.481574
-0.307187 -0.862327 -0.699076 -0.847180 -0.224440 0.481574
-0.304613 -0.831518 -0.680520 -0.847180 -0.224440 0.481574
-0.307578 -0.827518 -0.683541 -0.847180 -0.224440 0.481574
-0.302619 -0.828063 -0.684932 0.373089 0.715445 0.590686
-0.297120 -0.831585 -0.686035 0.361431 0.729545 0.580584
-0.283363 -0.828447 -0.700546 0.492691 0.828394 0.266396
-0.285475 -0.841598 -0.730986 0.495102 0.527726 -0.690176
-0.285981 -0.836872 -0.727057 0.489212 0.627369 -0.605823
-0.281611 -0.840698 -0.726920 0.557756 0.582263 -0.591449
-0.301701 -0.824019 -0.718103 0.122532 0.883938 -0.451216
-0.301751 -0.821900 -0.713179 0.139622 0.940611 -0.309397
-0.296795 -0.823149 -0.714061 0.215522 0.920682 -0.325358
-0.309847 -0.822518 -0.692475 -0.993476 -0.040165 -0.106736
-0.309333 -0.820980 -0.697839 -0.993476 -0.040165 -0.106736
-0.306226 -0.865585 -0.709975 -0.993476 -0.040165 -0.106736
-0.309333 -0.820980 -0.697839 -0.993475 -0.040190 -0.106735
-0.308836 -0.820211 -0.702757 -0.993475 -0.040190 -0.106735
-0.308223 -0.820210 -0.708464 -0.993475 -0.040190 -0.106735
-0.308223 -0.820210 -0.708464 -0.993068 -0.040022 -0.110520
-0.307620 -0.821420 -0.713445 -0.993068 -0.040022 -0.110520
-0.306226 -0.865585 -0.709975 -0.993068 -0.040022 -0.110520
-0.309333 -0.820980 -0.697839 -0.993476 -0.040166 -0.106734
-0.308223 -0.820210 -0.708464 -0.993476 -0.040166 -0.106734
-0.306226 -0.865585 -0.709975 -0.993476 -0.040166 -0.106734
-0.309847 -0.822518 -0.692475 -0.993594 -0.040707 -0.105426
-0.306226 -0.865585 -0.709975 -0.993594 -0.040707 -0.105426
-0.306958 -0.866434 -0.702749 -0.993594 -0.040707 -0.105426
-0.282199 -0.836463 -0.722838 0.562304 0.626637 -0.539537
-0.282861 -0.832442 -0.718676 0.536027 0.689535 -0.486984
-0.278477 -0.836289 -0.718515 0.629933 0.613544 -0.476119
-0.277473 -0.840385 -0.722155 0.627308 0.591968 -0.505936
-0.273871 -0.842926 -0.719787 0.684164 0.563494 -0.462966
-0.309847 -0.822518 -0.692475 -0.997332 -0.059668 -0.042047
-0.306958 -0.866434 -0.702749 -0.997332 -0.059668 -0.042047
-0.307187 -0.862327 -0.699076 -0.997332 -0.059668 -0.042047
-0.310103 -0.824902 -0.687094 -0.997332 -0.059668 -0.042047
-0.273871 -0.842926 -0.719787 0.215967 -0.484143 -0.847918
-0.292947 -0.859326 -0.715281 0.215967 -0.484143 -0.847918
-0.277473 -0.840385 -0.722155 0.215967 -0.484143 -0.847918
-0.292947 -0.859326 -0.715281 0.636292 -0.728083 -0.255006
-0.298116 -0.855333 -0.739582 0.636292 -0.728083 -0.255006
-0.294106 -0.852016 -0.739046 0.636292 -0.728083 -0.255006
-0.289484 -0.849710 -0.737442 0.462741 0.329726 -0.822892
-0.288794 -0.844735 -0.735060 0.462741 0.329726 -0.822892
-0.284443 -0.846969 -0.733509 0.462741 0.329726 -0.822892
-0.284443 -0.846969 -0.733509 0.757961 -0.306232 -0.575948
-0.281169 -0.844972 -0.730263 0.757961 -0.306232 -0.575948
-0.277731 -0.843939 -0.726287 0.757961 -0.306232 -0.575948
-0.292947 -0.859326 -0.715281 0.779101 -0.498602 0.379997
-0.277731 -0.843939 -0.726287 0.779101 -0.498602 0.379997
-0.277473 -0.840385 -0.722155 0.779101 -0.498602 0.379997
-0.292947 -0.859326 -0.715281 0.504175 -0.818215 -0.276281
-0.294106 -0.852016 -0.739046 0.504175 -0.818215 -0.276281
-0.289484 -0.849710 -0.737442 0.504175 -0.818215 -0.276281
-0.289484 -0.849710 -0.737442 0.600407 -0.763594 -0.237563
-0.284443 -0.846969 -0.733509 0.600407 -0.763594 -0.237563
-0.277731 -0.843939 -0.726287 0.600407 -0.763594 -0.237563
-0.292947 -0.859326 -0.715281 0.600399 -0.763604 -0.237549
-0.289484 -0.849710 -0.737442 0.600399 -0.763604 -0.237549
-0.277731 -0.843939 -0.726287 0.600399 -0.763604 -0.237549
-0.288311 -0.830794 -0.690763 0.265023 0.899533 0.347240
-0.283214 -0.832567 -0.692286 0.450148 0.803735 0.389019
-0.300105 -0.834286 -0.681187 0.482009 0.586474 0.650899
-0.274724 -0.838505 -0.715833 0.711478 0.579577 -0.397320
-0.287969 -0.832298 -0.685576 0.132206 0.954314 0.267891
-0.271487 -0.841976 -0.714016 0.779290 0.554735 -0.291421
-0.300926 -0.824411 -0.692345 0.320475 0.842036 0.433821
-0.306974 -0.823680 -0.718303 0.086154 0.890316 -0.447096
-0.307620 -0.821420 -0.713445 0.086978 0.946959 -0.309305
-0.275592 -0.835982 -0.696188 0.643818 0.692740 0.324870
-0.278394 -0.832121 -0.698867 0.603992 0.750938 0.266945
-0.292777 -0.832713 -0.683554 0.073794 0.936521 0.342692
-0.303453 -0.820294 -0.702206 0.112308 0.986114 0.122288
-0.309333 -0.820980 -0.697839 0.069948 0.966155 0.248207
-0.304758 -0.822191 -0.695272 0.154424 0.931547 0.329112
-0.282762 -0.828546 -0.711622 0.561022 0.793847 -0.234535
-0.294141 -0.823602 -0.699063 0.339396 0.872738 0.350871
-0.283948 -0.827014 -0.706489 0.528428 0.848964 -0.002228
-0.288070 -0.825094 -0.703215 0.441664 0.882595 0.160924
-0.270525 -0.840801 -0.709012 0.792230 0.581835 -0.183905
-0.279720 -0.830156 -0.703845 0.628864 0.774682 0.065920
-0.306226 -0.865585 -0.709975 0.144175 -0.984381 -0.101031
-0.301753 -0.865519 -0.704240 0.144175 -0.984381 -0.101031
-0.306958 -0.866434 -0.702749 0.144175 -0.984381 -0.101031
-0.309847 -0.822518 -0.692475 0.119144 0.927549 0.354167
-0.288424 -0.824840 -0.708905 0.431562 0.895749 -0.106479
-0.293493 -0.822508 -0.704100 0.333506 0.938932 0.084292
-0.299232 -0.822168 -0.697957 0.264229 0.901608 0.342448
-0.277731 -0.843939 -0.726287 0.574114 0.573504 -0.584338
-0.298116 -0.855333 -0.739582 -0.036592 0.092349 -0.995025
-0.303436 -0.852230 -0.739154 -0.007416 0.068941 -0.997589
-0.299130 -0.849264 -0.738529 0.053774 0.206122 -0.977020
-0.298116 -0.855333 -0.739582 0.327981 -0.918539 -0.220714
-0.292947 -0.859326 -0.715281 0.327981 -0.918539 -0.220714
-0.303272 -0.857370 -0.738765 0.327981 -0.918539 -0.220714
-0.273191 -0.836827 -0.706697 0.759819 0.648610 -0.043611
-0.272669 -0.837623 -0.699984 0.721732 0.689779 0.057466
-0.275716 -0.834424 -0.702727 0.718741 0.693533 0.048860
-0.303272 -0.857370 -0.738765 0.310245 -0.922094 -0.231280
-0.301753 -0.865519 -0.704240 0.310245 -0.922094 -0.231280
-0.306226 -0.865585 -0.709975 0.310245 -0.922094 -0.231280
-0.305111 -0.824507 -0.689382 0.215522 0.869930 0.443556
-0.301753 -0.865519 -0.704240 0.314756 -0.622910 0.716178
-0.307187 -0.862327 -0.699076 0.314756 -0.622910 0.716178
-0.306958 -0.866434 -0.702749 0.314756 -0.622910 0.716178
-0.281169 -0.844972 -0.730263 0.524064 0.513627 -0.679312
-0.283214 -0.832567 -0.692286 0.240343 -0.447681 0.861288
-0.301753 -0.865519 -0.704240 0.240343 -0.447681 0.861288
-0.275592 -0.835982 -0.696188 0.240343 -0.447681 0.861288
-0.301753 -0.865519 -0.704240 0.485018 -0.602409 0.633925
-0.270528 -0.840085 -0.703962 0.485018 -0.602409 0.633925
-0.272669 -0.837623 -0.699984 0.485018 -0.602409 0.633925
-0.301753 -0.865519 -0.704240 0.485022 -0.602412 0.633919
-0.272669 -0.837623 -0.699984 0.485022 -0.602412 0.633919
-0.275592 -0.835982 -0.696188 0.485022 -0.602412 0.633919
-0.287969 -0.832298 -0.685576 0.532916 -0.571640 0.623882
-0.307187 -0.862327 -0.699076 0.532916 -0.571640 0.623882
-0.301753 -0.865519 -0.704240 0.532916 -0.571640 0.623882
-0.283214 -0.832567 -0.692286 0.532916 -0.571640 0.623882
-0.310103 -0.824902 -0.687094 0.143437 0.874081 0.464064
-0.304613 -0.831518 -0.680520 0.387341 0.632740 0.670492
-0.307578 -0.827518 -0.683541 0.226966 0.786645 0.574114
-0.284443 -0.846969 -0.733509 0.486618 0.446333 -0.750969
-0.270528 -0.840085 -0.703962 0.769738 0.637928 -0.022706
-0.302949 -0.820341 -0.708015 0.137730 0.983520 -0.116855
-0.308223 -0.820210 -0.708464 0.046999 0.991333 -0.122440
-0.308836 -0.820211 -0.702757 0.009766 0.997009 0.076388
-0.292947 -0.859326 -0.715281 0.350455 -0.907971 -0.229716
-0.301753 -0.865519 -0.704240 0.350455 -0.907971 -0.229716
-0.303272 -0.857370 -0.738765 0.350455 -0.907971 -0.229716
-0.270528 -0.840085 -0.703962 0.627134 -0.771154 0.109661
-0.301753 -0.865519 -0.704240 0.627134 -0.771154 0.109661
-0.270525 -0.840801 -0.709012 0.627134 -0.771154 0.109661
-0.286618 -0.832851 -0.722920 0.471206 0.692221 -0.546556
-0.287357 -0.829341 -0.718595 0.443739 0.752007 -0.487381
-0.287264 -0.826583 -0.713954 0.447523 0.825495 -0.343852
-0.288794 -0.844735 -0.735060 0.366649 0.440992 -0.819178
-0.289994 -0.838960 -0.732052 0.380413 0.586383 -0.715140
-0.290561 -0.834660 -0.728036 0.382397 0.676473 -0.629383
-0.291243 -0.830791 -0.723840 0.378368 0.740501 -0.555406
-0.292028 -0.827480 -0.719437 0.353954 0.794092 -0.494034
-0.291952 -0.824808 -0.714754 0.333964 0.867824 -0.367870
-0.293071 -0.822958 -0.709744 0.309580 0.937895 -0.156468
-0.293908 -0.841752 -0.735291 0.224555 0.484817 -0.845271
-0.294674 -0.836556 -0.731636 0.249397 0.630329 -0.735160
-0.270525 -0.840801 -0.709012 0.625266 -0.777910 0.062433
-0.301753 -0.865519 -0.704240 0.625266 -0.777910 0.062433
-0.271487 -0.841976 -0.714016 0.625266 -0.777910 0.062433
-0.301753 -0.865519 -0.704240 0.663015 -0.739896 0.113866
-0.292947 -0.859326 -0.715281 0.663015 -0.739896 0.113866
-0.273871 -0.842926 -0.719787 0.663015 -0.739896 0.113866
-0.273871 -0.842926 -0.719787 0.765416 0.504754 -0.399202
-0.274724 -0.838505 -0.715833 0.765416 0.504754 -0.399202
-0.271487 -0.841976 -0.714016 0.765416 0.504754 -0.399202
-0.301753 -0.865519 -0.704240 0.587656 -0.801489 -0.110798
-0.273871 -0.842926 -0.719787 0.587656 -0.801489 -0.110798
-0.271487 -0.841976 -0.714016 0.587656 -0.801489 -0.110798
-0.295240 -0.832218 -0.727654 0.274545 0.711783 -0.646504
-0.298463 -0.821202 -0.703239 0.219001 0.972533 0.078707
-0.295946 -0.828521 -0.723408 0.261757 0.787561 -0.557848
-0.296790 -0.825433 -0.718903 0.230934 0.850826 -0.471908
-0.298938 -0.839061 -0.734698 0.121128 0.515519 -0.848262
-0.298021 -0.821690 -0.708864 0.221107 0.965636 -0.136326
-0.299393 -0.834293 -0.731193 0.176885 0.652242 -0.737053
-0.300010 -0.830200 -0.727100 0.175787 0.753288 -0.633747
-0.300800 -0.826861 -0.722712 0.151006 0.828883 -0.538591
-0.305142 -0.833005 -0.731041 0.122806 0.666189 -0.735588
-0.300105 -0.834286 -0.681187 -0.179169 -0.496563 0.849308
-0.304613 -0.831518 -0.680520 -0.179169 -0.496563 0.849308
-0.307187 -0.862327 -0.699076 -0.179169 -0.496563 0.849308
-0.307187 -0.862327 -0.699076 0.360900 -0.564658 0.742235
-0.287969 -0.832298 -0.685576 0.360900 -0.564658 0.742235
-0.292777 -0.832713 -0.683554 0.360900 -0.564658 0.742235
-0.297120 -0.831585 -0.686035 0.860761 -0.409912 0.301767
-0.300105 -0.834286 -0.681187 0.860761 -0.409912 0.301767
-0.307187 -0.862327 -0.699076 0.860761 -0.409912 0.301767
-0.297120 -0.831585 -0.686035 -0.522932 -0.182005 0.832716
-0.307187 -0.862327 -0.699076 -0.522932 -0.182005 0.832716
-0.292777 -0.832713 -0.683554 -0.522932 -0.182005 0.832716
-0.305692 -0.829507 -0.727459 0.135838 0.766930 -0.627155
-0.306330 -0.826240 -0.723027 0.127171 0.846736 -0.516556
-0.304583 -0.837720 -0.734257 0.075076 0.526749 -0.846675
-0.303272 -0.857370 -0.738765 -0.125553 -0.078951 -0.988922
-0.299090 -0.844017 -0.737040 0.090823 0.374615 -0.922697
-0.304123 -0.842106 -0.736732 0.118351 0.453810 -0.883175
-0.303704 -0.846990 -0.738666 0.109104 0.246040 -0.963073
-0.303272 -0.857370 -0.738765 -0.992743 -0.040233 -0.113323
-0.306226 -0.865585 -0.709975 -0.992743 -0.040233 -0.113323
-0.303436 -0.852230 -0.739154 -0.992743 -0.040233 -0.113323
-0.306226 -0.865585 -0.709975 -0.992744 -0.040232 -0.113320
-0.307620 -0.821420 -0.713445 -0.992744 -0.040232 -0.113320
-0.306974 -0.823680 -0.718303 -0.992744 -0.040232 -0.113320
-0.306974 -0.823680 -0.718303 -0.992742 -0.040209 -0.113339
-0.306330 -0.826240 -0.723027 -0.992742 -0.040209 -0.113339
-0.305692 -0.829507 -0.727459 -0.992742 -0.040209 -0.113339
-0.305692 -0.829507 -0.727459 -0.992743 -0.040220 -0.113333
-0.305142 -0.833005 -0.731041 -0.992743 -0.040220 -0.113333
-0.304583 -0.837720 -0.734257 -0.992743 -0.040220 -0.113333
-0.304583 -0.837720 -0.734257 -0.992744 -0.040239 -0.113310
-0.304123 -0.842106 -0.736732 -0.992744 -0.040239 -0.113310
-0.303704 -0.846990 -0.738666 -0.992744 -0.040239 -0.113310
-0.306226 -0.865585 -0.709975 -0.992744 -0.040230 -0.113321
-0.303704 -0.846990 -0.738666 -0.992744 -0.040230 -0.113321
-0.303436 -0.852230 -0.739154 -0.992744 -0.040230 -0.113321
-0.306226 -0.865585 -0.709975 -0.992743 -0.040232 -0.113324
-0.306974 -0.823680 -0.718303 -0.992743 -0.040232 -0.113324
-0.305692 -0.829507 -0.727459 -0.992743 -0.040232 -0.113324
-0.305692 -0.829507 -0.727459 -0.992745 -0.040240 -0.113309
-0.304583 -0.837720 -0.734257 -0.992745 -0.040240 -0.113309
-0.303704 -0.846990 -0.738666 -0.992745 -0.040240 -0.113309
-0.306226 -0.865585 -0.709975 -0.992743 -0.040231 -0.113322
-0.305692 -0.829507 -0.727459 -0.992743 -0.040231 -0.113322
-0.303704 -0.846990 -0.738666 -0.992743 -0.040231 -0.113322
-0.294106 -0.852016 -0.739046 0.074953 0.215705 -0.973571
-0.294077 -0.846723 -0.737717 0.168798 0.336802 -0.926298
-0.289484 -0.849710 -0.737442 0.253761 0.323435 -0.911557
3 0 1 2
3 3 4 5
3 2 6 7
4 8 9 10 11
3 7 12 13
3 1 0 14
3 15 16 17
3 18 19 20
3 21 22 23
3 24 25 26
3 27 28 29
3 30 31 32
3 33 34 35
3 2 1 6
3 36 37 38
3 39 38 40
4 41 42 43 44
3 45 46 47
3 48 49 50
3 51 52 53
3 54 55 56
3 57 58 59
3 60 61 62
3 63 64 65
3 66 67 68
3 0 69 70
3 13 12 71
3 40 38 72
3 70 69 73
3 72 5 74
3 39 36 38
3 7 75 12
3 18 76 77
3 78 79 70
3 2 13 80
3 81 82 83
3 84 4 3
3 6 1 85
3 86 87 14
3 87 85 1
3 74 5 88
3 14 87 1
3 89 86 14
3 2 7 13
3 90 91 92
3 93 83 82
3 87 94 95
3 95 96 85
3 97 17 39
3 98 99 100
3 6 75 7
3 101 102 103
3 89 104 4
3 105 106 79
3 107 108 109
3 6 85 96
3 110 75 83
3 111 112 113
3 80 69 2
3 104 5 4
3 114 17 97
3 79 14 0
3 3 5 72
3 115 116 117
3 118 119 120
3 121 122 123
4 124 125 126 127
3 128 110 93
3 129 12 130
3 79 89 14
3 114 131 15
3 69 80 73
3 106 89 79
3 132 106 105
3 132 104 106
3 110 83 93
3 71 12 129
3 89 4 86
3 133 134 135
3 104 88 5
3 86 94 87
3 88 104 132
3 96 75 6
3 130 12 110
3 136 137 138
3 38 3 72
3 38 37 3
3 130 110 128
3 87 95 85
3 79 0 70
3 12 75 110
3 105 79 78
3 114 15 17
3 86 4 84
3 17 16 36
3 139 140 141
3 16 142 36
3 36 142 37
3 142 143 37
3 143 144 3
3 37 143 3
3 144 84 3
3 104 89 106
3 131 145 15
3 94 86 84
3 145 146 15
3 146 147 15
3 15 147 16
3 94 84 144
3 16 148 142
3 16 147 148
3 142 149 143
3 143 150 144
3 0 2 69
3 142 148 149
3 151 94 144
3 152 153 146
3 152 146 145
3 146 153 147
3 154 155 156
3 157 158 159
3 160 161 162
3 163 164 165
3 143 149 150
3 150 151 144
3 153 166 147
3 147 166 148
3 151 95 94
4 96 167 81 83
3 166 168 148
3 148 168 149
3 168 169 149
3 169 20 150
3 149 169 150
3 20 151 150
3 17 36 39
3 152 170 153
3 171 151 20
3 171 167 95
3 151 171 95
3 170 172 153
3 153 172 166
3 172 173 166
3 166 173 168
3 95 167 96
3 173 174 168
3 168 174 169
3 174 18 169
3 169 18 20
3 19 171 20
3 133 171 19
3 81 167 171
3 133 81 171
3 175 172 170
3 75 96 83
3 176 177 178
3 179 180 181
3 182 183 184
3 185 186 187
3 172 188 173
3 175 188 172
3 189 174 173
3 188 189 173
3 76 18 174
3 18 77 19
3 189 76 174
3 77 134 19
3 19 134 133
3 133 135 81
3 135 82 81
3 170 190 175
3 98 191 99
3 170 192 190
3 192 193 190
3 192 194 193
3 192 100 194
3 195 196 197
3 198 199 200
3 201 202 203
3 204 205 206
3 207 208 209
3 210 211 212
3 213 214 215
3 216 217 218
3 219 220 221
3 100 222 98
3 223 192 170
3 152 223 170
3 223 222 100
3 223 224 222
3 194 100 99
3 224 223 152
3 145 224 152
3 223 100 192
