ply
format ascii 1.0
comment Created by Blender 2.69 (sub 10) - www.blender.org, source file: 'bunny_base.blend'
element vertex 165
property float x
property float y
property float z
property float nx
property float ny
property float nz
element face 128
property list uchar uint vertex_indices
end_header
-0.267700 -0.857337 -0.721618 0.867824 0.231758 -0.439497
-0.265922 -0.856390 -0.716820 0.887143 0.253243 -0.385784
-0.264412 -0.862140 -0.716704 0.889767 0.186651 -0.416456
-0.277894 -0.870741 -0.735088 0.619770 -0.019379 -0.784509
-0.276317 -0.865614 -0.734194 0.608203 0.103275 -0.787011
-0.274777 -0.873440 -0.731178 0.686544 -0.145604 -0.712333
-0.270500 -0.855063 -0.725353 0.783624 0.285745 -0.551592
-0.272138 -0.858660 -0.728744 0.723106 0.183111 -0.665975
-0.274260 -0.852982 -0.728608 0.676015 0.331187 -0.658223
-0.263928 -0.867151 -0.717787 0.862514 0.177038 -0.474013
-0.261886 -0.866142 -0.713126 0.866329 0.248421 -0.433241
-0.260842 -0.871263 -0.714660 0.418897 0.737938 -0.529069
-0.281380 -0.851097 -0.733204 -0.746491 -0.208326 0.631942
-0.271299 -0.846823 -0.719886 -0.746491 -0.208326 0.631942
-0.274674 -0.844870 -0.723229 -0.746491 -0.208326 0.631942
-0.281380 -0.851097 -0.733204 -0.638570 -0.248998 0.728168
-0.276434 -0.846922 -0.727439 -0.638570 -0.248998 0.728168
-0.280271 -0.846850 -0.730779 -0.638570 -0.248998 0.728168
-0.281380 -0.851097 -0.733204 -0.462314 0.857771 -0.224711
-0.274674 -0.844870 -0.723229 -0.462314 0.857771 -0.224711
-0.276434 -0.846922 -0.727439 -0.462314 0.857771 -0.224711
-0.246267 -0.877093 -0.716897 0.819849 0.233863 -0.522568
-0.251142 -0.874032 -0.720264 0.341197 0.497024 -0.797815
-0.249393 -0.870740 -0.716123 0.473769 0.711966 -0.518265
-0.249143 -0.879619 -0.720440 0.617054 0.101596 -0.780297
-0.243831 -0.883304 -0.710880 0.935270 -0.134281 -0.327403
-0.245709 -0.882975 -0.716334 0.854213 -0.108585 -0.508408
-0.254415 -0.869457 -0.715223 0.003418 0.826228 -0.563280
-0.269696 -0.871234 -0.726535 0.760796 -0.050264 -0.646992
-0.271879 -0.875939 -0.727923 0.703116 -0.133915 -0.698325
-0.272667 -0.869014 -0.730168 0.705679 -0.078860 -0.704093
-0.266302 -0.868231 -0.722279 0.814295 0.065096 -0.576769
-0.263662 -0.872212 -0.718748 0.616993 0.441694 -0.651295
-0.269005 -0.860844 -0.725214 0.808802 0.108554 -0.577929
-0.266444 -0.863145 -0.721362 0.872829 0.145756 -0.465682
-0.243942 -0.877320 -0.711651 0.887295 0.128636 -0.442854
-0.271750 -0.850177 -0.723904 0.758049 0.397931 -0.516678
-0.268706 -0.852407 -0.720285 0.839412 0.340648 -0.423414
-0.291359 -0.853096 -0.738830 0.251808 0.165349 -0.953520
-0.286870 -0.856592 -0.738461 0.316721 0.099918 -0.943205
-0.289187 -0.861239 -0.738998 0.292734 -0.004456 -0.956145
-0.276889 -0.860584 -0.733083 0.571886 0.162023 -0.804163
-0.280271 -0.846850 -0.730779 0.580950 0.344951 -0.737205
-0.276434 -0.846922 -0.727439 0.672964 0.390790 -0.627979
-0.269473 -0.866066 -0.725812 0.802759 0.035249 -0.595233
-0.281385 -0.861769 -0.735622 0.426099 0.074557 -0.901578
-0.281657 -0.867561 -0.736900 0.458419 0.170934 -0.872127
-0.285559 -0.864301 -0.737413 0.356578 0.039216 -0.933409
-0.245828 -0.872085 -0.712533 0.721854 0.392712 -0.569781
-0.266682 -0.873416 -0.722918 0.715079 -0.014069 -0.698843
-0.268597 -0.878765 -0.724113 0.751793 0.004761 -0.659352
-0.256740 -0.872419 -0.718569 -0.107425 0.718711 -0.686911
-0.260240 -0.876030 -0.719783 -0.053987 0.374737 -0.925535
-0.262881 -0.883512 -0.721099 -0.630025 -0.776077 -0.027812
-0.258456 -0.887008 -0.723786 -0.630025 -0.776077 -0.027812
-0.262512 -0.884252 -0.708843 -0.630025 -0.776077 -0.027812
-0.262512 -0.884252 -0.708843 -0.636417 -0.770989 -0.023434
-0.271879 -0.875939 -0.727923 -0.636417 -0.770989 -0.023434
-0.268597 -0.878765 -0.724113 -0.636417 -0.770989 -0.023434
-0.262881 -0.883512 -0.721099 -0.630021 -0.776080 -0.027812
-0.262512 -0.884252 -0.708843 -0.630021 -0.776080 -0.027812
-0.268597 -0.878765 -0.724113 -0.630021 -0.776080 -0.027812
-0.253473 -0.882359 -0.723238 0.222358 0.036073 -0.974273
-0.255496 -0.876732 -0.722322 -0.031953 0.403058 -0.914609
-0.277006 -0.855450 -0.732200 0.535691 0.233955 -0.811335
-0.281380 -0.851097 -0.733204 0.527696 0.321848 -0.786065
-0.274674 -0.844870 -0.723229 0.727958 0.465102 -0.503708
-0.282216 -0.855739 -0.736028 0.533341 0.202673 -0.821223
-0.266843 -0.851477 -0.715617 0.853938 0.325755 -0.405713
-0.262512 -0.884252 -0.708843 -0.639537 -0.768464 -0.021322
-0.291251 -0.860134 -0.716517 -0.639537 -0.768464 -0.021322
-0.293291 -0.857772 -0.739984 -0.639537 -0.768464 -0.021322
-0.271879 -0.875939 -0.727923 -0.639537 -0.768464 -0.021322
-0.271879 -0.863730 -0.729719 0.737510 0.067080 -0.671957
-0.274777 -0.873440 -0.731178 -0.644616 -0.764490 -0.004928
-0.293291 -0.857772 -0.739984 -0.644616 -0.764490 -0.004928
-0.289187 -0.861239 -0.738998 -0.644616 -0.764490 -0.004928
-0.285559 -0.864301 -0.737413 -0.639410 -0.768582 -0.020888
-0.281657 -0.867561 -0.736900 -0.639410 -0.768582 -0.020888
-0.277894 -0.870741 -0.735088 -0.639410 -0.768582 -0.020888
-0.274777 -0.873440 -0.731178 -0.639398 -0.768591 -0.020942
-0.289187 -0.861239 -0.738998 -0.639398 -0.768591 -0.020942
-0.285559 -0.864301 -0.737413 -0.639398 -0.768591 -0.020942
-0.274777 -0.873440 -0.731178 -0.639402 -0.768587 -0.020928
-0.285559 -0.864301 -0.737413 -0.639402 -0.768587 -0.020928
-0.277894 -0.870741 -0.735088 -0.639402 -0.768587 -0.020928
-0.265307 -0.878768 -0.720095 0.394818 0.113712 -0.911679
-0.271299 -0.846823 -0.719886 0.783227 0.434614 -0.444533
-0.253293 -0.888001 -0.722533 0.263009 -0.026643 -0.964415
-0.249743 -0.884823 -0.720960 0.711692 -0.047243 -0.700888
-0.252382 -0.867655 -0.710976 0.317148 0.883267 -0.345256
-0.286739 -0.851285 -0.736849 -0.499273 0.498803 0.708465
-0.291359 -0.853096 -0.738830 -0.499273 0.498803 0.708465
-0.281380 -0.851097 -0.733204 -0.499273 0.498803 0.708465
-0.291359 -0.853096 -0.738830 -0.927762 0.354567 0.116363
-0.293291 -0.857772 -0.739984 -0.927762 0.354567 0.116363
-0.291251 -0.860134 -0.716517 -0.927762 0.354567 0.116363
-0.291359 -0.853096 -0.738830 -0.339854 0.896435 0.284436
-0.291251 -0.860134 -0.716517 -0.339854 0.896435 0.284436
-0.281380 -0.851097 -0.733204 -0.339854 0.896435 0.284436
-0.248129 -0.888084 -0.717439 0.813807 -0.211188 -0.541368
-0.274777 -0.873440 -0.731178 -0.640527 -0.767695 -0.019228
-0.271879 -0.875939 -0.727923 -0.640527 -0.767695 -0.019228
-0.293291 -0.857772 -0.739984 -0.640527 -0.767695 -0.019228
-0.265922 -0.856390 -0.716820 -0.800309 -0.279794 0.530303
-0.266843 -0.851477 -0.715617 -0.800309 -0.279794 0.530303
-0.271299 -0.846823 -0.719886 -0.800309 -0.279794 0.530303
-0.271299 -0.846823 -0.719886 -0.023254 0.277891 0.960331
-0.291251 -0.860134 -0.716517 -0.023254 0.277891 0.960331
-0.262512 -0.884252 -0.708843 -0.023254 0.277891 0.960331
-0.262512 -0.884252 -0.708843 -0.830639 0.529235 0.173060
-0.252382 -0.867655 -0.710976 -0.830639 0.529235 0.173060
-0.254415 -0.869457 -0.715223 -0.830639 0.529235 0.173060
-0.264412 -0.862140 -0.716704 -0.903564 -0.281109 0.323341
-0.260842 -0.871263 -0.714660 -0.903564 -0.281109 0.323341
-0.261886 -0.866142 -0.713126 -0.903564 -0.281109 0.323341
-0.264412 -0.862140 -0.716704 -0.698068 -0.169327 0.695723
-0.265922 -0.856390 -0.716820 -0.698068 -0.169327 0.695723
-0.271299 -0.846823 -0.719886 -0.698068 -0.169327 0.695723
-0.262512 -0.884252 -0.708843 -0.036044 0.412330 0.910321
-0.254415 -0.869457 -0.715223 -0.036044 0.412330 0.910321
-0.260842 -0.871263 -0.714660 -0.036044 0.412330 0.910321
-0.264412 -0.862140 -0.716704 0.257049 0.306003 0.916672
-0.271299 -0.846823 -0.719886 0.257049 0.306003 0.916672
-0.260842 -0.871263 -0.714660 0.257049 0.306003 0.916672
-0.271299 -0.846823 -0.719886 0.364432 0.341210 0.866467
-0.262512 -0.884252 -0.708843 0.364432 0.341210 0.866467
-0.260842 -0.871263 -0.714660 0.364432 0.341210 0.866467
-0.245499 -0.887785 -0.712688 0.902280 -0.250862 -0.350627
-0.243940 -0.887272 -0.707744 0.932981 -0.238563 -0.269478
-0.243942 -0.877320 -0.711651 -0.114981 0.124748 0.985504
-0.245828 -0.872085 -0.712533 -0.114981 0.124748 0.985504
-0.243831 -0.883304 -0.710880 -0.114981 0.124748 0.985504
-0.245828 -0.872085 -0.712533 0.223912 -0.011416 0.974543
-0.252382 -0.867655 -0.710976 0.223912 -0.011416 0.974543
-0.262512 -0.884252 -0.708843 0.223912 -0.011416 0.974543
-0.262512 -0.884252 -0.708843 0.054162 0.618206 0.784148
-0.243940 -0.887272 -0.707744 0.054162 0.618206 0.784148
-0.243831 -0.883304 -0.710880 0.054162 0.618206 0.784148
-0.245828 -0.872085 -0.712533 0.098849 0.162272 0.981783
-0.262512 -0.884252 -0.708843 0.098849 0.162272 0.981783
-0.243831 -0.883304 -0.710880 0.098849 0.162272 0.981783
-0.258485 -0.880924 -0.722897 -0.212165 0.186926 -0.959166
-0.281380 -0.851097 -0.733204 -0.533793 0.834572 0.136210
-0.291251 -0.860134 -0.716517 -0.533793 0.834572 0.136210
-0.271299 -0.846823 -0.719886 -0.533793 0.834572 0.136210
-0.258456 -0.887008 -0.723786 0.020173 0.144627 -0.989257
-0.262881 -0.883512 -0.721099 -0.206915 0.160222 -0.965117
-0.286739 -0.851285 -0.736849 0.397473 0.301248 -0.866726
-0.249743 -0.884823 -0.720960 0.642813 -0.392369 -0.657904
-0.248129 -0.888084 -0.717439 0.642813 -0.392369 -0.657904
-0.253293 -0.888001 -0.722533 0.642813 -0.392369 -0.657904
-0.248129 -0.888084 -0.717439 -0.167488 -0.973786 0.153911
-0.245499 -0.887785 -0.712688 -0.167488 -0.973786 0.153911
-0.243940 -0.887272 -0.707744 -0.167488 -0.973786 0.153911
-0.243940 -0.887272 -0.707744 -0.166832 -0.976714 0.134893
-0.262512 -0.884252 -0.708843 -0.166832 -0.976714 0.134893
-0.258456 -0.887008 -0.723786 -0.166832 -0.976714 0.134893
-0.248129 -0.888084 -0.717439 -0.236146 -0.945558 0.223955
-0.258456 -0.887008 -0.723786 -0.236146 -0.945558 0.223955
-0.253293 -0.888001 -0.722533 -0.236146 -0.945558 0.223955
-0.248129 -0.888084 -0.717439 -0.204328 -0.964199 0.169029
-0.243940 -0.887272 -0.707744 -0.204328 -0.964199 0.169029
-0.258456 -0.887008 -0.723786 -0.204328 -0.964199 0.169029
-0.293291 -0.857772 -0.739984 0.313974 0.103275 -0.943785
3 0 1 2
3 3 4 5
3 6 7 8
3 9 10 11
3 12 13 14
3 15 16 17
3 18 19 20
3 21 22 23
3 21 24 22
3 25 26 21
3 22 27 23
3 28 29 30
3 31 9 32
3 33 6 0
3 34 31 33
3 25 21 35
3 33 7 6
3 6 36 37
3 38 39 40
3 30 4 41
3 8 42 43
3 33 44 7
3 10 9 2
3 34 0 2
3 45 46 47
3 23 48 35
3 28 49 50
3 51 27 22
3 32 11 51
3 32 51 52
3 28 44 49
3 6 37 0
3 6 43 36
3 53 54 55
3 56 57 58
3 59 60 61
3 62 63 24
3 64 41 65
3 66 36 43
3 41 67 65
3 29 28 50
3 1 0 37
3 1 37 68
4 69 70 71 72
3 5 30 29
3 49 31 32
3 7 64 8
3 49 44 31
3 30 41 73
3 28 73 44
3 74 75 76
3 77 78 79
3 80 81 82
3 83 84 85
3 50 49 86
3 36 66 87
3 88 62 89
3 63 51 22
3 90 48 23
3 91 92 93
3 94 95 96
3 97 98 99
3 2 9 34
3 89 24 100
3 30 73 28
3 101 102 103
3 32 9 11
3 9 31 34
3 3 45 4
3 104 105 106
3 107 108 109
3 110 111 112
3 113 114 115
3 116 117 118
3 119 120 121
3 122 123 124
3 125 126 127
3 21 23 35
3 39 67 45
3 100 24 26
3 86 49 52
3 128 25 129
3 37 87 68
3 89 62 24
3 130 131 132
3 133 134 135
3 136 137 138
3 139 140 141
3 100 26 128
3 47 39 45
3 8 64 42
3 36 87 37
3 5 4 30
3 44 73 7
3 4 45 41
3 31 44 33
3 52 63 142
3 11 27 51
3 41 45 67
3 64 65 42
3 6 8 43
3 143 144 145
3 34 33 0
4 64 7 73 41
3 26 24 21
3 128 26 25
3 3 46 45
3 27 90 23
3 62 142 63
3 142 146 147
3 39 47 40
3 51 63 52
3 86 147 50
3 148 65 67
3 63 22 24
3 32 52 49
3 142 62 88
3 149 150 151
3 152 153 154
3 155 156 157
3 158 159 160
3 161 162 163
3 142 88 146
3 52 142 86
3 86 142 147
3 148 67 39
3 38 40 164
3 148 39 38
