<?xml version="1.0" encoding="UTF-8" standalone="no"?>
<!-- Created with Inkscape (http://www.inkscape.org/) -->

<svg
   xmlns:dc="http://purl.org/dc/elements/1.1/"
   xmlns:cc="http://creativecommons.org/ns#"
   xmlns:rdf="http://www.w3.org/1999/02/22-rdf-syntax-ns#"
   xmlns:svg="http://www.w3.org/2000/svg"
   xmlns="http://www.w3.org/2000/svg"
   xmlns:sodipodi="http://sodipodi.sourceforge.net/DTD/sodipodi-0.dtd"
   xmlns:inkscape="http://www.inkscape.org/namespaces/inkscape"
   inkscape:version="0.91 r13725"
   version="1.1"
   id="svg7011"
   viewBox="0 0 423.64006 423.64006"
   height="119.56064mm"
   width="119.56064mm"
   sodipodi:docname="TabularYieldFn.svg">
  <sodipodi:namedview
     inkscape:window-maximized="1"
     inkscape:window-y="28"
     inkscape:window-x="0"
     inkscape:window-height="994"
     inkscape:window-width="1920"
     showgrid="true"
     inkscape:current-layer="layer1"
     inkscape:document-units="px"
     inkscape:cy="79.735818"
     inkscape:cx="252.04724"
     inkscape:zoom="0.765896"
     inkscape:pageshadow="2"
     inkscape:pageopacity="0.0"
     borderopacity="1.0"
     bordercolor="#666666"
     pagecolor="#ffffff"
     id="base"
     fit-margin-top="0"
     fit-margin-left="0"
     fit-margin-right="0"
     fit-margin-bottom="0">
    <inkscape:grid
       id="grid7019"
       type="xygrid"
       originx="-120"
       originy="-446.4453" />
  </sodipodi:namedview>
  <defs
     id="defs7013">
    <marker
       inkscape:isstock="true"
       style="overflow:visible"
       id="Arrow1Lend"
       refX="0"
       refY="0"
       orient="auto"
       inkscape:stockid="Arrow1Lend">
      <path
         transform="matrix(-0.8,0,0,-0.8,-10,0)"
         style="fill:#000000;fill-opacity:1;fill-rule:evenodd;stroke:#000000;stroke-width:1pt;stroke-opacity:1"
         d="M 0,0 5,-5 -12.5,0 5,5 0,0 Z"
         id="path4147"
         inkscape:connector-curvature="0" />
    </marker>
    <marker
       inkscape:isstock="true"
       style="overflow:visible"
       id="Arrow1Lend-6"
       refX="0"
       refY="0"
       orient="auto"
       inkscape:stockid="Arrow1Lend">
      <path
         transform="matrix(-0.8,0,0,-0.8,-10,0)"
         style="fill:#000000;fill-opacity:1;fill-rule:evenodd;stroke:#000000;stroke-width:1pt;stroke-opacity:1"
         d="M 0,0 5,-5 -12.5,0 5,5 0,0 Z"
         id="path4147-5"
         inkscape:connector-curvature="0" />
    </marker>
  </defs>
  <metadata
     id="metadata7016">
    <rdf:RDF>
      <cc:Work
         rdf:about="">
        <dc:format>image/svg+xml</dc:format>
        <dc:type
           rdf:resource="http://purl.org/dc/dcmitype/StillImage" />
        <dc:title></dc:title>
      </cc:Work>
    </rdf:RDF>
  </metadata>
  <g
     id="layer1"
     inkscape:groupmode="layer"
     inkscape:label="Layer 1"
     transform="translate(-120,-182.27687)">
    <path
       inkscape:connector-curvature="0"
       id="path7021"
       d="m 120,552.36218 420,0"
       style="fill:none;fill-rule:evenodd;stroke:#000000;stroke-width:2;stroke-linecap:butt;stroke-linejoin:miter;stroke-miterlimit:4;stroke-dasharray:none;stroke-opacity:1;marker-end:url(#Arrow1Lend)" />
    <path
       inkscape:connector-curvature="0"
       id="path7021-7"
       d="m 191.66038,605.91692 0,-420"
       style="fill:none;fill-rule:evenodd;stroke:#000000;stroke-width:2;stroke-linecap:butt;stroke-linejoin:miter;stroke-miterlimit:4;stroke-dasharray:none;stroke-opacity:1;marker-end:url(#Arrow1Lend-6)" />
    <text
       sodipodi:linespacing="125%"
       id="text7046"
       y="590.16595"
       x="342.13586"
       style="font-style:normal;font-variant:normal;font-weight:normal;font-stretch:normal;font-size:20px;line-height:125%;font-family:Arial;-inkscape-font-specification:Arial;letter-spacing:0px;word-spacing:0px;fill:#000000;fill-opacity:1;stroke:none;stroke-width:1px;stroke-linecap:butt;stroke-linejoin:miter;stroke-opacity:1"
       xml:space="preserve"><tspan
         y="590.16595"
         x="342.13586"
         id="tspan7048"
         sodipodi:role="line">p</tspan></text>
    <path
       style="fill:none;fill-rule:evenodd;stroke:#c69c35;stroke-width:2;stroke-linecap:butt;stroke-linejoin:miter;stroke-miterlimit:4;stroke-dasharray:none;stroke-opacity:1"
       d="m 140,552.36218 c 40,-60 35.99999,-120 140,-160 l 260,-100"
       id="path7557"
       inkscape:connector-curvature="0"
       sodipodi:nodetypes="csc" />
    <text
       xml:space="preserve"
       style="font-style:normal;font-variant:normal;font-weight:normal;font-stretch:normal;font-size:20px;line-height:125%;font-family:Arial;-inkscape-font-specification:Arial;letter-spacing:0px;word-spacing:0px;fill:#000000;fill-opacity:1;stroke:none;stroke-width:1px;stroke-linecap:butt;stroke-linejoin:miter;stroke-opacity:1"
       x="360"
       y="312.36218"
       id="text7559"
       sodipodi:linespacing="125%"><tspan
         sodipodi:role="line"
         id="tspan7561"
         x="360"
         y="312.36218">g(p)</tspan></text>
  </g>
  <g
     id="g7477"
     transform="matrix(0,-0.5,0.5,0,-137.33699,367.22148)">
    <g
       word-spacing="normal"
       letter-spacing="normal"
       font-size-adjust="none"
       font-stretch="normal"
       font-weight="normal"
       font-variant="normal"
       font-style="normal"
       stroke-miterlimit="10.433"
       xml:space="preserve"
       transform="matrix(1.0629921,0,0,-1.0629921,-186.02362,789.27165)"
       id="g7479"
       style="font-style:normal;font-variant:normal;font-weight:normal;font-stretch:normal;letter-spacing:normal;word-spacing:normal;text-anchor:start;fill:none;fill-opacity:1;fill-rule:evenodd;stroke:#000000;stroke-linecap:butt;stroke-linejoin:miter;stroke-miterlimit:10.43299961;stroke-dasharray:none;stroke-dashoffset:0;stroke-opacity:1"><path
         id="path7481"
         d="m 477.12,394.22 0.07,0 0.07,0 0.07,0 0.06,0 0.07,0 0.06,0 0.06,0 0.05,0 0.06,0 0.05,0.01 0.05,0 0.05,0 0.1,0 0.09,0.01 0.08,0.01 0.08,0.01 0.07,0.01 0.07,0.01 0.06,0.02 0.06,0.02 0.06,0.02 0.05,0.02 0.05,0.03 0.04,0.03 0.05,0.03 0.04,0.03 0.04,0.04 0.04,0.04 0.04,0.05 0.03,0.05 0.04,0.05 0.04,0.06 0.04,0.06 0.03,0.07 0.04,0.07 0.05,0.08 0.04,0.08 0.04,0.08 27.25,56.89 c 0.35,0.65 0.35,0.75 0.35,0.9 0,0.54 -0.4,0.99 -1,0.99 -0.65,0 -0.85,-0.45 -1.09,-0.99 l -25.7,-53.6 -10.62,24.71 -6.92,-5.34 0.75,-0.79 3.53,2.69 z"
         inkscape:connector-curvature="0"
         style="fill:#000000;stroke-width:0" /><polyline
         id="polyline7483"
         points="505,452 555.04,452 555.04,454.04 505,454.04 "
         style="fill:#000000;fill-rule:nonzero;stroke-width:0" /><path
         id="path7485"
         d="m 531.95,436.39 0.04,0.15 0.03,0.14 0.04,0.14 0.03,0.13 0.04,0.12 0.03,0.12 0.04,0.11 0.04,0.11 0.04,0.1 0.04,0.09 0.05,0.09 0.06,0.08 0.05,0.08 0.07,0.07 0.06,0.07 0.08,0.06 0.08,0.06 0.09,0.05 0.1,0.05 0.1,0.04 0.12,0.04 0.12,0.03 0.14,0.03 0.07,0.02 0.07,0.01 0.08,0.01 0.08,0.02 0.08,0.01 0.08,0 0.09,0.01 0.09,0.01 0.1,0.01 0.1,0 0.1,0.01 0.1,0 0.11,0.01 0.11,0 0.12,0 0.12,0.01 0.12,0 0.13,0 c 0.79,0 1.34,0 1.34,0.95 0,0.44 -0.3,0.59 -0.69,0.59 l -12.86,0 c -0.45,0 -1.04,0 -1.04,-0.99 0,-0.55 0.4,-0.55 1.69,-0.55 1.15,0 1.64,0 2.89,-0.1 1.2,-0.15 1.54,-0.3 1.54,-1 0,-0.3 -0.09,-0.65 -0.2,-1.04 l -5.72,-22.87 c -1.2,-4.83 -4.59,-7.47 -7.18,-7.47 -1.29,0 -3.93,0.5 -4.73,3.09 0.15,-0.05 0.5,-0.05 0.6,-0.05 1.94,0 3.24,1.69 3.24,3.19 0,1.59 -1.35,2.09 -2.19,2.09 -0.9,0 -3.34,-0.6 -3.34,-3.99 0,-3.08 2.64,-5.43 6.57,-5.43 4.59,0 9.77,3.29 11.01,8.22 z"
         inkscape:connector-curvature="0"
         style="fill:#000000;stroke-width:0" /><path
         id="path7487"
         d="m 550.61,405.35 -1.19,0 c -0.1,-0.77 -0.45,-2.83 -0.9,-3.18 -0.28,-0.21 -2.97,-0.21 -3.45,-0.21 l -6.42,0 c 3.66,3.25 4.88,4.22 6.97,5.86 2.58,2.06 4.99,4.22 4.99,7.54 0,4.21 -3.7,6.79 -8.16,6.79 -4.33,0 -7.25,-3.03 -7.25,-6.24 0,-1.78 1.5,-1.95 1.84,-1.95 0.84,0 1.86,0.59 1.86,1.85 0,0.62 -0.25,1.85 -2.06,1.85 1.08,2.47 3.45,3.24 5.09,3.24 3.48,0 5.3,-2.72 5.3,-5.54 0,-3.04 -2.16,-5.45 -3.28,-6.7 l -8.4,-8.3 c -0.35,-0.31 -0.35,-0.38 -0.35,-1.36 l 14.36,0 z"
         inkscape:connector-curvature="0"
         style="fill:#000000;stroke-width:0" /></g>  </g>
</svg>
